<?xml version="1.0" encoding="iso-8859-1"?>
<!-- Generator: Adobe Illustrator 26.0.1, SVG Export Plug-In . SVG Version: 6.00 Build 0)  -->
<svg version="1.1" xmlns="http://www.w3.org/2000/svg" xmlns:xlink="http://www.w3.org/1999/xlink" x="0px" y="0px"
	 viewBox="0 0 324 179" style="enable-background:new 0 0 324 179;" xml:space="preserve">
<g id="AESS">
	<path style="fill:#666666;" d="M100.508,127.886c0,0,0-44.731,0-49.515c0-6.555-8.254-15.57-17.272-15.742
		c-4.06-0.078-21.86,0-25.552,0c-6.996,0-15.498,9.197-15.497,15.972c0.001,3.977,0,49.602,0,49.602l11.364,0.052v-13.572
		l35.383,0.03v13.201L100.508,127.886z M53.551,103.077c0,0,0-21.625,0-23.419c0-3.271,3.074-5.769,6.137-5.706
		c2.125,0.044,21.938,0,23.688,0s5.621,2.312,5.559,5.625s0,23.438,0,23.438L53.551,103.077z"/>
	<path style="fill:#666666;" d="M275.616,62.798h-89.294c-10.586,0-19.164,8.572-19.164,19.155c0,10.586,8.578,19.134,19.164,19.134
		c0,0,17.212,0,20.779,0c4.273,0,7.637,3.434,7.637,7.707c0,4.273-3.464,7.736-7.737,7.736l-81.163-0.13
		c-3.92,0-6.583-2.878-6.583-5.774c0-2.069,0-9.328,0-9.328h43.621V89.74h-43.543c0,0-0.041-8.121-0.056-10.019
		c-0.021-2.789,2.97-5.716,7.561-5.731c3.936-0.012,35.995,0,35.995,0l0.01-11.448c0,0-34.435-0.123-39.901,0
		c-7.255,0.163-15.509,9.435-15.509,15.75c0,4.613,0,24.927,0,32.918c0,9.154,8.393,16.782,17.012,16.782l82.818,0.012
		c10.586,0,19.164-8.578,19.164-19.161c0-10.586-8.554-19.21-19.14-19.122c-3.524,0.029-17.411,0.063-20.797,0
		c-4.273,0-7.643-3.445-7.643-7.719c0-4.273,3.464-7.736,7.737-7.736l0.019-0.008c3.521,0,38.564,0.149,38.564,0.149
		c-0.989,2.312-1.553,4.871-1.553,7.546c0,10.586,8.578,19.164,19.164,19.164c0,0,16.622-0.06,20.189-0.06
		c4.273,0,7.645,3.463,7.645,7.736c0,4.273-3.464,7.695-7.737,7.695h-0.02c-3.52,0-32.481,0-32.481,0v11.503l32.764,0.012
		c10.586,0,19.164-8.578,19.164-19.161c0-10.586-8.569-19.21-19.155-19.122c-3.525,0.029-16.813,0.063-20.199,0
		c-4.273,0-7.644-3.445-7.644-7.719c0-4.273,3.464-7.695,7.737-7.695h0.019c3.521,0,32.555,0,32.555,0V62.798z"/>
</g>
<g id="AESS_copy">
	<path style="opacity:0.7;fill:#AAAAAA;" d="M83.235,62.629c-4.06-0.078-21.86,0-25.552,0c-6.996,0-15.498,9.197-15.497,15.972
		c0,0.993,0,4.584,0,9.413c3.707,0.488,7.5,0.953,11.363,1.397v-9.753c0-3.271,3.074-5.769,6.137-5.706
		c2.125,0.044,21.938,0,23.688,0s5.621,2.312,5.559,5.625c-0.032,1.671-0.031,7.62-0.023,13.106
		c3.816,0.274,7.686,0.526,11.598,0.759V78.371C100.508,71.816,92.254,62.801,83.235,62.629z M243.042,74.307h0.019
		c3.521,0,32.555,0,32.555,0V62.798h-89.294c-10.586,0-19.164,8.572-19.164,19.155c0,5.181,2.063,9.865,5.403,13.307
		c16.089-0.116,31.737-0.569,46.757-1.33c-3.286-2.659-7.467-4.247-12.03-4.209c-3.524,0.029-17.411,0.063-20.797,0
		c-4.273,0-7.643-3.445-7.643-7.719c0-4.273,3.464-7.736,7.737-7.736l0.019-0.008c3.521,0,38.564,0.149,38.564,0.149
		c-0.989,2.312-1.553,4.871-1.553,7.546c0,4.334,1.455,8.317,3.879,11.527c14.017-0.825,27.441-1.916,40.118-3.246
		c-1.435-0.335-2.925-0.526-4.465-0.514c-3.525,0.029-16.813,0.063-20.199,0c-4.273,0-7.644-3.445-7.644-7.719
		C235.305,77.729,238.769,74.307,243.042,74.307z M119.333,89.74c0,0-0.041-8.121-0.056-10.019c-0.021-2.789,2.97-5.716,7.561-5.731
		c3.936-0.012,35.995,0,35.995,0l0.01-11.448c0,0-34.435-0.123-39.901,0c-7.255,0.163-15.509,9.435-15.509,15.75v15.537
		c17.696,0.93,36.274,1.436,55.44,1.46l-0.039-5.549H119.333z"/>
	<g>
		<g>
			<path style="fill:#999999;" d="M290.557,129.616c-2.389,0-4.332-1.943-4.332-4.332c0-2.388,1.943-4.331,4.332-4.331
				c2.388,0,4.331,1.943,4.331,4.331C294.888,127.673,292.944,129.616,290.557,129.616z M290.557,121.443
				c-2.118,0-3.842,1.724-3.842,3.841c0,2.118,1.724,3.842,3.842,3.842c2.117,0,3.841-1.724,3.841-3.842
				C294.397,123.167,292.674,121.443,290.557,121.443z"/>
		</g>
	</g>
	<g>
		<g>
			<g>
				<path style="fill:#999999;" d="M288.778,127.394v-4.276h1.896c0.381,0,0.671,0.039,0.869,0.115
					c0.198,0.077,0.357,0.213,0.476,0.407c0.118,0.194,0.178,0.409,0.178,0.645c0,0.304-0.098,0.56-0.294,0.768
					c-0.197,0.208-0.5,0.34-0.91,0.396c0.149,0.072,0.264,0.143,0.341,0.213c0.165,0.151,0.322,0.341,0.47,0.568l0.744,1.164h-0.712
					l-0.565-0.89c-0.166-0.257-0.302-0.453-0.409-0.589c-0.106-0.137-0.202-0.231-0.287-0.286c-0.084-0.055-0.171-0.093-0.258-0.113
					c-0.064-0.014-0.169-0.021-0.315-0.021h-0.656v1.898H288.778z M289.344,125.005h1.217c0.259,0,0.461-0.027,0.607-0.08
					c0.146-0.054,0.257-0.14,0.332-0.257c0.076-0.118,0.114-0.245,0.114-0.384c0-0.202-0.073-0.368-0.221-0.499
					c-0.146-0.13-0.378-0.195-0.695-0.195h-1.354V125.005z"/>
			</g>
		</g>
	</g>
</g>
<g id="FINAL_curve">
	<path style="fill:#C6C6C6;" d="M222.189,62.82c3.25-9,2.949-18.021-0.564-23.243c-7.729-11.486-20.261-14.02-38.386-13.895
		c-12.544,0.875-30.364,4.583-39.364,8.02c1.195-4.731,3.928-8.948,3.928-8.948c-2.412,2.041-18.044,13.923-18.044,13.923
		s21.312,0.478,23.702,0.478C146.962,36.766,144,34.39,144,34.39s18.712-5.917,36.188-4.687c11.88,0.836,20.312,3.625,26.799,12.491
		c3.541,4.841,4.261,12.543,1.677,20.627C211.319,62.836,219.147,62.914,222.189,62.82z"/>
	<path style="fill:#C6C6C6;" d="M179.921,103.097c-10.959,9.908-31.625,25.75-55.75,35.75c-31.952,13.244-62.5,19.75-83.376,5.597
		c10.001,11.153,39.617,16.245,85.626-1.722c34.25-13.375,48.804-25.686,62.188-36.562c12.781-10.387,22.621-21.881,28.536-31.905
		c-4.07,0-8.608,0.036-12.75,0.036C199.428,83.773,191.199,92.899,179.921,103.097z"/>
	<g>
		<path style="fill:#999999;" d="M196.069,143.632c0-0.384,0.017-1.463,0.017-2.327c0-2.23-0.009-3.802-0.059-6.032l0.042-0.061
			h0.218c0.244,0,0.412-0.012,0.656-0.023l0.051,0.06c-0.025,0.96-0.025,1.632-0.025,2.591c0,2.027,0.008,3.442,0.067,5.769
			l-0.042,0.072h-0.278c-0.227,0-0.378,0.012-0.604,0.024L196.069,143.632z"/>
		<path style="fill:#999999;" d="M200.531,142.708c0.563,0,0.95-0.036,1.513-0.06l0.051,0.072c-0.025,0.323-0.033,0.551-0.042,0.887
			l-0.051,0.072h-1.731c-0.429,0-0.866,0.024-1.127,0.024l-0.05-0.061c0.017-0.827,0.017-1.415,0.017-2.255
			c0-2.267-0.017-3.861-0.067-6.128l0.042-0.061c0.244,0,0.841,0.012,1.328,0.012c0.58,0,0.984-0.012,1.556-0.035l0.051,0.071
			c-0.018,0.312-0.025,0.54-0.034,0.852l-0.05,0.072c-0.572-0.036-0.968-0.036-1.539-0.036h-0.438c0,0.995,0.009,1.691,0.018,2.687
			h0.571c0.429,0,0.74-0.012,1.295-0.036l0.05,0.072c-0.017,0.3-0.024,0.516-0.033,0.827l-0.059,0.061
			c-0.277-0.013-0.471-0.013-0.748-0.013h-1.068c0,1.104,0.009,1.871,0.025,2.975H200.531z"/>
		<path style="fill:#999999;" d="M205.302,142.708c0.563,0,0.95-0.036,1.513-0.06l0.051,0.072c-0.025,0.323-0.033,0.551-0.042,0.887
			l-0.051,0.072h-1.731c-0.429,0-0.866,0.024-1.127,0.024l-0.05-0.061c0.017-0.827,0.017-1.415,0.017-2.255
			c0-2.267-0.017-3.861-0.067-6.128l0.042-0.061c0.244,0,0.841,0.012,1.328,0.012c0.58,0,0.984-0.012,1.556-0.035l0.051,0.071
			c-0.018,0.312-0.025,0.54-0.034,0.852l-0.05,0.072c-0.572-0.036-0.968-0.036-1.539-0.036h-0.438c0,0.995,0.009,1.691,0.018,2.687
			h0.571c0.429,0,0.74-0.012,1.295-0.036l0.05,0.072c-0.017,0.3-0.024,0.516-0.033,0.827l-0.059,0.061
			c-0.277-0.013-0.471-0.013-0.748-0.013h-1.068c0,1.104,0.009,1.871,0.025,2.975H205.302z"/>
		<path style="fill:#999999;" d="M210.074,142.708c0.563,0,0.95-0.036,1.513-0.06l0.051,0.072c-0.025,0.323-0.033,0.551-0.042,0.887
			l-0.051,0.072h-1.731c-0.429,0-0.866,0.024-1.127,0.024l-0.05-0.061c0.017-0.827,0.017-1.415,0.017-2.255
			c0-2.267-0.017-3.861-0.067-6.128l0.042-0.061c0.244,0,0.841,0.012,1.328,0.012c0.58,0,0.984-0.012,1.556-0.035l0.051,0.071
			c-0.018,0.312-0.025,0.54-0.034,0.852l-0.05,0.072c-0.572-0.036-0.968-0.036-1.539-0.036h-0.438c0,0.995,0.009,1.691,0.018,2.687
			h0.571c0.429,0,0.74-0.012,1.295-0.036l0.05,0.072c-0.017,0.3-0.024,0.516-0.033,0.827l-0.059,0.061
			c-0.277-0.013-0.471-0.013-0.748-0.013h-1.068c0,1.104,0.009,1.871,0.025,2.975H210.074z"/>
		<path style="fill:#999999;" d="M216.776,141.485c-0.151,0.791-0.252,1.331-0.353,2.122l-0.06,0.072
			c-0.067,0-0.219-0.012-0.327-0.012c-0.169,0-0.286,0.012-0.454,0.023l-0.042-0.071c0.21-0.948,0.345-1.644,0.538-2.615
			l0.604-3.046c0.202-0.996,0.328-1.703,0.53-2.687l0.05-0.061c0.388,0,0.656-0.012,1.034-0.023l0.06,0.06
			c0.084,0.504,1.228,6.393,1.631,8.348l-0.042,0.072c-0.319,0.012-0.547,0.012-0.874,0.036l-0.051-0.072
			c-0.126-0.84-0.228-1.439-0.37-2.267l-0.051-0.288h-1.219c-0.193,0-0.336,0-0.529,0.012L216.776,141.485z M218.088,138.259
			c-0.143-0.768-0.227-1.308-0.37-2.087c-0.143,0.779-0.235,1.331-0.723,3.981h0.706c0.27,0,0.463,0,0.731-0.012L218.088,138.259z"
			/>
		<path style="fill:#999999;" d="M222.816,142.708c0.563,0,0.95-0.036,1.513-0.06l0.051,0.072c-0.025,0.323-0.033,0.551-0.042,0.887
			l-0.051,0.072h-1.731c-0.429,0-0.866,0.024-1.127,0.024l-0.05-0.061c0.017-0.827,0.017-1.415,0.017-2.255
			c0-2.267-0.017-3.861-0.067-6.128l0.042-0.061c0.244,0,0.841,0.012,1.328,0.012c0.58,0,0.984-0.012,1.556-0.035l0.051,0.071
			c-0.018,0.312-0.025,0.54-0.034,0.852l-0.05,0.072c-0.572-0.036-0.968-0.036-1.539-0.036h-0.438c0,0.995,0.009,1.691,0.018,2.687
			h0.571c0.429,0,0.74-0.012,1.295-0.036l0.05,0.072c-0.017,0.3-0.024,0.516-0.033,0.827l-0.059,0.061
			c-0.277-0.013-0.471-0.013-0.748-0.013h-1.068c0,1.104,0.009,1.871,0.025,2.975H222.816z"/>
		<path style="fill:#999999;" d="M227.023,140.021c0.009,1.199,0,2.279,0.051,3.586l-0.042,0.072h-0.151
			c-0.253,0-0.438,0.012-0.689,0.024l-0.051-0.072c0.025-0.983,0.025-1.667,0.025-2.65c0-0.768-0.034-5.109-0.067-5.709l0.042-0.061
			c0.555-0.012,0.941-0.048,1.496-0.048c0.488,0,1.716,0.013,1.716,2.255c0,1.056-0.261,2.015-1.068,2.351
			c0.647,1.799,1.16,3.215,1.43,3.802l-0.025,0.084c-0.353,0.013-0.589,0.024-0.934,0.061l-0.075-0.072
			c-0.059-0.239-0.95-2.962-1.169-3.634c-0.143,0.012-0.252,0.012-0.395,0.012H227.023z M227.233,139.134
			c0.589,0,0.908-0.191,1.102-0.659c0.143-0.348,0.151-0.804,0.151-0.936c0-1.355-0.589-1.451-0.983-1.451
			c-0.211,0-0.421,0.024-0.479,0.036c-0.009,0.323-0.009,0.563-0.009,0.888v2.122H227.233z"/>
		<path style="fill:#999999;" d="M233.257,143.823c-1.303,0-2.346-1.331-2.346-4.39c0-2.998,0.992-4.365,2.296-4.365
			c1.286,0,2.32,1.283,2.32,4.342C235.527,141.053,235.199,143.823,233.257,143.823z M233.24,136.004
			c-1.261,0-1.421,2.339-1.421,3.37c0,0.911,0.143,3.502,1.43,3.502c1.27,0,1.37-2.507,1.37-3.43
			C234.619,138.295,234.426,136.004,233.24,136.004z"/>
		<path style="fill:#999999;" d="M239.811,136.556c-0.127-0.18-0.412-0.576-0.959-0.576c-0.58,0-0.899,0.528-0.899,1.224
			c0,0.636,0.235,0.96,0.799,1.487l0.37,0.348c0.529,0.504,1.034,1.067,1.034,2.339c0,1.224-0.454,2.459-1.816,2.459
			c-0.37,0-0.832-0.108-1.219-0.42l-0.051-0.12c0.025-0.336,0.042-0.684,0.051-1.02l0.075-0.036c0.379,0.6,0.85,0.672,1.085,0.672
			c0.697,0,1-0.708,1-1.415c0-0.72-0.311-1.151-0.781-1.583l-0.379-0.348c-0.546-0.504-1.042-1.08-1.042-2.255
			c0-0.564,0.143-2.255,1.681-2.255c0.64,0,1.01,0.275,1.144,0.371l0.025,0.108c-0.025,0.324-0.042,0.647-0.051,0.972
			L239.811,136.556z"/>
		<path style="fill:#999999;" d="M242.934,143.68h-0.21c-0.235,0-0.403,0.012-0.631,0.024l-0.05-0.072
			c0.017-0.899,0.024-1.547,0.024-2.446c0-2.195-0.008-3.73-0.05-5.913l0.042-0.061h0.143c0.438,0,0.824-0.035,1.354-0.035
			c1.11,0,1.698,0.899,1.698,2.53c0,2.303-1.126,2.734-1.899,2.734h-0.421c0.009,1.056,0,2.111,0.042,3.166L242.934,143.68z
			 M243.127,139.506c0.463,0,1.244-0.072,1.244-1.823c0-1.427-0.562-1.595-1.034-1.595c-0.143,0-0.285,0.012-0.42,0.024
			c0.009,1.259,0.009,2.135,0.009,3.394H243.127z"/>
		<path style="fill:#999999;" d="M247.082,141.485c-0.151,0.791-0.252,1.331-0.353,2.122l-0.06,0.072
			c-0.067,0-0.219-0.012-0.327-0.012c-0.169,0-0.286,0.012-0.454,0.023l-0.042-0.071c0.21-0.948,0.345-1.644,0.538-2.615
			l0.604-3.046c0.202-0.996,0.328-1.703,0.53-2.687l0.05-0.061c0.388,0,0.656-0.012,1.034-0.023l0.06,0.06
			c0.084,0.504,1.228,6.393,1.631,8.348l-0.042,0.072c-0.319,0.012-0.547,0.012-0.875,0.036l-0.05-0.072
			c-0.126-0.84-0.228-1.439-0.37-2.267l-0.051-0.288h-1.219c-0.193,0-0.336,0-0.529,0.012L247.082,141.485z M248.394,138.259
			c-0.143-0.768-0.227-1.308-0.37-2.087c-0.143,0.779-0.235,1.331-0.723,3.981h0.706c0.27,0,0.463,0,0.731-0.012L248.394,138.259z"
			/>
		<path style="fill:#999999;" d="M255.225,135.512c-0.025,0.372-0.042,0.636-0.06,1.02l-0.067,0.049
			c-0.235-0.265-0.504-0.517-1.025-0.517c-0.983,0-1.707,1.164-1.707,3.454c0,2.075,0.673,3.286,1.732,3.286
			c0.547,0,0.874-0.3,1.109-0.575l0.067,0.048c-0.025,0.396-0.033,0.672-0.042,1.067l-0.042,0.084
			c-0.219,0.204-0.655,0.408-1.219,0.408c-1.539,0-2.548-1.583-2.548-4.378c0-2.039,0.664-4.401,2.573-4.401
			c0.562,0,0.967,0.204,1.193,0.348L255.225,135.512z"/>
		<path style="fill:#999999;" d="M258.431,142.708c0.563,0,0.95-0.036,1.513-0.06l0.051,0.072c-0.025,0.323-0.033,0.551-0.042,0.887
			l-0.051,0.072h-1.731c-0.429,0-0.866,0.024-1.127,0.024l-0.05-0.061c0.017-0.827,0.017-1.415,0.017-2.255
			c0-2.267-0.017-3.861-0.067-6.128l0.042-0.061c0.244,0,0.841,0.012,1.328,0.012c0.58,0,0.984-0.012,1.556-0.035l0.051,0.071
			c-0.018,0.312-0.025,0.54-0.034,0.852l-0.05,0.072c-0.572-0.036-0.968-0.036-1.539-0.036h-0.438c0,0.995,0.009,1.691,0.018,2.687
			h0.571c0.429,0,0.74-0.012,1.295-0.036l0.05,0.072c-0.017,0.3-0.024,0.516-0.033,0.827l-0.059,0.061
			c-0.277-0.013-0.471-0.013-0.748-0.013h-1.068c0,1.104,0.009,1.871,0.025,2.975H258.431z"/>
		<path style="fill:#999999;" d="M265.134,141.485c-0.151,0.791-0.252,1.331-0.353,2.122l-0.06,0.072
			c-0.067,0-0.219-0.012-0.327-0.012c-0.169,0-0.286,0.012-0.454,0.023l-0.042-0.071c0.21-0.948,0.345-1.644,0.538-2.615
			l0.604-3.046c0.202-0.996,0.328-1.703,0.53-2.687l0.05-0.061c0.388,0,0.656-0.012,1.034-0.023l0.06,0.06
			c0.084,0.504,1.228,6.393,1.631,8.348l-0.042,0.072c-0.319,0.012-0.547,0.012-0.874,0.036l-0.051-0.072
			c-0.126-0.84-0.228-1.439-0.37-2.267l-0.051-0.288h-1.219c-0.193,0-0.336,0-0.529,0.012L265.134,141.485z M266.445,138.259
			c-0.143-0.768-0.227-1.308-0.37-2.087c-0.143,0.779-0.235,1.331-0.723,3.981h0.706c0.27,0,0.463,0,0.731-0.012L266.445,138.259z"
			/>
		<path style="fill:#999999;" d="M273.057,135.212c0.261,0,0.438-0.012,0.689-0.023l0.042,0.06
			c-0.008,0.899-0.008,1.523-0.008,2.411c0,2.207,0.008,3.742,0.059,5.948l-0.051,0.072c-0.059-0.012-0.109-0.012-0.168-0.012
			c-0.277,0-0.471,0.023-0.757,0.036l-0.059-0.061c-0.252-0.779-0.463-1.319-0.731-2.087l-1.631-4.737
			c0.05,4.306,0.059,5.505,0.101,6.788l-0.051,0.072c-0.252,0-0.429,0.012-0.689,0.024l-0.05-0.072
			c0.017-0.779,0.017-1.331,0.017-2.111c0-2.087-0.033-4.365-0.067-6.236l0.051-0.072c0.345,0,0.588,0,0.941-0.023l0.059,0.06
			c0.404,1.176,1.22,3.431,2.363,6.74c-0.051-4.377-0.067-5.492-0.102-6.716L273.057,135.212z"/>
		<path style="fill:#999999;" d="M275.91,143.632c0-0.899,0.017-1.415,0.017-1.931c0-2.375-0.009-4.042-0.067-6.429l0.042-0.061
			c0.571,0,0.807-0.023,1.547-0.023c0.631,0,0.976,0.096,1.27,0.275c0.992,0.6,1.27,2.195,1.27,3.73
			c0,0.804-0.067,1.991-0.462,2.938c-0.64,1.535-1.648,1.559-2.531,1.559c-0.563,0-0.815,0.013-1.042,0.013L275.91,143.632z
			 M277.339,142.721c0.294,0,0.58-0.024,0.866-0.252c0.613-0.492,0.866-1.68,0.866-3.274c0-1.499-0.235-2.543-0.9-2.915
			c-0.21-0.119-0.471-0.132-0.681-0.132c-0.269,0-0.697,0.013-0.697,0.013v4.306c0,0.827,0.008,1.415,0.033,2.255H277.339z"/>
		<path style="fill:#999999;" d="M159.716,157.108c0.563,0,0.95-0.036,1.513-0.06l0.051,0.072c-0.025,0.323-0.034,0.551-0.042,0.887
			l-0.051,0.072h-1.732c-0.429,0-0.866,0.024-1.127,0.024l-0.05-0.061c0.017-0.827,0.017-1.415,0.017-2.255
			c0-2.267-0.017-3.861-0.067-6.128l0.042-0.061c0.244,0,0.841,0.012,1.328,0.012c0.581,0,0.984-0.012,1.555-0.035l0.051,0.071
			c-0.017,0.312-0.025,0.54-0.033,0.852l-0.051,0.072c-0.572-0.036-0.967-0.036-1.539-0.036h-0.437c0,0.995,0.008,1.691,0.017,2.687
			h0.572c0.429,0,0.74-0.012,1.294-0.036l0.051,0.072c-0.017,0.3-0.025,0.516-0.033,0.827l-0.059,0.061
			c-0.278-0.013-0.471-0.013-0.749-0.013h-1.068c0,1.104,0.009,1.871,0.025,2.975H159.716z"/>
		<path style="fill:#999999;" d="M164.369,157.108c0.547,0,0.934-0.036,1.488-0.071l0.042,0.071
			c-0.017,0.336-0.025,0.576-0.033,0.912l-0.051,0.071c-0.252-0.012-0.429-0.012-0.673-0.012h-1.151c-0.328,0-0.555,0-0.883,0.024
			l-0.051-0.072c0.009-0.779,0.009-1.319,0.009-2.099c0-0.864-0.017-5.602-0.051-6.261l0.051-0.061c0.311,0,0.538-0.012,0.857-0.023
			l0.051,0.06c-0.025,0.936-0.025,1.583-0.025,2.519c0,0.3,0.008,4.702,0.025,4.941H164.369z"/>
		<path style="fill:#999999;" d="M168.914,157.108c0.563,0,0.95-0.036,1.513-0.06l0.051,0.072c-0.025,0.323-0.033,0.551-0.042,0.887
			l-0.051,0.072h-1.731c-0.429,0-0.866,0.024-1.127,0.024l-0.05-0.061c0.017-0.827,0.017-1.415,0.017-2.255
			c0-2.267-0.017-3.861-0.067-6.128l0.042-0.061c0.244,0,0.841,0.012,1.328,0.012c0.58,0,0.984-0.012,1.556-0.035l0.051,0.071
			c-0.018,0.312-0.025,0.54-0.034,0.852l-0.05,0.072c-0.572-0.036-0.968-0.036-1.539-0.036h-0.438c0,0.995,0.009,1.691,0.018,2.687
			h0.571c0.429,0,0.74-0.012,1.295-0.036l0.05,0.072c-0.017,0.3-0.024,0.516-0.033,0.827l-0.059,0.061
			c-0.277-0.013-0.471-0.013-0.748-0.013h-1.068c0,1.104,0.009,1.871,0.025,2.975H168.914z"/>
		<path style="fill:#999999;" d="M175.688,149.912c-0.025,0.372-0.042,0.636-0.06,1.02l-0.067,0.049
			c-0.235-0.265-0.504-0.517-1.025-0.517c-0.983,0-1.707,1.164-1.707,3.454c0,2.075,0.673,3.286,1.732,3.286
			c0.547,0,0.874-0.3,1.109-0.575l0.067,0.048c-0.025,0.396-0.033,0.672-0.042,1.067l-0.042,0.084
			c-0.219,0.204-0.655,0.408-1.219,0.408c-1.539,0-2.548-1.583-2.548-4.378c0-2.039,0.664-4.401,2.573-4.401
			c0.562,0,0.967,0.204,1.193,0.348L175.688,149.912z"/>
		<path style="fill:#999999;" d="M178.263,158.032c0.017-0.768,0.017-1.308,0.017-2.075v-5.409
			c-0.504,0.013-0.857,0.013-1.361,0.048l-0.051-0.071c0.017-0.312,0.025-0.528,0.025-0.852l0.05-0.061h1.455
			c0.782,0,1.328-0.012,2.102-0.035l0.042,0.071c0,0.264-0.025,0.54-0.033,0.864l-0.059,0.071c-0.438-0.048-0.749-0.048-1.186-0.048
			h-0.118v1.199c0,2.111,0.017,4.138,0.059,6.272l-0.05,0.072h-0.228c-0.227,0-0.387,0.012-0.613,0.024L178.263,158.032z"/>
		<path style="fill:#999999;" d="M182.841,154.422c0.009,1.199,0,2.279,0.051,3.586l-0.042,0.072h-0.151
			c-0.253,0-0.438,0.012-0.689,0.024l-0.051-0.072c0.025-0.983,0.025-1.667,0.025-2.65c0-0.768-0.034-5.109-0.067-5.709l0.042-0.061
			c0.555-0.012,0.941-0.048,1.496-0.048c0.488,0,1.716,0.013,1.716,2.255c0,1.056-0.261,2.015-1.068,2.351
			c0.647,1.799,1.16,3.215,1.43,3.802l-0.025,0.084c-0.353,0.013-0.589,0.024-0.934,0.061l-0.075-0.072
			c-0.059-0.239-0.95-2.962-1.169-3.634c-0.143,0.012-0.252,0.012-0.395,0.012H182.841z M183.051,153.534
			c0.589,0,0.908-0.191,1.102-0.659c0.143-0.348,0.151-0.804,0.151-0.936c0-1.355-0.589-1.451-0.983-1.451
			c-0.211,0-0.421,0.024-0.479,0.036c-0.009,0.323-0.009,0.563-0.009,0.888v2.122H183.051z"/>
		<path style="fill:#999999;" d="M189.074,158.224c-1.303,0-2.346-1.331-2.346-4.39c0-2.998,0.992-4.365,2.296-4.365
			c1.286,0,2.32,1.283,2.32,4.342C191.345,155.453,191.017,158.224,189.074,158.224z M189.058,150.404
			c-1.261,0-1.421,2.339-1.421,3.37c0,0.911,0.143,3.502,1.43,3.502c1.27,0,1.37-2.507,1.37-3.43
			C190.437,152.695,190.243,150.404,189.058,150.404z"/>
		<path style="fill:#999999;" d="M196.408,149.612c0.261,0,0.438-0.012,0.689-0.023l0.042,0.06
			c-0.008,0.899-0.008,1.523-0.008,2.411c0,2.207,0.008,3.742,0.059,5.948l-0.051,0.072c-0.059-0.012-0.109-0.012-0.168-0.012
			c-0.277,0-0.471,0.023-0.757,0.036l-0.059-0.061c-0.252-0.779-0.463-1.319-0.731-2.087l-1.631-4.737
			c0.05,4.306,0.059,5.505,0.101,6.788l-0.051,0.072c-0.252,0-0.429,0.012-0.689,0.024l-0.05-0.072
			c0.017-0.779,0.017-1.331,0.017-2.111c0-2.087-0.033-4.365-0.067-6.236l0.051-0.072c0.345,0,0.588,0,0.941-0.023l0.059,0.06
			c0.404,1.176,1.22,3.431,2.363,6.74c-0.051-4.377-0.067-5.492-0.102-6.716L196.408,149.612z"/>
		<path style="fill:#999999;" d="M199.261,158.032c0-0.384,0.017-1.463,0.017-2.327c0-2.23-0.009-3.802-0.059-6.032l0.042-0.061
			h0.218c0.244,0,0.412-0.012,0.656-0.023l0.051,0.06c-0.025,0.96-0.025,1.632-0.025,2.591c0,2.027,0.008,3.442,0.067,5.769
			l-0.042,0.072h-0.278c-0.227,0-0.378,0.012-0.604,0.024L199.261,158.032z"/>
		<path style="fill:#999999;" d="M205.725,149.912c-0.025,0.372-0.042,0.636-0.06,1.02l-0.067,0.049
			c-0.235-0.265-0.504-0.517-1.025-0.517c-0.983,0-1.707,1.164-1.707,3.454c0,2.075,0.673,3.286,1.732,3.286
			c0.547,0,0.874-0.3,1.109-0.575l0.067,0.048c-0.025,0.396-0.033,0.672-0.042,1.067l-0.042,0.084
			c-0.219,0.204-0.655,0.408-1.219,0.408c-1.539,0-2.548-1.583-2.548-4.378c0-2.039,0.664-4.401,2.573-4.401
			c0.562,0,0.967,0.204,1.193,0.348L205.725,149.912z"/>
		<path style="fill:#999999;" d="M212.796,150.956c-0.127-0.18-0.412-0.576-0.959-0.576c-0.58,0-0.899,0.528-0.899,1.224
			c0,0.636,0.235,0.96,0.799,1.487l0.37,0.348c0.529,0.504,1.034,1.067,1.034,2.339c0,1.224-0.454,2.459-1.816,2.459
			c-0.37,0-0.832-0.108-1.219-0.42l-0.051-0.12c0.025-0.336,0.042-0.684,0.051-1.02l0.075-0.036c0.378,0.6,0.85,0.672,1.085,0.672
			c0.697,0,1-0.708,1-1.415c0-0.72-0.311-1.151-0.781-1.583l-0.379-0.348c-0.547-0.504-1.042-1.08-1.042-2.255
			c0-0.564,0.143-2.255,1.681-2.255c0.64,0,1.01,0.275,1.144,0.371l0.025,0.108c-0.025,0.324-0.042,0.647-0.051,0.972
			L212.796,150.956z"/>
		<path style="fill:#999999;" d="M216.86,151.748c0.261-0.9,0.387-1.355,0.555-2.075l0.06-0.072c0.033,0,0.235,0.012,0.345,0.012
			s0.336-0.012,0.387-0.012l0.033,0.072c-0.126,0.384-0.715,2.278-0.849,2.698l-0.707,2.279c0,0.563,0.018,2.494,0.042,3.357
			l-0.05,0.072c-0.387,0-0.463,0-0.85,0.024l-0.05-0.072c0.024-0.768,0.024-2.782,0.024-3.322c-0.672-2.267-1.328-4.485-1.487-5.001
			l0.033-0.084c0.345-0.013,0.479-0.013,0.857-0.061l0.059,0.072c0.109,0.468,0.303,1.211,0.429,1.679l0.631,2.291L216.86,151.748z"
			/>
		<path style="fill:#999999;" d="M222.161,150.956c-0.127-0.18-0.412-0.576-0.959-0.576c-0.58,0-0.899,0.528-0.899,1.224
			c0,0.636,0.235,0.96,0.799,1.487l0.37,0.348c0.529,0.504,1.034,1.067,1.034,2.339c0,1.224-0.454,2.459-1.816,2.459
			c-0.37,0-0.832-0.108-1.219-0.42l-0.051-0.12c0.025-0.336,0.042-0.684,0.051-1.02l0.075-0.036c0.378,0.6,0.85,0.672,1.085,0.672
			c0.697,0,1-0.708,1-1.415c0-0.72-0.311-1.151-0.781-1.583l-0.379-0.348c-0.547-0.504-1.042-1.08-1.042-2.255
			c0-0.564,0.143-2.255,1.681-2.255c0.64,0,1.01,0.275,1.144,0.371l0.025,0.108c-0.025,0.324-0.042,0.647-0.051,0.972
			L222.161,150.956z"/>
		<path style="fill:#999999;" d="M225.107,158.032c0.017-0.768,0.017-1.308,0.017-2.075v-5.409
			c-0.504,0.013-0.857,0.013-1.361,0.048l-0.051-0.071c0.017-0.312,0.025-0.528,0.025-0.852l0.05-0.061h1.455
			c0.782,0,1.328-0.012,2.102-0.035l0.042,0.071c0,0.264-0.025,0.54-0.033,0.864l-0.059,0.071c-0.438-0.048-0.749-0.048-1.186-0.048
			h-0.118v1.199c0,2.111,0.017,4.138,0.059,6.272l-0.05,0.072h-0.228c-0.227,0-0.387,0.012-0.613,0.024L225.107,158.032z"/>
		<path style="fill:#999999;" d="M230.25,157.108c0.563,0,0.95-0.036,1.513-0.06l0.051,0.072c-0.025,0.323-0.033,0.551-0.042,0.887
			l-0.051,0.072h-1.731c-0.429,0-0.866,0.024-1.127,0.024l-0.05-0.061c0.017-0.827,0.017-1.415,0.017-2.255
			c0-2.267-0.017-3.861-0.067-6.128l0.042-0.061c0.244,0,0.841,0.012,1.328,0.012c0.58,0,0.984-0.012,1.556-0.035l0.051,0.071
			c-0.018,0.312-0.025,0.54-0.034,0.852l-0.05,0.072c-0.572-0.036-0.968-0.036-1.539-0.036h-0.438c0,0.995,0.009,1.691,0.018,2.687
			h0.571c0.429,0,0.74-0.012,1.295-0.036l0.05,0.072c-0.017,0.3-0.024,0.516-0.033,0.827l-0.059,0.061
			c-0.277-0.013-0.471-0.013-0.748-0.013h-1.068c0,1.104,0.009,1.871,0.025,2.975H230.25z"/>
		<path style="fill:#999999;" d="M236.988,151.831c0.144-0.791,0.253-1.354,0.387-2.158l0.06-0.061c0.412,0,0.697-0.012,1.109-0.023
			l0.059,0.06c0.018,1.08,0.034,1.848,0.06,2.927l0.05,1.907c0.034,1.307,0.067,2.23,0.118,3.525l-0.051,0.072h-0.227
			c-0.219,0-0.379,0.012-0.598,0.024l-0.05-0.072c0-1.128-0.009-1.919-0.067-7.424c-0.706,3.934-0.908,4.989-1.32,7.399
			l-0.067,0.072h-0.218c-0.211,0-0.362,0.012-0.572,0.024l-0.059-0.072c-0.144-0.947-0.27-1.607-1.211-7.353
			c-0.117,4.989-0.143,5.829-0.143,7.028v0.3l-0.06,0.072c-0.26,0-0.445,0.012-0.706,0.024l-0.05-0.072
			c0.117-1.919,0.303-7.652,0.303-8.359l0.05-0.061h0.252c0.337,0,0.563-0.012,0.892-0.023l0.067,0.06
			c0.093,0.696,0.193,1.176,0.311,1.859l0.841,4.894L236.988,151.831z"/>
		<path style="fill:#999999;" d="M243.346,150.956c-0.127-0.18-0.412-0.576-0.959-0.576c-0.58,0-0.899,0.528-0.899,1.224
			c0,0.636,0.235,0.96,0.799,1.487l0.37,0.348c0.529,0.504,1.034,1.067,1.034,2.339c0,1.224-0.454,2.459-1.816,2.459
			c-0.37,0-0.832-0.108-1.219-0.42l-0.051-0.12c0.025-0.336,0.042-0.684,0.051-1.02l0.075-0.036c0.379,0.6,0.85,0.672,1.085,0.672
			c0.697,0,1-0.708,1-1.415c0-0.72-0.311-1.151-0.781-1.583l-0.379-0.348c-0.546-0.504-1.042-1.08-1.042-2.255
			c0-0.564,0.143-2.255,1.681-2.255c0.64,0,1.01,0.275,1.144,0.371l0.025,0.108c-0.025,0.324-0.042,0.647-0.051,0.972
			L243.346,150.956z"/>
		<path style="fill:#999999;" d="M250.788,150.956c-0.127-0.18-0.412-0.576-0.959-0.576c-0.58,0-0.899,0.528-0.899,1.224
			c0,0.636,0.235,0.96,0.799,1.487l0.37,0.348c0.529,0.504,1.034,1.067,1.034,2.339c0,1.224-0.454,2.459-1.816,2.459
			c-0.37,0-0.832-0.108-1.219-0.42l-0.051-0.12c0.025-0.336,0.042-0.684,0.051-1.02l0.075-0.036c0.378,0.6,0.85,0.672,1.085,0.672
			c0.697,0,1-0.708,1-1.415c0-0.72-0.311-1.151-0.781-1.583l-0.379-0.348c-0.547-0.504-1.042-1.08-1.042-2.255
			c0-0.564,0.143-2.255,1.681-2.255c0.64,0,1.01,0.275,1.144,0.371l0.025,0.108c-0.025,0.324-0.042,0.647-0.051,0.972
			L250.788,150.956z"/>
		<path style="fill:#999999;" d="M255.005,158.224c-1.303,0-2.346-1.331-2.346-4.39c0-2.998,0.992-4.365,2.296-4.365
			c1.286,0,2.32,1.283,2.32,4.342C257.275,155.453,256.947,158.224,255.005,158.224z M254.988,150.404
			c-1.261,0-1.421,2.339-1.421,3.37c0,0.911,0.143,3.502,1.43,3.502c1.27,0,1.37-2.507,1.37-3.43
			C256.367,152.695,256.174,150.404,254.988,150.404z"/>
		<path style="fill:#999999;" d="M262.634,149.912c-0.025,0.372-0.042,0.636-0.06,1.02l-0.067,0.049
			c-0.235-0.265-0.504-0.517-1.025-0.517c-0.983,0-1.707,1.164-1.707,3.454c0,2.075,0.673,3.286,1.732,3.286
			c0.547,0,0.874-0.3,1.109-0.575l0.067,0.048c-0.025,0.396-0.033,0.672-0.042,1.067l-0.042,0.084
			c-0.219,0.204-0.655,0.408-1.219,0.408c-1.539,0-2.548-1.583-2.548-4.378c0-2.039,0.664-4.401,2.573-4.401
			c0.562,0,0.967,0.204,1.193,0.348L262.634,149.912z"/>
		<path style="fill:#999999;" d="M264.402,158.032c0-0.384,0.017-1.463,0.017-2.327c0-2.23-0.009-3.802-0.059-6.032l0.042-0.061
			h0.218c0.244,0,0.412-0.012,0.656-0.023l0.051,0.06c-0.025,0.96-0.025,1.632-0.025,2.591c0,2.027,0.008,3.442,0.067,5.769
			l-0.042,0.072h-0.278c-0.227,0-0.378,0.012-0.604,0.024L264.402,158.032z"/>
		<path style="fill:#999999;" d="M268.864,157.108c0.563,0,0.95-0.036,1.513-0.06l0.051,0.072c-0.025,0.323-0.033,0.551-0.042,0.887
			l-0.051,0.072h-1.731c-0.429,0-0.866,0.024-1.127,0.024l-0.05-0.061c0.017-0.827,0.017-1.415,0.017-2.255
			c0-2.267-0.017-3.861-0.067-6.128l0.042-0.061c0.244,0,0.841,0.012,1.328,0.012c0.58,0,0.984-0.012,1.556-0.035l0.051,0.071
			c-0.018,0.312-0.025,0.54-0.034,0.852l-0.05,0.072c-0.572-0.036-0.968-0.036-1.539-0.036h-0.438c0,0.995,0.009,1.691,0.018,2.687
			h0.571c0.429,0,0.74-0.012,1.295-0.036l0.05,0.072c-0.017,0.3-0.024,0.516-0.033,0.827l-0.059,0.061
			c-0.277-0.013-0.471-0.013-0.748-0.013h-1.068c0,1.104,0.009,1.871,0.025,2.975H268.864z"/>
		<path style="fill:#999999;" d="M272.996,158.032c0.017-0.768,0.017-1.308,0.017-2.075v-5.409
			c-0.504,0.013-0.857,0.013-1.361,0.048l-0.051-0.071c0.017-0.312,0.025-0.528,0.025-0.852l0.05-0.061h1.455
			c0.782,0,1.328-0.012,2.102-0.035l0.042,0.071c0,0.264-0.025,0.54-0.033,0.864l-0.059,0.071c-0.438-0.048-0.749-0.048-1.186-0.048
			h-0.118v1.199c0,2.111,0.017,4.138,0.059,6.272l-0.05,0.072h-0.228c-0.227,0-0.387,0.012-0.613,0.024L272.996,158.032z"/>
		<path style="fill:#999999;" d="M278.969,151.748c0.261-0.9,0.387-1.355,0.555-2.075l0.06-0.072c0.033,0,0.235,0.012,0.345,0.012
			s0.336-0.012,0.387-0.012l0.033,0.072c-0.126,0.384-0.715,2.278-0.849,2.698l-0.707,2.279c0,0.563,0.018,2.494,0.042,3.357
			l-0.05,0.072c-0.387,0-0.463,0-0.85,0.024l-0.05-0.072c0.024-0.768,0.024-2.782,0.024-3.322c-0.672-2.267-1.328-4.485-1.487-5.001
			l0.033-0.084c0.345-0.013,0.479-0.013,0.857-0.061l0.059,0.072c0.109,0.468,0.303,1.211,0.43,1.679l0.63,2.291L278.969,151.748z"
			/>
	</g>
</g>
</svg>
