<?xml version="1.0" encoding="iso-8859-1"?>
<!-- Generator: Adobe Illustrator 26.0.1, SVG Export Plug-In . SVG Version: 6.00 Build 0)  -->
<svg version="1.1" id="Layer_1" xmlns="http://www.w3.org/2000/svg" xmlns:xlink="http://www.w3.org/1999/xlink" x="0px" y="0px"
	 viewBox="0 0 399.333 136.667" style="enable-background:new 0 0 399.333 136.667;" xml:space="preserve">
<path style="fill:#A7A9AC;" d="M122.954,124.842c-0.076,0-0.154-0.007-0.232-0.024c-0.599-0.128-0.981-0.717-0.853-1.315
	l23.92-112.278c0.126-0.6,0.713-0.987,1.316-0.853c0.599,0.127,0.981,0.716,0.853,1.316l-23.92,112.276
	C123.927,124.485,123.466,124.842,122.954,124.842z"/>
<g>
	<g>
		<path d="M173.904,39.091c-2.698-0.029-3.38-0.029-6.191,0.085l-0.113-0.142c0-2.556,0.029-5.083,0.057-7.611
			c0.028-1.618,0.056-3.238,0.056-4.857c0-2.499-0.056-4.345-0.171-7.384l0.142-0.142c2.784,0.029,3.38,0.029,6.163-0.085
			l0.113,0.142c-0.085,2.84-0.142,4.544-0.142,7.81c0,4.004,0.085,8.066,0.199,12.041L173.904,39.091z"/>
		<path d="M184.351,30.798v3.919c2.215,0,4.288-0.057,7.213-0.171l0.171,0.171l-0.284,4.203l-0.256,0.171
			c-3.891,0-4.544-0.029-5.396-0.029c-3.124,0-4.743,0.057-7.441,0.113l-0.142-0.198c0.086-3.266,0.113-5.027,0.113-8.89
			c0-6.815-0.056-7.98-0.198-10.877l0.171-0.171h12.779l0.142,0.114l-0.198,3.918l-0.171,0.142h-6.561v3.607l6.219-0.113
			l0.171,0.199l-0.227,3.72l-0.199,0.171H184.351z"/>
		<path d="M200.901,30.798v3.919c2.215,0,4.288-0.057,7.213-0.171l0.171,0.171l-0.284,4.203l-0.256,0.171
			c-3.891,0-4.544-0.029-5.396-0.029c-3.124,0-4.743,0.057-7.441,0.113l-0.142-0.198c0.086-3.266,0.113-5.027,0.113-8.89
			c0-6.815-0.056-7.98-0.198-10.877l0.171-0.171h12.779l0.142,0.114l-0.198,3.918l-0.171,0.142h-6.561v3.607l6.219-0.113
			l0.171,0.199l-0.227,3.72l-0.199,0.171H200.901z"/>
		<path d="M217.452,30.798v3.919c2.216,0,4.288-0.057,7.213-0.171l0.172,0.171l-0.284,4.203l-0.256,0.171
			c-3.89,0-4.543-0.029-5.396-0.029c-3.124,0-4.743,0.057-7.441,0.113l-0.142-0.198c0.086-3.266,0.113-5.027,0.113-8.89
			c0-6.815-0.056-7.98-0.198-10.877l0.171-0.171h12.78l0.142,0.114l-0.199,3.918l-0.17,0.142h-6.562v3.607l6.22-0.113l0.17,0.199
			l-0.227,3.72l-0.199,0.171H217.452z"/>
	</g>
	<g>
		<path d="M174.831,55.359c-1.262-0.638-2.531-0.956-3.805-0.956c-1.536,0-2.941,0.378-4.216,1.132
			c-1.275,0.755-2.277,1.782-3.005,3.083c-0.729,1.301-1.092,2.745-1.092,4.333c0,1.588,0.364,3.039,1.092,4.352
			c0.729,1.314,1.73,2.356,3.005,3.122c1.275,0.768,2.68,1.152,4.216,1.152c1.222,0,2.465-0.293,3.727-0.878
			c1.262-0.586,2.388-1.372,3.377-2.362l3.63,3.943c-1.458,1.509-3.168,2.706-5.133,3.591c-1.965,0.884-3.937,1.327-5.914,1.327
			c-2.68,0-5.113-0.619-7.299-1.856c-2.187-1.235-3.904-2.933-5.153-5.092c-1.249-2.16-1.873-4.567-1.873-7.222
			c0-2.628,0.637-5.009,1.912-7.143s3.025-3.812,5.25-5.035s4.69-1.835,7.397-1.835c1.978,0,3.93,0.41,5.856,1.229
			c1.925,0.82,3.565,1.933,4.918,3.338l-3.591,4.411C177.192,56.875,176.093,55.996,174.831,55.359z"/>
		<path d="M205.491,50.85c2.238,1.223,4.002,2.907,5.289,5.055c1.288,2.147,1.933,4.534,1.933,7.162
			c0,2.629-0.645,5.023-1.933,7.183c-1.287,2.16-3.051,3.858-5.289,5.092c-2.238,1.237-4.723,1.856-7.455,1.856
			c-2.732,0-5.218-0.619-7.456-1.856c-2.239-1.235-4.001-2.926-5.289-5.073c-1.288-2.147-1.932-4.547-1.932-7.202
			c0-2.628,0.644-5.015,1.932-7.162c1.288-2.148,3.044-3.832,5.269-5.055c2.226-1.223,4.716-1.835,7.476-1.835
			C200.768,49.015,203.254,49.627,205.491,50.85z M193.899,55.554c-1.302,0.768-2.33,1.815-3.084,3.142s-1.131,2.785-1.131,4.372
			c0,1.614,0.383,3.084,1.151,4.411c0.767,1.327,1.795,2.381,3.083,3.161c1.288,0.781,2.687,1.171,4.197,1.171
			c1.508,0,2.894-0.384,4.157-1.151c1.262-0.768,2.264-1.821,3.005-3.162c0.742-1.339,1.113-2.816,1.113-4.43
			c0-1.586-0.371-3.044-1.113-4.372c-0.742-1.327-1.743-2.375-3.005-3.142c-1.262-0.768-2.648-1.151-4.157-1.151
			C196.604,54.402,195.199,54.786,193.899,55.554z"/>
		<path d="M217.163,49.445h6.87l8.509,16.784l8.431-16.784h6.832v27.323h-5.543V58.306l-7.768,15.691h-3.982l-7.807-15.691v18.463
			h-5.543V49.445z"/>
		<path d="M273.918,51.924c1.899,1.653,2.849,3.988,2.849,7.006c0,3.175-0.956,5.641-2.869,7.398c-1.913,1.756-4.6,2.635-8.06,2.635
			h-5.425v7.807h-6.168V49.445h11.593C269.325,49.445,272.017,50.272,273.918,51.924z M269.526,62.619
			c0.924-0.794,1.386-1.958,1.386-3.493c0-1.509-0.463-2.648-1.386-3.416c-0.924-0.767-2.258-1.151-4.001-1.151h-5.113v9.251h5.113
			C267.268,63.809,268.602,63.413,269.526,62.619z"/>
		<path d="M288.457,70.113c1.107,1.132,2.583,1.698,4.43,1.698c1.797,0,3.226-0.56,4.294-1.679c1.067-1.118,1.601-2.667,1.601-4.644
			V49.445h6.168v16.043c0,2.395-0.489,4.469-1.464,6.226c-0.975,1.757-2.375,3.109-4.197,4.059c-1.821,0.951-3.97,1.426-6.44,1.426
			c-2.473,0-4.633-0.475-6.48-1.426c-1.847-0.95-3.266-2.302-4.254-4.059c-0.989-1.756-1.483-3.831-1.483-6.226V49.445h6.167v16.043
			C286.799,67.44,287.352,68.981,288.457,70.113z"/>
		<path d="M308.189,49.445h22.835v5.23h-8.353v22.093h-6.168V54.675h-8.313V49.445z"/>
		<path d="M334.732,49.445h20.806v5.113H340.9v5.934h13.154v5.113H340.9v6.051h15.067v5.113h-21.236V49.445z"/>
		<path d="M377.981,76.769l-4.333-7.807h-0.586h-5.699v7.807h-6.167V49.445h11.865c3.566,0,6.324,0.826,8.275,2.479
			c1.953,1.653,2.928,3.988,2.928,7.006c0,2.108-0.437,3.911-1.308,5.407c-0.872,1.496-2.142,2.635-3.805,3.415l5.815,9.017H377.981
			z M367.363,63.809h5.699c1.717,0,3.037-0.396,3.963-1.19c0.924-0.794,1.386-1.958,1.386-3.493c0-1.509-0.463-2.648-1.386-3.416
			c-0.925-0.767-2.246-1.151-3.963-1.151h-5.699V63.809z"/>
		<path d="M162.34,94.04c-1.575-0.506-2.921-0.761-4.04-0.761c-1.067,0-1.913,0.196-2.538,0.586
			c-0.625,0.39-0.937,0.963-0.937,1.717c0,0.963,0.449,1.698,1.346,2.206c0.898,0.508,2.284,1.034,4.158,1.58
			c1.874,0.548,3.415,1.093,4.625,1.641c1.21,0.546,2.245,1.365,3.103,2.459c0.859,1.093,1.288,2.537,1.288,4.333
			c0,1.743-0.463,3.245-1.386,4.507c-0.924,1.263-2.193,2.22-3.806,2.869c-1.613,0.651-3.448,0.977-5.504,0.977
			c-2.212,0-4.385-0.392-6.518-1.171c-2.134-0.781-3.982-1.849-5.543-3.202l2.46-5.035c1.378,1.249,2.966,2.251,4.761,3.006
			c1.796,0.755,3.435,1.131,4.919,1.131c1.274,0,2.27-0.234,2.985-0.702c0.716-0.47,1.073-1.145,1.073-2.031
			c0-0.702-0.241-1.28-0.722-1.736c-0.482-0.456-1.093-0.826-1.835-1.112c-0.742-0.286-1.763-0.612-3.064-0.975
			c-1.873-0.522-3.402-1.041-4.586-1.563c-1.184-0.52-2.205-1.313-3.064-2.381c-0.859-1.066-1.288-2.485-1.288-4.254
			c0-1.641,0.443-3.077,1.327-4.314c0.885-1.235,2.121-2.185,3.709-2.849c1.587-0.664,3.435-0.996,5.543-0.996
			c1.873,0,3.721,0.274,5.543,0.82c1.821,0.548,3.435,1.275,4.84,2.187l-2.382,5.113C165.404,95.23,163.914,94.548,162.34,94.04z"/>
		<path d="M194.25,89.883c2.238,1.223,4.002,2.907,5.289,5.056c1.288,2.147,1.933,4.534,1.933,7.161c0,2.63-0.645,5.023-1.933,7.184
			c-1.287,2.159-3.051,3.857-5.289,5.092c-2.238,1.237-4.723,1.856-7.455,1.856c-2.732,0-5.218-0.619-7.456-1.856
			c-2.239-1.235-4.001-2.926-5.289-5.073c-1.288-2.147-1.932-4.548-1.932-7.203c0-2.627,0.644-5.014,1.932-7.161
			c1.288-2.149,3.044-3.833,5.269-5.056c2.226-1.223,4.716-1.835,7.476-1.835C189.526,88.048,192.012,88.66,194.25,89.883z
			 M182.657,94.587c-1.302,0.768-2.33,1.814-3.084,3.141s-1.131,2.786-1.131,4.372c0,1.615,0.383,3.084,1.151,4.411
			c0.767,1.327,1.795,2.381,3.083,3.162c1.288,0.78,2.687,1.171,4.197,1.171c1.508,0,2.894-0.385,4.157-1.152
			c1.262-0.768,2.264-1.821,3.005-3.162c0.742-1.339,1.113-2.816,1.113-4.43c0-1.585-0.371-3.044-1.113-4.372
			c-0.742-1.327-1.743-2.374-3.005-3.141c-1.262-0.768-2.648-1.152-4.157-1.152C185.363,93.435,183.958,93.82,182.657,94.587z"/>
		<path d="M221.709,94.392c-1.261-0.638-2.53-0.956-3.805-0.956c-1.535,0-2.94,0.378-4.216,1.133
			c-1.275,0.754-2.277,1.781-3.005,3.082s-1.092,2.746-1.092,4.333s0.364,3.039,1.092,4.352s1.73,2.355,3.005,3.122
			c1.276,0.768,2.681,1.152,4.216,1.152c1.223,0,2.466-0.293,3.727-0.878c1.263-0.586,2.388-1.372,3.377-2.362l3.63,3.942
			c-1.457,1.509-3.167,2.706-5.132,3.592c-1.965,0.884-3.937,1.327-5.914,1.327c-2.68,0-5.114-0.619-7.3-1.856
			c-2.187-1.235-3.904-2.933-5.153-5.092c-1.249-2.161-1.873-4.567-1.873-7.222c0-2.628,0.637-5.009,1.912-7.144
			c1.275-2.133,3.025-3.812,5.25-5.035c2.225-1.223,4.691-1.835,7.398-1.835c1.977,0,3.93,0.411,5.855,1.23s3.566,1.932,4.919,3.337
			l-3.592,4.411C224.071,95.908,222.972,95.029,221.709,94.392z"/>
		<path d="M232.698,88.478h6.167v27.324h-6.167V88.478z"/>
		<path d="M245.305,88.478h20.804v5.113h-14.638v5.934h13.154v5.113h-13.154v6.051h15.067v5.113h-21.234V88.478z"/>
		<path d="M269.075,88.478h22.835v5.231h-8.353v22.093h-6.167V93.709h-8.315V88.478z"/>
		<path d="M318.727,88.478l-9.954,18.502v8.823h-6.167v-8.665l-10.11-18.659h6.206l6.988,12.257l6.83-12.257H318.727z"/>
	</g>
</g>
<g>
	<g>
		<g>
			<g>
				<path style="fill:#00AEEF;" d="M64.324,16.861c-29.583,0-53.565,21.935-53.565,48.993c0,27.059,23.982,48.993,53.565,48.993
					s53.565-21.934,53.565-48.993C117.889,38.796,93.907,16.861,64.324,16.861z M72.504,89.405c0.008,6.421,0.461,6.645,4.941,6.941
					l4.622,0.272l0.201,0.107c0.994,0.536,1.306,1.805,1.175,2.825c-0.141,1.097-0.768,1.908-1.636,2.121l-0.142,0.032l-0.146-0.005
					c-3.632-0.163-9.957-0.258-16.918-0.258c-7.339,0-13.662,0.093-17.348,0.258l-0.146,0.005l-0.142-0.032
					c-0.868-0.212-1.495-1.024-1.636-2.121c-0.131-1.02,0.181-2.289,1.175-2.825l0.201-0.107l4.63-0.272
					c4.477-0.295,4.927-0.52,4.934-6.954c-17.642-1.983-28.633-10.526-28.633-22.883c0-12.445,9.48-20.416,26.355-22.659
					c0.06,1.608,0.108,3.767,0.142,6.25c-1.03,0.263-2.014,0.555-2.894,0.9L50.8,51.163c-3.518,1.318-5.914,3.779-6.969,7.138
					l-0.04,0.112c-0.612,1.47-0.949,4.246-0.949,7.82l0.001,0.148l-0.001,0.148c0,3.574,0.337,6.35,0.949,7.818l0.045,0.131
					c0.815,2.591,2.447,4.643,4.756,6.046c3.32,2.211,9.664,3.351,15.958,3.351c6.887,0,13.83-1.367,16.809-4.005
					c1.811-1.365,3.109-3.185,3.809-5.407l0.04-0.115c0.612-1.469,0.949-4.244,0.949-7.818l-0.001-0.136l0.001-0.16
					c0-3.574-0.337-6.35-0.949-7.82l-0.039-0.109c-1.057-3.362-3.452-5.823-6.928-7.124l-0.453-0.17
					c-1.543-0.606-3.331-1.088-5.284-1.436v31.349c-2.265,0.419-4.94,0.682-7.954,0.682c-3.162,0-5.948-0.29-8.281-0.745v-7.26
					c0.144-6.764,0.289-17.487,0.126-25.074l0.001,0.002c0-0.182-0.128-5.317-0.129-5.487c-0.031-4.966-0.503-5.492-4.233-5.901
					l-5.248-0.604c-0.795-0.357-1.332-1.263-1.4-2.365c-0.068-1.095,0.343-2.051,1.072-2.491l0.191-0.117l0.222-0.025
					c3.84-0.453,8.684-1.309,13.641-2.409c2.611-0.623,5.036-1.413,6.807-1.99c1.765-0.576,2.5-0.808,2.972-0.808
					c0.979,0,2.129,0.52,2.488,1.679l0.063,0.204l-0.023,0.214c-0.198,1.832-0.316,5.647-0.316,10.199v4.932
					c18.385,1.784,28.748,9.925,28.748,22.952C101.251,78.892,90.214,87.448,72.504,89.405z"/>
			</g>
		</g>
	</g>
	<g>
		<path style="fill:#00AEEF;" d="M95.416,111.823h5.296v1.013h-2.076v5.852h-1.161v-5.852h-2.059V111.823z M101.726,111.823h1.357
			l2.256,4.641l2.239-4.641h1.373v6.865h-1.062v-5.23l-2.174,4.511h-0.752l-2.174-4.511v5.23h-1.062V111.823z"/>
	</g>
</g>
</svg>
