<?xml version="1.0" encoding="iso-8859-1"?>
<!-- Generator: Adobe Illustrator 26.0.1, SVG Export Plug-In . SVG Version: 6.00 Build 0)  -->
<svg version="1.1" id="Layer_1" xmlns="http://www.w3.org/2000/svg" xmlns:xlink="http://www.w3.org/1999/xlink" x="0px" y="0px"
	 viewBox="0 0 1080 628" style="enable-background:new 0 0 1080 628;" xml:space="preserve">
<g>
	<path d="M228.558,363.878c-10.484,0-20.524,0-30.95,0c-0.121-2.142-0.246-4.344-0.411-7.271c-1.483,1.002-2.608,1.596-3.542,2.417
		c-14.3,12.572-45.2,9.786-55.215-14.965c-2.021-4.995-3.324-10.436-4.058-15.8c-1.542-11.276-0.805-22.529,3.007-33.312
		c6.249-17.677,18.975-27.581,36.899-30.515c5.701-0.933,11.573-0.795,17.37-1.097c1.765-0.092,3.539-0.014,5.809-0.014
		c0.192-2.057,0.531-3.805,0.489-5.543c-0.291-12.015-0.669-24.028-0.995-36.042c-0.032-1.17,0.1-2.345,0.172-3.853
		c10.49-1.676,20.714-3.308,31.528-5.036c0.091,2.765,0.245,4.828,0.213,6.888c-0.485,30.733-1.208,61.465-1.412,92.2
		c-0.105,15.816,0.705,31.639,1.094,47.459C228.586,360.721,228.558,362.047,228.558,363.878z M197.337,312.903
		c0.216,0,0.431,0,0.647,0c0-6.385,0.098-12.772-0.024-19.155c-0.156-8.139,2.311-9.169-9.236-8.799
		c-10.073,0.322-17.398,5.687-20.588,15.303c-3.391,10.224-3.535,20.645-0.113,30.888c4.09,12.242,15.145,16.269,26.218,9.949
		c2.208-1.26,3.204-2.74,3.151-5.4C197.239,328.098,197.337,320.499,197.337,312.903z"/>
	<path d="M145.088,591.663c-1.636,0.237-2.78,0.521-3.93,0.549c-8.492,0.201-16.986,0.37-25.48,0.509
		c-4.242,0.069-4.259,0.035-5.269-4.341c-2.049-8.874-4.07-17.756-6.122-26.629c-0.371-1.606-0.837-3.189-1.321-5.013
		c-1.682-0.111-3.145-0.289-4.608-0.292c-10.435-0.024-20.87-0.031-31.305-0.004c-4.736,0.012-4.754,0.048-6.017,4.798
		c-2.378,8.946-4.71,17.905-7.108,26.845c-1.083,4.039-1.134,4.102-5.127,4.132c-7.453,0.057-14.907,0.03-22.36-0.004
		c-1.018-0.004-2.035-0.245-3.675-0.456c0.531-1.78,0.938-3.312,1.441-4.811c8.349-24.874,16.813-49.709,25.032-74.628
		c5.32-16.131,10.291-32.383,15.405-48.584c1.537-4.87,1.519-4.827,6.416-4.909c11.175-0.188,22.349-0.436,33.524-0.647
		c4.394-0.083,4.492,0.002,5.6,4.086c11.282,41.59,22.564,83.18,33.838,124.773C144.374,588.331,144.629,589.654,145.088,591.663z
		 M68.859,533.385c4.272,1.43,24.606,1.433,28.761,0.008c-4.035-17.586-8.083-35.226-12.13-52.865
		c-0.404-0.015-0.809-0.03-1.213-0.044C79.165,498.024,74.053,515.564,68.859,533.385z"/>
	<path d="M34.571,363.554c1.09-44.458,1.469-88.364-0.381-132.141c3.55-1.126,73.518-1.546,82.488-0.555
		c-0.077,7.309-0.195,14.652-1.342,22.484c-5.423,0.551-10.739-0.331-16.037-0.285c-5.217,0.045-10.435-0.052-15.652-0.066
		c-5.331-0.014-10.663-0.003-15.855-0.003c-1.034,3.827-1.233,25.249-0.343,30.692c14.873,0,29.819,0,45.443,0
		c-0.389,7.405-0.759,14.459-1.156,21.999c-1.939,0.173-3.652,0.451-5.366,0.457c-11.181,0.04-22.362,0.008-33.542,0.036
		c-1.749,0.004-3.497,0.193-5.469,0.31c0,11.26,0,22.126,0,33.627c17.241,0.512,34.128-0.006,51.446-1.035
		c0.854,8.328-0.37,16.074-0.889,24.262c-1.778,0.198-3.353,0.525-4.928,0.527c-24.598,0.032-49.195,0.026-73.793,0.01
		C37.873,363.872,36.551,363.696,34.571,363.554z"/>
	<path d="M791.359,363.799c0-2.377-0.002-4.479,0.001-6.581c0.023-16.427,0.327-32.86-0.022-49.279
		c-0.261-12.301-1.313-24.586-2.118-36.871c-0.261-3.982-0.07-4.285,3.857-4.932c7.932-1.307,15.842-2.753,23.767-4.106
		c1.575-0.269,3.177-0.379,5.32-0.626c0,3.717,0,6.972,0,10.275c2.486,0.633,3.811-0.829,5.258-1.65
		c6.274-3.558,12.662-6.758,19.849-7.947c5.867-0.971,11.611-0.468,17.158,1.606c6.757,2.527,11.133,7.601,13.205,14.495
		c1.123,3.736,1.863,7.721,1.982,11.62c0.476,15.654,0.601,31.319,0.942,46.978c0.152,6.991,0.517,13.978,0.759,20.968
		c0.057,1.659,0.008,3.321,0.008,4.909c-3.402,1.633-24.855,2.338-31.443,0.981c-0.091-1.62-0.27-3.378-0.275-5.137
		c-0.047-14.754-0.001-29.508-0.122-44.261c-0.039-4.707-0.331-9.428-0.829-14.107c-0.27-2.531-0.943-5.105-1.918-7.452
		c-2.209-5.319-6.822-7.828-12.362-6.359c-3.392,0.899-6.549,2.754-9.775,4.26c-1.854,0.865-2.323,2.465-2.295,4.501
		c0.167,12.167,0.144,24.337,0.364,36.502c0.171,9.426,0.634,18.847,0.902,28.272c0.095,3.344-0.336,3.904-3.378,3.979
		c-8.787,0.216-17.577,0.308-26.366,0.423C793.257,364.266,792.684,364.054,791.359,363.799z"/>
	<path d="M250.031,265.35c4.518-1.482,26.937-2.448,31.805-1.377c0.091,1.943,0.283,4.021,0.271,6.097
		c-0.094,16.43-0.305,32.86-0.295,49.289c0.003,4.231,0.249,8.552,1.103,12.676c1.979,9.551,9.972,13.472,18.802,9.577
		c0.682-0.301,1.342-0.659,1.998-1.019c6.342-3.486,6.431-3.489,6.335-10.919c-0.254-19.619-0.597-39.237-0.898-58.856
		c-0.028-1.802-0.004-3.605-0.004-6.013c10.558-0.703,20.803-1.76,31.8-1.296c-0.168,33.456-1.513,66.515,0.731,99.391
		c-4.105,1.277-25.216,1.909-31.045,0.983c-0.183-2.552-0.374-5.215-0.582-8.121c-2.212,0.142-3.45,1.811-4.93,2.88
		c-10.563,7.63-22.068,9.674-34.382,5.731c-10.841-3.472-17.084-11.27-18.752-22.704c-0.612-4.196-0.877-8.473-0.937-12.718
		c-0.144-10.191,0.043-20.388-0.121-30.578c-0.155-9.578-0.594-19.151-0.893-28.727C249.991,268.167,250.031,266.685,250.031,265.35
		z"/>
	<path d="M986.796,363.668c-10.139,0.259-19.906,0.509-30.2,0.772c-0.289-2.591-0.545-4.886-0.872-7.821
		c-1.626,1.083-2.83,1.864-4.013,2.676c-10.301,7.072-21.429,8.895-33.247,5.032c-11.828-3.867-19.747-14.533-20.598-27.191
		c-1.026-15.257,4.519-25.243,17.865-32.215c8.349-4.361,17.407-6.166,26.54-7.694c4.23-0.708,8.474-1.333,12.577-1.975
		c0.98-7.042-2.319-11.502-9.176-12.061c-4.424-0.361-9.018-0.418-13.353,0.4c-6.117,1.154-12.07,3.223-18.079,4.949
		c-1.555,0.446-3.062,1.069-4.884,1.715c-0.29-0.864-0.722-1.531-0.7-2.181c0.188-5.626,0.493-11.247,0.685-16.872
		c0.066-1.943,0.891-3.054,2.713-3.64c15.849-5.096,32.001-7.493,48.496-4.53c17.308,3.109,24.845,12.313,25.353,30.41
		c0.244,8.668-0.124,17.351,0.005,26.024c0.193,12.924,0.585,25.846,0.881,38.769C986.827,359.745,986.796,361.257,986.796,363.668z
		 M956.076,315.316c-1.293-0.173-2.044-0.474-2.701-0.329c-5.51,1.214-11.071,2.272-16.467,3.897
		c-2.161,0.651-4.218,2.329-5.848,4.017c-3.604,3.73-4.073,8.353-2.354,13.123c1.686,4.68,5.401,6.627,10.062,7.036
		c5.398,0.474,10.293-1.099,14.987-3.67c1.642-0.9,2.371-2.104,2.334-4.002c-0.071-3.651-0.014-7.304-0.012-10.956
		C956.077,321.43,956.076,318.43,956.076,315.316z"/>
	<path d="M504.77,295.032c-0.017-7.545-3.285-11.305-10.048-11.947c-8.44-0.801-16.639,0.548-24.652,3.208
		c-3.671,1.219-7.3,2.567-11.5,4.052c-0.247-1.274-0.665-2.357-0.629-3.424c0.178-5.167,0.546-10.327,0.704-15.494
		c0.067-2.187,1.072-3.301,3.011-3.919c13.194-4.203,26.636-6.51,40.497-5.396c3.555,0.286,7.136,0.67,10.616,1.431
		c14.078,3.08,21.867,12.52,22.344,27.27c0.261,8.053-0.03,16.123,0.098,24.183c0.229,14.445,0.59,28.887,0.887,43.331
		c0.031,1.501,0.004,3.003,0.004,4.41c-2.849,1.18-22.875,2.032-29.85,1.286c-0.379-2.146-0.783-4.427-1.306-7.388
		c-1.741,1.224-3.015,2.176-4.343,3.045c-10.88,7.115-22.477,8.805-34.537,3.893c-12.031-4.9-17.983-14.701-18.895-27.538
		c-0.893-12.56,3.886-22.526,14.63-29.199c7.505-4.661,15.797-7.028,24.334-8.618c4.391-0.817,8.83-1.367,13.239-2.087
		C501.115,295.846,502.834,295.43,504.77,295.032z M505.339,314.897c-8.179,0.463-15.431,1.622-21.998,5.567
		c-1.256,0.755-2.443,1.794-3.354,2.954c-3.05,3.884-3.621,8.296-1.786,12.85c1.757,4.361,5.285,6.361,9.787,6.774
		c5.38,0.494,10.299-0.955,14.977-3.547c1.387-0.768,2.404-1.656,2.392-3.471C505.313,329.218,505.339,322.409,505.339,314.897z"/>
	<path d="M772.792,313.873c-0.757,6.018-1.129,12.118-2.345,18.038c-3.63,17.68-14.08,28.729-31.528,32.622
		c-10.489,2.34-21.015,2.276-31.536,0.378c-16.402-2.96-26.528-13.2-31.084-29.147c-4.007-14.025-4.054-28.329-0.05-42.358
		c5.65-19.797,19.698-28.351,37.101-30.858c7.737-1.115,15.492-1.034,23.174,0.259c18.2,3.062,29.592,14.038,33.838,32.441
		c0.75,3.249,1.312,6.57,1.622,9.891c0.268,2.864,0.056,5.775,0.056,8.665C772.291,313.827,772.542,313.85,772.792,313.873z
		 M741.388,313.748c-0.31-0.025-0.621-0.051-0.932-0.076c0-3.49,0.353-7.027-0.09-10.457c-0.539-4.176-1.316-8.428-2.766-12.348
		c-2.305-6.234-7.235-9.64-13.681-10.075c-6.154-0.415-10.957,2.54-14.127,7.868c-1.287,2.163-2.287,4.655-2.788,7.129
		c-2.439,12.045-2.303,24.143,0.15,36.165c0.534,2.619,1.625,5.255,3.012,7.533c6.038,9.915,20.112,9.802,26.015-0.166
		c1.137-1.92,2.173-4.085,2.54-6.263C739.803,326.656,740.525,320.19,741.388,313.748z"/>
	<path d="M722.102,548.797c-20.437,1.54-40.391,0.421-60.238,1.685c0.176,10.881,7.412,19.397,18.168,21.655
		c11.033,2.316,21.631,0.599,31.844-4.034c2.01-0.912,3.992-1.888,6.433-3.046c0.169,1.482,0.417,2.462,0.369,3.425
		c-0.261,5.166-0.759,10.325-0.843,15.493c-0.045,2.809-1.362,4.05-3.682,4.964c-6.278,2.474-12.648,4.589-19.385,5.193
		c-10.302,0.924-20.553,0.765-30.593-2.187c-17.054-5.014-27.398-16.515-31.252-34.091c-2.619-11.946-2.519-23.932,1.142-35.625
		c5.669-18.104,17.954-28.496,36.344-31.494c7.782-1.269,15.43-0.874,23.039,1.136c9.618,2.54,16.768,8.293,21.644,17.086
		c4.587,8.271,6.407,17.311,6.965,26.651C722.312,539.816,722.102,544.052,722.102,548.797z M692.491,530.213
		c0.87-5.82-0.047-10.409-2.553-14.207c-4.48-6.786-13.431-8.56-20.036-3.859c-6.157,4.382-8.058,10.829-8.462,18.576
		C671.975,531.217,682.116,529.913,692.491,530.213z"/>
	<path d="M807.356,495.424c-0.627,6.82-1.249,13.574-1.948,21.172c-2.192-1.144-3.751-1.865-5.221-2.741
		c-6.759-4.026-14.028-6.009-21.823-5.155c-2.57,0.281-5.336,1.116-7.481,2.534c-4.602,3.044-4.56,8.933-0.093,12.211
		c1.784,1.309,3.9,2.211,5.964,3.044c5.26,2.122,10.611,4.011,15.854,6.174c2.61,1.077,5.163,2.384,7.569,3.875
		c7.559,4.686,11.48,11.755,12.252,20.631c1.445,16.606-6.151,28.829-21.758,33.92c-17.359,5.662-34.653,4.651-51.643-2.062
		c-1.878-0.742-3.007-1.818-2.844-4.033c0.414-5.609,0.749-11.225,1.169-16.834c0.064-0.857,0.413-1.692,0.728-2.918
		c1.141,0.622,2.092,0.98,2.857,1.583c6.831,5.386,14.75,7.822,23.159,8.754c4.21,0.467,8.353-0.233,12.089-2.434
		c6.072-3.576,6.585-10.783,0.888-14.951c-2.376-1.738-5.227-2.861-7.961-4.018c-5.361-2.269-10.92-4.086-16.163-6.6
		c-7.582-3.636-13.406-9.211-15.37-17.887c-3.513-15.516,2.426-27.759,14.582-34.384c5.486-2.99,11.437-4.24,17.549-4.919
		C781.046,489.125,795.852,490.695,807.356,495.424z"/>
	<path d="M355.471,493.768c1.92-0.242,3.227-0.476,4.542-0.562c8.32-0.544,16.643-1.053,24.964-1.579
		c4.082-0.258,4.214-0.136,5.136,3.783c4.83,20.525,9.673,41.046,14.533,61.563c0.202,0.853,0.622,1.651,1.303,3.414
		c0.737-1.967,1.294-3.091,1.585-4.282c4.852-19.895,9.679-39.796,14.489-59.701c0.876-3.627,1.093-4.008,4.707-4.14
		c6.847-0.251,13.699-0.354,20.55-0.465c0.826-0.013,1.657,0.302,2.851,0.537c-0.461,1.693-0.79,3.125-1.24,4.517
		c-9.737,30.146-19.491,60.286-29.233,90.43c-1.583,4.898-1.564,4.876-6.485,4.964c-7,0.125-13.998,0.301-20.998,0.441
		c-1.628,0.032-3.257,0.005-4.919,0.005C376.687,559.794,366.183,527.104,355.471,493.768z"/>
	<path d="M568.301,571.163c-0.675,6.787-1.186,12.8-1.964,18.776c-0.115,0.883-1.394,2.124-2.305,2.305
		c-9.683,1.918-19.423,3.361-29.232,0.936c-10.153-2.51-16.117-8.923-17.015-19.69c-0.781-9.362-0.635-18.817-0.626-28.23
		c0.009-9.733,0.352-19.465,0.528-29.197c0.011-0.595-0.16-1.193-0.339-2.433c-3.858,0-7.754,0-12.039,0
		c-0.23-7.302,0.81-13.832,1.363-20.937c3.69,0,7.022,0,10.8,0c0-8.54,0-16.529,0-25.006c10.11-2.829,19.916-5.573,30.388-8.503
		c0.6,11.247-0.647,21.809,0.055,32.718c6.229,1.258,12.514-0.06,18.844,0.856c0.164,0.858,0.469,1.58,0.408,2.267
		c-0.487,5.449-1.099,10.887-1.553,16.339c-0.184,2.204-1.343,2.849-3.267,2.728c-2.825-0.177-5.65-0.376-8.478-0.488
		c-1.885-0.075-3.775-0.014-5.868-0.014c-0.167,1.589-0.377,2.76-0.401,3.935c-0.217,10.644-0.471,21.289-0.562,31.935
		c-0.036,4.252,0.373,8.505,0.465,12.761c0.197,9.101,6.555,11.246,12.94,10.581C562.769,572.558,565.049,571.857,568.301,571.163z"
		/>
	<path d="M249.505,513.5c-4.201,0-7.994,0-12.197,0c-0.138-7.094,0.684-13.647,1.516-20.725c3.426,0,6.768,0,10.576,0
		c0.19-2.082,0.459-3.682,0.459-5.282c0-5.17-0.151-10.34-0.142-15.51c0.008-4.482,0.113-4.541,4.123-5.652
		c7.181-1.989,14.358-3.991,21.544-5.956c1.26-0.345,2.56-0.539,4.356-0.908c0.79,5.615,0.183,10.871,0.234,16.092
		c0.052,5.303,0.011,10.607,0.011,16.347c6.147,1.339,12.442-0.208,18.91,1.012c0.344,7.153-1.095,13.911-1.467,20.838
		c-6.171,0-11.621,0-17.537,0c-0.166,1.632-0.461,3.243-0.472,4.857c-0.09,13.536-0.133,27.072-0.171,40.609
		c-0.003,1.214,0.08,2.433,0.202,3.642c0.904,8.961,6.736,10.417,12.719,9.96c2.333-0.178,4.625-0.909,7.273-1.459
		c0.171,1.205,0.487,2.198,0.42,3.163c-0.326,4.7-0.773,9.391-1.14,14.088c-0.16,2.055-1.001,3.51-3.112,3.841
		c-8.239,1.293-16.446,2.73-24.861,1.432c-13.937-2.15-20.753-9.558-21.5-24.01c-0.282-5.463-0.296-10.949-0.221-16.421
		c0.159-11.709,0.464-23.416,0.681-35.124C249.737,516.867,249.59,515.399,249.505,513.5z"/>
	<path d="M610.145,342.966c0.098,1.526,0.285,2.561,0.209,3.576c-0.336,4.547-0.782,9.086-1.115,13.633
		c-0.168,2.295-1.198,3.679-3.476,4.017c-8.101,1.205-16.162,2.628-24.425,1.355c-14.001-2.157-21.02-9.506-21.53-23.933
		c-0.403-11.389-0.064-22.808,0.025-34.213c0.046-5.93,0.281-11.858,0.389-17.788c0.024-1.321-0.125-2.646-0.216-4.396
		c-4.139,0-7.928,0-12.172,0c-0.222-7.095,0.715-13.642,1.452-20.745c3.398,0,6.73,0,10.542,0c0.219-2.071,0.527-3.656,0.529-5.241
		c0.008-5.322-0.155-10.645-0.133-15.967c0.017-4.104,0.154-4.189,4.032-5.264c7.18-1.992,14.358-3.99,21.548-5.943
		c1.38-0.375,2.81-0.555,4.687-0.915c0,11.127,0,21.685,0,32.895c6.39,0,12.41,0,18.798,0c0.414,7.613-0.805,14.395-1.488,21.367
		c-5.967,0-11.414,0-17.312,0c-0.18,1.265-0.517,2.559-0.525,3.856c-0.092,14.296-0.18,28.593-0.171,42.889
		c0.007,10.88,6.698,13.665,14.983,11.925C606.359,343.74,607.945,343.419,610.145,342.966z"/>
	<path d="M228.992,519.081c-2.349-1.428-3.673-2.468-5.165-3.091c-3.277-1.37-6.548-3.147-9.98-3.666
		c-13.559-2.05-23.154,4.541-26.943,18.023c-2.191,7.795-2.192,15.588,0.037,23.379c3.65,12.755,12.977,18.62,26.08,18.01
		c5.28-0.246,10.255-1.723,14.846-4.472c0.849-0.509,1.813-0.818,3.195-1.427c0.183,1.543,0.46,2.684,0.428,3.815
		c-0.153,5.47-0.522,10.938-0.537,16.407c-0.007,2.599-1.036,3.869-3.355,4.567c-13.594,4.097-27.317,4.769-40.978,0.807
		c-17.737-5.144-28.138-17.554-31.984-35.708c-2.306-10.887-1.743-21.785,1.582-32.431c5.766-18.46,18.308-29.007,36.83-32.307
		c11.821-2.106,23.436-0.95,34.822,2.825c0.849,0.281,1.701,0.567,2.517,0.93c0.393,0.174,0.707,0.534,1.405,1.085
		C230.59,503.152,230.43,510.806,228.992,519.081z"/>
	<path d="M437.667,267.095c-1.271,7.705-1.428,15.36-2.843,23.492c-1.897-1.088-3.094-1.948-4.416-2.499
		c-3.551-1.479-7.051-3.526-10.757-4.1c-13.55-2.101-23.15,4.525-26.939,18.008c-2.19,7.795-2.192,15.588,0.038,23.379
		c3.65,12.753,12.976,18.62,26.081,18.009c5.28-0.246,10.255-1.723,14.846-4.472c0.853-0.51,1.82-0.821,3.081-1.376
		c0.238,1.338,0.589,2.33,0.561,3.311c-0.156,5.622-0.532,11.242-0.557,16.863c-0.011,2.599-1.039,3.868-3.356,4.566
		c-13.594,4.097-27.317,4.769-40.978,0.806c-17.737-5.145-28.138-17.554-31.983-35.709c-2.306-10.887-1.742-21.785,1.583-32.431
		c5.766-18.46,18.308-29.007,36.831-32.306c11.821-2.106,23.438-0.956,34.82,2.834C434.925,265.886,436.12,266.46,437.667,267.095z"
		/>
	<path d="M1040.442,363.844c-11.128,0-21.473,0-32.226,0c0-3.934-0.025-7.837,0.004-11.739c0.193-26.003,0.724-52.009,0.482-78.008
		c-0.162-17.469-1.399-34.927-2.192-52.389c-0.089-1.969-0.118-3.596,2.414-3.988c9.27-1.436,18.522-2.997,27.787-4.468
		c0.69-0.109,1.432,0.123,2.615,0.243C1038.32,263.407,1038.321,313.181,1040.442,363.844z"/>
	<path d="M165.383,27.058c0.162,1.283,0.384,2.306,0.402,3.333c0.051,2.871,0.018,5.743,0.018,9.076
		c-2.101,0.161-3.822,0.403-5.543,0.407c-15.656,0.03-31.312,0.018-46.967,0.018c-1.759,0-3.519,0-5.143,0
		c-1.047,3.738-1.353,36.889-0.455,44.197c4.247,0.625,8.68,0.215,13.074,0.282c4.621,0.07,9.244,0.016,13.866,0.016
		c4.473,0,8.946,0,13.419,0c4.456,0,8.912,0,13.539,0c1.497,4.238,0.594,8.261,0.692,12.854c-6.232,0.521-12.143,0.205-18.032,0.259
		c-6.113,0.056-12.226,0.012-18.34,0.012c-5.943,0-11.886,0-17.691,0c-1.13,3.583-1.506,42.485-0.543,50.426
		c4.548,0.802,9.282,0.278,13.969,0.366c4.919,0.092,9.84,0.021,14.761,0.021c4.771,0,9.543,0,14.314,0c4.75,0,9.5,0,14.668,0
		c0,4.473,0,8.6,0,13.002c-24.163,0-48.106,0-72.04,0c-0.95-3.258-1.219-128.299-0.243-134.268
		C116.986,27.058,140.922,27.058,165.383,27.058z"/>
	<path d="M269.3,148.098c0,4.807,0,8.83,0,13.177c-24.27,0-48.32,0-72.647,0c0-44.721,0-89.244,0-133.739
		c3.317-1.007,67.103-1.241,72.589-0.225c0,3.797,0,7.67,0,12.092c-1.64,0.159-3.336,0.462-5.033,0.466
		c-15.656,0.037-31.312,0.022-46.967,0.022c-1.774,0-3.548,0-5.202,0c-1.179,3.55-1.418,38.719-0.283,44.47
		c8.744,0.008,17.636,0.019,26.528,0.023c8.941,0.004,17.882,0.001,27.291,0.001c1.053,4.261,0.722,8.363,0.247,13.118
		c-18.255,0-36.205,0-54.448,0c0,17.13,0,33.624,0,50.594C230.624,148.098,249.644,148.098,269.3,148.098z"/>
	<path d="M373.094,27.059c0,4.168,0,8.052,0,12.431c-1.793,0.138-3.513,0.381-5.234,0.385c-15.656,0.03-31.312,0.018-46.967,0.018
		c-1.76,0-3.519,0-5.144,0c-1.047,3.727-1.355,36.878-0.457,44.196c4.246,0.626,8.679,0.215,13.073,0.282
		c4.621,0.071,9.244,0.016,13.866,0.016c4.473,0,8.946,0,13.419,0c4.457,0,8.914,0,13.726,0c1.112,4.244,0.598,8.251,0.386,12.906
		c-9.254,0.47-18.285,0.147-27.301,0.207c-8.924,0.06-17.849,0.013-26.638,0.013c-1.202,3.801-1.345,45.772-0.188,50.688
		c18.898,0,37.918,0,57.33,0c0.651,4.586,0.653,8.713,0.012,13.126c-24.148,0-48.091,0-72.026,0
		c-0.95-3.248-1.221-128.28-0.245-134.267C324.582,27.059,348.517,27.059,373.094,27.059z"/>
	<path d="M579.446,495.366c11.113-2.211,21.937-4.26,33.585-5.847c-0.324,34.464-1.489,68.033,1.169,102.088
		c-5.827,1.233-11.318,0.467-16.727,0.652c-5.468,0.187-10.946,0.041-17.083,0.041c0-1.973-0.021-3.882,0.003-5.791
		c0.264-20.684,0.708-41.368,0.718-62.053c0.004-8.19-0.953-16.38-1.466-24.571C579.57,498.678,579.537,497.466,579.446,495.366z"/>
	<path d="M459.42,495.301c10.883-2.189,21.504-4.095,32.791-5.781c0.149,2.862,0.371,5.08,0.362,7.297
		c-0.086,21.153-0.357,42.306-0.257,63.458c0.043,9.119,0.792,18.236,1.296,27.349c0.224,4.056-0.041,4.504-4.021,4.598
		c-8.495,0.2-16.99,0.351-25.486,0.498c-1.026,0.018-2.055-0.109-3.606-0.199c-0.118-1.655-0.35-3.245-0.326-4.831
		c0.273-17.8,0.852-35.601,0.792-53.4c-0.039-11.547-1.003-23.091-1.537-34.637C459.372,498.454,459.42,497.25,459.42,495.301z"/>
	<path d="M311.971,495.149c10.604-1.88,21.225-3.764,32.516-5.766c0.183,2.875,0.45,5.073,0.442,7.27
		c-0.083,21.153-0.363,42.306-0.258,63.458c0.046,9.27,0.832,18.538,1.319,27.805c0.184,3.502-0.11,4.219-2.99,4.25
		c-9.828,0.107-19.657,0.041-30.115,0.041c-0.106-1.214-0.391-2.787-0.358-4.352c0.266-12.779,0.919-25.56,0.813-38.335
		c-0.129-15.507-0.894-31.008-1.359-46.512C311.909,500.604,311.971,498.196,311.971,495.149z"/>
	<path d="M655.166,261.395c0.106,2.857,0.267,5.094,0.26,7.33c-0.069,22.218-0.287,44.436-0.19,66.653
		c0.035,8.053,0.789,16.103,1.249,24.153c0.202,3.537-0.084,4.208-2.954,4.286c-9.536,0.258-19.076,0.37-28.615,0.513
		c-0.412,0.006-0.828-0.241-1.685-0.509c-0.068-1.524-0.225-3.135-0.199-4.744c0.278-17.496,0.84-34.992,0.792-52.487
		c-0.031-11.243-0.92-22.486-1.475-33.726c-0.291-5.889-0.345-5.914,5.199-6.951c7.47-1.397,14.944-2.769,22.426-4.094
		C651.418,261.564,652.905,261.571,655.166,261.395z"/>
	<path d="M55.16,161.338c-4.857,0-9.394,0-14.204,0c0-44.756,0-89.253,0-134.244c4.63-0.675,9.271-0.413,14.204-0.16
		C55.16,71.797,55.16,116.291,55.16,161.338z"/>
	<path d="M611.431,444.865c0,1.856,0.019,3.483-0.003,5.109c-0.085,6.077-0.201,12.154-0.268,18.232
		c-0.022,1.98-0.305,3.576-2.715,3.909c-8.545,1.179-17.076,2.457-25.617,3.667c-0.565,0.08-1.164-0.09-1.974-0.164
		c-0.188-0.879-0.51-1.717-0.525-2.56c-0.124-7.139-0.212-14.279-0.266-21.419c-0.023-3.026,0.226-3.374,3.157-3.767
		c8.699-1.167,17.408-2.258,26.116-3.355C609.753,444.463,610.2,444.65,611.431,444.865z"/>
	<path d="M460.409,475.821c-0.185-1.173-0.424-2.043-0.444-2.919c-0.15-6.819-0.262-13.639-0.378-20.459
		c-0.069-4.062-0.07-4.11,4.13-4.676c8.242-1.111,16.491-2.175,24.742-3.219c0.694-0.088,1.424,0.119,2.338,0.208
		c0.172,0.817,0.458,1.52,0.445,2.217c-0.133,6.824-0.245,13.65-0.509,20.469c-0.165,4.257-0.284,4.21-4.237,4.79
		c-7.346,1.078-14.682,2.226-22.028,3.306C463.183,475.726,461.872,475.724,460.409,475.821z"/>
	<path d="M343.775,444.851c-0.292,8.496-0.509,16.644-0.945,24.779c-0.045,0.838-1.305,2.181-2.147,2.313
		c-8.945,1.399-17.919,2.604-26.888,3.842c-0.266,0.037-0.562-0.149-1.269-0.354c-0.061-1.331-0.158-2.802-0.191-4.274
		c-0.144-6.364-0.291-12.729-0.395-19.094c-0.059-3.6,0.054-3.757,3.618-4.234c8.538-1.143,17.083-2.234,25.629-3.313
		C341.741,444.446,342.329,444.653,343.775,444.851z"/>
	<path d="M653.81,216.56c0,6.262,0.032,12.286-0.017,18.31c-0.018,2.12-0.035,4.281-0.454,6.339
		c-0.189,0.928-1.272,2.241-2.102,2.371c-8.944,1.406-17.919,2.614-26.887,3.858c-0.272,0.038-0.572-0.129-1.044-0.247
		c-0.153-0.629-0.462-1.338-0.478-2.055c-0.159-7.122-0.283-14.246-0.388-21.369c-0.054-3.659,0.04-3.809,3.565-4.284
		c8.39-1.13,16.786-2.216,25.186-3.261C652.001,216.121,652.861,216.427,653.81,216.56z"/>
	<path d="M727.938,162.86c0-17.065,0-33.142,0-49.059c0.461-0.338,0.704-0.672,0.939-0.666c7.12,0.17,14.303-0.157,21.342,0.719
		c7.146,0.889,10.593,6.478,9.366,13.456c-0.554,3.149-2.109,5.65-4.941,7.205c-1.141,0.626-2.282,1.253-3.877,2.127
		c1.413,0.64,2.298,1.153,3.247,1.454c9.851,3.116,9.014,16.657,2.931,21.198c-1.533,1.145-3.296,2.251-5.11,2.672
		C744.072,163.768,736.232,162.729,727.938,162.86z M733.017,139.033c0,6.695,0,12.856,0,19.503
		c5.783,0.447,11.403,0.845,16.87-0.863c4.332-1.354,6.079-4.516,5.934-9.536c-0.129-4.473-2.281-7.273-6.719-8.434
		C743.991,138.367,738.804,138.757,733.017,139.033z M733.113,117.488c0,5.941,0,11.318,0,17.021
		c5.526,0.13,10.71,0.814,15.792-0.708c3.741-1.121,5.525-3.789,5.592-7.817c0.065-3.898-1.766-6.758-5.618-7.756
		C743.822,116.917,738.644,116.73,733.113,117.488z"/>
	<path d="M583.753,130.286c0-7.23,0-13.515,0-20.147c1.675-0.116,2.917-0.202,4.239-0.294c0.281,0.864,0.611,1.414,0.618,1.969
		c0.056,4.71,0.064,9.421,0.067,14.131c0.007,10.485,0.003,20.971,0.001,31.456c0,1.064,0.206,2.202-0.1,3.168
		c-0.265,0.835-1.057,1.967-1.738,2.063c-0.695,0.098-1.701-0.77-2.271-1.469c-0.527-0.646-0.657-1.629-1.063-2.741
		c-0.817,0.597-1.416,0.983-1.959,1.439c-9.617,8.088-22.272,3.377-24.551-9.085c-0.834-4.562-0.798-9.081,0.156-13.578
		c2.487-11.727,14.499-16.214,23.894-8.973C581.633,128.679,582.226,129.125,583.753,130.286z M584.021,144.672
		c-0.454-2.857-0.673-5.759-1.409-8.518c-1.193-4.474-4.463-6.879-9.227-7.268c-4.389-0.359-8.025,1.517-9.823,5.627
		c-2.801,6.401-2.768,13.027-0.188,19.464c1.749,4.362,5.218,5.901,10.702,5.487c4.6-0.347,7.614-2.667,8.735-7.112
		C583.436,149.874,583.625,147.28,584.021,144.672z"/>
	<path d="M945.764,162.336c-4.549,0.51-4.649,0.483-4.684-3.401c-0.057-6.229-0.005-12.459-0.027-18.689
		c-0.005-1.517,0.046-3.063-0.215-4.543c-0.573-3.254-2.334-5.433-5.643-6.285c-7.807-2.009-13.922,2.142-14.406,10.334
		c-0.385,6.512-0.11,13.061-0.239,19.592c-0.067,3.38-0.318,3.481-4.137,3.041c-1.02-3.484-1.151-47.663-0.111-52.261
		c0.643-0.098,1.356-0.295,2.066-0.288c0.557,0.005,1.112,0.263,2.053,0.51c0,6.362,0,12.7,0,19.685
		c1.153-0.622,1.81-0.821,2.264-1.246c4.722-4.422,10.32-4.343,15.968-2.935c4.161,1.037,6.846,4.267,7.005,8.511
		C946.004,143.583,945.764,152.829,945.764,162.336z"/>
	<path d="M450.831,157.284c2.29,0.505,4.566,1.075,6.868,1.501c3.987,0.737,7.981,0.935,11.912-0.37
		c3.241-1.076,5.376-3.253,5.887-6.75c0.534-3.658-0.743-6.662-3.907-8.506c-2.31-1.347-4.837-2.303-7.254-3.46
		c-2.684-1.285-5.517-2.341-7.994-3.961c-4.789-3.133-6.298-7.952-5.37-13.479c0.916-5.46,4.688-8.263,9.66-9.508
		c6.124-1.533,12.047-0.583,18.401,1.817c-0.473,1.542-0.869,2.829-1.082,3.526c-5.186-0.474-9.751-1.367-14.276-1.189
		c-6.004,0.237-9.306,5.376-7.206,10.801c0.705,1.821,2.352,3.501,3.973,4.65c1.919,1.359,4.27,2.088,6.444,3.065
		c2.31,1.039,4.689,1.936,6.94,3.093c5.083,2.615,7.24,6.898,6.793,12.687c-0.44,5.706-3.576,9.306-8.602,11.045
		c-6.368,2.204-12.92,1.753-19.367,0.18C450.147,161.814,450.096,161.314,450.831,157.284z"/>
	<path d="M575.485,56.116c5.293,7.177,10.28,13.939,15.396,20.877c-3.833,1.416-6.143,0.208-8.111-2.844
		c-2.371-3.676-5.106-7.11-7.713-10.625c-0.875-1.18-1.844-2.287-2.769-3.427c-3.836,1.5-5.29,3.995-4.982,7.86
		c0.239,2.996,0.048,6.027,0.048,9.324c-1.672,0.087-2.94,0.152-4.549,0.236c0-17.708,0-35.115,0-53.036
		c1.333-0.066,2.69-0.133,4.441-0.219c0,11.36,0,22.257,0,34c1.349-1.06,2.156-1.537,2.767-2.201
		c3.975-4.323,7.884-8.71,11.864-13.029c2.631-2.855,2.667-2.82,7.573-2.053C584.77,46.051,580.33,50.863,575.485,56.116z"/>
	<path d="M690.403,72.039c4.113,0.647,7.758,1.525,11.436,1.7c2.758,0.131,5.644-0.329,8.315-1.098
		c3.123-0.9,4.828-3.445,5.195-6.752c0.365-3.298-0.743-6.103-3.52-7.837c-2.266-1.415-4.787-2.407-7.21-3.554
		c-2.559-1.212-5.27-2.155-7.677-3.622c-5.094-3.104-7.301-8.355-6.219-13.972c0.969-5.027,4.806-8.894,10.533-9.768
		c5.777-0.882,11.57-0.648,17.433,2.108c-0.251,1.249-0.499,2.485-0.749,3.732c-0.78,0.047-1.223,0.172-1.619,0.082
		c-2.467-0.555-4.901-1.453-7.391-1.662c-2.471-0.207-5.05-0.002-7.485,0.506c-2.991,0.624-4.97,2.657-5.551,5.843
		c-0.593,3.246,0.141,6.195,2.817,8.103c2.166,1.544,4.67,2.616,7.08,3.777c2.82,1.359,5.787,2.421,8.534,3.91
		c4.735,2.567,6.472,6.808,6.111,12.174c-0.342,5.088-2.879,8.615-7.292,10.585c-6.867,3.065-13.956,2.487-21,0.614
		C689.537,76.214,689.841,74.231,690.403,72.039z"/>
	<path d="M987.168,144.779c-8.554,0-16.676,0-24.673,0c-1.585,7.698,2.909,14.192,9.984,14.439
		c4.093,0.143,8.219-0.688,12.396-1.087c0.836,3.041,0.757,3.403-2.007,4.3c-4.783,1.552-9.717,1.674-14.539,0.503
		c-5.669-1.376-9.288-5.306-10.923-10.954c-1.602-5.534-1.436-11.119,0.475-16.566c2.644-7.539,9.251-11.592,16.809-10.437
		c7.498,1.146,12.056,6.539,12.467,14.802C987.231,141.26,987.168,142.748,987.168,144.779z M962.208,140.709
		c6.572,0,12.886,0,19.146,0c1.072-6.491-2.352-11.317-8.117-11.822C966.957,128.337,962.28,133.116,962.208,140.709z"/>
	<path d="M630.146,144.862c-8.674,0-16.788,0-24.804,0c-1.269,8.193,3.292,14.299,10.683,14.394
		c3.941,0.051,7.892-0.756,12.035-1.197c1.028,2.038,0.429,3.585-1.92,4.289c-5.391,1.615-10.86,1.951-16.24,0.134
		c-5.038-1.701-8.131-5.525-9.568-10.63c-1.516-5.384-1.389-10.815,0.417-16.136c2.643-7.79,9.309-11.952,17.041-10.711
		c7.481,1.201,11.968,6.603,12.348,14.909C630.199,141.261,630.146,142.613,630.146,144.862z M605.378,140.921
		c6.333,0.112,12.763,0.248,19.138-0.09c0.546-7.385-3.052-11.804-9.017-11.992C609.897,128.662,604.101,134.279,605.378,140.921z"
		/>
	<path d="M826.755,162.198c-2.957,0.295-2.957,0.295-4.86-3.883c-0.503,0.284-1.114,0.45-1.46,0.853
		c-3.648,4.256-8.43,4.754-13.495,4.297c-4.827-0.436-8.104-3.402-9-8.069c-0.953-4.967,0.759-9.661,5.128-11.487
		c3.639-1.521,7.691-2.107,11.614-2.783c2.144-0.37,4.4-0.066,6.419-0.066c2.521-7.805-1.214-12.835-8.494-11.953
		c-2.915,0.353-5.753,1.376-8.939,2.172c-0.42-0.885-0.894-1.884-1.52-3.205c6.085-3.177,12.139-3.841,18.377-2.119
		c3.665,1.011,6.014,3.916,6.13,7.63C826.954,143.123,826.755,152.678,826.755,162.198z M821.892,144.9
		c-5.092-0.947-11.192-0.362-14.489,1.137c-2.908,1.323-4.391,3.652-4.432,6.787c-0.034,2.57,1.005,4.719,3.421,5.947
		c6.199,3.15,14.507-1.224,15.463-8.24C822.097,148.758,821.892,146.921,821.892,144.9z"/>
	<path d="M734.271,59.301c-0.553,9.775,4.876,15.394,13.54,14.707c3.223-0.256,6.401-1.101,9.599-1.677
		c0.535,3.685,0.562,3.771-2.207,4.667c-5.073,1.641-10.246,1.981-15.364,0.356c-5.021-1.595-8.424-5.117-9.974-10.225
		c-1.715-5.651-1.759-11.446,0.247-17.003c3.278-9.079,10.293-11.883,18.936-10.115c3.835,0.785,6.664,3.313,8.468,6.857
		c1.893,3.72,2.578,7.672,1.761,12.432C750.985,59.301,742.741,59.301,734.271,59.301z M734.261,55.428
		c6.73,0.158,13.108,0.663,19.424-0.246c0.528-6.826-2.368-10.985-7.63-11.507C739.246,42.998,735.081,46.876,734.261,55.428z"/>
	<path d="M628.456,59.416c-9.145,0-17.398,0-25.547,0c-1.007,7.536,2.59,13.233,9.131,14.174c3.29,0.473,6.755-0.222,10.131-0.512
		c1.275-0.11,2.521-0.567,3.773-0.864c0.939,2.549,0.398,3.985-2.015,4.728c-5.403,1.665-10.824,2.107-16.21,0.196
		c-4.807-1.705-7.978-5.235-9.445-10.181c-1.636-5.515-1.669-11.163,0.205-16.576c3.172-9.16,10.296-12.33,19.195-10.299
		c5.071,1.157,8.184,4.888,9.516,9.898C627.915,52.703,627.973,55.61,628.456,59.416z M622.131,55.295
		c0.887-4.107-0.214-7.331-3.155-9.854c-2.648-2.273-7.775-2.578-10.912-0.627c-3.676,2.286-5.406,5.688-5.231,10.481
		C609.363,55.295,615.651,55.295,622.131,55.295z"/>
	<path d="M877.233,58.759c-0.068,1.367-0.087,2.583-0.195,3.79c-1.384,15.556-15.561,18.197-24.106,14.106
		c-3.827-1.832-6.369-4.905-7.781-8.937c-1.965-5.611-2.071-11.31-0.347-16.978c2.46-8.086,8.798-11.906,18.154-11.111
		c7.215,0.613,12.906,6.402,13.964,14.287C877.143,55.564,877.141,57.243,877.233,58.759z M872.473,58.901
		c-0.485-2.554-0.709-5.468-1.617-8.14c-1.669-4.916-5.346-7.136-10.753-7.053c-5.08,0.079-8.529,2.433-10.108,7.316
		c-1.672,5.17-1.676,10.463,0.019,15.632c1.667,5.083,5.278,7.601,10.409,7.621c5.3,0.02,9.088-2.67,10.664-7.905
		C871.776,64.084,871.982,61.645,872.473,58.901z"/>
	<path d="M661.419,40.62c1.889,0,3.192,0,4.872,0c-0.334,1.362-0.504,2.509-0.894,3.572c-4.706,12.799-9.399,25.603-14.212,38.36
		c-0.955,2.531-2.178,5.024-3.667,7.264c-2.802,4.215-7.043,5.354-11.785,4.862c-1.986-0.206-2.132-0.534-2.382-3.581
		c0.977-0.123,1.966-0.365,2.952-0.352c4.446,0.062,7.16-2.343,9.022-6.225c1.845-3.847,2.385-7.359,0.458-11.646
		c-3.968-8.826-7.235-17.981-10.772-27.009c-0.601-1.533-1.107-3.105-1.663-4.675c4.483-1.211,4.698-1.181,6.115,2.621
		c3.121,8.375,6.147,16.786,9.234,25.174c0.339,0.92,0.824,1.783,1.565,3.364C654.131,61.345,657.735,51.098,661.419,40.62z"/>
	<path d="M545.534,162.183c-4.229,2.013-3.715-2.065-5.44-3.785c-3.836,4.768-8.97,5.604-14.547,5.077
		c-5.555-0.524-8.693-3.264-9.926-8.787c-0.099-0.445-0.292-0.888-0.293-1.333c-0.017-8.944-0.013-17.889-0.013-27.366
		c1.535-0.071,2.872-0.134,4.734-0.22c0,2.168-0.001,3.804,0,5.439c0.004,6.236-0.09,12.474,0.041,18.708
		c0.123,5.876,2.483,8.917,7.018,9.505c6.937,0.899,11.452-1.633,12.891-7.546c0.603-2.476,0.783-5.1,0.846-7.665
		c0.138-5.624,0.075-11.254,0.111-16.881c0.002-0.287,0.157-0.573,0.358-1.259c1.238,0,2.59,0,4.221,0
		C545.534,138.211,545.534,150.152,545.534,162.183z"/>
	<path d="M892.592,77.346c-1.764,0-2.907,0-4.378,0c0-12.26,0-24.333,0-36.285c3.907-2.023,3.636,1.759,4.887,3.664
		c0.785-0.561,1.416-0.902,1.915-1.386c4.518-4.379,9.927-4.408,15.481-3.133c4.42,1.015,7.235,4.234,7.413,8.652
		c0.378,9.372,0.115,18.771,0.115,28.415c-1.543,0-2.809,0-4.474,0c-0.079-1.582-0.212-3.059-0.218-4.537
		c-0.026-6.536,0.036-13.072-0.033-19.607c-0.058-5.464-2.057-8.365-6.159-9.243c-5.899-1.263-11.321,1.065-13.058,5.966
		c-0.792,2.233-1.097,4.73-1.177,7.122c-0.174,5.162-0.044,10.334-0.075,15.501C892.822,73.968,892.689,75.459,892.592,77.346z"/>
	<path d="M516.405,40.701c1.514,0,2.662,0,3.748,0c1.174,1.186,1.474,29.579,0.445,36.224c-3.177,0.594-3.177,0.594-4.53-3.591
		c-0.762,0.439-1.553,0.744-2.162,1.269c-5.102,4.394-10.848,4.586-16.815,2.536c-3.754-1.29-5.999-4.368-6.116-8.243
		c-0.278-9.239-0.09-18.494-0.09-28.093c1.453-0.111,2.699-0.207,3.901-0.299c0.331,0.688,0.677,1.077,0.684,1.473
		c0.079,4.406,0.116,8.813,0.144,13.22c0.019,3.041-0.033,6.083,0.015,9.124c0.098,6.13,2.269,9.108,7.119,9.866
		c5.943,0.929,10.817-1.724,12.419-7.073c0.64-2.138,0.828-4.471,0.885-6.725c0.128-5.015,0.022-10.035,0.06-15.053
		C516.125,43.855,516.295,42.376,516.405,40.701z"/>
	<path d="M869.664,162.495c-1.522,0-2.766,0-4.413,0c-0.089-1.661-0.23-3.138-0.236-4.616c-0.026-6.388,0.037-12.777-0.03-19.165
		c-0.063-5.989-2.047-8.647-6.895-9.523c-5.735-1.036-10.758,1.387-12.445,6.336c-0.719,2.107-0.992,4.447-1.062,6.695
		c-0.156,5.015-0.036,10.037-0.073,15.057c-0.012,1.645-0.16,3.289-0.261,5.224c-1.561,0-2.803,0-4.364,0
		c0-12.205,0-24.148,0-36.062c3.147-0.753,3.147-0.753,4.805,3.512c0.866-0.577,1.721-1.052,2.471-1.661
		c5.063-4.11,10.65-4.29,16.456-2.176c3.568,1.299,5.814,4.255,5.939,7.896C869.877,143.39,869.664,152.788,869.664,162.495z"/>
	<path d="M645.783,129.435c3.681-1.608,6.784-3.574,10.134-4.238c2.769-0.549,5.926,0.074,8.738,0.841
		c3.623,0.989,5.871,3.98,6.213,7.649c0.886,9.515,0.314,19.06,0.372,28.822c-1.82,0-3.07,0-4.663,0
		c-0.083-1.775-0.207-3.263-0.213-4.751c-0.024-6.388,0.041-12.777-0.031-19.165c-0.065-5.758-1.979-8.382-6.572-9.33
		c-5.691-1.175-10.925,1.126-12.658,5.949c-0.801,2.229-1.086,4.735-1.169,7.131c-0.174,5.013-0.036,10.037-0.075,15.056
		c-0.013,1.632-0.176,3.263-0.281,5.075c-1.622,0-2.857,0-4.334,0c-0.124-1.653-0.307-2.99-0.311-4.328
		c-0.026-9.278-0.069-18.557,0.038-27.834c0.018-1.594-1.033-4.005,1.63-4.533c2.726-0.541,2.26,2.192,3.098,3.578
		C645.77,129.473,645.913,129.544,645.783,129.435z"/>
	<path d="M468.044,31.752c0,15.591,0,30.397,0,45.471c-1.765,0.133-3.036,0.228-4.816,0.362c-0.099-1.878-0.253-3.484-0.256-5.09
		c-0.021-11.541,0.001-23.083-0.025-34.625c-0.004-1.779-0.182-3.558-0.305-5.814c-5.195,0-10.032,0-15.176,0
		c-0.112-1.585-0.189-2.685-0.29-4.118c12.179,0,24.017,0,36.023,0c0.185,0.506,0.502,1.043,0.555,1.606
		c0.054,0.567-0.153,1.161-0.32,2.206C478.552,31.752,473.714,31.752,468.044,31.752z"/>
	<path d="M996.133,158.044c4.133,0.483,8.223,1.075,12.334,1.378c1.424,0.105,2.995-0.268,4.331-0.833
		c4.278-1.811,4.943-6.589,1.263-9.407c-1.642-1.257-3.623-2.079-5.507-2.973c-2.697-1.281-5.519-2.303-8.154-3.698
		c-3.488-1.846-5.284-4.841-4.854-8.963c0.413-3.954,2.865-6.193,6.298-7.533c5.103-1.991,12.006-1.508,17.758,1.215
		c-0.784,3.653-0.769,3.573-3.676,2.992c-2.76-0.552-5.546-1.093-8.343-1.281c-1.419-0.095-2.984,0.38-4.318,0.979
		c-3.54,1.589-4.168,5.653-1.13,8.084c1.717,1.374,3.889,2.18,5.906,3.133c2.698,1.275,5.506,2.322,8.156,3.691
		c3.726,1.924,5.276,5.128,4.894,9.398c-0.369,4.134-2.646,6.812-6.258,8.102c-5.496,1.962-11.153,1.729-16.71,0.147
		C995.442,161.714,995.442,161.412,996.133,158.044z"/>
	<path d="M906.457,126.747c-0.526,1.418-0.927,2.499-1.325,3.572c-2.875-0.319-5.498-0.82-8.127-0.858
		c-5.597-0.08-9.018,2.469-10.566,7.877c-1.317,4.602-1.331,9.32-0.046,13.93c1.553,5.571,5.122,8.197,10.911,8.039
		c2.763-0.076,5.513-0.606,8.351-0.94c0.909,2.276,0.53,3.776-1.746,4.349c-10.406,2.621-21.361,0.122-23.042-13.367
		c-0.461-3.696-0.356-7.587,0.217-11.27c1.145-7.351,5.815-11.675,13.049-12.956C898.349,124.375,902.309,125.093,906.457,126.747z"
		/>
	<path d="M491.248,129.985c-2.083-0.517-3.47-0.862-5.386-1.338c0.873-1.019,1.299-2.003,1.942-2.183
		c3.054-0.857,4.06-3.215,4.791-5.982c0.629-2.381,0.733-2.353,3.41-3.434c0.263,2.77,0.51,5.385,0.814,8.594
		c2.507,0,4.848-0.028,7.188,0.011c1.301,0.022,3.002-0.258,3.078,1.707c0.089,2.309-1.814,1.985-3.242,2.026
		c-2.212,0.064-4.427,0.017-7.001,0.017c-0.157,1.688-0.375,2.996-0.384,4.306c-0.039,5.781,0.13,11.568-0.062,17.344
		c-0.175,5.269,1.666,9.268,8.647,8.405c0.57-0.07,1.155-0.009,1.895-0.009c0.745,2.246,0.443,3.759-2.021,3.927
		c-2.073,0.141-4.199,0.249-6.239-0.059c-4.227-0.637-6.838-3.742-7.029-8.685c-0.246-6.381-0.114-12.777-0.176-19.166
		C491.457,133.665,491.329,131.866,491.248,129.985z"/>
	<path d="M793.975,41.049c-0.415,1.57-0.705,2.665-0.993,3.756c-0.71,0.048-1.15,0.158-1.563,0.092
		c-2.051-0.33-4.086-0.936-6.143-1.022c-5.788-0.24-9.681,2.716-11.238,8.354c-1.196,4.329-1.247,8.689-0.096,13.045
		c1.666,6.307,5.888,9.368,12.253,8.715c2.341-0.24,4.65-0.808,6.97-1.226c0.693,3.729,0.624,3.974-2.057,4.733
		c-4.258,1.205-8.545,1.24-12.751-0.199c-4.728-1.619-7.729-5.091-9.131-9.87c-1.66-5.658-1.623-11.424,0.079-17.063
		c1.982-6.569,7.2-10.494,13.976-10.747c1.928-0.072,3.878-0.048,5.792,0.172C790.521,39.958,791.928,40.506,793.975,41.049z"/>
	<path d="M699.573,159.608c0.672,1.958,0.522,3.543-1.196,3.584c-3.062,0.073-6.337,0.219-9.159-0.76
		c-4.045-1.403-4.924-5.405-5-9.355c-0.116-6.073-0.039-12.149-0.044-18.224c-0.001-1.638,0-3.277,0-4.852
		c-2.056-0.485-3.597-0.849-5.679-1.341c0.885-0.995,1.319-1.939,1.969-2.135c3.144-0.948,4.351-3.307,5.06-6.292
		c0.343-1.447,0.447-3.611,3.282-2.732c0.198,2.439,0.4,4.939,0.643,7.943c2.807,0.074,5.431,0.152,8.055,0.211
		c1.333,0.03,2.589,0.413,2.179,2.019c-0.181,0.708-1.36,1.557-2.143,1.622c-2.495,0.207-5.017,0.077-7.959,0.077
		c-0.189,1.662-0.451,2.949-0.461,4.237c-0.046,5.771-0.06,11.543-0.012,17.314c0.056,6.682,1.903,8.482,8.584,8.549
		C698.27,159.476,698.845,159.552,699.573,159.608z"/>
	<path d="M808.949,40.131c2.249,0.108,4.139,0.205,6.031,0.285c0.891,0.038,1.855-0.163,2.655,0.124
		c0.681,0.245,1.175,1.034,1.751,1.583c-0.571,0.55-1.087,1.478-1.723,1.574c-1.604,0.242-3.264,0.064-4.897,0.14
		c-1.15,0.053-2.294,0.247-4.036,0.447c0,2.121,0,4.045,0,5.969c0.001,5.164-0.031,10.328,0.011,15.491
		c0.054,6.676,2.1,8.656,8.619,8.461c0.582-0.017,1.165-0.002,2.02-0.002c0,1.049,0,2.011,0,3.394
		c-1.876,0.24-3.762,0.701-5.643,0.68c-6.286-0.069-9.652-3.333-9.861-9.798c-0.206-6.372-0.062-12.755-0.116-19.133
		c-0.014-1.635-0.191-3.269-0.299-4.994c-1.743-0.347-3.155-0.628-5.031-1.002c0.577-0.909,0.859-1.946,1.428-2.151
		c2.983-1.071,4.483-3.178,5.095-6.271c0.265-1.338,0.24-3.517,2.274-3.313c2.128,0.214,1.349,2.309,1.484,3.693
		C808.854,36.779,808.863,38.263,808.949,40.131z"/>
	<path d="M538.768,77.288c-1.759,0-3.036,0-4.619,0c0-12.174,0-24.259,0-36.562c1.183,0,2.168,0,3.266,0
		c0.505,1.895,0.988,3.706,1.645,6.174c4.078-5.407,8.461-8.693,15.269-6.824c-0.159,1.249-0.318,2.502-0.47,3.7
		c-11.002,0.442-15.068,4.846-15.09,16.021C538.759,65.546,538.768,71.296,538.768,77.288z"/>
	<path d="M776.57,162.508c-1.253,0.139-1.984,0.314-2.7,0.268c-0.548-0.035-1.079-0.351-1.784-0.6
		c-0.076-1.274-0.207-2.461-0.209-3.648c-0.016-9.859-0.035-19.718,0.008-29.576c0.013-2.943,0.101-2.943,3.526-2.971
		c0.473,1.778,0.962,3.614,1.686,6.332c4.069-5.326,8.448-8.853,15.235-6.895c-0.169,1.4-0.307,2.548-0.447,3.711
		c-0.586,0.164-1.017,0.43-1.396,0.369c-8.911-1.437-13.966,6.968-13.728,14.051c0.158,4.696,0.043,9.403,0.017,14.104
		C776.771,159.141,776.655,160.631,776.57,162.508z"/>
	<path d="M828.23,40.798c0.971-0.147,1.551-0.299,2.133-0.304c0.578-0.005,1.156,0.138,1.672,0.207
		c1.066,3.485,1.236,31.809,0.205,36.577c-1.201,0-2.457,0-4.01,0C828.23,65.118,828.23,53.163,828.23,40.798z"/>
	<path d="M830.478,32.788c-1.771,0.1-2.988-1.124-3.087-3.103c-0.093-1.868,1.118-3.412,2.75-3.508
		c1.654-0.096,2.949,1.264,3.018,3.17C833.236,31.452,832.273,32.687,830.478,32.788z"/>
</g>
</svg>
