<?xml version="1.0" encoding="iso-8859-1"?>
<!-- Generator: Adobe Illustrator 26.0.1, SVG Export Plug-In . SVG Version: 6.00 Build 0)  -->
<svg version="1.1" id="Layer_1" xmlns="http://www.w3.org/2000/svg" xmlns:xlink="http://www.w3.org/1999/xlink" x="0px" y="0px"
	 viewBox="0 0 149.041 125.743" style="enable-background:new 0 0 149.041 125.743;" xml:space="preserve">
<g>
	<g>
		<path d="M73.76,5.731c0,2.037-1.651,3.689-3.689,3.689c-2.037,0-3.689-1.652-3.689-3.689c0-2.038,1.651-3.689,3.689-3.689
			C72.109,2.042,73.76,3.694,73.76,5.731L73.76,5.731z"/>
		<path d="M78.052,6.696c0,0,5.562,0.068,5.562,0.023c0,0-0.132,1.388-0.255,1.82c-0.687,2.368-2.211,4.556-4.396,5.918
			c-0.565,0.347-2.649,1.242-2.907,1.7c-0.369,0.64-0.567,1.807-0.725,2.557c-0.375,1.51-0.75,3.024-1.126,4.534
			c-0.949,3.73-1.895,7.463-2.844,11.194c-0.205,0.839-0.41,1.681-0.615,2.519c-0.161,0.599-0.448,1.284-0.448,1.936
			c-0.066,0-0.132,0-0.202,0c-1.296-5.556-2.592-11.109-3.888-16.664c-0.302-1.312-0.602-2.624-0.905-3.935
			c-0.152-0.615-0.199-1.33-0.533-1.854c-0.303-0.47-1.961-0.927-2.513-1.217c-2.141-1.129-4.008-2.867-5.023-5.067
			c-0.448-0.971-0.681-2.002-0.75-3.15c-0.01-0.123-0.069-0.199,0.091-0.199c0-0.035,0-0.066,0-0.101c1.816,0,3.632,0,5.449,0
			c0.107,3.374,3.204,5.206,6.07,5.887c0.899,0.211,1.848,0.167,2.809,0.167c0.3-0.044,0.602-0.088,0.902-0.136
			c0.533-0.142,1.066-0.283,1.596-0.429c1.756-0.678,3.402-1.936,4.197-3.705C77.853,7.914,77.893,7.286,78.052,6.696L78.052,6.696z
			"/>
		<path d="M90.176,20.13c0.208,0.152,8.596,48.198,8.577,48.432c-0.063,0.022-11.318,0-11.826,0
			c-0.076-0.347-5.245-21.983-5.327-22.299c0,0.025-11.285,19.275-11.281,19.271c-0.004,0.029-11.867-18.64-11.845-18.646
			c0.003,0.031-4.775,21.68-4.778,21.685c-0.044-0.018-12.126-0.106-12.096-0.106c-0.03,0,8.73-48.135,8.721-48.135
			c0-0.035,0-0.066,0-0.101c0.107-0.006,20.255,27.098,19.978,26.941C77.44,37.472,90.254,20.505,90.176,20.13L90.176,20.13z"/>
		<path d="M4.108,22.349c10.629,0,21.259,0,31.885,0c0,2.724,0,5.449,0,8.173c-6.76,0-13.521,0-20.281,0c0,3.532,0,7.063,0,10.595
			c5.751,0,11.503,0,17.254,0c0,3.061,0,6.123,0,9.181c-5.751,0-11.503,0-17.254,0c0,3.465,0,6.931,0,10.393
			c6.726,0,13.455,0,20.18,0c0,2.689,0,5.383,0,8.072c-10.595,0-21.189,0-31.784,0C4.108,53.291,4.108,37.822,4.108,22.349
			L4.108,22.349z"/>
		<path d="M104.402,22.249c5.01,0,20.079,0.044,20.079,0.044s7.638-0.058,11.01,2.05c5.884,3.497,6.467,13.874,0.93,18.029
			c-0.398,0.296-2.059,1.469-2.456,1.469c0,0.066,0,0.136,0,0.202c0.034,0,0.069,0,0.101,0c0.561,0.224,1.122,0.451,1.68,0.675
			c1.612,0.722,3.037,1.791,4.206,3.21c1.009,1.226,1.479,2.8,1.823,4.379c1.258,5.814-0.871,12.414-6.132,14.87
			c-3.732,1.742-12.903,1.687-16.51,1.687c-4.91,0-9.819,0-14.731,0C104.402,53.326,104.402,37.787,104.402,22.249L104.402,22.249z
			 M116.107,30.825c0,3.093,0,6.189,0,9.283c2.589,0,5.181,0,7.769,0c0.23-0.05,0.46-0.101,0.691-0.154
			c0.514-0.136,1.226-0.416,1.633-0.766c2.273-1.961,1.93-6.789-0.955-7.943c-1.353-0.542-3.065-0.419-4.698-0.419
			C119.068,30.825,117.589,30.825,116.107,30.825L116.107,30.825z M116.006,49.895c0,3.431,0,6.861,0,10.292
			c2.356,0,4.711,0,7.063,0c0.842-0.022,2.191-0.136,3.008-0.383c0.817-0.247,1.362-0.608,1.847-1.027
			c2.318-2.021,2.135-6.985-0.943-8.227c-1.589-0.643-3.406-0.656-5.326-0.656C119.774,49.895,117.891,49.895,116.006,49.895
			L116.006,49.895z"/>
		<path d="M54.095,83.194c0,4.316-3.5,7.816-7.816,7.816s-7.817-3.5-7.817-7.816c0-4.317,3.5-7.816,7.817-7.816
			S54.095,78.877,54.095,83.194L54.095,83.194z M46.278,78.58c-2.548,0-4.614,2.066-4.614,4.614c0,2.548,2.066,4.614,4.614,4.614
			c2.548,0,4.614-2.066,4.614-4.614C50.892,80.646,48.826,78.58,46.278,78.58L46.278,78.58z"/>
		<path d="M37.38,88.395c-2.791-0.195-4.994-2.52-4.994-5.36s2.203-5.165,4.993-5.36l0.002-3.784
			c-4.866,0.185-8.754,4.189-8.754,9.1c0,4.911,3.887,8.914,8.753,9.1V88.395L37.38,88.395z"/>
		<polygon points="29.285,84.863 3.887,84.863 3.887,81.727 29.285,81.727 29.285,84.863 		"/>
		<polygon points="142.011,84.863 52.843,84.863 52.843,81.727 142.011,81.727 142.011,84.863 		"/>
	</g>
	<g>
		<path d="M31.695,107.68h-0.853c-0.196,0-0.998,0.032-0.998,0.032l-0.051-0.064c0.031-0.964,0.051-1.922,0.051-2.889v-0.727
			c0-1.204-0.01-2.42-0.092-3.627l0.051-0.062h0.718c0.343,0,0.945-0.021,1.163-0.032l0.041,0.064
			c-0.031,1.421-0.051,2.856-0.051,4.289c0,0.987,0.021,1.975,0.073,2.953L31.695,107.68z"/>
		<path d="M38.045,106.349c-0.031,0.425-0.051,0.873-0.073,1.269l-0.082,0.062c-1.518,0-3.045,0.012-4.573,0.021l-0.051-0.073
			c0.041-0.955,0.051-1.91,0.051-2.877v-2.15c0-0.738-0.01-1.468-0.072-2.194l0.062-0.062c1.134,0,3.876-0.021,4.563-0.021
			l0.051,0.062c-0.031,0.428-0.063,0.8-0.073,1.207l-0.062,0.062c-0.894-0.021-1.777-0.032-2.66-0.032
			c0,0.199-0.01,0.478-0.01,0.771c0,0.331,0,0.665,0.01,0.882c0.841,0,1.673-0.009,2.503-0.041l0.063,0.073
			c-0.031,0.396-0.053,0.779-0.073,1.175l-0.062,0.062c-1.528-0.012-2.432-0.012-2.432-0.012c0,0.615,0.01,1.216,0.021,1.819
			c0.957,0,1.901-0.021,2.848-0.073L38.045,106.349z"/>
		<path d="M43.887,106.349c-0.031,0.425-0.051,0.873-0.073,1.269l-0.082,0.062c-1.518,0-3.045,0.012-4.573,0.021l-0.051-0.073
			c0.041-0.955,0.051-1.91,0.051-2.877v-2.15c0-0.738-0.01-1.468-0.072-2.194l0.062-0.062c1.134,0,3.876-0.021,4.563-0.021
			l0.051,0.062c-0.031,0.428-0.063,0.8-0.073,1.207l-0.062,0.062c-0.894-0.021-1.777-0.032-2.66-0.032
			c0,0.199-0.01,0.478-0.01,0.771c0,0.331,0,0.665,0.01,0.882c0.841,0,1.673-0.009,2.503-0.041l0.063,0.073
			c-0.031,0.396-0.053,0.779-0.073,1.175l-0.062,0.062c-1.528-0.012-2.432-0.012-2.432-0.012c0,0.615,0.01,1.216,0.021,1.819
			c0.957,0,1.901-0.021,2.848-0.073L43.887,106.349z"/>
		<path d="M49.729,106.349c-0.031,0.425-0.051,0.873-0.073,1.269l-0.082,0.062c-1.518,0-3.045,0.012-4.573,0.021l-0.051-0.073
			c0.041-0.955,0.051-1.91,0.051-2.877v-2.15c0-0.738-0.01-1.468-0.072-2.194l0.062-0.062c1.134,0,3.876-0.021,4.563-0.021
			l0.051,0.062c-0.031,0.428-0.063,0.8-0.073,1.207l-0.062,0.062c-0.894-0.021-1.777-0.032-2.66-0.032
			c0,0.199-0.01,0.478-0.01,0.771c0,0.331,0,0.665,0.01,0.882c0.841,0,1.673-0.009,2.503-0.041l0.063,0.073
			c-0.031,0.396-0.053,0.779-0.073,1.175l-0.062,0.062c-1.528-0.012-2.432-0.012-2.432-0.012c0,0.615,0.01,1.216,0.021,1.819
			c0.957,0,1.901-0.021,2.848-0.073L49.729,106.349z"/>
		<path d="M58.606,106.349c-0.031,0.425-0.051,0.873-0.073,1.269l-0.082,0.062c-1.518,0-3.045,0.012-4.573,0.021l-0.051-0.073
			c0.041-0.955,0.051-1.91,0.051-2.877v-2.15c0-0.738-0.01-1.468-0.072-2.194l0.062-0.062c1.134,0,3.876-0.021,4.563-0.021
			l0.051,0.062c-0.031,0.428-0.063,0.8-0.073,1.207l-0.062,0.062c-0.894-0.021-1.777-0.032-2.66-0.032
			c0,0.199-0.01,0.478-0.01,0.771c0,0.331,0,0.665,0.01,0.882c0.841,0,1.673-0.009,2.503-0.041l0.063,0.073
			c-0.031,0.396-0.053,0.779-0.073,1.175l-0.062,0.062c-1.528-0.012-2.432-0.012-2.432-0.012c0,0.615,0.01,1.216,0.021,1.819
			c0.957,0,1.901-0.021,2.848-0.073L58.606,106.349z"/>
		<path d="M62.879,107.639c0.01-0.343,0.01-0.583,0.01-0.926s-0.01-0.987-0.01-1.567c0-0.938,0-1.717-0.686-1.717
			c-0.406,0-0.645,0.229-0.779,0.322v0.457c0,1.26,0.01,2.142,0.082,3.398l-0.062,0.073h-0.406c-0.488,0-0.841,0.012-1.33,0.032
			l-0.062-0.073c0.01-0.706,0.021-1.207,0.021-1.913c0-1.236-0.021-2.109-0.145-3.334l0.062-0.064
			c0.655-0.103,1.112-0.176,1.746-0.311l0.114,0.082c-0.021,0.249-0.021,0.571-0.021,0.571l0.135-0.082
			c0.541-0.343,0.998-0.539,1.548-0.539c1.485,0,1.538,1.236,1.538,2.18c0,1.187,0.031,2.247,0.083,3.378l-0.073,0.073h-0.363
			c-0.5,0-0.842,0.012-1.34,0.032L62.879,107.639z"/>
		<path d="M70.747,103.285l-0.716-0.044c0.198,0.252,0.28,0.604,0.28,0.873c0,1.289-1.236,1.831-2.244,1.831
			c-0.094,0-0.155,0-0.249-0.021l-0.157,0.363c0.292,0.123,0.458,0.144,1.02,0.258l0.249,0.053c0.945,0.199,1.818,0.562,1.818,1.693
			c0,1.102-0.965,1.986-2.754,1.986c-1.09,0-1.818-0.302-2.202-0.844c-0.24-0.343-0.24-0.686-0.24-0.788
			c0.022-0.686,0.5-1.069,0.801-1.301c-0.104-0.07-0.218-0.135-0.437-0.311v-0.094c0.259-0.457,0.437-0.788,0.686-1.269
			c-0.447-0.229-0.998-0.686-0.998-1.579c0-0.372,0.114-0.861,0.467-1.236c0.624-0.653,1.538-0.706,2.12-0.706
			c0.375,0,0.904,0.021,1.434,0.021c0.437,0,0.749-0.009,1.195-0.029l0.063,0.05c-0.032,0.384-0.063,0.656-0.073,1.028
			L70.747,103.285z M67.391,107.826c-0.114,0.123-0.302,0.363-0.302,0.674c0,0.416,0.302,0.812,1.03,0.812
			c0.602,0,0.935-0.29,0.935-0.624c0-0.51-0.561-0.56-1.247-0.747L67.391,107.826z M67.982,103.139
			c-0.353,0-0.696,0.261-0.696,0.894c0,0.645,0.353,0.935,0.706,0.935c0.385,0,0.677-0.302,0.677-0.914
			C68.669,103.607,68.472,103.139,67.982,103.139z"/>
		<path d="M71.694,107.639c0.053-0.946,0.073-1.623,0.073-2.578c0-1.351-0.042-2.004-0.125-2.669l0.062-0.064
			c0.665-0.103,1.132-0.185,1.797-0.311l0.073,0.082c-0.021,0.864-0.031,1.477-0.031,2.338c0,1.175,0.01,2.007,0.083,3.17
			l-0.063,0.073h-0.343c-0.541,0-0.914,0.012-1.455,0.032L71.694,107.639z M71.705,101.269c0.01-0.199,0.01-0.396,0.01-0.595
			c0-0.311-0.01-0.539-0.031-0.85l0.063-0.073c0.623-0.064,1.069-0.126,1.693-0.208l0.062,0.062
			c-0.021,0.428-0.031,0.727-0.031,1.163v0.249l-0.051,0.073c-0.614,0.073-1.04,0.135-1.642,0.24L71.705,101.269z"/>
		<path d="M78.043,107.639c0.012-0.343,0.012-0.583,0.012-0.926s-0.012-0.987-0.012-1.567c0-0.938,0-1.717-0.686-1.717
			c-0.404,0-0.643,0.229-0.778,0.322v0.457c0,1.26,0.01,2.142,0.083,3.398L76.6,107.68h-0.406c-0.488,0-0.841,0.012-1.33,0.032
			l-0.062-0.073c0.01-0.706,0.021-1.207,0.021-1.913c0-1.236-0.021-2.109-0.145-3.334l0.062-0.064
			c0.655-0.103,1.112-0.176,1.746-0.311l0.114,0.082c-0.021,0.249-0.021,0.571-0.021,0.571l0.135-0.082
			c0.541-0.343,0.998-0.539,1.548-0.539c1.485,0,1.538,1.236,1.538,2.18c0,1.187,0.032,2.247,0.082,3.378l-0.073,0.073h-0.363
			c-0.498,0-0.841,0.012-1.339,0.032L78.043,107.639z"/>
		<path d="M85.622,107.431c-0.437,0.176-0.923,0.375-1.828,0.375c-2.599,0-2.982-1.893-2.982-2.868c0-1.57,0.885-2.889,2.692-2.889
			c0.809,0,2.452,0.217,2.452,3.003v0.196l-0.062,0.073c-1.239,0.021-2.109,0.032-3.357,0.062c0.103,0.583,0.425,1.207,1.526,1.207
			c0.779,0,1.31-0.281,1.623-0.448l0.07,0.032c-0.041,0.437-0.05,0.738-0.07,1.172L85.622,107.431z M83.451,103.159
			c-0.457,0-0.853,0.343-0.905,1.113c0.636,0,1.093-0.012,1.737-0.032C84.283,103.408,83.826,103.159,83.451,103.159z"/>
		<path d="M91.464,107.431c-0.437,0.176-0.923,0.375-1.828,0.375c-2.599,0-2.982-1.893-2.982-2.868c0-1.57,0.885-2.889,2.692-2.889
			c0.809,0,2.452,0.217,2.452,3.003v0.196l-0.062,0.073c-1.239,0.021-2.109,0.032-3.357,0.062c0.103,0.583,0.425,1.207,1.526,1.207
			c0.779,0,1.31-0.281,1.623-0.448l0.07,0.032c-0.041,0.437-0.05,0.738-0.07,1.172L91.464,107.431z M89.293,103.159
			c-0.457,0-0.853,0.343-0.905,1.113c0.636,0,1.093-0.012,1.737-0.032C90.125,103.408,89.668,103.159,89.293,103.159z"/>
		<path d="M94.584,107.68H94.2c-0.51,0-0.873,0.012-1.392,0.032l-0.053-0.073c0.021-0.759,0.029-1.289,0.029-2.057v-0.562
			c0-0.905-0.009-1.641-0.091-2.628l0.062-0.064c0.645-0.103,1.09-0.176,1.726-0.311l0.082,0.082l-0.041,0.958
			c0.135-0.293,0.486-1.008,1.277-1.008c0.041,0,0.146,0,0.188,0.009l0.062,0.073c-0.123,0.624-0.208,1.09-0.302,1.693l-0.082,0.041
			c-0.094-0.062-0.229-0.144-0.448-0.144c-0.642,0-0.686,0.633-0.686,1.028c0,0.976,0.044,1.934,0.105,2.856L94.584,107.68z"/>
		<path d="M96.594,107.639c0.05-0.946,0.07-1.623,0.07-2.578c0-1.351-0.041-2.004-0.123-2.669l0.062-0.064
			c0.665-0.103,1.134-0.185,1.799-0.311l0.073,0.082c-0.023,0.864-0.032,1.477-0.032,2.338c0,1.175,0.009,2.007,0.082,3.17
			l-0.062,0.073H98.12c-0.542,0-0.914,0.012-1.456,0.032L96.594,107.639z M96.602,101.269c0.012-0.199,0.012-0.396,0.012-0.595
			c0-0.311-0.012-0.539-0.032-0.85l0.062-0.073c0.624-0.064,1.072-0.126,1.693-0.208l0.064,0.062
			c-0.021,0.428-0.032,0.727-0.032,1.163v0.249l-0.053,0.073c-0.612,0.073-1.037,0.135-1.641,0.24L96.602,101.269z"/>
		<path d="M102.942,107.639c0.012-0.343,0.012-0.583,0.012-0.926s-0.012-0.987-0.012-1.567c0-0.938,0-1.717-0.686-1.717
			c-0.404,0-0.645,0.229-0.779,0.322v0.457c0,1.26,0.009,2.142,0.082,3.398l-0.062,0.073h-0.404c-0.489,0-0.844,0.012-1.33,0.032
			l-0.064-0.073c0.012-0.706,0.021-1.207,0.021-1.913c0-1.236-0.021-2.109-0.144-3.334l0.062-0.064
			c0.656-0.103,1.113-0.176,1.746-0.311l0.114,0.082c-0.021,0.249-0.021,0.571-0.021,0.571l0.135-0.082
			c0.539-0.343,0.996-0.539,1.547-0.539c1.488,0,1.538,1.236,1.538,2.18c0,1.187,0.032,2.247,0.085,3.378l-0.073,0.073h-0.363
			c-0.498,0-0.841,0.012-1.342,0.032L102.942,107.639z"/>
		<path d="M110.811,103.285l-0.718-0.044c0.196,0.252,0.281,0.604,0.281,0.873c0,1.289-1.236,1.831-2.244,1.831
			c-0.094,0-0.158,0-0.252-0.021l-0.155,0.363c0.293,0.123,0.457,0.144,1.02,0.258l0.249,0.053c0.946,0.199,1.819,0.562,1.819,1.693
			c0,1.102-0.967,1.986-2.754,1.986c-1.093,0-1.819-0.302-2.203-0.844c-0.24-0.343-0.24-0.686-0.24-0.788
			c0.021-0.686,0.498-1.069,0.8-1.301c-0.103-0.07-0.217-0.135-0.437-0.311v-0.094c0.261-0.457,0.437-0.788,0.686-1.269
			c-0.445-0.229-0.996-0.686-0.996-1.579c0-0.372,0.114-0.861,0.469-1.236c0.621-0.653,1.535-0.706,2.118-0.706
			c0.375,0,0.905,0.021,1.436,0.021c0.437,0,0.747-0.009,1.192-0.029l0.064,0.05c-0.032,0.384-0.064,0.656-0.073,1.028
			L110.811,103.285z M107.454,107.826c-0.114,0.123-0.302,0.363-0.302,0.674c0,0.416,0.302,0.812,1.028,0.812
			c0.604,0,0.938-0.29,0.938-0.624c0-0.51-0.562-0.56-1.248-0.747L107.454,107.826z M108.046,103.139
			c-0.352,0-0.694,0.261-0.694,0.894c0,0.645,0.352,0.935,0.706,0.935c0.384,0,0.674-0.302,0.674-0.914
			C108.731,103.607,108.535,103.139,108.046,103.139z"/>
		<path d="M114.576,107.639c0.05-0.946,0.07-1.623,0.07-2.578c0-1.351-0.041-2.004-0.123-2.669l0.062-0.064
			c0.665-0.103,1.134-0.185,1.799-0.311l0.073,0.082c-0.023,0.864-0.032,1.477-0.032,2.338c0,1.175,0.009,2.007,0.082,3.17
			l-0.062,0.073h-0.343c-0.542,0-0.914,0.012-1.456,0.032L114.576,107.639z M114.585,101.269c0.012-0.199,0.012-0.396,0.012-0.595
			c0-0.311-0.012-0.539-0.032-0.85l0.062-0.073c0.624-0.064,1.072-0.126,1.693-0.208l0.064,0.062
			c-0.021,0.428-0.032,0.727-0.032,1.163v0.249l-0.053,0.073c-0.612,0.073-1.037,0.135-1.641,0.24L114.585,101.269z"/>
		<path d="M120.925,107.639c0.012-0.343,0.012-0.583,0.012-0.926s-0.012-0.987-0.012-1.567c0-0.938,0-1.717-0.686-1.717
			c-0.404,0-0.645,0.229-0.779,0.322v0.457c0,1.26,0.009,2.142,0.082,3.398l-0.062,0.073h-0.404c-0.489,0-0.844,0.012-1.33,0.032
			l-0.064-0.073c0.012-0.706,0.021-1.207,0.021-1.913c0-1.236-0.021-2.109-0.144-3.334l0.062-0.064
			c0.656-0.103,1.113-0.176,1.746-0.311l0.114,0.082c-0.021,0.249-0.021,0.571-0.021,0.571l0.135-0.082
			c0.539-0.343,0.996-0.539,1.547-0.539c1.488,0,1.538,1.236,1.538,2.18c0,1.187,0.032,2.247,0.085,3.378l-0.073,0.073h-0.363
			c-0.498,0-0.841,0.012-1.342,0.032L120.925,107.639z"/>
		<path d="M13.367,120.673h-0.344c-0.539,0-0.914,0.012-1.455,0.032l-0.041-0.064c-0.01-1.951-0.031-4.685-0.031-5.941
			c-0.083,0.352-1.559,5.745-1.601,5.912l-0.062,0.062H9.542c-0.467,0-0.8,0.012-1.257,0.032l-0.063-0.064
			c-0.322-1.339-1.444-5.414-1.548-5.994c0,0.425-0.135,5.464-0.135,5.965l-0.063,0.062H6.144c-0.415,0-0.716,0.012-1.132,0.032
			L4.96,120.64c0.176-2.42,0.322-4.79,0.374-7.242l0.063-0.062h0.519c0.718,0,1.226-0.012,1.944-0.032l0.051,0.064
			c-0.01,0.041,1.008,3.896,1.269,5.027c0.322-1.216,1.32-4.811,1.381-4.998l0.063-0.062h0.519c0.697,0,1.195-0.012,1.893-0.032
			l0.062,0.064c0.041,2.367,0.208,4.84,0.322,7.242L13.367,120.673z"/>
		<path d="M19.149,120.424c-0.437,0.176-0.926,0.375-1.83,0.375c-2.597,0-2.982-1.893-2.982-2.868c0-1.57,0.883-2.889,2.692-2.889
			c0.81,0,2.452,0.217,2.452,3.003v0.196l-0.063,0.073c-1.236,0.021-2.109,0.029-3.356,0.062c0.104,0.583,0.426,1.207,1.528,1.207
			c0.779,0,1.308-0.281,1.62-0.448l0.073,0.032c-0.041,0.437-0.053,0.738-0.073,1.175L19.149,120.424z M16.976,116.152
			c-0.457,0-0.853,0.343-0.904,1.113c0.634,0,1.091-0.012,1.736-0.032C17.809,116.401,17.35,116.152,16.976,116.152z"/>
		<path d="M23.732,120.632l0.022-0.396c-0.333,0.29-0.687,0.562-1.373,0.562c-1.091,0-2.203-0.718-2.203-2.619
			c0-1.072,0.365-3.056,3.097-3.056c0.188,0,0.375,0.012,0.489,0.012v-0.46c0-0.735-0.022-1.245-0.073-1.972l0.051-0.053
			c0.634-0.094,1.091-0.167,1.726-0.281l0.063,0.062c-0.053,1.913-0.073,3.252-0.073,5.156c0,1.122,0.01,1.901,0.073,3.023
			l-0.053,0.062h-0.322c-0.508,0-0.863,0.012-1.371,0.032L23.732,120.632z M23.765,117.274c0-0.302,0-0.592-0.01-0.902
			c-0.146-0.021-0.271-0.021-0.322-0.021c-1.414,0-1.424,1.371-1.424,1.682c0,0.955,0.363,1.497,1.008,1.497
			c0.145,0,0.374-0.012,0.716-0.249C23.732,118.792,23.765,118.065,23.765,117.274z"/>
		<path d="M26.655,120.632c0.053-0.946,0.073-1.62,0.073-2.578c0-1.351-0.042-2.004-0.125-2.669l0.062-0.064
			c0.665-0.103,1.132-0.185,1.797-0.311l0.073,0.082c-0.021,0.864-0.031,1.477-0.031,2.338c0,1.175,0.01,2.007,0.082,3.17
			l-0.062,0.073h-0.343c-0.541,0-0.914,0.012-1.455,0.032L26.655,120.632z M26.665,114.263c0.01-0.199,0.01-0.396,0.01-0.595
			c0-0.311-0.01-0.539-0.031-0.85l0.063-0.073c0.623-0.064,1.069-0.126,1.693-0.208l0.062,0.062
			c-0.021,0.425-0.031,0.727-0.031,1.163v0.249l-0.051,0.073c-0.614,0.073-1.04,0.135-1.642,0.24L26.665,114.263z"/>
		<path d="M33.794,120.538c-0.302,0.082-0.706,0.229-1.361,0.229c-1.715,0-2.941-0.976-2.941-2.827c0-0.779,0.343-2.897,2.868-2.897
			c0.728,0,1.195,0.155,1.507,0.27l0.051,0.073c-0.072,0.445-0.104,0.779-0.145,1.236l-0.094,0.029
			c-0.218-0.155-0.53-0.372-1.039-0.372c-1.32,0-1.32,1.485-1.32,1.608c0,0.24,0.031,1.623,1.414,1.623
			c0.519,0,0.861-0.199,1.08-0.343l0.083,0.05c-0.031,0.469-0.041,0.791-0.051,1.26L33.794,120.538z"/>
		<path d="M34.669,120.632c0.053-0.946,0.073-1.62,0.073-2.578c0-1.351-0.042-2.004-0.125-2.669l0.062-0.064
			c0.665-0.103,1.132-0.185,1.797-0.311l0.073,0.082c-0.021,0.864-0.031,1.477-0.031,2.338c0,1.175,0.01,2.007,0.083,3.17
			l-0.063,0.073h-0.343c-0.541,0-0.914,0.012-1.455,0.032L34.669,120.632z M34.679,114.263c0.01-0.199,0.01-0.396,0.01-0.595
			c0-0.311-0.01-0.539-0.031-0.85l0.063-0.073c0.623-0.064,1.069-0.126,1.693-0.208l0.062,0.062
			c-0.021,0.425-0.031,0.727-0.031,1.163v0.249l-0.051,0.073c-0.614,0.073-1.04,0.135-1.642,0.24L34.679,114.263z"/>
		<path d="M41.019,120.632c0.01-0.343,0.01-0.583,0.01-0.926s-0.01-0.987-0.01-1.567c0-0.938,0-1.717-0.686-1.717
			c-0.406,0-0.645,0.229-0.779,0.322v0.457c0,1.26,0.01,2.142,0.083,3.398l-0.063,0.073h-0.406c-0.488,0-0.841,0.012-1.33,0.032
			l-0.062-0.073c0.01-0.706,0.021-1.207,0.021-1.913c0-1.236-0.021-2.109-0.145-3.334l0.062-0.064
			c0.655-0.103,1.112-0.176,1.746-0.311l0.114,0.082c-0.021,0.249-0.021,0.571-0.021,0.571l0.135-0.082
			c0.541-0.343,0.998-0.539,1.548-0.539c1.485,0,1.538,1.236,1.538,2.18c0,1.187,0.031,2.247,0.083,3.378l-0.073,0.073h-0.363
			c-0.5,0-0.842,0.012-1.34,0.032L41.019,120.632z"/>
		<path d="M48.597,120.424c-0.437,0.176-0.926,0.375-1.83,0.375c-2.597,0-2.982-1.893-2.982-2.868c0-1.57,0.883-2.889,2.692-2.889
			c0.81,0,2.452,0.217,2.452,3.003v0.196l-0.063,0.073c-1.236,0.021-2.109,0.029-3.356,0.062c0.104,0.583,0.426,1.207,1.528,1.207
			c0.779,0,1.308-0.281,1.62-0.448l0.073,0.032c-0.041,0.437-0.053,0.738-0.073,1.175L48.597,120.424z M46.424,116.152
			c-0.457,0-0.853,0.343-0.904,1.113c0.634,0,1.091-0.012,1.736-0.032C47.256,116.401,46.798,116.152,46.424,116.152z"/>
		<path d="M57.556,120.673h-0.374c-0.478,0-0.81,0.012-1.277,0.032l-0.063-0.073v-0.384c-0.292,0.249-0.738,0.551-1.434,0.551
			c-1.061,0-1.828-0.759-1.828-1.811c0-0.85,0.519-1.307,0.935-1.547c0.426-0.249,1.216-0.448,2.297-0.562
			c-0.01-0.103-0.01-0.27-0.073-0.363c-0.155-0.237-0.426-0.27-0.706-0.27c-0.79,0-1.528,0.311-1.777,0.416l-0.073-0.041
			c0.021-0.387,0.041-0.771,0.051-1.154l0.063-0.062c0.447-0.155,1.091-0.363,2.13-0.363c1.995,0,2.13,1.151,2.13,2.077
			c0,0.146-0.021,1.134-0.021,1.538c0,0.718,0.021,1.225,0.073,1.942L57.556,120.673z M55.831,117.972
			c-0.904,0.103-1.518,0.29-1.518,0.914c0,0.416,0.322,0.612,0.665,0.612c0.385,0,0.728-0.196,0.853-0.27V117.972z"/>
		<path d="M62.016,120.632c0.01-0.343,0.01-0.583,0.01-0.926s-0.01-0.987-0.01-1.567c0-0.938,0-1.717-0.686-1.717
			c-0.406,0-0.645,0.229-0.779,0.322v0.457c0,1.26,0.01,2.142,0.083,3.398l-0.063,0.073h-0.406c-0.488,0-0.841,0.012-1.33,0.032
			l-0.062-0.073c0.01-0.706,0.021-1.207,0.021-1.913c0-1.236-0.021-2.109-0.145-3.334l0.062-0.064
			c0.655-0.103,1.112-0.176,1.746-0.311l0.114,0.082c-0.021,0.249-0.021,0.571-0.021,0.571l0.135-0.082
			c0.541-0.343,0.998-0.539,1.548-0.539c1.485,0,1.538,1.236,1.538,2.18c0,1.187,0.031,2.247,0.083,3.378l-0.073,0.073h-0.363
			c-0.5,0-0.842,0.012-1.34,0.032L62.016,120.632z"/>
		<path d="M68.335,120.632l0.022-0.396c-0.333,0.29-0.687,0.562-1.373,0.562c-1.091,0-2.203-0.718-2.203-2.619
			c0-1.072,0.365-3.056,3.097-3.056c0.188,0,0.375,0.012,0.489,0.012v-0.46c0-0.735-0.022-1.245-0.073-1.972l0.051-0.053
			c0.634-0.094,1.091-0.167,1.726-0.281l0.063,0.062c-0.053,1.913-0.073,3.252-0.073,5.156c0,1.122,0.01,1.901,0.073,3.023
			l-0.053,0.062h-0.322c-0.508,0-0.863,0.012-1.371,0.032L68.335,120.632z M68.368,117.274c0-0.302,0-0.592-0.01-0.902
			c-0.146-0.021-0.271-0.021-0.322-0.021c-1.414,0-1.424,1.371-1.424,1.682c0,0.955,0.363,1.497,1.008,1.497
			c0.145,0,0.374-0.012,0.716-0.249C68.335,118.792,68.368,118.065,68.368,117.274z"/>
		<path d="M74.407,120.632c0.041-2.692,0.041-3.501,0.041-4.304c0-0.976-0.021-1.951-0.062-2.93l0.062-0.062
			c0.5,0,2.464-0.041,2.774-0.041c0.935,0,1.509,0.05,2.007,0.466c0.281,0.24,0.56,0.645,0.56,1.269
			c0,0.967-0.653,1.436-1.204,1.632c0.759,0.082,1.518,0.604,1.518,1.746c0,0.738-0.322,1.506-1.187,1.922
			c-0.686,0.331-1.453,0.363-2.181,0.363H74.48L74.407,120.632z M76.215,119.51H76.6c0.643,0,1.581-0.041,1.581-1.008
			c0-0.645-0.375-0.999-1.207-0.999c-0.229,0-0.541,0-0.769,0.012C76.205,117.887,76.215,118.845,76.215,119.51z M76.704,116.287
			c0.53,0,1.269-0.155,1.269-0.967c0-0.85-0.853-0.873-1.081-0.873c-0.23,0-0.458,0.012-0.677,0.023v1.808
			C76.215,116.278,76.455,116.287,76.704,116.287z"/>
		<path d="M81.011,120.632c0.05-0.946,0.07-1.62,0.07-2.578c0-1.351-0.041-2.004-0.123-2.669l0.062-0.064
			c0.665-0.103,1.134-0.185,1.799-0.311l0.073,0.082c-0.023,0.864-0.032,1.477-0.032,2.338c0,1.175,0.009,2.007,0.082,3.17
			l-0.062,0.073h-0.343c-0.542,0-0.914,0.012-1.456,0.032L81.011,120.632z M81.019,114.263c0.012-0.199,0.012-0.396,0.012-0.595
			c0-0.311-0.012-0.539-0.032-0.85l0.062-0.073c0.624-0.064,1.072-0.126,1.693-0.208l0.064,0.062
			c-0.021,0.425-0.032,0.727-0.032,1.163v0.249l-0.053,0.073c-0.612,0.073-1.037,0.135-1.641,0.24L81.019,114.263z"/>
		<path d="M86.559,120.799c-1.081,0-2.713-0.343-2.713-2.839c0-0.935,0.199-2.918,2.859-2.918c2.587,0,2.681,2.118,2.689,2.868
			C89.395,120.019,88.285,120.799,86.559,120.799z M86.662,119.697c0.759,0,0.938-0.791,0.938-1.811
			c0-0.715-0.064-1.767-0.979-1.767c-0.779,0-0.955,0.75-0.955,1.767C85.666,118.833,85.809,119.697,86.662,119.697z"/>
		<path d="M90.353,120.632c0.053-0.987,0.062-1.693,0.062-2.692c0-2.432-0.029-4.239-0.144-5.215l0.041-0.064
			c0.665-0.094,1.122-0.164,1.778-0.278l0.07,0.07c-0.062,0.979-0.062,1.664-0.062,2.64c0,1.248,0.062,4.875,0.114,5.508
			l-0.062,0.073h-0.334c-0.519,0-0.894,0.012-1.412,0.032L90.353,120.632z"/>
		<path d="M95.873,120.799c-1.081,0-2.713-0.343-2.713-2.839c0-0.935,0.199-2.918,2.859-2.918c2.587,0,2.681,2.118,2.689,2.868
			C98.709,120.019,97.599,120.799,95.873,120.799z M95.976,119.697c0.759,0,0.938-0.791,0.938-1.811
			c0-0.715-0.064-1.767-0.979-1.767c-0.779,0-0.955,0.75-0.955,1.767C94.979,118.833,95.126,119.697,95.976,119.697z"/>
		<path d="M104.542,116.278l-0.718-0.044c0.196,0.252,0.281,0.604,0.281,0.873c0,1.289-1.236,1.831-2.244,1.831
			c-0.094,0-0.158,0-0.252-0.021l-0.155,0.363c0.293,0.123,0.457,0.144,1.02,0.258l0.249,0.053c0.946,0.199,1.819,0.562,1.819,1.693
			c0,1.102-0.967,1.986-2.754,1.986c-1.093,0-1.819-0.302-2.203-0.844c-0.24-0.343-0.24-0.686-0.24-0.788
			c0.021-0.686,0.498-1.069,0.8-1.298c-0.103-0.073-0.217-0.138-0.437-0.313v-0.094c0.261-0.457,0.437-0.788,0.686-1.269
			c-0.445-0.229-0.996-0.686-0.996-1.579c0-0.372,0.114-0.861,0.469-1.236c0.621-0.653,1.535-0.706,2.118-0.706
			c0.375,0,0.905,0.021,1.436,0.021c0.437,0,0.747-0.009,1.192-0.029l0.064,0.05c-0.032,0.384-0.064,0.656-0.073,1.028
			L104.542,116.278z M101.184,120.819c-0.114,0.123-0.302,0.363-0.302,0.674c0,0.416,0.302,0.812,1.028,0.812
			c0.604,0,0.938-0.29,0.938-0.624c0-0.51-0.562-0.56-1.248-0.747L101.184,120.819z M101.776,116.132
			c-0.352,0-0.694,0.261-0.694,0.894c0,0.645,0.352,0.935,0.706,0.935c0.384,0,0.674-0.302,0.674-0.914
			C102.462,116.6,102.266,116.132,101.776,116.132z"/>
		<path d="M107.486,123.251c-0.252-0.012-0.501-0.021-0.738-0.021c-0.293,0-0.583,0.009-0.873,0.021l-0.053-0.085
			c0.404-0.832,0.633-1.433,0.976-2.297c-0.612-1.881-1.307-3.812-1.983-5.59l0.053-0.073c0.674-0.009,1.163-0.041,1.84-0.094
			l0.082,0.064c0.062,0.331,0.56,2.098,0.914,3.419c0.062-0.322,0.832-2.651,0.967-3.357l0.082-0.073
			c0.53,0,0.905-0.009,1.444-0.029l0.041,0.082c-0.278,0.82-0.507,1.383-0.82,2.191c-1.081,2.815-1.567,4.5-1.86,5.769
			L107.486,123.251z"/>
		<path d="M113.63,120.362c0.041-0.542,0.062-0.926,0.07-1.468l0.094-0.029c0.396,0.302,0.905,0.645,1.799,0.645
			c0.779,0,1.236-0.363,1.236-0.864c0-0.478-0.457-0.759-1.225-1.09l-0.387-0.167c-0.571-0.249-1.559-0.738-1.559-2.004
			c0-1.28,0.853-2.203,2.61-2.203c0.964,0,1.506,0.188,1.951,0.384l0.053,0.062c-0.041,0.489-0.073,0.864-0.094,1.371l-0.094,0.044
			c-0.674-0.53-1.351-0.583-1.588-0.583c-0.677,0-1.04,0.322-1.04,0.706c0,0.498,0.466,0.686,1.11,0.946l0.501,0.196
			c0.935,0.375,1.567,1.008,1.567,2.162c0,1.424-1.049,2.358-2.815,2.358c-1.113,0-1.652-0.208-2.13-0.384L113.63,120.362z"/>
		<path d="M122.079,120.799c-1.081,0-2.713-0.343-2.713-2.839c0-0.935,0.199-2.918,2.859-2.918c2.587,0,2.681,2.118,2.689,2.868
			C124.915,120.019,123.805,120.799,122.079,120.799z M122.182,119.697c0.759,0,0.938-0.791,0.938-1.811
			c0-0.715-0.064-1.767-0.979-1.767c-0.779,0-0.955,0.75-0.955,1.767C121.185,118.833,121.329,119.697,122.182,119.697z"/>
		<path d="M129.945,120.538c-0.302,0.082-0.709,0.229-1.362,0.229c-1.714,0-2.941-0.976-2.941-2.827
			c0-0.779,0.343-2.897,2.868-2.897c0.727,0,1.195,0.155,1.506,0.27l0.053,0.073c-0.073,0.445-0.103,0.779-0.146,1.236l-0.091,0.029
			c-0.22-0.155-0.53-0.372-1.04-0.372c-1.321,0-1.321,1.485-1.321,1.608c0,0.24,0.032,1.623,1.415,1.623
			c0.519,0,0.861-0.199,1.081-0.343l0.082,0.05c-0.032,0.469-0.041,0.791-0.053,1.26L129.945,120.538z"/>
		<path d="M130.821,120.632c0.05-0.946,0.07-1.62,0.07-2.578c0-1.351-0.041-2.004-0.123-2.669l0.062-0.064
			c0.665-0.103,1.134-0.185,1.799-0.311l0.073,0.082c-0.023,0.864-0.032,1.477-0.032,2.338c0,1.175,0.009,2.007,0.082,3.17
			l-0.062,0.073h-0.343c-0.542,0-0.914,0.012-1.456,0.032L130.821,120.632z M130.83,114.263c0.012-0.199,0.012-0.396,0.012-0.595
			c0-0.311-0.012-0.539-0.032-0.85l0.062-0.073c0.624-0.064,1.072-0.126,1.693-0.208l0.064,0.062
			c-0.021,0.425-0.032,0.727-0.032,1.163v0.249l-0.053,0.073c-0.612,0.073-1.037,0.135-1.641,0.24L130.83,114.263z"/>
		<path d="M138.468,120.424c-0.437,0.176-0.923,0.375-1.828,0.375c-2.599,0-2.982-1.893-2.982-2.868c0-1.57,0.885-2.889,2.692-2.889
			c0.809,0,2.452,0.217,2.452,3.003v0.196l-0.062,0.073c-1.239,0.021-2.109,0.029-3.357,0.062c0.103,0.583,0.425,1.207,1.526,1.207
			c0.779,0,1.31-0.281,1.623-0.448l0.07,0.032c-0.041,0.437-0.05,0.738-0.07,1.175L138.468,120.424z M136.297,116.152
			c-0.457,0-0.853,0.343-0.905,1.113c0.636,0,1.093-0.012,1.737-0.032C137.129,116.401,136.672,116.152,136.297,116.152z"/>
		<path d="M142.575,120.673c-0.457,0.094-0.861,0.126-1.154,0.126c-1.184,0-1.579-0.718-1.579-1.55c0-0.624,0.012-0.873,0.053-2.889
			c-0.249,0-0.416,0.012-0.665,0.021l-0.053-0.062c0.041-0.416,0.062-0.697,0.094-1.113l0.062-0.05c0.208,0,0.354,0.009,0.551,0.021
			c0.012-0.135,0.012-0.272,0.012-0.407c0-0.331-0.012-0.56-0.021-0.894l0.053-0.07c0.601-0.158,1.028-0.272,1.629-0.448
			l0.073,0.062c0,0.501-0.021,1.102-0.029,1.746h1.037l0.064,0.062c-0.053,0.416-0.073,0.697-0.105,1.113l-0.062,0.062
			c-0.343-0.021-0.592-0.029-0.935-0.041c0,0-0.021,1.787-0.021,2.215c0,0.706,0.062,1.008,0.612,1.008
			c0.196,0,0.437-0.085,0.478-0.105l0.082,0.053c-0.05,0.396-0.073,0.686-0.103,1.069L142.575,120.673z"/>
		<path d="M145.373,123.251c-0.252-0.012-0.501-0.021-0.738-0.021c-0.293,0-0.583,0.009-0.873,0.021l-0.053-0.085
			c0.404-0.832,0.633-1.433,0.976-2.297c-0.612-1.881-1.307-3.812-1.983-5.59l0.053-0.073c0.674-0.009,1.163-0.041,1.84-0.094
			l0.082,0.064c0.062,0.331,0.56,2.098,0.914,3.419c0.062-0.322,0.832-2.651,0.967-3.357l0.082-0.073
			c0.53,0,0.905-0.009,1.444-0.029l0.041,0.082c-0.278,0.82-0.507,1.383-0.82,2.191c-1.081,2.815-1.567,4.5-1.86,5.769
			L145.373,123.251z"/>
	</g>
</g>
</svg>
