<?xml version="1.0" encoding="iso-8859-1"?>
<!-- Generator: Adobe Illustrator 26.0.1, SVG Export Plug-In . SVG Version: 6.00 Build 0)  -->
<svg version="1.1" id="Layer_1" xmlns="http://www.w3.org/2000/svg" xmlns:xlink="http://www.w3.org/1999/xlink" x="0px" y="0px"
	 viewBox="0 0 1080 330" style="enable-background:new 0 0 1080 330;" xml:space="preserve">
<g>
	<path style="fill:#612166;" d="M288.557,81.992c-0.3,13.726-0.499,27.447-0.499,41.173c0,14.42,0.2,18.997,0.699,28.146
		l-0.599,0.594c-8.256,0-10.242,0-17.699,0.3l-0.499-0.594c0.399-10.342,0.594-16.412,0.594-28.146
		c0-25.361-0.294-30.432-0.893-41.173l0.399-0.599c7.157,0.1,9.449,0.1,17.998-0.294L288.557,81.992"/>
	<path style="fill:#612166;" d="M349.127,139.177l-0.694,12.134l-0.799,0.594h-43.759l-0.499-0.394
		c0.3-10.442,0.499-16.711,0.499-29.239c0-26.654-0.2-30.338-0.793-39.981l0.594-0.599h43.659l0.499,0.399l-0.699,11.535
		l-0.494,0.599c-12.034-0.3-14.32-0.3-25.561-0.3v15.812l24.068-0.399l0.494,0.599l-0.594,11.235l-0.699,0.599h-23.269l0.2,17.405
		c12.728,0,15.513-0.1,27.253-0.699L349.127,139.177"/>
	<path style="fill:#612166;" d="M405.02,139.177l-0.694,12.134l-0.799,0.594h-43.759l-0.494-0.394
		c0.294-10.442,0.494-16.711,0.494-29.239c0-26.654-0.2-30.338-0.793-39.981l0.594-0.599h43.659l0.499,0.399l-0.699,11.535
		l-0.494,0.599c-12.034-0.3-14.32-0.3-25.561-0.3v15.812l24.068-0.399l0.494,0.599l-0.594,11.235l-0.699,0.599h-23.269l0.2,17.405
		c12.728,0,15.513-0.1,27.253-0.699L405.02,139.177"/>
	<path style="fill:#612166;" d="M460.918,139.177l-0.694,12.134l-0.799,0.594h-43.759l-0.494-0.394
		c0.294-10.442,0.494-16.711,0.494-29.239c0-26.654-0.2-30.338-0.793-39.981l0.594-0.599h43.659l0.499,0.399l-0.694,11.535
		l-0.499,0.599c-12.034-0.3-14.32-0.3-25.561-0.3v15.812l24.068-0.399l0.494,0.599l-0.594,11.235l-0.699,0.599h-23.269l0.2,17.405
		c12.728,0,15.513-0.1,27.253-0.699L460.918,139.177"/>
	<path style="fill:#612166;" d="M315.91,228.343l-0.694,12.134l-0.799,0.594h-43.759l-0.499-0.394
		c0.3-10.442,0.499-16.711,0.499-29.239c0-26.654-0.2-30.332-0.793-39.981l0.594-0.599h43.659l0.499,0.399l-0.694,11.535
		l-0.499,0.599c-12.034-0.3-14.326-0.3-25.561-0.3v15.812l24.068-0.4l0.494,0.599l-0.594,11.241l-0.699,0.594h-23.269l0.2,17.405
		c12.728,0,15.513-0.1,27.247-0.694L315.91,228.343"/>
	<path style="fill:#612166;" d="M373.595,240.976c-7.956,0-9.648,0.1-16.212,0.3l-0.594-0.599c0-3.379,0.1-6.863,0.1-10.242
		c0-3.778-0.1-17.405-0.3-20.689c-0.3-3.579-0.799-9.443-6.264-9.443c-3.185,0-5.576,1.687-7.662,3.079
		c0.1,17.804,0.2,21.682,0.793,37.001l-0.594,0.594c-7.956,0-9.449,0-16.606,0.3l-0.599-0.599c0.1-6.364,0.2-12.728,0.2-19.091
		c0-16.212-0.599-22.476-1.393-31.131l0.594-0.699c7.462-0.993,9.155-1.293,16.811-2.88l0.993,0.694l-0.2,5.471
		c4.577-2.685,9.848-5.87,15.912-5.87c3.584,0,9.249,0.799,12.334,5.97c2.486,4.078,2.586,8.655,2.685,18.198v7.762
		c0.2,9.743,0.2,12.528,0.694,21.283L373.595,240.976"/>
	<path style="fill:#612166;" d="M414.269,230.035l-0.993,10.242l-0.699,0.699c-3.479,0.594-6.558,1.193-10.442,1.193
		c-15.513,0-15.713-9.848-15.713-18.997c0-2.585,0.1-5.071,0.2-7.557l0.3-15.812l-6.27,0.2l-0.594-0.599l0.893-10.642l0.599-0.499
		l5.371,0.2l-0.1-12.428l0.399-0.699c7.057-1.792,8.849-2.286,15.613-4.278l0.694,0.599l-0.3,16.706h9.948l0.594,0.599
		l-0.993,10.641l-0.594,0.594l-8.955-0.394l-0.194,14.02c-0.1,3.978-0.1,9.449,0.194,12.034c0.2,1.493,0.599,4.677,5.67,4.677
		c1.692,0,2.885-0.399,4.577-0.899L414.269,230.035"/>
	<path style="fill:#612166;" d="M448.684,204.574c-1.393-0.793-2.386-1.393-4.078-1.393c-6.763,0-6.763,6.564-6.763,11.041
		c0,6.863,0.599,18.098,0.993,26.154l-0.494,0.694c-7.956-0.094-9.548,0-16.905,0.3l-0.599-0.594c0.2-8.256,0.3-16.412,0.3-24.568
		c0-13.821-0.3-18.298-0.893-25.755l0.594-0.599c7.263-1.093,9.149-1.393,16.506-2.985l0.799,0.799l-0.3,9.149
		c3.185-7.363,7.762-9.648,11.834-9.648c0.699,0,1.393,0.1,2.092,0.1l0.594,0.694l-2.785,16.212L448.684,204.574"/>
	<path style="fill:#612166;" d="M502.985,226.656l-0.694,11.241l-0.599,0.793c-5.271,2.086-8.849,3.579-17.105,3.579
		c-7.163,0-20.684-1.193-26.454-14.62c-1.592-3.479-2.386-8.35-2.386-13.027c0-17.205,10.342-27.447,25.955-27.447
		c2.286,0,4.577,0.2,7.063,0.893c3.379,0.793,11.041,3.185,14.52,14.919c1.393,4.971,1.492,9.942,1.592,14.819l-0.599,0.694
		l-32.124,0.599c0.4,1.986,0.699,3.978,2.192,6.064c2.386,3.579,6.464,5.471,12.428,5.471c7.263,0,11.74-2.286,15.518-4.272
		L502.985,226.656 M488.765,208.158c0-2.286-0.1-4.677-1.492-6.863c-1.093-1.792-3.085-3.479-6.364-3.479
		c-1.393,0-2.785,0.3-3.978,1.093c-3.778,2.386-4.477,6.564-4.777,9.648L488.765,208.158z"/>
	<path style="fill:#612166;" d="M530.343,191.846c2.78-1.892,6.663-4.677,13.521-4.677c11.141,0,20.784,9.548,20.784,25.361
		c0,6.763-2.086,15.219-8.45,21.183c-8.056,7.562-18.104,7.662-25.361,7.756l0.699,23.674l-0.599,0.499
		c-7.557-0.105-9.648,0-16.711,0.294l-0.594-0.494c0.3-11.241,0.499-18.004,0.499-29.838c0-28.64-0.4-33.217-1.492-45.052
		l0.594-0.699c7.163-0.893,9.249-1.293,16.511-2.88l0.793,0.893L530.343,191.846 M530.737,230.434c3.484-0.1,7.462-0.3,10.641-2.486
		c3.978-2.791,5.87-7.956,5.87-13.726c0-3.379-0.499-8.456-3.584-11.834c-2.486-2.785-5.465-2.985-6.957-2.985
		c-2.486,0-3.784,0.699-5.97,1.992V230.434z"/>
	<path style="fill:#612166;" d="M601.949,204.574c-1.393-0.793-2.386-1.393-4.078-1.393c-6.763,0-6.763,6.564-6.763,11.041
		c0,6.863,0.599,18.098,0.993,26.154l-0.494,0.694c-7.956-0.094-9.549,0-16.911,0.3l-0.594-0.594c0.2-8.256,0.3-16.412,0.3-24.568
		c0-13.821-0.3-18.298-0.899-25.755l0.599-0.599c7.263-1.093,9.149-1.393,16.506-2.985l0.799,0.799l-0.3,9.149
		c3.185-7.363,7.756-9.648,11.834-9.648c0.699,0,1.393,0.1,2.092,0.1l0.594,0.694l-2.785,16.212L601.949,204.574"/>
	<path style="fill:#612166;" d="M656.249,226.656l-0.694,11.241l-0.599,0.793c-5.271,2.086-8.849,3.579-17.105,3.579
		c-7.163,0-20.684-1.193-26.454-14.62c-1.592-3.479-2.386-8.35-2.386-13.027c0-17.205,10.342-27.447,25.955-27.447
		c2.286,0,4.577,0.2,7.063,0.893c3.379,0.793,11.035,3.185,14.52,14.919c1.393,4.971,1.492,9.942,1.592,14.819l-0.599,0.694
		l-32.124,0.599c0.4,1.986,0.699,3.978,2.192,6.064c2.386,3.579,6.464,5.471,12.428,5.471c7.263,0,11.734-2.286,15.518-4.272
		L656.249,226.656 M642.029,208.158c0-2.286-0.1-4.677-1.492-6.863c-1.093-1.792-3.085-3.479-6.364-3.479
		c-1.393,0-2.785,0.3-3.978,1.093c-3.784,2.386-4.477,6.564-4.777,9.648L642.029,208.158z"/>
	<path style="fill:#612166;" d="M715.327,240.976c-7.956,0-9.648,0.1-16.212,0.3l-0.599-0.599c0-3.379,0.105-6.863,0.105-10.242
		c0-3.778-0.105-17.405-0.3-20.689c-0.3-3.579-0.799-9.443-6.27-9.443c-3.179,0-5.57,1.687-7.656,3.079
		c0.1,17.804,0.2,21.682,0.793,37.001l-0.594,0.594c-7.956,0-9.449,0-16.611,0.3l-0.594-0.599c0.1-6.364,0.2-12.728,0.2-19.091
		c0-16.212-0.599-22.476-1.393-31.131l0.594-0.699c7.462-0.993,9.155-1.293,16.811-2.88l0.993,0.694l-0.2,5.471
		c4.577-2.685,9.848-5.87,15.912-5.87c3.584,0,9.249,0.799,12.334,5.97c2.486,4.078,2.585,8.655,2.685,18.198v7.762
		c0.2,9.743,0.2,12.528,0.694,21.283L715.327,240.976"/>
	<path style="fill:#612166;" d="M772.213,226.656l-0.694,11.241l-0.599,0.793c-5.271,2.086-8.849,3.579-17.105,3.579
		c-7.157,0-20.684-1.193-26.454-14.62c-1.592-3.479-2.386-8.35-2.386-13.027c0-17.205,10.342-27.447,25.96-27.447
		c2.286,0,4.572,0.2,7.057,0.893c3.379,0.793,11.041,3.185,14.52,14.919c1.393,4.971,1.492,9.942,1.592,14.819l-0.599,0.694
		l-32.119,0.599c0.394,1.986,0.694,3.978,2.186,6.064c2.386,3.579,6.464,5.471,12.428,5.471c7.263,0,11.74-2.286,15.518-4.272
		L772.213,226.656 M757.993,208.158c0-2.286-0.1-4.677-1.492-6.863c-1.093-1.792-3.079-3.479-6.364-3.479
		c-1.393,0-2.785,0.3-3.978,1.093c-3.778,2.386-4.477,6.564-4.771,9.648L757.993,208.158z"/>
	<path style="fill:#612166;" d="M831.69,188.662c-0.2,9.349-0.3,18.698-0.3,28.046c0,12.927,0.2,16.706,0.699,23.769l-0.599,0.594
		c-6.464,0-8.65,0-15.912,0.3l-0.694-0.594l0.1-4.477c-3.584,2.785-7.662,5.964-14.719,5.964c-4.971,0-9.748-1.587-13.027-5.265
		c-3.584-4.178-4.084-8.755-3.978-19.596v-6.957c0-10.048-0.105-12.833-0.699-21.189l0.699-0.594l16.406-0.793l0.699,0.793
		l-0.2,20.09c-0.1,2.486-0.1,5.071-0.1,7.557c0,5.87,0,13.427,7.157,13.427c2.691,0,4.777-1.493,7.462-3.285
		c0.1-3.973,0.1-5.565,0.1-8.45c0-1.592,0-17.505-0.699-28.745l0.699-0.594l16.212-0.793L831.69,188.662"/>
	<path style="fill:#612166;" d="M871.177,204.574c-1.393-0.793-2.386-1.393-4.078-1.393c-6.763,0-6.763,6.564-6.763,11.041
		c0,6.863,0.599,18.098,0.993,26.154l-0.494,0.694c-7.956-0.094-9.549,0-16.905,0.3l-0.599-0.594c0.2-8.256,0.3-16.412,0.3-24.568
		c0-13.821-0.3-18.298-0.893-25.755l0.594-0.599c7.263-1.093,9.149-1.393,16.506-2.985l0.799,0.799l-0.3,9.149
		c3.185-7.363,7.762-9.648,11.834-9.648c0.699,0,1.393,0.1,2.092,0.1l0.594,0.694l-2.785,16.212L871.177,204.574"/>
	<path style="fill:#612166;" d="M906.385,208.552c5.471,2.086,13.127,4.971,13.127,15.912c0,0.694,0,1.393-0.1,2.192
		c-1.787,14.22-16.706,15.607-24.262,15.607c-7.263,0-11.44-1.587-16.312-3.379l-0.499-0.893c0.399-4.971,0.499-6.07,0.694-11.241
		l0.899-0.394c1.493,1.193,2.286,1.886,3.978,2.785c3.678,1.886,7.756,2.78,10.542,2.78c5.57,0,7.856-2.685,7.856-5.171
		c0-3.579-4.378-5.071-7.063-5.964l-3.778-1.393c-4.672-1.792-12.927-4.971-12.927-15.613c0-3.978,1.393-6.963,2.685-8.755
		c5.171-7.457,14.919-7.856,19.791-7.856c6.464,0,10.542,1.193,15.219,2.486l0.494,0.599l-0.993,10.841l-0.893,0.3
		c-2.486-1.592-6.369-4.178-12.434-4.178c-6.17,0-6.963,3.279-6.963,4.472c0,2.785,2.685,3.878,6.07,5.077L906.385,208.552"/>
	<path style="fill:#612166;" d="M976.399,240.976c-7.657,0-9.249,0-16.412,0.4l-0.494-0.699c0-3.285,0.1-6.464,0.1-9.743
		c0-3.684-0.1-17.804-0.3-20.889c-0.399-3.978-0.793-9.643-6.264-9.643c-3.384,0-5.77,1.687-7.662,2.979
		c0.1,17.605,0.2,22.082,0.899,37.001l-0.599,0.594c-8.056,0-9.548,0-16.905,0.4l-0.499-0.699c0.2-9.743,0.399-15.613,0.399-25.461
		c0-8.056-0.1-16.106-0.3-24.163c-0.2-12.833-0.399-16.412-1.293-26.06l0.499-0.599l17.005-2.685l0.599,0.699l-0.3,30.632
		c3.978-2.386,9.648-5.87,16.906-5.87c4.378,0,8.555,1.293,11.435,5.371c2.885,4.178,2.985,9.648,3.085,19.097v7.462
		c0.2,10.342,0.3,13.127,0.699,21.283L976.399,240.976"/>
	<path style="fill:#612166;" d="M1005.643,241.076c-8.056-0.1-10.048,0-17.205,0.3l-0.599-0.699
		c0.3-8.156,0.599-14.226,0.599-25.061c0-14.126-0.3-17.604-1.093-25.161l0.594-0.599l17.111-2.985l0.694,0.799
		c-0.1,8.45-0.3,17.005-0.3,25.461c0,13.726,0.399,19.591,0.899,27.247L1005.643,241.076 M1004.251,178.02
		c-7.057,0.893-8.949,1.093-15.713,2.286l-0.699-0.594c0.1-1.892,0.1-3.878,0.1-5.77c0-2.386-0.1-4.477-0.294-8.056l0.594-0.694
		l16.212-1.992l0.599,0.599l-0.3,13.527L1004.251,178.02z"/>
	<path style="fill:#612166;" d="M1033.684,191.846c2.785-1.892,6.663-4.677,13.527-4.677c11.141,0,20.789,9.548,20.789,25.361
		c0,6.763-2.092,15.219-8.455,21.183c-8.056,7.562-18.104,7.662-25.361,7.756l0.699,23.674l-0.599,0.499
		c-7.557-0.105-9.648,0-16.711,0.294l-0.594-0.494c0.3-11.241,0.494-18.004,0.494-29.838c0-28.64-0.394-33.217-1.487-45.052
		l0.594-0.699c7.163-0.893,9.249-1.293,16.512-2.88l0.793,0.893L1033.684,191.846 M1034.083,230.434
		c3.484-0.1,7.462-0.3,10.642-2.486c3.978-2.791,5.87-7.956,5.87-13.726c0-3.379-0.499-8.456-3.584-11.834
		c-2.486-2.785-5.465-2.985-6.958-2.985c-2.486,0-3.784,0.699-5.97,1.992V230.434z"/>
	<polyline style="fill:#612166;" points="15.39,223.815 152.437,199.642 215.193,149.569 188.916,227.827 215.975,315.128 
		145.812,238.807 15.39,223.815 	"/>
	<polyline style="fill:#FFC629;" points="125.694,231.056 101.377,131.304 114.287,72.765 73.563,116.163 12,126.827 
		79.128,148.654 125.694,231.056 	"/>
	<polyline style="fill:#EE7623;" points="149.552,219.504 193.411,89.726 253.415,34.715 169.653,51.26 84.066,15.213 
		152.398,91.695 149.552,219.504 	"/>
</g>
</svg>
