<?xml version="1.0" encoding="iso-8859-1"?>
<!-- Generator: Adobe Illustrator 26.0.1, SVG Export Plug-In . SVG Version: 6.00 Build 0)  -->
<svg version="1.1" id="Layer_1" xmlns="http://www.w3.org/2000/svg" xmlns:xlink="http://www.w3.org/1999/xlink" x="0px" y="0px"
	 viewBox="0 0 288 90" style="enable-background:new 0 0 288 90;" xml:space="preserve">
<polygon style="fill:#1D1D1B;" points="95.941,77.348 95.941,14.202 113.433,14.202 113.433,77.348 95.941,77.348 "/>
<polygon style="fill:#1D1D1B;" points="122.612,77.348 122.612,14.202 170.714,14.202 170.714,26.445 140.103,26.445 
	140.103,39.475 168.263,39.475 168.263,51.72 140.103,51.72 140.103,65.1 170.714,65.1 170.714,77.348 122.612,77.348 "/>
<polygon style="fill:#1D1D1B;" points="180.514,77.348 180.514,14.202 228.604,14.202 228.604,26.445 198.001,26.445 
	198.001,39.475 226.151,39.475 226.151,51.72 198.001,51.72 198.001,65.1 228.604,65.1 228.604,77.348 180.514,77.348 "/>
<polygon style="fill:#1D1D1B;" points="238.398,77.348 238.398,14.202 286.5,14.202 286.5,26.445 255.9,26.445 255.9,39.475 
	284.052,39.475 284.052,51.72 255.9,51.72 255.9,65.1 286.5,65.1 286.5,77.348 238.398,77.348 "/>
<rect x="0.596" y="3.175" style="fill:none;" width="285.904" height="83.347"/>
<path style="fill:#1D1D1B;" d="M39.841,14.912c2.788-2.17,6.297-0.368,8.643,1.628c2.457,1.878,5.016,4.006,7.263,6.181l0.408,0.234
	c6.22,5.771,11.997,12.185,16.743,18.967c0.769,1.18,1.449,2.517,1.02,4.083c-1.583,3.956-4.799,7.11-7.611,10.564
	c-6.083,6.548-12.5,12.884-19.684,17.938c-1.453,1.028-3.413,1.977-5.154,1.161c-5.288-2.768-9.747-7.301-14.374-11.432
	c-5.368-4.978-10.755-10.772-14.823-16.834c-0.604-0.851-0.775-1.9-0.757-3.022c0.523-2.093,1.956-3.815,3.313-5.579
	c4.807-6.126,10.695-11.937,16.641-17.244c0.137-0.137,0.391-0.426,0.606-0.564C34.629,18.787,37.166,16.832,39.841,14.912
	L39.841,14.912z M48.015,8.537l-3.156-4.473c-0.387-0.237-0.87-0.626-1.297-0.741c-0.932-0.403-1.936,0.084-2.695,0.661
	l-5.713,7.442c-9.165,11.35-20.014,21.95-31.851,30.074c-0.936,0.731-2.327,1.444-2.616,2.65c-0.311,1.084,0.254,1.978,0.926,2.652
	c9.479,6.529,18.541,14.28,26.607,23.119c1.432,1.505,2.593,3.001,3.993,4.412c2.359,3.14,5.131,6.304,7.3,9.672
	c0.679,0.712,0.797,1.879,1.86,2.226c0.832,0.288,1.86,0.484,2.654,0l0.79-0.793c9.808-13.893,22.246-26.37,36.142-36.444
	c1.392-1.242,4.047-1.705,4.086-4.011c-0.099-1.064-0.718-2.111-1.631-2.693l-0.228-0.037c-7.151-4.865-13.814-10.367-20.092-16.608
	l-6.937-7.247C53.344,15.281,50.614,11.83,48.015,8.537L48.015,8.537z M40.866,16.62c2.852-1.942,5.409,0.773,7.618,2.325
	c8.542,6.875,16.602,14.744,22.743,23.631c0.775,1.147,1.125,2.928,0.43,4.225c-1.593,2.656-3.74,5.08-5.777,7.541v0.135
	c-5.078,5.406-10.441,10.962-16.237,15.54c-2.828,1.721-5.424,5.48-9.067,3.152c-8.295-6.062-16.232-13.598-22.962-21.681
	c-1.14-1.777-2.922-3.233-3.715-5.249c-1.108-2.729,1.334-4.688,2.731-6.743C23.491,31.034,32.012,22.737,40.866,16.62L40.866,16.62
	z M42.667,22.197l-0.773,2.481l-3.876,11.1c0.97,0.099,2.172,0,3.126,0.099v0.091l-0.567,12.556l0.098,0.133
	c1.24,0.121,2.788,0.184,4.051-0.033v-0.198L44.22,36.248l0.076-0.412l3.41-0.058c-1.701-4.493-3.351-9.032-4.939-13.581H42.667
	L42.667,22.197z M29.477,39.591c-2.173,1.09-5.371,2.736-5.019,5.717c0.466,1.628,2.228,2.679,3.623,3.349
	c7.709,3.396,17.943,3.512,26.082,0.977c2.009-0.774,4.706-1.898,5.075-4.36c-0.022-2.034-2.174-3.315-3.722-4.093v-0.096
	c0.539-0.214,1.159-0.405,1.718-0.464v-0.055c-2.727-0.488-5.358-1.201-7.999-1.9c0.508,1.159,0.875,2.381,1.299,3.585
	c0.793-0.254,1.607-0.447,2.463-0.563c1.393,0.541,3.386,1.317,3.583,3.059c0.155,1.627-1.626,2.421-2.752,3.081
	c-5.969,2.172-12.686,2.384-18.912,0.733c-1.719-0.542-4.202-1.237-4.415-3.427c1.221-2.883,4.378-3.483,7.015-4.183
	c-1.355-0.873-2.733-1.646-4.047-2.617C32.052,38.413,30.756,39.033,29.477,39.591L29.477,39.591z M40.499,52.111
	c-0.232,4.459-0.288,8.585-0.618,13.056c1.764,0.161,3.756,0.314,5.637,0.04l-0.561-12.461l-0.099-0.593
	C43.425,52.209,42.069,52.267,40.499,52.111L40.499,52.111z"/>
<g>
	<path style="fill-rule:evenodd;clip-rule:evenodd;fill:#1D1D1B;" d="M56.956,77.614c-1.56,0-2.946,1.079-2.946,2.931
		c0,1.856,1.387,2.94,2.946,2.94c1.549,0,2.938-1.084,2.938-2.94C59.894,78.693,58.505,77.614,56.956,77.614z M56.956,82.805v-0.009
		c-1.164,0.009-2.102-0.896-2.102-2.252c0-1.349,0.938-2.247,2.102-2.247c1.136,0,2.103,0.898,2.103,2.247
		C59.059,81.901,58.092,82.805,56.956,82.805z M58.269,79.919c0-0.723-0.478-0.951-1.296-0.951h-1.18v3.159h0.676v-1.328h0.321
		l0.727,1.328h0.805l-0.815-1.386C57.933,80.705,58.269,80.498,58.269,79.919z M57.07,80.261h-0.602v-0.763h0.476
		c0.258,0,0.608,0.026,0.608,0.354C57.551,80.198,57.373,80.261,57.07,80.261z"/>
</g>
</svg>
