<?xml version="1.0" encoding="iso-8859-1"?>
<!-- Generator: Adobe Illustrator 26.0.1, SVG Export Plug-In . SVG Version: 6.00 Build 0)  -->
<svg version="1.1" id="Layer_1" xmlns="http://www.w3.org/2000/svg" xmlns:xlink="http://www.w3.org/1999/xlink" x="0px" y="0px"
	 viewBox="0 0 1080 626" style="enable-background:new 0 0 1080 626;" xml:space="preserve">
<g>
	<path style="fill:#FFFFFF;" d="M491.912,273.598c-1.564-5.346-3.277-10.588-5.139-15.728c-0.287-0.172-0.563-0.368-0.839-0.54
		C488.164,262.607,490.141,268.056,491.912,273.598"/>
	<path style="fill:#FFFFFF;" d="M485.497,450.684c0.31-0.184,0.632-0.391,0.943-0.575c2.138-5.794,4.07-11.75,5.817-17.808
		C490.291,438.578,488.049,444.74,485.497,450.684"/>
	<path style="fill:#FFFFFF;" d="M485.399,413.053l0.161-0.644c-7.852,1.759-15.762,3.38-23.718,4.898
		c7.645-0.954,15.084-2.253,22.372-3.978L485.399,413.053z"/>
	<path style="fill:#FFFFFF;" d="M485.399,413.053l0.161-0.644c-7.852,1.759-15.762,3.38-23.718,4.898
		c7.645-0.954,15.084-2.253,22.372-3.978L485.399,413.053z"/>
	<path style="fill:#FFFFFF;" d="M498.435,409.419c-0.092,0.023-0.184,0.046-0.276,0.069v0.023L498.435,409.419z"/>
	<path style="fill:#FFFFFF;" d="M498.435,409.419c-0.092,0.023-0.184,0.046-0.276,0.069v0.023L498.435,409.419z"/>
	<path style="fill:#FFFFFF;" d="M514.222,416.664v1.46h-4.173c-4.564,1.575-9.197,3.024-13.888,4.277l-1.104,0.31l-0.034,0.126
		c9.715-2.184,19.36-4.564,28.902-7.116c5.128-6.059,9.68-11.899,13.382-16.843c-3.403,1.012-6.818,2.012-10.243,2.989
		c-2.334,4.472-4.967,8.783-7.898,12.899C517.533,415.411,515.878,416.044,514.222,416.664"/>
	<path style="fill:#FFFFFF;" d="M514.222,416.664c-1.38,0.506-2.771,0.989-4.173,1.46h4.173V416.664z"/>
	<path style="fill:#FFFFFF;" d="M514.222,416.664c-1.38,0.506-2.771,0.989-4.173,1.46h4.173V416.664z"/>
	<path style="fill:#FFFFFF;" d="M486.442,450.115c-2.736,7.461-5.783,14.704-9.117,21.682c26.718-12.06,47.998-33.363,60.668-59.989
		c-4.668,1.345-9.358,2.656-14.072,3.909C513.171,428.421,499.881,441.998,486.442,450.115"/>
	<path style="fill:#FFFFFF;" d="M495.019,422.842c-0.069,0.012-0.161,0.034-0.241,0.046c-0.793,3.162-1.621,6.312-2.518,9.416
		c0.885-2.805,1.725-5.633,2.506-8.496L495.019,422.842z"/>
	<path style="fill:#FFFFFF;" d="M485.497,450.684c2.552-5.944,4.794-12.106,6.76-18.383c0.897-3.093,1.736-6.243,2.529-9.404
		c-6.725,1.506-13.474,2.943-20.269,4.265c1.334-0.23,2.679-0.46,4.012-0.725l3.334-0.621l-1.092,3.207
		c-3.484,10.301-7.91,20.338-13.44,30.305c-11.198,4.219-23.166,6.794-35.548,7.415v-32.489c-3.943,0.529-7.91,1.035-11.876,1.506
		v30.983c-12.566-0.655-24.591-3.334-35.743-7.749c-3.507-6.335-6.553-12.727-9.209-19.176c-4.242,0.253-8.496,0.472-12.761,0.655
		c1.115,3.116,2.299,6.197,3.576,9.22c-4.288-2.679-8.358-5.679-12.232-8.887c-7.496,0.241-15.038,0.368-22.591,0.391
		c23.603,25.534,57.368,41.537,94.893,41.537c18.59,0,35.95-3.909,51.493-10.933c3.334-6.978,6.369-14.221,9.105-21.694
		C486.129,450.293,485.807,450.5,485.497,450.684"/>
	<path style="fill:#FFFFFF;" d="M485.497,450.684c2.552-5.944,4.794-12.106,6.76-18.383c0.897-3.093,1.736-6.243,2.529-9.404
		c-6.725,1.506-13.474,2.943-20.269,4.265c1.334-0.23,2.679-0.46,4.012-0.725l3.334-0.621l-1.092,3.207
		c-3.484,10.301-7.91,20.338-13.44,30.305c-11.198,4.219-23.166,6.794-35.548,7.415v-32.489c-3.943,0.529-7.91,1.035-11.876,1.506
		v30.983c-12.566-0.655-24.591-3.334-35.743-7.749c-3.507-6.335-6.553-12.727-9.209-19.176c-4.242,0.253-8.496,0.472-12.761,0.655
		c1.115,3.116,2.299,6.197,3.576,9.22c-4.288-2.679-8.358-5.679-12.232-8.887c-7.496,0.241-15.038,0.368-22.591,0.391
		c23.603,25.534,57.368,41.537,94.893,41.537c18.59,0,35.95-3.909,51.493-10.933c3.334-6.978,6.369-14.221,9.105-21.694
		C486.129,450.293,485.807,450.5,485.497,450.684"/>
	<path style="fill:#FFFFFF;" d="M348.175,361.359c0.391,14.67,1.874,29.868,4.725,44.837L348.175,361.359z"/>
	<path style="fill:#FFFFFF;" d="M348.175,361.359c0.391,14.67,1.874,29.868,4.725,44.837L348.175,361.359z"/>
	<path style="fill:#FFFFFF;" d="M320.333,395.123c-4.403-11.129-7.093-23.143-7.737-35.686h35.525l0.058,1.92l4.725,44.837
		l0.632,3.334l-3.219-1.081C340.107,404.987,330.162,400.584,320.333,395.123 M320.321,311.899
		c9.807-5.473,19.763-9.853,29.995-13.325l3.207-1.092l-0.632,3.334c-2.84,14.992-4.323,30.19-4.714,44.814l-0.058,1.931h-35.525
		C313.239,335.03,315.918,323.039,320.321,311.899 M365.756,257.302c-3.507,8.312-6.438,16.992-8.829,25.879l-0.299,1.104
		l-1.104,0.299c-8.887,2.391-17.567,5.323-25.879,8.841C338.785,278.812,351.166,266.441,365.756,257.302 M366.296,293.953
		l1.184-0.287c15.923-3.748,32.581-5.564,50.401-5.967l2.023-0.058v59.921h-59.909l0.046-2.023
		c0.402-17.82,2.219-34.478,5.967-50.401L366.296,293.953z M370.918,277.961c3.472-10.221,7.864-20.188,13.348-29.995
		c11.129-4.392,23.108-7.07,35.639-7.714v35.525l-1.931,0.046c-14.624,0.391-29.822,1.885-44.814,4.725l-3.334,0.633
		L370.918,277.961z M419.905,419.358l-2.023-0.058c-17.9-0.391-34.524-2.207-50.401-5.944l-1.196-0.276l-0.287-1.196
		c-3.736-15.9-5.553-32.524-5.955-50.413l-0.046-2.035h59.909V419.358z M431.781,287.641l2.035,0.046
		c17.877,0.402,34.513,2.219,50.413,5.967l1.196,0.276l0.276,1.196c3.748,15.877,5.553,32.524,5.955,50.413l0.046,2.023h-59.92
		V287.641z M431.781,240.252c12.543,0.644,24.534,3.323,35.674,7.726c5.472,9.829,9.876,19.785,13.336,29.994l1.092,3.219
		l-3.334-0.644c-14.98-2.839-30.19-4.334-44.837-4.725l-1.931-0.046V240.252z M329.645,413.575c8.312,3.518,16.992,6.45,25.89,8.841
		l1.092,0.299l0.299,1.092c0.517,1.931,1.081,3.828,1.655,5.737c4.093-0.207,8.186-0.437,12.267-0.701l-1.035-3.035l3.334,0.632
		c3.058,0.587,6.116,1.092,9.186,1.564c26.994-2.184,53.528-5.783,79.511-10.692c-9.025,1.127-18.337,1.77-28.029,1.989
		l-2.035,0.058v-59.921h59.92l-0.046,2.035c-0.414,17.9-2.23,34.513-5.967,50.39l-0.126,0.552c2.794-0.621,5.587-1.288,8.381-1.943
		v-127.59h0.506c-0.805-3.127-1.644-6.22-2.541-9.278c-1.77-5.553-3.736-10.991-5.978-16.279c0.276,0.184,0.563,0.368,0.839,0.552
		c-2.874-7.944-6.105-15.624-9.646-23.028c-15.716-6.806-33.041-10.589-51.286-10.589c-71.371,0-129.234,57.863-129.234,129.234
		c0,28.845,9.462,55.495,25.43,76.993c6.795-0.012,13.555-0.115,20.303-0.311C337.624,425.049,333.358,419.507,329.645,413.575"/>
	<path style="fill:#FFFFFF;" d="M493.94,410.473c1.276-0.299,2.552-0.586,3.828-0.885c3.541-17.935,5.426-36.697,5.426-56.046
		c0-24.672-3.081-48.435-8.749-70.658h-0.506V410.473z"/>
	<path style="fill:#FFFFFF;" d="M493.94,410.473c1.276-0.299,2.552-0.586,3.828-0.885c3.541-17.935,5.426-36.697,5.426-56.046
		c0-24.672-3.081-48.435-8.749-70.658h-0.506V410.473z"/>
	<path style="fill:#FFFFFF;" d="M519.17,414.762c2.932-4.104,5.553-8.415,7.887-12.888c-4.254,1.207-8.542,2.38-12.83,3.518v11.267
		C515.882,416.049,517.538,415.417,519.17,414.762"/>
	<path style="fill:#FFFFFF;" d="M519.17,414.762c2.932-4.104,5.553-8.415,7.887-12.888c-4.254,1.207-8.542,2.38-12.83,3.518v11.267
		C515.882,416.049,517.538,415.417,519.17,414.762"/>
	<path style="fill:#FFFFFF;" d="M495.055,422.711l1.104-0.299c4.691-1.264,9.324-2.702,13.899-4.277h-14.141
		c-0.379,1.598-0.736,3.185-1.138,4.76c0.081-0.011,0.172-0.034,0.241-0.046L495.055,422.711z"/>
	<path style="fill:#FFFFFF;" d="M495.055,422.711l1.104-0.299c4.691-1.264,9.324-2.702,13.899-4.277h-14.141
		c-0.379,1.598-0.736,3.185-1.138,4.76c0.081-0.011,0.172-0.034,0.241-0.046L495.055,422.711z"/>
	<path style="fill:#FFFFFF;" d="M498.157,409.516l0.012-0.023c-0.138,0.035-0.276,0.058-0.402,0.092
		c-0.563,2.874-1.196,5.725-1.851,8.542h14.141c1.391-0.471,2.782-0.954,4.162-1.46V405.4c-5.231,1.391-10.497,2.748-15.785,4.024
		L498.157,409.516z"/>
	<path style="fill:#FFFFFF;" d="M498.157,409.516l0.012-0.023c-0.138,0.035-0.276,0.058-0.402,0.092
		c-0.563,2.874-1.196,5.725-1.851,8.542h14.141c1.391-0.471,2.782-0.954,4.162-1.46V405.4c-5.231,1.391-10.497,2.748-15.785,4.024
		L498.157,409.516z"/>
	<path style="fill:#FFFFFF;" d="M498.157,409.516l0.012-0.023c-0.138,0.035-0.276,0.058-0.402,0.092
		c-0.563,2.874-1.196,5.725-1.851,8.542h14.141c1.391-0.471,2.782-0.954,4.162-1.46V405.4c-5.231,1.391-10.497,2.748-15.785,4.024
		L498.157,409.516z"/>
	<path style="fill:#FFFFFF;" d="M493.94,418.13v-7.657c-2.782,0.655-5.587,1.322-8.381,1.943l-0.161,0.633l-1.184,0.287
		c-7.289,1.713-14.727,3.012-22.373,3.966c-25.982,4.92-52.517,8.519-79.51,10.703c11.979,1.828,23.982,2.851,35.651,3.161
		l1.92,0.046v4.541c3.966-0.471,7.933-0.966,11.876-1.494v-3.047l1.943-0.046c13.336-0.356,27.132-1.632,40.802-4.012
		c6.794-1.322,13.543-2.748,20.257-4.265c0.402-1.575,0.759-3.161,1.138-4.76H493.94z"/>
	<path style="fill:#FFFFFF;" d="M493.94,418.13v-7.657c-2.782,0.655-5.587,1.322-8.381,1.943l-0.161,0.633l-1.184,0.287
		c-7.289,1.713-14.727,3.012-22.373,3.966c-25.982,4.92-52.517,8.519-79.51,10.703c11.979,1.828,23.982,2.851,35.651,3.161
		l1.92,0.046v4.541c3.966-0.471,7.933-0.966,11.876-1.494v-3.047l1.943-0.046c13.336-0.356,27.132-1.632,40.802-4.012
		c6.794-1.322,13.543-2.748,20.257-4.265c0.402-1.575,0.759-3.161,1.138-4.76H493.94z"/>
	<path style="fill:#FFFFFF;" d="M493.94,418.13v-7.657c-2.782,0.655-5.587,1.322-8.381,1.943l-0.161,0.633l-1.184,0.287
		c-7.289,1.713-14.727,3.012-22.373,3.966c-25.982,4.92-52.517,8.519-79.51,10.703c11.979,1.828,23.982,2.851,35.651,3.161
		l1.92,0.046v4.541c3.966-0.471,7.933-0.966,11.876-1.494v-3.047l1.943-0.046c13.336-0.356,27.132-1.632,40.802-4.012
		c6.794-1.322,13.543-2.748,20.257-4.265c0.402-1.575,0.759-3.161,1.138-4.76H493.94z"/>
	<path style="fill:#FFFFFF;" d="M495.915,418.13c0.655-2.828,1.288-5.668,1.851-8.542c-1.265,0.299-2.552,0.587-3.828,0.886v7.657
		H495.915z"/>
	<path style="fill:#FFFFFF;" d="M495.915,418.13c0.655-2.828,1.288-5.668,1.851-8.542c-1.265,0.299-2.552,0.587-3.828,0.886v7.657
		H495.915z"/>
	<path style="fill:#FFFFFF;" d="M495.915,418.13c0.655-2.828,1.288-5.668,1.851-8.542c-1.265,0.299-2.552,0.587-3.828,0.886v7.657
		H495.915z"/>
	<path style="fill:#FFFFFF;" d="M495.915,418.13c0.655-2.828,1.288-5.668,1.851-8.542c-1.265,0.299-2.552,0.587-3.828,0.886v7.657
		H495.915z"/>
	<path style="fill:#FFFFFF;" d="M545.549,396.347c-2.736,0.851-5.484,1.702-8.243,2.529c-3.702,4.943-8.255,10.784-13.382,16.842
		c4.714-1.264,9.404-2.564,14.06-3.909c0.322-0.667,0.644-1.334,0.966-2.001C540.663,406.338,543.043,401.027,545.549,396.347"/>
	<path style="fill:#FFFFFF;" d="M545.549,396.347c-2.736,0.851-5.484,1.702-8.243,2.529c-3.702,4.943-8.255,10.784-13.382,16.842
		c4.714-1.264,9.404-2.564,14.06-3.909c0.322-0.667,0.644-1.334,0.966-2.001C540.663,406.338,543.043,401.027,545.549,396.347"/>
	<path style="fill:#FFFFFF;" d="M370.849,428.84c-4.081,0.265-8.174,0.494-12.267,0.701c1.092,3.69,2.311,7.346,3.61,10.933
		c4.265-0.184,8.519-0.402,12.761-0.655c-1.46-3.575-2.817-7.174-4.047-10.795L370.849,428.84z"/>
	<path style="fill:#FFFFFF;" d="M370.849,428.84c-4.081,0.265-8.174,0.494-12.267,0.701c1.092,3.69,2.311,7.346,3.61,10.933
		c4.265-0.184,8.519-0.402,12.761-0.655c-1.46-3.575-2.817-7.174-4.047-10.795L370.849,428.84z"/>
	<path style="fill:#FFFFFF;" d="M370.849,428.84c-4.081,0.265-8.174,0.494-12.267,0.701c1.092,3.69,2.311,7.346,3.61,10.933
		c4.265-0.184,8.519-0.402,12.761-0.655c-1.46-3.575-2.817-7.174-4.047-10.795L370.849,428.84z"/>
	<path style="fill:#FFFFFF;" d="M342.342,430.173c-6.749,0.195-13.509,0.299-20.303,0.311c2.771,3.736,5.748,7.312,8.898,10.715
		c7.565-0.023,15.095-0.149,22.602-0.391C349.562,437.519,345.825,433.966,342.342,430.173"/>
	<path style="fill:#FFFFFF;" d="M342.342,430.173c-6.749,0.195-13.509,0.299-20.303,0.311c2.771,3.736,5.748,7.312,8.898,10.715
		c7.565-0.023,15.095-0.149,22.602-0.391C349.562,437.519,345.825,433.966,342.342,430.173"/>
	<path style="fill:#FFFFFF;" d="M342.342,430.173c-6.749,0.195-13.509,0.299-20.303,0.311c2.771,3.736,5.748,7.312,8.898,10.715
		c7.565-0.023,15.095-0.149,22.602-0.391C349.562,437.519,345.825,433.966,342.342,430.173"/>
	<path style="fill:#FFFFFF;" d="M328.779,126.361c-91.778,73.682-124.382,193.661-91.387,299.625
		c1.587,0.161,3.162,0.322,4.748,0.483c-28.776-103.826,4.484-219.425,93.824-291.152c118.266-94.951,290.37-77.418,387.253,38.353
		c-1.161-1.529-2.276-3.058-3.484-4.564C623.576,49.333,448.54,30.192,328.779,126.361"/>
	<path style="fill:#FFFFFF;" d="M286.03,517.318c1.207,1.506,2.483,2.92,3.713,4.403c-20.246-26.293-35.053-55.103-44.607-85.063
		c-1.46-0.173-2.92-0.356-4.369-0.529C250.92,464.79,265.923,492.279,286.03,517.318"/>
	<path style="fill:#FFFFFF;" d="M240.765,436.134c1.46,0.173,2.909,0.356,4.369,0.518c-1.081-3.38-2.047-6.783-3.001-10.186
		c-1.575-0.161-3.162-0.311-4.737-0.483C238.454,429.385,239.569,432.765,240.765,436.134"/>
	<g>
		<defs>
			<path id="SVGID_1_" d="M240.754,436.132c1.46,0.172,2.909,0.356,4.38,0.529c-1.081-3.391-2.058-6.795-3.001-10.197
				c-1.575-0.149-3.161-0.31-4.737-0.483C238.455,429.383,239.57,432.763,240.754,436.132"/>
		</defs>
		<use xlink:href="#SVGID_1_"  style="overflow:visible;fill:#FFFFFF;"/>
		<clipPath id="SVGID_00000001635579033278942230000004995015058420779938_">
			<use xlink:href="#SVGID_1_"  style="overflow:visible;"/>
		</clipPath>
		
			<rect x="192.859" y="502.594" style="clip-path:url(#SVGID_00000001635579033278942230000004995015058420779938_);fill:#FFFFFF;" width="4.116" height="5.668"/>
	</g>
	<path style="fill:#FFFFFF;" d="M240.765,436.134c1.46,0.173,2.909,0.356,4.369,0.518c-1.081-3.38-2.047-6.783-3.001-10.186
		c-1.575-0.161-3.162-0.311-4.737-0.483C238.454,429.385,239.569,432.765,240.765,436.134"/>
	<path style="fill:#FFFFFF;" d="M419.305,48.278c-163.298,47.378-257.272,218.16-209.894,381.447
		c0.598,2.035,1.299,4.035,1.931,6.07c-43.296-161.424,50.252-328.516,211.504-375.307
		c161.263-46.791,329.712,44.296,379.538,203.824c-0.563-2.058-1.012-4.116-1.609-6.162
		C753.374,94.862,582.603,0.889,419.305,48.278"/>
	<path style="fill:#FFFFFF;" d="M158.247,545.115c0.598,0,1.207-0.08,1.724-0.08c6.162-0.23,8.933-1.874,10.818-5.932
		c0.747-1.414,1.046-3.299,0.816-5.622c-0.517-5.634-3.679-8.565-11.336-9.082h-1.793h-8.565v20.717H158.247z M142.336,519.294
		h16.739c0.897,0,1.725,0,2.633,0.069c11.106,0.609,16.509,5.035,17.486,13.29c0.598,4.576-0.598,8.703-3.299,12.014
		c-2.932,3.518-7.139,5.541-12.313,5.702h-0.609h-3.667h-9.393v22.97h-7.576V519.294z"/>
	<path style="fill:#FFFFFF;" d="M185.429,556.365c0.966,10.209,6.679,14.796,14.405,12.911c4.725-1.196,7.657-5.093,8.335-12.911
		c0.149-1.276,0.149-2.541,0-3.828c-0.678-7.875-3.61-11.704-8.335-12.899c-7.726-1.955-13.439,2.621-14.405,12.899
		c-0.081,0.609-0.081,1.288-0.081,1.874C185.348,555.089,185.348,555.699,185.429,556.365 M200.811,534.982
		c8.852,1.575,14.785,8.852,14.785,19.429c0,10.588-5.932,17.877-14.785,19.452c-12.98,2.323-22.74-6.013-22.74-19.452
		C178.071,540.983,187.832,532.66,200.811,534.982"/>
	<polygon style="fill:#FFFFFF;" points="224.778,535.654 234.24,565.753 243.541,535.654 252.175,535.654 261.556,565.753 
		271.167,535.654 277.398,535.654 265.465,573.329 257.578,573.329 247.668,541.736 237.908,573.329 229.734,573.329 217.8,535.654 
			"/>
	<path style="fill:#FFFFFF;" d="M306.394,551.568c0.069-0.379,0.069-0.828,0.069-1.196c-0.218-7.737-4.127-11.485-10.129-11.266
		c-5.104,0.149-8.784,3.46-9.83,10.508c-0.149,0.598-0.149,1.276-0.149,1.954H306.394z M286.275,555.396
		c-0.069,0.747-0.069,1.575,0,2.403c0.609,8.335,4.576,12.163,10.439,12.232c4.725,0.149,7.795-2.184,9.151-7.209
		c0.149-0.299,0.23-0.667,0.23-1.046h6.381c0,0.747-0.149,1.575-0.379,2.322c-1.575,6.162-6.829,10.06-15.382,10.209
		c-10.29,0.23-16.141-5.403-17.268-16.819c-1.276-13.279,4.725-21.165,13.968-22.43c12.451-1.736,19.36,4.277,19.958,18.015
		c0,0.747,0,1.495-0.069,2.322H286.275z"/>
	<path style="fill:#FFFFFF;" d="M320.586,535.654h6.749v5.323c0.23-0.38,0.448-0.747,0.678-1.046
		c2.253-3.231,5.036-4.806,9.163-4.944c1.127-0.08,2.322,0.069,3.449,0.288v5.932l-0.678-0.069l-0.897-0.08
		c-8.404-0.46-11.715,2.851-11.715,10.657v21.614h-6.749V535.654z"/>
	<path style="fill:#FFFFFF;" d="M382.522,538.807c4.277-2.483,6.001-4.875,6.45-8.025c0.678-5.116-3.15-8.784-7.887-7.967
		c-5.622,0.908-7.795,6.311-3.978,12.692c0.46,0.598,0.828,1.196,1.276,1.805c0.759,1.046,1.357,1.874,2.035,2.541
		C381.166,539.554,381.844,539.255,382.522,538.807 M373.659,547.51c-0.828,0.747-1.644,1.587-2.403,2.403
		c-5.932,6.99-3.07,17.038,5.484,19.82c5.921,1.943,12.083,0.23,16.739-4.806c0.517-0.598,0.977-1.196,1.426-1.805l-15.992-18.831
		C377.108,545.038,375.383,546.084,373.659,547.51 M376.061,540.98l-0.828-1.046c-1.943-2.621-3.07-4.656-3.667-6.45
		c-2.564-7.887,2.391-15.015,11.025-14.865c0.908,0,1.805,0.069,2.702,0.299c7.059,1.575,10.428,10.06,6.082,16.82
		c-1.345,2.092-3.53,4.116-6.461,5.771c-0.747,0.38-1.575,0.759-2.322,1.127l14.417,16.969c1.276-3.46,1.943-7.059,2.023-10.738
		h4.127c-0.149,2.173-0.448,4.426-0.977,6.599c-0.678,2.483-1.575,4.886-2.702,7.128l9.301,10.738h-5.242l-6.162-7.576
		c-0.448,0.598-0.816,1.127-1.276,1.644c-2.771,3.311-6.53,5.564-10.657,6.461c-8.783,1.955-16.888-1.874-20.269-8.553
		c-1.127-2.334-1.724-4.806-1.644-7.358c0.149-5.863,3.449-11.186,10.278-15.095c0.908-0.517,1.805-0.897,2.702-1.264
		L376.061,540.98z"/>
	<polygon style="fill:#FFFFFF;" points="434.47,519.294 467.799,519.294 467.799,524.697 442.046,524.697 442.046,542.712 
		466.373,542.712 466.373,548.185 442.046,548.185 442.046,567.936 468.615,567.936 468.615,573.339 434.47,573.339 	"/>
	<path style="fill:#FFFFFF;" d="M475.68,535.654h6.76v6.91c0.218-0.46,0.437-0.908,0.667-1.357
		c2.403-4.127,5.484-6.151,10.129-6.599c8.944-0.828,14.037,3.667,14.417,11.635l0.08,1.644v1.127v24.316h-6.76v-23.338v-0.598
		l-0.069-1.656c-0.23-3.15-0.828-4.575-2.184-6.001c-1.954-2.104-5.105-3-8.473-2.104c-4.955,1.207-7.806,5.403-7.806,14.405v19.291
		h-6.76V535.654z"/>
	<path style="fill:#FFFFFF;" d="M542.109,551.568c0.069-0.379,0.069-0.828,0.069-1.196c-0.218-7.737-4.127-11.485-10.128-11.266
		c-5.105,0.149-8.784,3.46-9.83,10.508c-0.149,0.598-0.149,1.276-0.149,1.954H542.109z M521.99,555.396
		c-0.069,0.747-0.069,1.575,0,2.403c0.609,8.335,4.576,12.163,10.439,12.232c4.725,0.149,7.806-2.184,9.151-7.209
		c0.149-0.299,0.23-0.667,0.23-1.046h6.381c0,0.747-0.149,1.575-0.379,2.322c-1.575,6.162-6.829,10.06-15.383,10.209
		c-10.289,0.23-16.141-5.403-17.268-16.819c-1.276-13.279,4.725-21.165,13.968-22.43c12.451-1.736,19.36,4.277,19.958,18.015
		c0,0.747,0,1.495-0.069,2.322H521.99z"/>
	<path style="fill:#FFFFFF;" d="M556.301,535.654h6.749v5.323c0.23-0.38,0.448-0.747,0.678-1.046
		c2.253-3.231,5.036-4.806,9.163-4.944c1.127-0.08,2.322,0.069,3.449,0.288v5.932l-0.678-0.069l-0.897-0.08
		c-8.404-0.46-11.715,2.851-11.715,10.657v21.614h-6.749V535.654z"/>
	<path style="fill:#FFFFFF;" d="M596.853,568.155c2.702-0.828,4.943-3.15,6.668-7.507c0.529-1.426,0.839-2.92,1.058-4.656
		c1.207-12.233-5.024-17.854-12.681-16.13c-4.357,1.046-7.657,5.024-8.404,11.853c-0.161,0.678-0.161,1.425-0.23,2.184
		C582.965,565.385,589.576,570.478,596.853,568.155 M604.429,535.654h6.829v37.456c0,10.428-7.047,17.038-19.441,16.36
		c-8.933-0.529-13.578-4.426-14.175-10.278c0-0.529-0.081-0.977,0-1.506h6.818c0,0.23,0,0.529,0.081,0.759
		c0.379,3.518,2.851,5.852,8.025,6.22c7.139,0.529,11.336-3.231,11.796-9.979c0.069-0.448,0.069-0.897,0.069-1.276v-8.254
		l-0.379,0.678l-0.747,1.046c-3.828,5.852-10.358,8.025-17.406,5.173c-5.415-2.253-8.714-6.898-9.761-14.635
		c-0.23-2.253-0.23-4.576,0.149-6.898c1.425-8.864,6.909-14.417,12.911-15.325c7.507-1.196,12.83,1.368,15.233,5.863V535.654z"/>
	<polygon style="fill:#FFFFFF;" points="622.075,535.654 633.181,565.753 644.218,535.654 650.38,535.654 631.158,587.895 
		624.547,587.895 629.663,573.938 614.867,535.654 	"/>
	<path style="fill:#FFFFFF;" d="M679.06,558.322c-0.678,6.381,4.725,11.554,13.957,10.727c1.506-0.069,2.782-0.448,3.978-0.966
		c4.357-1.885,6.151-4.817,6.082-8.646c-0.149-4.047-1.725-5.99-6.45-7.944l-3.909-1.288l-4.725-1.713
		c-0.759-0.23-1.506-0.529-2.253-0.828c-11.566-4.507-15.015-9.841-12.232-18.992c1.794-6.082,7.875-10.278,17.716-10.278
		c11.853-0.161,18.613,6.001,18.912,14.026h-7.657c-0.081-4.794-4.127-8.554-11.336-8.554c-5.852,0-9.082,2.184-10.508,6.381
		c-1.724,5.403,0.897,9.381,10.129,12.531l5.185,1.736l2.621,0.897l2.035,0.747c8.404,3.081,11.623,9.002,9.68,16.969
		c-1.655,6.599-6.909,10.496-16.659,11.106c-1.966,0.149-3.909,0.069-5.863-0.069c-10.06-0.908-14.854-4.817-16.141-12.474
		c-0.149-1.127-0.218-2.254-0.149-3.369H679.06z"/>
	<path style="fill:#FFFFFF;" d="M722.6,556.365c0.977,10.209,6.679,14.796,14.405,12.911c4.737-1.196,7.657-5.093,8.335-12.911
		c0.149-1.276,0.149-2.541,0-3.828c-0.678-7.875-3.599-11.704-8.335-12.899c-7.726-1.955-13.428,2.621-14.405,12.899
		c-0.081,0.609-0.081,1.288-0.081,1.874C722.519,555.089,722.519,555.699,722.6,556.365 M737.982,534.982
		c8.864,1.575,14.785,8.852,14.785,19.429c0,10.588-5.921,17.877-14.785,19.452c-12.98,2.323-22.74-6.013-22.74-19.452
		C715.242,540.983,725.003,532.66,737.982,534.982"/>
	<path style="fill:#FFFFFF;" d="M784.456,547.886c-0.081-0.448-0.149-0.966-0.218-1.575c-0.161-0.667-0.379-1.345-0.609-1.955
		c-2.173-5.093-9.381-6.829-14.635-2.391c-2.403,2.024-3.978,5.254-4.346,10.577c-0.161,1.656-0.08,3.38,0.138,5.035
		c0.977,7.806,4.127,11.175,9.841,11.554c5.553,0.368,8.921-2.253,9.749-7.507c0.081-0.38,0.081-0.747,0.149-1.058h6.381
		c0,0.839-0.069,1.656-0.299,2.414c-1.426,7.278-7.208,11.704-16.291,11.324c-10.577-0.368-16.659-6.978-16.888-19.28
		c-0.149-11.865,5.783-19.222,14.486-20.269c10.818-1.425,17.348,3.15,18.843,11.255c0.08,0.598,0.149,1.276,0.23,1.874H784.456z"/>
	<path style="fill:#FFFFFF;" d="M797.226,573.332h6.76v-37.675h-6.76V573.332z M797.226,527.323h6.76v-8.036h-6.76V527.323z"/>
	<path style="fill:#FFFFFF;" d="M838.352,551.568c0.069-0.379,0.069-0.828,0.069-1.196c-0.218-7.737-4.127-11.485-10.129-11.266
		c-5.104,0.149-8.784,3.46-9.83,10.508c-0.149,0.598-0.149,1.276-0.149,1.954H838.352z M818.233,555.396
		c-0.069,0.747-0.069,1.575,0,2.403c0.609,8.335,4.576,12.163,10.439,12.232c4.725,0.149,7.806-2.184,9.151-7.209
		c0.149-0.299,0.23-0.667,0.23-1.046h6.381c0,0.747-0.149,1.575-0.379,2.322c-1.575,6.162-6.829,10.06-15.382,10.209
		c-10.29,0.23-16.141-5.403-17.268-16.819c-1.276-13.279,4.725-21.165,13.968-22.43c12.451-1.736,19.36,4.277,19.958,18.015
		c0,0.747,0,1.495-0.069,2.322H818.233z"/>
	<path style="fill:#FFFFFF;" d="M846.31,535.654h6.829v-7.657l6.76-2.702v10.358h8.484v4.576h-8.484v22.591v0.529
		c0.448,4.576,1.425,5.484,6.461,5.403c0.747,0,1.494-0.069,2.391-0.299v5.035c-1.575,0.368-2.92,0.517-4.357,0.598
		c-8.392,0.219-11.255-2.552-11.255-11.186V540.23h-6.829V535.654z"/>
	<polygon style="fill:#FFFFFF;" points="873.182,535.654 884.288,565.753 895.325,535.654 901.487,535.654 882.265,587.895 
		875.666,587.895 880.77,573.938 865.985,535.654 	"/>
	<path style="fill:#FFFFFF;" d="M366.833,511.867c1.115,0.437,2.23,0.793,3.357,1.196c-86.34-35.387-128.912-133.476-95.135-220.908
		c33.777-87.444,131.223-131.441,218.93-99.607c-1.104-0.448-2.161-0.931-3.277-1.368c-88.57-34.202-188.073,9.864-222.276,98.423
		C234.231,378.149,278.298,477.664,366.833,511.867"/>
	<path style="fill:#FFFFFF;" d="M562.886,354.764h3.771l2.633-0.195c6.599-0.184,11.117-3.196,14.129-9.416
		c1.322-2.633,2.081-6.024,1.713-10.749c-0.943-10.945-6.611-16.222-19.245-16.785h-2.621h-11.14v37.145H562.886z M510.841,293.866
		h59.208h2.253l7.174,0.379c29.029,1.127,42.227,12.807,44.296,37.893c2.449,27.523-14.509,47.136-42.423,48.447l-3.955,0.195
		h-3.587h-21.096v48.838h-41.871V293.866z"/>
	<polygon style="fill:#FFFFFF;" points="633.227,293.866 730.891,293.866 730.891,320.826 674.5,320.826 674.5,346.647 
		728.247,346.647 728.247,374.561 674.5,374.561 674.5,402.648 732.029,402.648 732.029,429.619 633.227,429.619 	"/>
	<path style="fill:#FFFFFF;" d="M779.362,384.171c-0.379,1.702-0.379,3.392-0.195,5.093c0.77,12.439,9.048,19.429,22.246,18.107
		c2.265-0.195,4.15-0.77,5.863-1.518c6.404-3.207,9.416-7.921,9.232-14.509c-0.379-7.174-4.334-12.278-12.439-14.9l-1.334-0.379
		l-7.162-2.07l-11.117-3.012c-1.311-0.379-2.633-0.77-3.966-1.322c-33.754-10.945-43.538-23.384-37.698-47.7
		c4.702-19.981,22.625-32.248,56.368-31.869c3.012,0,6.231,0.184,9.232,0.38c23.752,2.069,36.03,9.036,42.997,21.682
		c3.392,6.22,4.898,13.198,4.518,20.36h-39.399v-2.828c-0.195-2.265-0.943-4.518-1.874-6.599c-3.598-6.599-9.807-9.623-19.245-8.68
		c-2.069,0.195-3.955,0.77-5.656,1.506c-6.794,3.599-9.623,9.623-8.117,16.774c1.529,6.231,5.863,9.83,18.291,13.405l12.451,3.576
		l14.9,4.15c23.752,6.783,34.501,23.568,29.224,46.378c-4.541,19.613-19.05,29.799-50.148,31.477
		c-6.231,0.207-11.887,0.207-17.544-0.368c-25.442-2.081-38.836-10.554-45.826-25.454c-3.196-6.783-4.334-14.152-3.576-21.682
		H779.362z"/>
	<rect x="511.385" y="215.12" style="fill:#FFFFFF;" width="12.681" height="65.761"/>
	<polygon style="fill:#FFFFFF;" points="532.677,215.12 576.973,215.12 576.973,225.076 547.657,225.076 547.657,242.068 
		575.513,242.068 575.513,252.301 547.657,252.301 547.657,270.925 577.709,270.925 577.709,280.881 532.677,280.881 	"/>
	<polygon style="fill:#FFFFFF;" points="585.008,215.12 629.305,215.12 629.305,225.076 599.988,225.076 599.988,242.068 
		627.844,242.068 627.844,252.301 599.988,252.301 599.988,270.925 630.04,270.925 630.04,280.881 585.008,280.881 	"/>
	<polygon style="fill:#FFFFFF;" points="637.341,215.12 681.649,215.12 681.649,225.076 652.321,225.076 652.321,242.068 
		680.177,242.068 680.177,252.301 652.321,252.301 652.321,270.925 682.373,270.925 682.373,280.881 637.341,280.881 	"/>
	<path style="fill:#FFFFFF;" d="M350.417,479.736c-66.715-40.663-88.375-127.118-49.263-194.327
		c-0.517,0.828-1.081,1.633-1.598,2.483c-41.181,67.566-19.786,155.722,47.78,196.903c67.566,41.169,155.722,19.786,196.891-47.78
		c0.506-0.862,0.977-1.713,1.483-2.575C503.897,500.016,417.143,520.399,350.417,479.736"/>
	<path style="fill:#FFFFFF;" d="M924.105,530.889h1.506c1.748,0,3.173-0.586,3.173-2.012c0-1.253-0.92-2.081-2.92-2.081
		c-0.839,0-1.425,0.081-1.759,0.161V530.889z M924.024,538.661h-3.184v-13.704c1.253-0.253,3.012-0.414,5.277-0.414
		c2.587,0,3.748,0.414,4.76,1c0.747,0.586,1.334,1.667,1.334,3c0,1.506-1.161,2.679-2.84,3.185v0.161
		c1.334,0.506,2.092,1.506,2.506,3.345c0.425,2.092,0.667,2.932,1,3.426h-3.426c-0.414-0.494-0.667-1.748-1.081-3.345
		c-0.253-1.506-1.092-2.173-2.84-2.173h-1.506V538.661z M915.574,531.475c0,6.105,4.518,10.945,10.703,10.945
		c6.024,0,10.451-4.84,10.451-10.864c0-6.104-4.426-11.037-10.531-11.037C920.092,520.519,915.574,525.451,915.574,531.475
		 M940.234,531.475c0,7.772-6.105,13.876-14.037,13.876c-7.864,0-14.129-6.105-14.129-13.876c0-7.611,6.266-13.704,14.129-13.704
		C934.13,517.771,940.234,523.865,940.234,531.475"/>
</g>
</svg>
