<?xml version="1.0" encoding="iso-8859-1"?>
<!-- Generator: Adobe Illustrator 26.0.1, SVG Export Plug-In . SVG Version: 6.00 Build 0)  -->
<svg version="1.1" id="Layer_1" xmlns="http://www.w3.org/2000/svg" xmlns:xlink="http://www.w3.org/1999/xlink" x="0px" y="0px"
	 viewBox="0 0 1080 614" style="enable-background:new 0 0 1080 614;" xml:space="preserve">
<g>
	<path d="M163.673,191.384c0.97-0.861,1.892-1.783,2.924-2.575c20.888-16.011,42.931-30.24,66.101-42.726
		c29.133-15.697,59.462-28.491,91.436-37.173c20.772-5.649,41.845-9.42,63.43-10.39c21.36-0.963,42.139,1.387,62.399,8.477
		c33.355,11.667,56.606,42.071,59.325,77.215c2.295,29.673-5.116,57.269-17.043,83.943c-14.392,32.186-34.625,60.52-57.979,86.75
		c-25.684,28.839-54.844,53.758-85.91,76.58c-13.006,9.549-25.725,19.495-38.58,29.242c-1.612,1.223-3.292,2.357-5.239,3.743
		c-3.907-7.152-7.65-14.003-11.394-20.861c-2.507-4.59-4.843-9.283-7.575-13.737c-1.708-2.794-1.646-5.164-0.116-7.944
		c9.276-16.824,18.47-33.696,27.671-50.561c19.509-35.732,39.004-71.47,58.505-107.202c10.84-19.864,21.722-39.707,32.521-59.591
		c1.107-2.029,2.425-2.944,4.836-2.896c7.398,0.15,14.809,0.205,22.207-0.027c3.115-0.095,4.249,1.1,4.542,3.989
		c1.175,11.53,2.486,23.04,3.689,34.564c1.496,14.345,2.896,28.696,4.433,43.034c0.41,3.846,2.883,5.021,5.95,2.623
		c3.108-2.425,6.066-5.178,8.573-8.217c18.662-22.664,29.584-48.614,32.227-77.891c1.264-13.969-1.182-27.378-7.883-39.823
		c-9.338-17.336-24.406-26.872-43.204-30.889c-21.783-4.658-43.218-1.714-64.387,3.935c-35.978,9.597-68.69,26.326-99.845,46.347
		c-6.694,4.303-13.279,8.778-19.802,13.327c-2.418,1.68-4.577,1.981-7.282,0.71c-13.627-6.407-28.068-9.112-43.054-8.757
		c-12.91,0.301-25.499,2.705-37.781,6.68c-1.045,0.342-2.104,0.628-3.156,0.936C164.028,191.937,163.851,191.664,163.673,191.384"/>
	<path d="M118.843,233.434c6.25-4.461,11.715-8.696,17.5-12.432c16.216-10.458,33.58-18.231,52.754-21.435
		c19.475-3.251,38.334-1.817,55.951,7.951c16.838,9.324,27.603,23.723,32.596,41.996c8.463,31.005,5.157,60.657-12.787,87.905
		c-7.493,11.38-17.63,20.151-29.195,27.282c-1.332,0.82-2.671,1.633-4.29,2.63c4.836,8.32,9.495,16.366,14.174,24.406
		c16.763,28.805,33.532,57.61,50.302,86.416c2.862,4.918,5.751,9.823,8.566,14.761c2.001,3.511,0.867,5.84-3.204,5.943
		c-7.739,0.184-15.492,0.198-23.225-0.055c-1.742-0.055-3.689-1.168-5.116-2.322c-38.273-30.779-76.484-61.648-114.729-92.475
		c-9.201-7.418-18.545-14.666-27.658-22.193c-1.387-1.141-2.5-3.327-2.644-5.116c-0.362-4.638-0.253-9.338-0.02-13.996
		c0.055-1.093,1.168-2.903,2.056-3.081c11.448-2.24,21.708-7.384,31.879-12.746c23.99-12.65,43.409-30.219,57.242-53.696
		c6.134-10.41,10.622-21.435,11.045-33.682c0.738-20.97-11.428-36.066-32.542-40.424c-13.115-2.705-26.121-1.284-38.683,2.794
		c-10.69,3.47-21.066,7.917-31.565,11.981C124.751,234.807,122.327,235.45,118.843,233.434"/>
	<path d="M243.634,494.163c-9.686,3.272-18.306,6.441-27.084,9.085c-20.499,6.175-41.367,10.676-62.74,12.459
		c-25.246,2.097-50.226,0.984-74.414-7.432c-23.156-8.053-41.968-21.612-53.683-43.737c-6.605-12.473-9.713-25.929-10.403-39.96
		c-1.585-32.091,7.705-61.531,22.309-89.578c10.943-21.018,24.898-39.967,41.49-56.818c20.554-20.868,44.584-35.909,73.956-40.95
		c12.439-2.138,24.994-2.691,36.688,3.108c4.57,2.268,8.47,5.95,12.534,9.16c1.851,1.462,1.489,2.719-0.601,4.18
		c-16.592,11.571-33.58,22.665-49.489,35.124c-27.685,21.694-52.481,46.36-72.126,75.787c-10.629,15.916-19.27,32.801-22.446,51.914
		c-3.361,20.219,0.458,38.566,15.752,53.28c10.287,9.884,22.999,15.274,36.667,18.607c17.289,4.215,34.81,4.734,52.508,3.648
		c20.984-1.284,41.435-5.396,61.736-10.574c1.195-0.307,2.944-0.342,3.818,0.321C233.088,485.529,237.876,489.525,243.634,494.163"
		/>
	<path d="M450.377,498.834c-3.19,0-6.38-0.061-9.563,0.021c-2.322,0.055-3.791-0.867-4.857-2.978
		c-7.555-14.905-15.178-29.775-22.801-44.646c-5.594-10.936-11.216-21.858-16.845-32.774c-1.148-2.213-1.503-3.975,0.854-5.936
		c17.972-14.925,34.099-31.749,49.666-49.12c0.307-0.335,0.56-0.765,0.936-0.977c0.936-0.526,1.926-0.956,2.896-1.421
		c0.396,0.895,1.045,1.755,1.148,2.678c0.943,8.805,1.817,17.616,2.671,26.435c1.796,18.416,3.579,36.831,5.335,55.247
		c1.516,15.929,3.04,31.859,4.447,47.802c0.458,5.137-0.198,5.67-5.348,5.67C456.073,498.834,453.225,498.834,450.377,498.834"/>
	<path d="M592.743,253.629c6.783-0.348,13.019-0.403,19.188-1.065c5.335-0.574,9.146-4.734,9.604-9.556
		c0.342-3.545-1.687-6.489-5.178-6.722c-5.997-0.389-12.015-0.478-18.02-0.499c-0.772-0.007-2.063,1.031-2.24,1.79
		C594.895,242.631,593.938,247.741,592.743,253.629 M616.207,262.003c4.488,8.873,8.962,17.712,13.825,27.316
		c-5.198,0-9.153,0.109-13.088-0.096c-0.765-0.034-1.769-1.161-2.138-2.008c-2.063-4.802-3.853-9.727-5.956-14.509
		c-4.126-9.406-7.63-11.209-18.136-9.501c-1.633,7.691-3.395,15.431-4.87,23.224c-0.437,2.275-1.277,3.074-3.545,2.951
		c-3.053-0.171-6.127-0.048-9.993-0.048c4.501-21.537,8.914-42.679,13.238-63.389c12.391,0,24.447-0.328,36.476,0.13
		c6.605,0.246,11.298,5.635,12.234,12.309c1.721,12.302-4.406,20.847-16.626,23.211
		C616.876,261.737,616.145,262.024,616.207,262.003"/>
	<path d="M843.188,378.956h-12.193c1.277-6.093,2.514-12.015,3.771-17.938c0.99-4.672,2.077-9.331,2.992-14.017
		c1.011-5.137-1.817-7.705-6.872-6.134c-4.092,1.271-6.865,4.29-8.019,8.252c-2.056,7.084-3.654,14.29-5.383,21.462
		c-0.642,2.643-1.12,5.328-1.721,8.238h-12.22c1.346-6.496,2.678-12.91,3.989-19.317c0.888-4.344,1.892-8.668,2.596-13.04
		c0.704-4.392-1.974-6.797-6.312-5.704c-5.649,1.428-8.238,5.84-9.631,10.97c-1.366,5.034-2.288,10.191-3.409,15.301
		c-0.847,3.88-1.694,7.76-2.582,11.824h-12.015c0.075-0.697,0.089-1.366,0.225-2.015c3.053-14.563,6.12-29.126,9.228-43.894h11.312
		c-0.164,1.489-0.335,2.985-0.56,5.034c4.413-3.265,8.62-6.148,14.119-6.168c5.69-0.027,10.055,1.701,12.043,7.76
		c1.141-1.031,2.111-1.947,3.122-2.814c4.583-3.928,9.932-5.465,15.868-4.788c5.963,0.669,9.809,5.26,8.846,11.564
		c-1.332,8.75-3.388,17.398-5.157,26.08C844.595,372.706,843.885,375.78,843.188,378.956"/>
	<path d="M1010.667,245.431c0.485,0.157,0.963,0.307,1.441,0.464c2.07-1.53,4.256-2.93,6.175-4.624
		c2.001-1.769,3.115-4.283,1.66-6.667c-0.758-1.236-2.91-2.227-4.454-2.254c-2.657-0.048-5.034,1.592-5.335,4.324
		C1009.84,239.536,1010.455,242.508,1010.667,245.431 M1017.054,277.017c-4.003-5.895-7.787-11.469-11.626-17.125
		c-4.713,2.452-8.231,5.574-8.477,11.134c-0.171,3.873,1.448,7.008,4.952,8.593C1007.361,282.078,1012.252,280.029,1017.054,277.017
		 M1001.158,250.896c-2.165-5.253-3.73-10.321-1.913-15.765c3.518-10.56,19.857-14.672,27.951-7.042
		c4.146,3.914,4.993,8.791,2.493,13.955c-2.213,4.59-5.861,7.753-10.089,10.355c-1.045,0.649-2.124,1.243-3.531,2.063
		c3.279,4.884,6.421,9.57,9.891,14.748c2.124-2.691,3.9-4.945,5.752-7.295c2.958,1.783,5.751,3.477,8.859,5.348
		c-2.384,3.375-4.597,6.51-7.022,9.946c1.878,1.79,3.907,3.73,6.052,5.779c-2.685,2.637-5.26,5.171-7.999,7.869
		c-2.452-1.926-4.857-3.819-7.507-5.902c-6.585,4.583-14.078,6.155-22.138,5.308c-10.997-1.154-18.033-9.201-17.05-19.85
		c0.615-6.653,4.276-11.626,9.645-15.383C996.589,253.601,998.768,252.378,1001.158,250.896"/>
	<path d="M608.845,329.251c-0.232-0.061-0.465-0.123-0.697-0.185c-4.529,8.252-9.051,16.51-13.778,25.137h18.101
		C611.236,345.706,610.041,337.475,608.845,329.251 M628.245,379.081c-3.559,0-6.749,0.171-9.898-0.109
		c-0.902-0.082-2.247-1.359-2.439-2.288c-0.772-3.757-1.175-7.596-1.79-11.892c-5.26,0-10.519,0.512-15.629-0.123
		c-7.391-0.908-12.418,1.154-14.631,8.627c-1.428,4.836-4.672,6.674-9.679,5.84c-2.056-0.342-4.221-0.055-6.899-0.055
		c4.631-8.197,8.969-15.881,13.313-23.566c6.926-12.261,13.962-24.468,20.718-36.825c1.591-2.91,3.388-4.126,6.66-3.757
		c2.582,0.294,5.246-0.137,7.835,0.157c0.97,0.116,2.473,1.243,2.616,2.097c3.327,19.816,6.496,39.653,9.686,59.489
		C628.21,377.339,628.19,378.022,628.245,379.081"/>
	<path d="M707.889,269.425c0,0.403-0.034,1.202,0.007,1.995c0.219,4.652,2.664,8.258,6.435,9.529
		c3.559,1.195,7.623-0.15,10.485-3.88c3.812-4.973,5.226-10.834,4.863-16.968c-0.253-4.351-2.357-7.794-6.933-9.092
		c-3.654-1.031-7.562,0.697-10.519,4.652C709.269,259.623,708.033,264.158,707.889,269.425 M703.893,282.397
		c-0.56,2.275-1.059,4.338-1.633,6.667h-10.997c1.305-6.394,2.548-12.596,3.846-18.791c2.924-13.996,5.95-27.972,8.764-41.996
		c0.485-2.411,1.407-3.204,3.798-3.033c2.917,0.198,5.868,0.048,9.085,0.048c-1.469,7.131-2.855,13.894-4.317,21.018
		c2.698-1.236,5-2.568,7.48-3.381c10.11-3.32,19.112,1.844,21.08,12.2c1.708,8.948,0.075,17.377-4.713,25.178
		C730.239,290.156,713.9,296.263,703.893,282.397"/>
	<path d="M998.522,351.719c0.15-4.331-1.223-7.999-5.301-9.864c-4.215-1.933-8.306-1.079-11.701,2.049
		c-4.939,4.563-6.469,10.553-6.325,17.002c0.102,4.863,2.725,8.217,6.899,9.481c4.037,1.223,8.306-0.273,11.202-3.846
		C996.8,362.211,998.324,357.204,998.522,351.719 M962.79,358.796c0.369-14.529,8.142-24.345,21.107-26.64
		c10.608-1.879,19.836,1.551,24.16,9.31c7.261,13.04-0.198,36.094-19.147,38.293c-3.771,0.437-7.801,0.437-11.462-0.423
		C967.537,376.993,962.517,369.602,962.79,358.796"/>
	<path d="M759.076,351.537c0.014-4.939-2.036-8.477-5.765-9.932c-4.126-1.619-9.262-0.369-12.37,3.333
		c-3.976,4.741-5.594,10.376-5.137,16.496c0.355,4.829,2.91,7.951,7.036,9.03c4.44,1.154,8.047-0.43,10.909-3.818
		C757.423,362.303,758.994,357.173,759.076,351.537 M749.52,331.851c11.141-0.041,18.798,4.932,20.97,14.276
		c4.221,18.122-8.791,38.32-32.139,33.423c-8.443-1.776-13.737-7.589-14.816-16.626C721.548,346.264,731.732,331.469,749.52,331.851
		"/>
	<path d="M674.368,262.9c0.082-5.963-2.001-9.508-5.922-11.011c-4.112-1.571-9.276-0.253-12.336,3.436
		c-3.866,4.672-5.342,10.239-5.021,16.196c0.232,4.283,2.213,7.698,6.517,9.092c4.351,1.407,8.026,0.007,11.059-3.313
		C672.633,272.969,674.013,267.682,674.368,262.9 M664.812,242.107c16.476-0.157,25.369,12.398,20.67,29.181
		c-4.126,14.754-18.901,22.74-33.539,18.067c-6.414-2.049-10.813-6.202-12.439-12.855
		C635.699,260.96,643.903,241.95,664.812,242.107"/>
	<path d="M784.405,262.262c-0.492-2.063-0.622-4.317-1.551-6.168c-2.971-5.881-11.161-6.619-16.278-1.475
		c-4.324,4.358-5.792,9.925-5.82,15.888c-0.02,5.048,2.5,8.791,6.558,10.137c4.174,1.387,8.75-0.164,11.769-4.064
		C782.322,272.399,783.961,267.645,784.405,262.262 M774.808,242.105c16.353,0.239,24.898,12.2,20.533,28.757
		c-4.01,15.198-19.311,23.375-34.202,18.286c-8.73-2.985-12.971-9.959-12.767-20.998
		C748.653,252.672,759.596,241.886,774.808,242.105"/>
	<path d="M716.958,199.266c4.454-21.257,8.825-42.159,13.258-63.328h46.278c-0.246,1.394-0.594,2.678-0.663,3.982
		c-0.123,2.213-1.216,2.773-3.327,2.753c-10.704-0.096-21.414,0.027-32.125-0.096c-2.473-0.027-3.62,0.581-4.051,3.19
		c-0.922,5.581-2.213,11.1-3.443,17.091h37.255c-0.512,2.527-0.936,4.631-1.428,7.056h-37.337
		c-1.592,7.575-3.122,14.871-4.741,22.555h40.54c-0.465,2.459-0.854,4.536-1.277,6.797H716.958z"/>
	<path d="M707.426,192.426c-0.574,2.603-1.018,4.59-1.503,6.803h-48.826c4.447-21.223,8.859-42.282,13.279-63.389h46.251
		c-0.423,2.309-0.799,4.399-1.236,6.79c-7.131,0-14.167,0-21.209,0c-4.898,0-9.795-0.068-14.686,0.068
		c-0.895,0.027-2.391,0.772-2.541,1.434c-1.428,6.066-2.616,12.186-3.969,18.737h37.064c-0.164,1.257-0.383,2.097-0.362,2.93
		c0.089,3.689-1.926,4.297-5.184,4.235c-9.672-0.198-19.352-0.075-29.031-0.075c-1.236,0-2.473,0-3.996,0
		c-1.571,7.521-3.094,14.809-4.693,22.466H707.426z"/>
	<path d="M656.908,135.89c-0.533,2.377-0.991,4.454-1.496,6.722h-38.047c-1.421,6.749-2.814,13.334-4.297,20.355h37.2
		c-0.458,2.48-0.833,4.549-1.277,6.995c-3.736,0-7.35,0-10.963,0c-7.965,0-15.936-0.048-23.901,0.075
		c-0.977,0.014-2.63,0.799-2.794,1.51c-1.592,6.824-2.937,13.709-4.433,20.957h40.493c-0.348,2.029-0.458,3.743-0.997,5.308
		c-0.253,0.71-1.373,1.585-2.104,1.585c-15.472,0.027-30.943-0.055-46.415-0.123c-0.096,0-0.198-0.109-0.601-0.348
		c4.372-20.861,8.764-41.838,13.204-63.034H656.908z"/>
	<path d="M886.181,357.003c-5.512,1.359-10.13,2.281-14.604,3.675c-2.452,0.772-4.078,3.115-3.313,5.601
		c0.533,1.749,2.316,3.818,3.996,4.385c4.331,1.462,9.611-1.366,11.448-5.69C884.624,362.823,885.122,360.494,886.181,357.003
		 M895.867,378.91h-11.414c-0.362-1.428-0.731-2.896-0.956-3.784c-3.887,1.646-7.637,3.812-11.674,4.816
		c-6.455,1.605-12.951-2.514-14.707-8.593c-2.145-7.446,0.827-15.274,7.357-17.412c4.795-1.578,9.973-1.974,14.987-2.862
		c1.564-0.28,3.142-0.587,4.72-0.642c2.862-0.102,3.989-1.66,4.112-4.324c0.123-2.821-1.291-4.508-3.873-5.287
		c-3.914-1.175-7.644,0.184-10.267,3.395c-0.567,0.704-1.81,1.243-2.726,1.216c-3.06-0.082-6.114-0.451-9.474-0.745
		c0.581-3.9,3.012-6.489,5.833-8.716c6.059-4.768,19.679-5.656,26.387-1.844c4.775,2.712,6.858,7.616,5.69,13.784
		c-1.264,6.687-2.889,13.327-3.9,20.048C895.43,371.478,895.867,375.139,895.867,378.91"/>
	<path d="M1037.15,332.719c-0.294,2.056-0.519,3.607-0.847,5.895c1.346-0.956,2.281-1.605,3.21-2.275
		c4.283-3.101,8.989-4.727,14.345-4.495c7.022,0.307,11.633,4.768,11.1,11.879c-0.396,5.403-1.756,10.745-2.821,16.093
		c-1.161,5.786-2.48,11.537-3.736,17.309c-0.116,0.553-0.314,1.086-0.519,1.79h-12.056c2.111-9.952,4.214-19.802,6.305-29.659
		c0.594-2.807,1.407-5.799-1.551-7.767c-2.807-1.865-5.669-0.97-8.374,0.54c-4.085,2.268-6.879,5.676-7.985,10.171
		c-1.954,7.937-3.784,15.909-5.362,23.928c-0.492,2.527-1.51,3.135-3.839,2.992c-2.821-0.178-5.656-0.041-9.016-0.041
		c1.052-5.082,2.015-9.816,2.999-14.543c2.042-9.788,4.153-19.556,6.093-29.359c0.355-1.776,0.895-2.582,2.807-2.493
		C1030.845,332.822,1033.796,332.719,1037.15,332.719"/>
	<path d="M620.609,423.374c-2.794-11.626-15.806-16.66-25.827-10.369c-5.321,3.34-5.895,10.075-0.724,13.607
		c3.805,2.602,8.211,4.331,12.377,6.394c2.65,1.305,5.417,2.377,8.019,3.764c12.043,6.428,12.76,20.854,1.455,28.553
		c-8.88,6.045-25.663,5.991-34.413-0.239c-5.704-4.064-6.728-10.096-6.81-16.735c2.712-0.287,5.137-0.546,7.691-0.82
		c0.219,1.769,0.342,3.333,0.622,4.87c0.745,4.092,2.958,7.131,6.844,8.702c5.909,2.384,11.961,2.664,17.985,0.485
		c5.246-1.906,8.709-6.872,7.302-11.196c-0.772-2.37-2.596-4.945-4.679-6.223c-4.433-2.719-9.385-4.563-14.037-6.933
		c-2.725-1.38-5.512-2.794-7.89-4.672c-8.573-6.769-7.951-19.761,1.578-25.014c10.021-5.526,20.554-5.444,30.568,0.362
		c5.335,3.094,7.5,8.286,7.555,14.768C625.65,422.916,623.204,423.134,620.609,423.374"/>
	<path d="M674.764,332.824h12.104c-3.497,15.424-6.967,30.731-10.465,46.128h-11.196c0.219-1.694,0.437-3.32,0.553-4.201
		c-4.262,1.742-8.545,4.153-13.136,5.232c-7.083,1.66-12.787-2.924-12.965-10.212c-0.096-4.03,0.683-8.135,1.517-12.118
		c1.714-8.217,3.723-16.38,5.656-24.748h12.234c-1.578,7.036-3.108,13.88-4.645,20.725c-0.772,3.443-1.66,6.858-2.268,10.328
		c-0.458,2.602-0.676,5.321,2.227,6.913c2.719,1.496,5.062,0.396,7.261-1.189c3.579-2.575,5.745-6.155,6.783-10.349
		c1.906-7.712,3.634-15.472,5.458-23.211C674.136,335.038,674.457,333.965,674.764,332.824"/>
	<path d="M951.513,253.832c-1.469,0.321-2.568,0.608-3.682,0.799c-2.452,0.417-4.911,0.785-7.418,1.188
		c-2.971-5.478-7.978-5.847-13.074-4.939c-1.592,0.28-3.545,2.247-4.003,3.825c-0.266,0.943,1.797,3.217,3.265,3.859
		c3.511,1.551,7.37,2.302,10.943,3.743c2.596,1.045,5.246,2.336,7.37,4.112c4.235,3.531,4.488,10.041,1.551,15.315
		c-6.844,12.309-34.468,11.524-40.233-0.833c-0.567-1.223-1.093-2.466-1.831-4.14c3.62-0.574,6.899-1.25,10.219-1.523
		c0.895-0.075,2.2,0.847,2.794,1.68c3.497,4.87,10.642,6.612,15.711,3.367c1.23-0.785,2.432-2.616,2.445-3.982
		c0.014-1.093-1.585-2.685-2.828-3.231c-4.365-1.906-8.9-3.408-13.34-5.157c-4.44-1.742-7.452-4.679-7.862-9.741
		c-0.444-5.437,1.694-9.761,6.257-12.398c8.525-4.939,17.582-5.028,26.558-1.305C948.194,246.065,950.516,249.351,951.513,253.832"
		/>
	<path d="M902.611,257.44c-3.689,0.417-7.384,0.833-11.025,1.25c-2.801-6.667-4.952-8.661-9.727-7.213
		c-2.889,0.874-5.861,3.149-7.651,5.615c-3.497,4.829-4.344,10.711-4.01,16.612c0.178,3.128,1.633,5.792,4.822,6.831
		c3.361,1.093,6.257-0.13,8.778-2.411c0.164-0.15,0.41-0.287,0.478-0.478c2.275-6.728,7.268-5.062,12.097-3.935
		c0.772,0.178,1.564,0.246,2.35,0.376c0.102,0.014,0.191,0.109,0.287,0.164c-1.346,7.719-9.631,15.028-18.266,15.984
		c-8.06,0.895-15.349-0.485-20.028-7.951c-4.952-7.903-3.361-22.316,3.163-30.629c6.312-8.026,18.122-11.688,27.685-8.566
		C898.096,245.22,901.928,250.097,902.611,257.44"/>
	<path d="M757.115,441.455h25.902c0.874-9.631-4.495-15.185-13.081-13.839C763.939,428.558,758.549,434.275,757.115,441.455
		 M789.875,447.486h-33.949c-1.578,5.704,0.376,11.633,4.604,14.44c3.941,2.63,9.481,2.097,13.955-1.448
		c1.236-0.984,2.37-2.145,3.368-3.368c3.381-4.16,3.893-4.344,9.249-2.671c-2.09,9.16-13.054,16.284-23.402,15.212
		c-9.891-1.025-15.861-7.985-16.039-18.696c-0.212-12.705,6.134-23.669,16.1-27.828c11.599-4.836,23.682,0.403,25.984,11.681
		C790.545,438.709,789.875,442.916,789.875,447.486"/>
	<path d="M716.095,370.965c-0.656,3.074-1.236,5.827-1.885,8.859c-3.757,0-7.391,0.348-10.929-0.075
		c-5.813-0.697-8.866-4.775-7.869-10.567c1.366-7.93,3.142-15.793,4.727-23.682c0.219-1.086,0.369-2.186,0.594-3.511
		c-2.042-0.198-3.791-0.376-5.922-0.587c0.608-2.958,1.175-5.69,1.721-8.368c0.547-0.137,0.867-0.28,1.195-0.287
		c5.027-0.171,4.932-0.191,6.195-5.157c0.321-1.257,1.195-2.698,2.247-3.395c3.777-2.507,7.746-4.734,12.049-7.309
		c-1.059,5.376-2.042,10.376-3.094,15.759h7.439c-0.546,2.794-0.786,5.28-1.612,7.548c-0.287,0.779-2.131,1.537-3.142,1.4
		c-3.764-0.533-5.144,1.066-5.697,4.645c-0.902,5.827-2.288,11.578-3.477,17.357c-1.332,6.482-0.827,7.118,5.704,7.193
		C714.783,370.795,715.22,370.877,716.095,370.965"/>
	<path d="M932.737,316.94c-1.168,5.874-2.09,10.533-3.101,15.595h7.493c-0.547,2.842-0.813,5.307-1.585,7.596
		c-0.253,0.751-1.817,1.434-2.821,1.503c-4.966,0.307-4.966,0.232-6.052,5.232c-1.209,5.547-2.452,11.086-3.627,16.64
		c-1.352,6.387-0.642,7.261,5.724,7.275c0.437,0,0.874,0.075,1.776,0.157c-0.608,2.971-1.182,5.786-1.831,8.935
		c-3.648,0-7.179,0.362-10.601-0.075c-6.469-0.82-9.406-5.075-8.17-11.646c1.469-7.814,3.224-15.574,4.836-23.354
		c0.178-0.861,0.26-1.749,0.423-2.889c-2.008-0.137-3.777-0.26-5.909-0.41c0.622-3.067,1.195-5.881,1.783-8.778
		c0.915,0,1.496-0.089,2.036,0.014c3.265,0.594,4.911-0.69,4.966-4.051c0.048-2.671,1.592-4.221,3.893-5.43
		C925.36,321.476,928.584,319.393,932.737,316.94"/>
	<path d="M828.004,227.082c-1.161,5.82-2.124,10.683-3.156,15.861h7.377c-0.191,1.359-0.294,2.425-0.499,3.477
		c-1.072,5.321-1.079,5.437-6.469,5.533c-1.954,0.041-2.582,0.936-2.903,2.534c-1.434,7.015-2.589,14.099-4.426,21.012
		c-1.093,4.098,1.154,6.052,5.041,5.622c0.765-0.082,1.551-0.014,2.835-0.014c-0.546,2.678-0.977,5.198-1.633,7.664
		c-0.15,0.574-1.059,1.346-1.612,1.346c-3.73-0.027-7.548,0.219-11.161-0.505c-4.392-0.874-6.721-3.976-6.243-8.477
		c0.628-5.963,1.981-11.851,3.101-17.76c0.697-3.654,1.544-7.275,2.404-11.278h-5.758c0.232-8.012,0.519-8.374,7.377-9.385
		c0.738-2.439,0.731-5.792,2.377-7.179C818.428,232.356,823.011,230.143,828.004,227.082"/>
	<path d="M640.377,448.057c-0.007,9.263,2.227,13.252,7.254,15.157c4.829,1.831,10.437,0.15,14.638-4.604
		c4.563-5.171,6.503-11.442,6.544-18.177c0.034-5.389-1.735-10.253-7.363-12.275c-5.478-1.967-10.28-0.266-14.276,3.777
		C642.166,437.012,640.534,443.385,640.377,448.057 M632.692,450.735c0.116-7.48,1.858-13.832,5.895-19.481
		c5.41-7.568,12.931-10.547,21.934-9.679c8.607,0.833,14.338,6.769,15.588,15.499c2.111,14.754-5.676,28.361-18.457,31.845
		C645.841,472.149,631.954,466.439,632.692,450.735"/>
	<path d="M818.181,486.84v-6.961c7.876,0.779,13.969-3.279,15.157-10.731c0.471-2.985-0.697-6.25-1.209-9.372
		c-1.879-11.428-3.805-22.856-5.676-34.29c-0.143-0.861-0.021-1.769-0.021-2.63c6.728-1.134,6.947-1.059,7.896,5.26
		c1.544,10.219,2.965,20.451,4.549,31.421c0.806-1.195,1.359-1.899,1.79-2.678c5.424-9.72,10.84-19.454,16.237-29.195
		c3.183-5.745,3.163-5.752,10.39-4.857c-0.376,0.84-0.656,1.639-1.066,2.37c-9.344,16.647-18.682,33.3-28.068,49.933
		c-1.339,2.37-2.766,4.713-4.413,6.878C829.78,487.236,824.773,488.766,818.181,486.84"/>
	<path d="M713.597,452.074c2.124,0.266,4.447,0.56,6.797,0.861c-2.65,11.646-13.62,18.771-24.796,16.387
		c-6.209-1.318-11.086-6.325-12.036-12.917c-1.236-8.607,0.198-16.872,4.754-24.311c4.85-7.91,12.302-11.243,21.455-10.574
		c8.183,0.601,12.856,5.656,13.901,14.959c-2.309,0.273-4.624,0.553-6.64,0.792c-0.465-0.417-0.731-0.533-0.758-0.697
		c-0.765-4.549-2.889-8.006-7.767-8.764c-5.389-0.833-9.734,1.407-12.582,5.833c-4.269,6.633-5.67,14.106-4.734,21.893
		c0.458,3.859,2.589,6.926,6.503,8.006c4.406,1.223,8.142-0.608,10.991-3.839C710.53,457.613,711.766,454.977,713.597,452.074"/>
	<path d="M804.649,428.391c-2.07-0.102-3.743-0.191-5.833-0.294c0.314-1.851,0.608-3.559,0.881-5.137
		c0.424-0.205,0.622-0.369,0.827-0.383c5.547-0.389,6.066-0.342,6.517-5.813c0.512-6.202,4.891-8.047,9.911-10.711
		c-1.12,5.697-2.131,10.813-3.204,16.237c2.678,0.123,4.904,0.225,7.514,0.348c-0.41,1.974-0.765,3.702-1.1,5.314
		c-0.335,0.109-0.444,0.171-0.553,0.178c-7.302,0.499-7.329,0.492-8.846,7.753c-1.455,7.001-2.924,14.003-4.249,21.032
		c-1.038,5.519-0.055,6.523,5.485,6.114c0.54-0.041,1.079-0.137,1.626-0.212c-0.082,6.196-0.615,6.749-6.38,6.653
		c-6.271-0.102-9.782-2.671-9.037-7.534c1.373-8.969,3.395-17.828,5.143-26.736C803.781,433.015,804.184,430.829,804.649,428.391"/>
	<path d="M831.19,289.336c3.286-15.704,6.455-30.868,9.652-46.135h12.254c-2.2,10.513-4.358,20.827-6.51,31.134
		c-0.833,4.003-1.749,7.985-2.459,12.009c-0.369,2.097-1.086,3.21-3.484,3.04C837.713,289.179,834.762,289.336,831.19,289.336"/>
	<path d="M957.885,332.723c-1.551,7.445-2.971,14.304-4.413,21.168c-1.585,7.548-3.258,15.075-4.713,22.644
		c-0.376,1.967-1.113,2.678-3.101,2.582c-3.047-0.144-6.114-0.034-9.686-0.034c1.052-5.007,2.042-9.713,3.026-14.427
		c2.049-9.761,4.153-19.522,6.079-29.311c0.376-1.906,0.97-2.766,3.026-2.664C951.15,332.839,954.21,332.723,957.885,332.723"/>
	<path d="M595.202,135.669c-2.828,13.525-5.574,26.722-8.347,39.919c-1.421,6.776-3.067,13.518-4.242,20.342
		c-0.492,2.876-1.551,3.975-4.399,3.579c-1.325-0.184-2.698-0.034-4.597-0.034c1.318-6.284,2.562-12.22,3.812-18.163
		c2.917-13.894,5.984-27.76,8.655-41.702c0.642-3.374,1.96-4.42,5.116-3.969C592.408,135.813,593.665,135.669,595.202,135.669"/>
	<path d="M505.898,498.025c9.959,0.014,17.589-7.527,17.589-17.371c-0.007-9.508-7.814-17.371-17.323-17.453
		c-9.679-0.082-17.603,7.828-17.555,17.535C488.65,490.504,496.164,498.018,505.898,498.025 M484.62,480.634
		c0.007-11.824,9.358-21.189,21.257-21.285c11.926-0.089,21.633,9.447,21.688,21.305c0.048,11.776-9.672,21.469-21.544,21.483
		C494.094,502.151,484.613,492.629,484.62,480.634"/>
	<path d="M735.508,422.697h7.623c-1.243,6.038-2.411,11.79-3.613,17.535c-1.715,8.224-3.634,16.414-5.082,24.686
		c-0.56,3.224-1.899,4.242-4.918,3.784c-1.1-0.164-2.247-0.027-3.634-0.027C729.135,453.149,732.318,437.95,735.508,422.697"/>
	<path d="M961.431,315.105c-2.965,13.873,0.745,10.738-14.31,10.813c0.772-3.661,1.523-7.213,2.281-10.813H961.431z"/>
	<path d="M856.76,225.302c-0.663,3.374-1.12,6.4-1.933,9.324c-0.205,0.724-1.523,1.564-2.377,1.612
		c-3.156,0.191-6.325,0.075-10.055,0.075c0.663-3.408,1.202-6.564,1.94-9.672c0.13-0.547,1.066-1.257,1.653-1.277
		C849.471,225.24,852.962,225.302,856.76,225.302"/>
	<path d="M737.754,413.041c1.154-8.887,1.749-9.42,8.723-7.78C745.296,414.729,746.177,413.718,737.754,413.041"/>
	<path d="M500.943,479.254c2.323,0,4.338,0.396,6.066-0.137c1.168-0.362,2.521-1.96,2.685-3.156c0.109-0.84-1.489-2.466-2.603-2.787
		c-1.858-0.54-3.935-0.321-6.148-0.43V479.254z M515.67,491.454c-3.682,1.195-5.724,0.417-7.09-2.91
		c-1.277-3.122-2.917-6.4-7.821-5.519v8.771h-4.337v-22.063c4.057,0,8.108-0.061,12.159,0.02c3.279,0.068,5.403,1.817,5.943,5.034
		c0.54,3.224-1.031,5.451-3.941,6.79c-0.383,0.178-0.779,0.307-1.045,0.403C511.592,485.156,513.58,488.23,515.67,491.454"/>
</g>
</svg>
