<?xml version="1.0" encoding="iso-8859-1"?>
<!-- Generator: Adobe Illustrator 26.0.1, SVG Export Plug-In . SVG Version: 6.00 Build 0)  -->
<svg version="1.1" id="Layer_1" xmlns="http://www.w3.org/2000/svg" xmlns:xlink="http://www.w3.org/1999/xlink" x="0px" y="0px"
	 viewBox="0 0 269.298 212.623" style="enable-background:new 0 0 269.298 212.623;" xml:space="preserve">
<g>
	<path d="M188.501,137.477v29.614c0,7.521,0,8.001,5.441,8.644v2.317h-17.927v-2.399c5.445-0.639,5.445-1.2,5.445-8.643v-17.13
		c-0.241-4.24,0.773-3.839-4.484-2.167"/>
	<path d="M205.947,156.046c0,7.845,2.32,19.447,12.325,19.447c5.361,0,10.002-2.96,13.123-7.282l1.361,1.279
		c-3.36,5.525-8.963,9.444-15.525,9.444c-11.205,0-19.368-9.123-19.368-20.087c0-10.245,7.123-20.808,18.327-20.808
		c10.005,0,16.887,8.564,16.887,18.007H205.947z M224.995,153.003c0.48-5.52-1.92-12.325-8.884-12.325
		c-6.802,0-9.606,6.884-9.765,12.325H224.995z"/>
	<g>
		<path d="M89.344,99.72c-9.492,7.505-16.557,18.988-17.66,28.04c-0.883,7.505,1.544,13.686,9.493,14.128
			c8.387,0.442,17.219-6.844,23.4-13.467c4.857-5.298,9.271-13.246,9.713-17.884c0.222-2.207,0-3.973-1.103-5.739
			c-0.441-0.882-0.884-1.104-0.665-1.545c0.224-0.442,1.108,0,1.768,0.663c0.665,0.661,2.87,3.31,2.428,8.388
			c-0.22,5.963-4.196,13.027-9.05,18.546c-5.741,6.182-16.998,13.687-26.931,13.025c-9.935-0.662-14.792-7.064-13.689-16.556
			c1.103-8.831,8.61-20.312,20.312-29.143c10.595-7.946,23.842-13.466,35.32-13.466c12.588,0,26.718,4.857,24.509,23.18
			c-1.324,13.468-24.95,43.05-39.521,57.619v0.221c7.065-4.858,14.348-10.376,25.166-18.324c9.278-6.62,20.318-14.789,27.379-20.307
			c2.65-7.506,5.741-15.456,9.716-21.858c5.297-8.39,11.035-12.584,15.672-12.584c3.972,0,6.843,3.532,5.077,8.83
			c-2.869,9.051-14.126,16.779-20.089,22.519c-3.313,13.687-7.508,32.232-14.568,41.724v0.222
			c7.503-7.286,26.488-23.18,39.734-35.102c21.194-19.208,28.92-33.557,30.245-41.284c0.443-3.091,0.22-5.961-1.325-7.506
			c-1.543-1.324-3.092-0.883-2.87-1.545c0.219-0.441,1.546-0.662,2.206-0.662c6.404,0,9.493,5.078,9.051,10.816
			c-1.102,9.051-10.597,22.96-35.099,43.05c-17.441,14.349-34.659,28.699-49.007,42.386c-1.326,1.325-3.534,3.311-6.181,3.311
			c-2.209,0-2.209-1.987-0.884-3.753c7.507-10.155,12.141-32.011,17.218-44.594v-0.22c-4.195,3.532-17.659,13.687-28.484,21.634
			c-9.271,6.622-28.918,20.973-37.086,26.27c-1.325,0.884-3.092,2.208-4.637,2.208c-2.65,0-3.311-1.766-1.325-4.193
			c8.391-8.832,18.325-19.87,28.038-33.557c9.712-13.688,18.328-28.479,20.093-39.738c1.768-11.479-4.42-16.778-13.471-16.778
			C111.201,86.695,98.615,92.655,89.344,99.72z M188.028,101.707c1.544-4.194,0-6.843-2.869-6.843c-3.314,0-6.623,4.856-7.948,7.946
			c-2.428,5.078-4.636,12.364-5.959,17.221C175.444,116.057,185.159,108.992,188.028,101.707z"/>
	</g>
	<path d="M188.096,132.107c0,2.192-1.78,3.972-3.973,3.972c-2.196,0-3.976-1.78-3.976-3.972c0-2.199,1.78-3.977,3.976-3.977
		C186.316,128.13,188.096,129.908,188.096,132.107z"/>
	<g>
		<path d="M32.469,157.873c0.372,2.139,0.573,2.34,1.08,2.375c0.482,0.06,1.492,0.057,4.584-0.172l5.285-0.395
			c1.585-0.118,2.903-0.263,3.796-0.403c0.657-0.096,0.748-0.296,0.801-0.662c0.035-0.242,0.056-1.039,0.093-1.257
			c0.04-0.171,0.059-0.268,0.138-0.276c0.185-0.014,0.671,0.096,0.754,0.137c0.092,1.942,0.138,2.925,0.231,3.809
			c0.078,1.053,0.248,2.268,0.28,2.337c0.011,0.144-0.085,0.272-0.19,0.303c-0.259,0.093-0.492,0.157-0.653,0.146
			c-0.18-1.696-0.351-2.212-1.072-2.255c-0.425,0.009-1.358-0.042-4.318,0.177l-6.316,0.47c-3.461,0.259-3.723,0.303-3.848,1.13
			c-0.007,0.264-0.033,0.627-0.01,1.3c0.008,0.094-0.068,0.149-0.148,0.155c-0.079,0.006-0.187-0.011-0.405-0.09
			c-0.191-0.083-0.246-0.103-0.278-0.172c-0.041-0.19-0.052-0.333-0.074-0.62c-0.02-0.286-0.055-1.103-0.147-2.347
			c-0.12-1.242-0.267-2.866-0.285-3.106c-0.023-0.311,0.002-0.336,0.079-0.367L32.469,157.873z"/>
		<path d="M39.641,149.334c0.016-1.08,0.003-1.896-0.042-2.496c-0.084-1.441-0.188-1.563-1.746-1.899
			c-0.078-0.097-0.123-0.65-0.095-0.769c0.768,0.059,1.984,0.222,2.806,0.236c0.901-0.012,1.644-0.073,2.413-0.132
			c0.051,0.192,0.075,0.384,0.072,0.552c0.025,0.121-0.055,0.168-0.162,0.213c-0.292,0.092-0.719,0.205-1.037,0.273
			c-0.718,0.133-0.961,0.417-1.054,1.375c-0.061,0.529-0.073,1.319-0.092,2.544c-0.018,1.199,0.004,1.439,0.029,1.583
			c0.025,0.096,0.05,0.17,0.155,0.243c0.158,0.074,1.084,0.232,3.256,0.265c1.934,0.029,2.65,0.042,3.077-0.193
			c0.509-0.329,0.654-1.166,0.684-3.134c0.043-2.807-0.228-4.153-3.025-4.94c-0.025-0.096,0.005-0.337,0.035-0.577
			c0.055-0.07,0.081-0.07,0.213-0.069c1.219,0.067,2.908,0.477,3.671,0.801c0.157,0.121,0.209,0.194,0.207,0.314
			c-0.002,0.167-0.005,0.336-0.044,1.127c-0.038,0.719-0.09,2.399-0.119,4.39c-0.029,1.92,0.047,3.816,0.097,5.737
			c-0.027,0.047-0.583,0.063-0.796,0.035c-0.053,0-0.105-0.073-0.105-0.096c-0.195-1.107-0.378-1.206-0.776-1.235
			c-0.396-0.054-2.09-0.201-4.792-0.243l-4.584-0.07c-3.524-0.053-4.691,0.073-4.851,0.095c-0.159,0.021-0.292,0.068-0.349,0.305
			c-0.109,0.24-0.196,0.694-0.363,1.267c-0.026,0.023-0.026,0.023-0.106,0.023l-0.609-0.057c-0.106-0.002-0.133-0.001-0.13-0.123
			l0.013-0.839c0.011-0.744,0.078-1.655,0.127-3.118l0.036-2.327c0.022-1.464-0.084-3.218-0.092-4.417
			c0.005-0.312,0.06-0.455,0.141-0.573c0.162-0.214,0.162-0.214,0.638-0.11c1.162,0.209,2.699,0.257,3.389,0.268
			c-0.01,0.623-0.091,0.718-0.25,0.74c-1.913,0.307-2.869,0.459-2.898,2.331l-0.025,1.655c-0.022,1.416,0.018,2.208,0.094,2.472
			c0.102,0.315,0.366,0.366,0.974,0.375c1.855,0.029,3.71,0.032,5.564,0.036c0.239,0.004,0.427-0.137,0.429-0.306L39.641,149.334z"
			/>
		<path d="M40.669,134.228c0.138-1.07,0.216-1.883,0.241-2.485c0.079-1.441-0.01-1.572-1.521-2.084
			c-0.067-0.104-0.049-0.659-0.007-0.774c0.756,0.146,1.947,0.444,2.761,0.55c0.897,0.092,1.642,0.116,2.413,0.143
			c0.028,0.197,0.03,0.39,0.008,0.557c0.012,0.121-0.074,0.16-0.185,0.195c-0.301,0.055-0.737,0.122-1.062,0.152
			c-0.728,0.051-1.001,0.305-1.204,1.247c-0.12,0.516-0.221,1.301-0.377,2.516c-0.155,1.19-0.158,1.431-0.151,1.576
			c0.013,0.099,0.031,0.175,0.126,0.26c0.149,0.091,1.05,0.353,3.205,0.631c1.918,0.248,2.628,0.34,3.079,0.157
			c0.543-0.271,0.781-1.085,1.034-3.037c0.359-2.784,0.243-4.155-2.447-5.251c-0.015-0.098,0.043-0.333,0.1-0.568
			c0.062-0.064,0.088-0.06,0.219-0.044c1.202,0.204,2.836,0.802,3.557,1.21c0.143,0.138,0.186,0.218,0.17,0.336
			c-0.021,0.167-0.042,0.334-0.171,1.116c-0.118,0.711-0.359,2.373-0.615,4.347c-0.246,1.904-0.383,3.798-0.55,5.712
			c-0.033,0.044-0.587-0.002-0.794-0.055c-0.053-0.005-0.096-0.084-0.093-0.108c-0.07-1.121-0.241-1.24-0.632-1.315
			c-0.388-0.098-2.054-0.435-4.735-0.779l-4.546-0.588c-3.495-0.452-4.67-0.459-4.83-0.456c-0.161,0.005-0.299,0.034-0.381,0.267
			c-0.136,0.223-0.274,0.665-0.505,1.216c-0.029,0.019-0.029,0.019-0.108,0.008l-0.599-0.124c-0.106-0.013-0.132-0.017-0.116-0.137
			l0.107-0.832c0.095-0.738,0.264-1.635,0.478-3.085l0.298-2.308c0.188-1.452,0.28-3.207,0.408-4.398
			c0.039-0.309,0.111-0.446,0.205-0.554c0.185-0.195,0.185-0.195,0.646-0.038c1.132,0.341,2.653,0.561,3.336,0.649
			c-0.08,0.619-0.171,0.704-0.331,0.706c-1.936,0.088-2.903,0.134-3.143,1.992l-0.212,1.64c-0.182,1.404-0.231,2.196-0.185,2.468
			c0.066,0.322,0.322,0.404,0.926,0.482c1.839,0.238,3.682,0.452,5.526,0.666c0.235,0.03,0.438-0.088,0.46-0.254L40.669,134.228z"/>
		<path d="M43.411,119.334c0.261-1.048,0.432-1.846,0.525-2.441c0.245-1.423,0.17-1.565-1.271-2.244
			c-0.054-0.113,0.028-0.661,0.082-0.771c0.734,0.232,1.882,0.666,2.679,0.864c0.88,0.194,1.617,0.303,2.38,0.419
			c0.006,0.198-0.016,0.392-0.057,0.555c-0.002,0.122-0.092,0.15-0.206,0.17c-0.306,0.023-0.746,0.038-1.073,0.031
			c-0.729-0.032-1.03,0.19-1.338,1.101c-0.179,0.499-0.37,1.268-0.666,2.456c-0.289,1.165-0.322,1.403-0.331,1.549
			c0.003,0.1,0.011,0.176,0.096,0.271c0.137,0.108,1.002,0.473,3.111,0.997c1.877,0.467,2.571,0.64,3.04,0.508
			c0.57-0.206,0.901-0.987,1.376-2.896c0.678-2.725,0.72-4.099-1.827-5.499c-0.002-0.099,0.081-0.325,0.165-0.552
			c0.069-0.058,0.095-0.051,0.224-0.019c1.171,0.341,2.724,1.122,3.394,1.611c0.125,0.155,0.16,0.238,0.131,0.354
			c-0.04,0.163-0.081,0.326-0.298,1.088c-0.2,0.692-0.631,2.315-1.111,4.248c-0.464,1.862-0.818,3.729-1.204,5.61
			c-0.037,0.041-0.584-0.068-0.783-0.144c-0.052-0.013-0.085-0.095-0.08-0.119c0.061-1.122-0.096-1.26-0.476-1.379
			c-0.374-0.141-1.99-0.669-4.613-1.323l-4.448-1.106c-3.42-0.85-4.586-0.993-4.746-1.007c-0.16-0.016-0.301-0.001-0.41,0.218
			c-0.16,0.208-0.348,0.632-0.641,1.15c-0.031,0.018-0.031,0.018-0.108-0.001l-0.58-0.194c-0.103-0.026-0.129-0.032-0.1-0.148
			l0.203-0.815c0.179-0.722,0.451-1.593,0.83-3.007l0.561-2.259c0.353-1.421,0.648-3.153,0.912-4.323
			c0.075-0.302,0.161-0.429,0.267-0.527c0.206-0.171,0.206-0.171,0.646,0.037c1.085,0.468,2.571,0.863,3.24,1.03
			c-0.151,0.605-0.251,0.679-0.411,0.664c-1.933-0.136-2.898-0.202-3.35,1.614l-0.4,1.607c-0.342,1.374-0.482,2.155-0.468,2.431
			c0.027,0.327,0.273,0.438,0.864,0.585c1.8,0.447,3.606,0.872,5.411,1.296c0.232,0.058,0.447-0.037,0.487-0.2L43.411,119.334z"/>
		<path d="M55.074,101.707c-2.16-0.225-5.888-0.679-11.545-1.165c-1.843-0.151-1.983-0.165-2.637,0.878
			c-0.086,0.117-0.121,0.128-0.216,0.081c-0.048-0.023-0.285-0.325-0.348-0.436c-0.064-0.111-0.069-0.221,0.004-0.371
			c0.2-0.41,0.709-1.337,0.93-1.789c0.367-0.756,0.687-1.533,1.066-2.309c0.052-0.108,0.428-0.032,0.69,0.095
			c0.096,0.047,0.157,0.102,0.127,0.223c-0.324,0.909-0.4,1.246-0.069,1.354c0.177,0.059,0.577,0.148,0.963,0.201
			c4.069,0.54,9.682,1.058,11.942,1.198c0.14,0.015,0.261-0.113,0.163-0.213c-1.243-1.38-4.945-5.157-6.353-6.564
			c-0.172-0.189-0.36-0.228-0.582-0.256c-1.427-0.214-2.374-0.329-2.959-0.4c-0.642-0.072-0.776,0.022-1.283,1.004
			c-0.032,0.064-0.146,0.116-0.216,0.081c-0.469-0.308-0.573-0.519-0.5-0.669c0.253-0.519,0.668-1.251,1.057-2.049
			c0.525-1.078,0.758-1.739,0.916-2.063c0.145-0.115,0.841,0.091,0.825,0.243c-0.414,1.213-0.405,1.376,0.333,1.497
			c2.94,0.497,8.992,1.201,12.516,1.531c0.116,0.003,0.135-0.096,0.023-0.23c-1.657-1.74-7.191-7.504-9.038-8.857
			c-0.445-0.297-0.658-0.161-0.808,0.086c-0.205,0.301-0.405,0.71-0.599,0.99c-0.045,0.032-0.104,0.03-0.212-0.05
			c-0.432-0.263-0.578-0.389-0.493-0.56c0.104-0.214,0.806-1.475,1.058-1.994c0.336-0.689,0.635-1.424,0.719-1.597
			c0.126-0.259,0.226-0.344,0.38-0.296l0.556,0.19c0.047,0.024,0.074,0.09,0.053,0.133c-0.57,1.111-0.425,1.235,1.559,3.454
			c1.173,1.346,5.158,5.447,8.209,8.56c0.345,0.381,1.091,1.332,1.74,1.994c0.136,0.148,0.157,0.344,0.094,0.474
			c-0.126,0.259-0.345,0.286-0.731,0.232c-0.492-0.081-1.172-0.198-2.47-0.377c-1.51-0.229-5.428-0.775-8.638-1.083
			c1.66,1.796,3.506,3.815,5.935,6.332c0.613,0.618,1.427,1.549,2.063,2.179c0.098,0.1,0.125,0.167,0.117,0.243
			c0.019,0.143-0.031,0.306-0.105,0.456c-0.052,0.108-0.166,0.16-0.377,0.11C58.522,102.131,57.235,101.931,55.074,101.707z"/>
		<path d="M59.324,79.227c0.922-1.405,3.898-2.751,6.932-0.758c2.26,1.482,2.591,3.537,2.584,3.933
			c0.018,1.276-0.225,2.465-0.79,3.328c-0.488,0.741-1.989,1.967-3.618,1.987c-1.259,0.034-2.613-0.51-3.389-1.019
			c-0.908-0.596-1.76-1.615-2.131-2.547c-0.313-0.78-0.404-1.413-0.38-2.174c0.049-0.943,0.384-2.129,0.779-2.731L59.324,79.227z
			 M59.572,80.682c-0.224,0.341-0.31,0.858-0.162,1.357c0.243,0.935,1.006,1.752,2.446,2.697c1.418,0.931,2.712,1.034,3.569,0.936
			c1.268-0.145,1.928-0.716,2.256-1.218c0.172-0.26,0.363-0.794,0.247-1.244c-0.176-0.747-0.696-1.691-2.047-2.577
			c-1.352-0.888-3.006-1.457-4.401-1.168c-0.649,0.118-1.46,0.534-1.895,1.195L59.572,80.682z"/>
		<path d="M78.416,71.823c-1.624,1.862-2.317,2.659-2.849,3.468c-0.048,0.054-0.048,0.054-0.107,0.002
			c-0.04-0.035-0.28-0.244-0.364-0.35c-0.04-0.034-0.104-0.122-0.092-0.176c0.396-0.896,0.378-1.039,0.115-1.299
			c-0.476-0.544-1.507-1.538-3.524-3.296c-0.838-0.732-1.165-0.922-1.603-0.984c-0.485-0.008-1.123,0.199-1.628,0.777
			c-0.362,0.416-0.643,1.222-0.716,2.272c-0.011,0.213,0.046,0.391,0.211,0.566c0.363,0.348,1.546,1.412,2.484,2.23
			c2.217,1.932,2.329,1.967,3.122,1.257c0.131-0.108,0.186-0.091,0.246-0.039c0.06,0.053,0.448,0.454,0.432,0.473
			c-0.142,0.161-1.021,1.209-1.321,1.553c-0.347,0.398-0.977,1.282-1.158,1.569c-0.068,0.037-0.423-0.241-0.626-0.45
			c0.07-0.162,0.203-0.555,0.237-0.717c0.066-0.196,0.034-0.322-0.17-0.53c-0.208-0.245-0.78-0.839-2.377-2.233
			c-1.477-1.288-1.948-1.635-2.203-1.827c-0.351-0.243-0.419-0.206-0.814,0.086c-0.277,0.236-0.384,0.24-0.476,0.221
			c-0.071,0.003-0.414-0.17-0.422-0.241c0.062-1.601,0.132-2.528,0.197-2.885c0.026-0.231,0.054-0.303,0.164-0.43
			c0.095-0.109,0.182-0.128,0.322-0.006l1.462,1.308c0.099-0.679,0.2-2.245,0.417-3.138c0.074-0.287,0.219-0.573,0.392-0.773
			c0.852-0.977,1.904-1.014,3.165-0.805c0.249-1.535,0.336-2.16,0.546-2.803c0.128-0.43,0.308-0.878,0.671-1.293
			c0.268-0.307,0.854-0.656,1.457-0.703c0.552-0.029,1.271-0.008,3.135,1.524c1.035,0.87,1.973,1.689,2.792,2.403
			c0.759,0.662,1.014,0.853,1.161,0.886c0.294,0.066,0.559-0.118,1.362-0.755c0.047-0.055,0.119-0.056,0.198,0.014
			c0.08,0.071,0.421,0.526,0.373,0.58l-1.072,1.23c-0.615,0.705-1.044,1.317-1.351,1.751c-0.047,0.054-0.098,0.073-0.155,0.055
			c-0.075-0.034-0.347-0.206-0.427-0.276c-0.039-0.035-0.08-0.07-0.052-0.141c0.094-0.269,0.143-0.608-0.065-0.853
			c-0.688-0.822-2.126-2.077-2.565-2.46c-1.677-1.463-2.449-1.787-3.03-1.848c-0.604-0.113-1.04,0.144-1.56,0.74
			c-0.441,0.508-0.69,1.276-0.813,2.061c-0.026,0.231,0.018,0.302,0.238,0.494c1.142,1.028,3.814,3.328,4.615,3.898
			c0.331,0.225,0.382,0.207,1.311-0.576c0.047-0.054,0.139-0.039,0.238,0.048L78.416,71.823z"/>
		<path d="M80.301,55.373c0.559-0.49,1.505-0.684,2.125-0.594c0.604,0.071,1.224,0.268,1.875,0.683
			c0.127-0.182,0.382-0.582,0.507-0.55c0.088-0.007,0.141,0.052,0.193,0.148c0.103,0.227,0.29,0.697,0.164,0.879
			c-0.949,1.394-2.841,3.931-3.39,4.87c-0.073,0.1-0.023,0.23,0.187,0.469c1.783,1.925,3.454,1.906,4.646,0.862
			c0.831-0.726,1.203-1.721,1.293-2.857c0.02-0.159,0.237-0.348,0.271-0.273c0.401,0.495,0.487,0.665,0.483,0.88
			c-0.149,1.398-0.648,2.538-1.086,3.274c-0.165,0.287-0.383,0.512-0.582,0.687c-1.262,1.106-2.808,0.98-3.27,0.89
			c-0.585-0.086-1.876-0.504-3.012-1.799c-1.536-1.755-1.785-3.896-1.473-5.508c0.137-0.755,0.543-1.601,1.048-2.044L80.301,55.373z
			 M83.068,56.894c-0.489-0.558-1.978-0.874-2.736-0.21c-0.108,0.095-0.237,0.312-0.276,0.595c-0.174,0.857,0.392,2.122,1.161,2.927
			c0.621-0.965,1.312-1.852,1.931-2.782c0.092-0.152,0.13-0.29-0.063-0.51L83.068,56.894z"/>
		<path d="M90.691,59.558c0.442-0.665,0.572-0.982,0.222-1.609c-0.358-0.72-1.214-2.029-1.958-3.093
			c-0.593-0.846-1.178-1.6-1.471-1.977c-0.152-0.216-0.292-0.249-1.364,0.144c-0.153-0.053-0.163,0.018-0.327-0.385
			c-0.046-0.064-0.016-0.15,0.07-0.276c0.527-1.046,1.028-2.173,1.066-2.328c0.028-0.085,0.092-0.161,0.171-0.216
			c0.097-0.069,0.241-0.073,0.302,0.014c0.278,0.356,0.586,0.755,0.845,1.124c0.075,0.108,0.156,0.182,0.235,0.127
			c0.485-1.149,0.699-1.556,1.047-2.187c0.193-0.394,0.535-0.827,0.889-1.075c0.57-0.398,1.069-0.521,1.671-0.457
			c0.816,0.076,1.638,0.665,2.368,1.545c0.359,0.428,0.723,0.948,1.376,1.882c1.107,1.585,1.78,2.506,2.13,3.005
			c0.136,0.195,0.17,0.203,0.229,0.163c0.177-0.125,0.703-0.588,0.982-0.816c0.059-0.042,0.158,0.018,0.25,0.148
			c0.091,0.13,0.245,0.475,0.284,0.576c0.038,0.137-0.002,0.163-0.08,0.219c-1.75,1.222-2.28,1.721-3.026,2.245
			c-0.119,0.083-0.217,0.151-0.297,0.078l-0.403-0.367c0.419-0.615,0.513-0.94,0.167-1.603c-0.358-0.72-0.899-1.537-1.977-3.08
			c-0.835-1.194-1.281-1.789-2.112-2.015c-0.573-0.149-1.126-0.021-1.697,0.377c-0.472,0.33-1.007,1.157-1.242,1.742
			c-0.071,0.277,0.001,0.42,0.148,0.671c0.492,0.789,2.664,3.893,3.483,5.066c0.197,0.283,0.267,0.299,1.41-0.243
			c0.134-0.06,0.183-0.031,0.225,0.069l0.216,0.561l-1.671,1.169c-0.787,0.55-1.339,1.098-1.733,1.373
			c-0.039,0.028-0.09-0.001-0.15-0.088L90.691,59.558z"/>
		<path d="M100.701,34.658c0.558-0.28,1.183,0.06,1.468,0.629c0.403,0.806,0.125,1.537-0.432,1.815
			c-0.516,0.258-1.169,0.023-1.49-0.617c-0.415-0.83-0.039-1.581,0.433-1.817L100.701,34.658z M103.106,42.579
			c-0.081-0.107-0.244-0.114-1.347,0.201c-0.098,0.018-0.143-0.019-0.138-0.168c-0.063-0.502-0.065-0.56,0.029-0.638
			c0.683-0.727,1.257-1.458,2.023-2.284c0.031-0.045,0.053-0.056,0.096-0.077c0.043-0.022,0.066,0.025,0.138,0.167
			c0.72,1.655,2.283,5.05,2.9,6.283c0.604,1.208,0.817,1.635,0.981,1.908c0.209,0.31,0.322,0.432,0.525,0.3
			c0.642-0.38,0.813-0.466,0.878-0.497c0.064-0.032,0.264,0.045,0.279,0.128l0.242,0.648c0.05,0.153,0.007,0.175-0.101,0.228
			c-0.622,0.311-1.247,0.565-1.933,0.908c-0.945,0.472-1.732,1.044-1.796,1.075c-0.107,0.055-0.163,0.051-0.231-0.032
			c-0.126-0.143-0.245-0.381-0.316-0.523c-0.047-0.095-0.016-0.141,0.05-0.172c0.724-0.482,0.861-0.639,0.658-1.366
			c-0.126-0.413-0.826-2.135-1.615-3.607L103.106,42.579z"/>
		<path d="M110.958,47.332c0.588-0.54,0.79-0.816,0.6-1.51c-0.175-0.783-0.694-2.26-1.162-3.47
			c-0.372-0.964-0.761-1.838-0.955-2.273c-0.095-0.247-0.224-0.312-1.358-0.186c-0.138-0.089-0.162-0.022-0.226-0.452
			c-0.028-0.074,0.019-0.149,0.135-0.251c0.763-0.891,1.518-1.865,1.591-2.007c0.048-0.075,0.129-0.135,0.219-0.169
			c0.111-0.044,0.251-0.012,0.291,0.086c0.184,0.412,0.388,0.873,0.55,1.292c0.048,0.124,0.11,0.215,0.198,0.18
			c0.747-0.997,1.05-1.343,1.54-1.872c0.282-0.337,0.717-0.676,1.12-0.833c0.649-0.249,1.162-0.249,1.731-0.044
			c0.774,0.27,1.431,1.039,1.931,2.067c0.247,0.501,0.474,1.095,0.886,2.158c0.698,1.804,1.13,2.858,1.349,3.427
			c0.087,0.222,0.118,0.239,0.187,0.213c0.2-0.078,0.82-0.403,1.147-0.558c0.067-0.027,0.15,0.055,0.207,0.203
			c0.058,0.148,0.125,0.521,0.14,0.628c0.004,0.141-0.042,0.158-0.13,0.194c-1.992,0.769-2.626,1.127-3.477,1.456
			c-0.135,0.052-0.245,0.095-0.306,0.005l-0.303-0.452c0.553-0.497,0.724-0.791,0.546-1.516c-0.176-0.786-0.506-1.708-1.184-3.463
			c-0.525-1.359-0.817-2.043-1.57-2.462c-0.52-0.282-1.088-0.289-1.738-0.039c-0.537,0.209-1.254,0.883-1.622,1.394
			c-0.135,0.251-0.1,0.409-0.016,0.689c0.289,0.882,1.656,4.416,2.17,5.75c0.125,0.323,0.189,0.353,1.429,0.103
			c0.143-0.027,0.186,0.013,0.201,0.12l0.076,0.596l-1.903,0.736c-0.894,0.347-1.563,0.746-2.01,0.919
			c-0.044,0.018-0.086-0.024-0.124-0.122L110.958,47.332z"/>
		<path d="M131.784,32.028c1.063-0.193,1.865-0.362,2.448-0.521c1.398-0.36,1.498-0.485,1.526-2.078
			c0.08-0.095,0.615-0.247,0.736-0.242c0.09,0.765,0.164,1.991,0.311,2.798c0.182,0.883,0.384,1.601,0.592,2.344
			c-0.18,0.086-0.364,0.147-0.53,0.176c-0.113,0.046-0.174-0.024-0.239-0.119c-0.148-0.27-0.341-0.666-0.467-0.966
			c-0.269-0.679-0.594-0.863-1.552-0.771c-0.529,0.042-1.313,0.182-2.519,0.399c-1.181,0.212-1.412,0.281-1.549,0.334
			c-0.09,0.042-0.157,0.08-0.208,0.199c-0.043,0.168-0.021,1.107,0.364,3.245c0.343,1.903,0.47,2.608,0.781,2.982
			c0.42,0.436,1.27,0.417,3.213,0.068c2.762-0.497,4.033-1.022,4.268-3.919c0.091-0.042,0.33-0.059,0.571-0.075
			c0.08,0.04,0.085,0.066,0.109,0.196c0.17,1.208,0.091,2.945-0.079,3.756c-0.091,0.178-0.151,0.243-0.27,0.264
			c-0.165,0.03-0.331,0.06-1.115,0.174c-0.713,0.102-2.37,0.373-4.331,0.725c-1.894,0.341-3.741,0.782-5.616,1.2
			c-0.053-0.018-0.175-0.561-0.188-0.775c-0.01-0.051,0.052-0.117,0.075-0.12c1.049-0.404,1.11-0.605,1.064-1
			c-0.024-0.399-0.206-2.09-0.686-4.749l-0.813-4.511c-0.624-3.467-0.972-4.589-1.025-4.743c-0.052-0.152-0.122-0.274-0.368-0.284
			c-0.256-0.062-0.717-0.058-1.312-0.114c-0.029-0.021-0.029-0.021-0.043-0.1l-0.061-0.608c-0.018-0.104-0.023-0.13,0.096-0.15
			l0.825-0.149c0.731-0.133,1.639-0.242,3.085-0.475l2.291-0.413c1.44-0.26,3.146-0.7,4.322-0.94
			c0.306-0.054,0.459-0.028,0.59,0.029c0.24,0.118,0.24,0.118,0.231,0.605c0.018,1.182,0.267,2.697,0.389,3.376
			c-0.615,0.111-0.723,0.049-0.775-0.104c-0.669-1.818-1.004-2.727-2.847-2.395l-1.633,0.294c-1.394,0.251-2.164,0.444-2.409,0.568
			c-0.288,0.16-0.289,0.43-0.18,1.029c0.328,1.825,0.68,3.646,1.033,5.468c0.042,0.234,0.217,0.391,0.382,0.361L131.784,32.028z"/>
		<path d="M141.876,39.166c0.731-0.322,1.01-0.52,1.052-1.238c0.087-0.799,0.069-2.363,0.016-3.66
			c-0.041-1.032-0.131-1.982-0.175-2.459c-0.01-0.265-0.111-0.366-1.226-0.611c-0.102-0.128-0.148-0.074-0.069-0.501
			c-0.003-0.081,0.067-0.136,0.21-0.196c1.007-0.599,2.035-1.279,2.15-1.388c0.071-0.055,0.164-0.087,0.261-0.09
			c0.12-0.005,0.242,0.069,0.246,0.174c0.043,0.449,0.088,0.951,0.106,1.401c0.006,0.132,0.034,0.237,0.131,0.233
			c1.027-0.706,1.426-0.935,2.059-1.278c0.375-0.228,0.895-0.409,1.328-0.427c0.694-0.029,1.182,0.136,1.654,0.515
			c0.645,0.503,1.02,1.443,1.163,2.578c0.071,0.554,0.099,1.189,0.145,2.327c0.08,1.933,0.152,3.071,0.176,3.679
			c0.011,0.238,0.036,0.264,0.108,0.261c0.216-0.009,0.907-0.118,1.267-0.159c0.071-0.004,0.124,0.101,0.13,0.259
			c0.007,0.159-0.05,0.533-0.069,0.639c-0.044,0.135-0.092,0.137-0.187,0.141c-2.133,0.089-2.848,0.225-3.759,0.263
			c-0.144,0.006-0.263,0.011-0.291-0.094l-0.142-0.524c0.684-0.294,0.938-0.516,1.004-1.262c0.088-0.799,0.069-1.779-0.008-3.659
			c-0.06-1.456-0.116-2.196-0.696-2.835c-0.402-0.434-0.939-0.624-1.633-0.595c-0.575,0.024-1.47,0.432-1.984,0.797
			c-0.209,0.195-0.226,0.354-0.238,0.647c-0.01,0.927,0.148,4.714,0.207,6.144c0.016,0.343,0.066,0.395,1.32,0.555
			c0.147,0.02,0.172,0.073,0.152,0.18l-0.12,0.589l-2.037,0.085c-0.959,0.039-1.721,0.204-2.2,0.223
			c-0.048,0.002-0.074-0.05-0.079-0.155L141.876,39.166z"/>
		<path d="M159.336,28.951c0.623,0.046,1.341,0.416,1.755,0.686c0.156,0.145,0.351,0.131,0.398,0.136
			c0.407,0.03,1.817-0.186,2.321-0.149c0.191,0.014,0.437,0.271,0.453,0.378c0.018,0.081,0.044,0.72,0.035,0.826
			c-0.012,0.158-0.143,0.309-0.433,0.313c-0.263-0.019-0.982-0.045-2.034-0.149c0.313,0.661,0.533,1.607,0.478,2.347
			c-0.135,1.849-1.475,3.399-3.378,4.083c-0.913,0.305-1.485,0.581-2.035,0.861c-0.15,0.069-0.236,0.249-0.243,0.327
			c-0.033,0.476,0.524,0.755,1.169,0.802c0.287,0.022,1.799,0.079,2.013,0.095c1.006,0.074,1.905,0.273,2.671,0.993
			c0.337,0.317,0.599,1,0.535,1.899c-0.063,0.846-0.311,1.28-1.021,2.103c-1.364,1.548-2.497,1.916-3.115,2.137
			c-0.566,0.171-1.681,0.275-2.374,0.226c-2.609-0.192-3.537-1.641-3.46-2.698c0.067-0.898,0.455-1.614,1.061-1.995
			c0.632-0.431,1.138-0.766,1.895-1.242c-0.993-0.579-1.541-0.964-1.484-1.756c0.018-0.239,0.025-0.344,0.185-0.544
			c0.255-0.221,1.377-0.75,2.397-1.206c-0.726-0.267-1.303-0.601-1.859-1.226c-0.622-0.71-0.925-1.822-0.85-2.852
			c0.116-1.586,0.971-2.745,2.11-3.512c0.832-0.524,1.777-0.96,2.783-0.885L159.336,28.951z M157.64,45.538
			c1.387,0.102,2.372-0.199,3.065-0.785c0.512-0.415,0.91-0.917,0.955-1.551c0.028-0.369,0.032-0.768-0.416-1.199
			c-0.495-0.462-1.179-0.671-2.016-0.733c-0.837-0.061-1.85-0.029-2.458,0.059c-0.243,0.036-0.543,0.2-0.956,0.568
			c-0.664,0.536-0.953,1.205-0.983,1.602c-0.034,0.475,0.393,1.861,2.786,2.037L157.64,45.538z M160.639,34.147
			c0.063-0.845-0.049-1.969-0.402-2.712c-0.29-0.633-0.959-1.372-2.035-1.451c-0.43-0.032-0.828,0.126-1.263,0.491
			c-0.457,0.339-0.706,1.092-0.76,1.831c-0.076,1.031,0.235,2.382,0.858,3.065c0.734,0.824,1.272,1.023,1.702,1.054
			c0.886,0.066,1.768-0.481,1.899-2.251L160.639,34.147z"/>
		<path d="M167.021,32.244c-0.004-0.135-0.133-0.236-1.214-0.622c-0.09-0.041-0.106-0.097-0.014-0.217
			c0.24-0.445,0.272-0.493,0.396-0.501c0.976-0.193,1.87-0.454,2.974-0.682c0.051-0.017,0.075-0.015,0.124-0.006
			c0.046,0.007,0.038,0.059,0.014,0.217c-0.378,1.764-1.083,5.435-1.298,6.795c-0.211,1.335-0.287,1.806-0.312,2.124
			c-0.011,0.374,0.012,0.539,0.252,0.549c0.743,0.066,0.933,0.095,1.005,0.107c0.072,0.011,0.187,0.19,0.152,0.265l-0.179,0.669
			c-0.048,0.153-0.095,0.147-0.215,0.127c-0.686-0.108-1.341-0.266-2.1-0.386c-1.043-0.167-2.016-0.161-2.086-0.171
			c-0.119-0.019-0.161-0.053-0.169-0.161c-0.019-0.192,0.023-0.452,0.048-0.609c0.016-0.105,0.068-0.125,0.14-0.113
			c0.869,0.031,1.071-0.018,1.329-0.728c0.138-0.407,0.571-2.216,0.786-3.871L167.021,32.244z M169.674,24.403
			c0.616,0.098,0.928,0.738,0.828,1.365c-0.14,0.89-0.792,1.322-1.408,1.225c-0.569-0.091-0.964-0.664-0.852-1.369
			c0.145-0.917,0.887-1.309,1.41-1.225L169.674,24.403z"/>
		<path d="M170.615,40.677c0.793-0.099,1.116-0.208,1.363-0.883c0.313-0.741,0.743-2.246,1.063-3.504
			c0.256-1.001,0.444-1.937,0.537-2.405c0.065-0.258-0.002-0.384-1-0.938c-0.06-0.152-0.121-0.112,0.078-0.5
			c0.018-0.077,0.102-0.11,0.255-0.126c1.137-0.285,2.317-0.643,2.458-0.716c0.083-0.034,0.184-0.035,0.275-0.013
			c0.116,0.03,0.213,0.136,0.188,0.239c-0.089,0.443-0.189,0.936-0.299,1.374c-0.032,0.127-0.037,0.236,0.057,0.26
			c1.186-0.382,1.632-0.488,2.339-0.636c0.424-0.111,0.975-0.135,1.394-0.029c0.674,0.171,1.094,0.469,1.439,0.967
			c0.474,0.666,0.564,1.673,0.377,2.802c-0.091,0.551-0.249,1.167-0.528,2.272c-0.476,1.874-0.733,2.985-0.882,3.576
			c-0.06,0.232-0.043,0.262,0.028,0.28c0.209,0.053,0.903,0.147,1.258,0.21c0.071,0.018,0.091,0.133,0.051,0.287
			c-0.039,0.153-0.2,0.496-0.249,0.592c-0.079,0.117-0.125,0.104-0.218,0.08c-2.07-0.524-2.794-0.599-3.677-0.823
			c-0.14-0.036-0.256-0.066-0.253-0.174l0.015-0.543c0.739-0.086,1.048-0.226,1.323-0.921c0.312-0.741,0.577-1.685,1.039-3.51
			c0.36-1.411,0.52-2.136,0.147-2.914c-0.261-0.532-0.721-0.867-1.396-1.039c-0.557-0.142-1.532-0.006-2.129,0.198
			c-0.254,0.127-0.318,0.275-0.412,0.552c-0.276,0.887-1.207,4.559-1.559,5.947c-0.085,0.334-0.052,0.397,1.105,0.909
			c0.133,0.061,0.143,0.118,0.094,0.215l-0.282,0.53l-1.978-0.503c-0.93-0.236-1.706-0.296-2.171-0.415
			c-0.046-0.011-0.057-0.067-0.03-0.171L170.615,40.677z"/>
		<path d="M190.217,36.107c0.698,0.258,1.321,0.996,1.538,1.585c0.226,0.564,0.349,1.201,0.295,1.973
			c0.221,0.024,0.695,0.058,0.725,0.183c0.049,0.074,0.021,0.15-0.038,0.24c-0.15,0.198-0.473,0.589-0.693,0.563
			c-1.676-0.168-4.81-0.617-5.898-0.651c-0.122-0.017-0.213,0.09-0.323,0.39c-0.841,2.485-0.024,3.945,1.462,4.494
			c1.036,0.382,2.087,0.233,3.127-0.23c0.152-0.058,0.421,0.041,0.371,0.108c-0.243,0.588-0.352,0.745-0.542,0.845
			c-1.298,0.538-2.54,0.645-3.397,0.61c-0.328-0.008-0.631-0.091-0.878-0.183c-1.575-0.582-2.203-2-2.345-2.448
			c-0.204-0.556-0.454-1.889,0.144-3.505c0.807-2.189,2.568-3.429,4.134-3.926c0.728-0.24,1.667-0.289,2.296-0.055L190.217,36.107z
			 M190.203,39.265c0.257-0.697-0.178-2.156-1.122-2.505c-0.136-0.049-0.388-0.058-0.655,0.041
			c-0.836,0.257-1.677,1.359-2.017,2.419c1.144,0.084,2.253,0.267,3.367,0.367c0.176,0.01,0.316-0.024,0.416-0.298L190.203,39.265z"
			/>
		<path d="M199.921,40.274c0.672,0.32,1.225,1.111,1.389,1.716c0.174,0.583,0.239,1.23,0.117,1.992
			c0.216,0.045,0.684,0.12,0.706,0.247c0.042,0.079,0.007,0.151-0.059,0.237c-0.168,0.183-0.524,0.544-0.742,0.498
			c-1.656-0.318-4.735-1.049-5.815-1.18c-0.12-0.028-0.22,0.072-0.356,0.359c-1.061,2.4-0.38,3.926,1.051,4.607
			c0.996,0.474,2.057,0.421,3.135,0.052c0.155-0.044,0.415,0.08,0.359,0.141c-0.296,0.564-0.418,0.711-0.616,0.792
			c-1.341,0.419-2.588,0.413-3.438,0.302c-0.328-0.038-0.621-0.148-0.86-0.262c-1.517-0.722-2.014-2.189-2.114-2.648
			c-0.154-0.571-0.281-1.924,0.458-3.479c1.002-2.106,2.87-3.184,4.471-3.536c0.747-0.174,1.687-0.138,2.294,0.15L199.921,40.274z
			 M199.621,43.417c0.319-0.67,0.02-2.162-0.892-2.594c-0.129-0.061-0.381-0.094-0.655-0.019c-0.857,0.18-1.794,1.201-2.228,2.227
			c1.133,0.188,2.222,0.47,3.322,0.671c0.174,0.023,0.316,0.004,0.442-0.259L199.621,43.417z"/>
		<path d="M200.59,51.54c0.584,0.094,0.713,0.11,0.929-0.165c0.2-0.25,0.56-0.869,1.719-2.862l1.199-2.061
			c0.32-0.549,0.359-0.711-0.305-1.435c-0.127-0.165-0.056-0.523,0.065-0.636c1.121-0.115,2.264-0.124,3.188-0.231
			c0.109,0.003,0.26,0.028,0.301,0.053c0.083,0.048,0.093,0.269-0.068,0.451c-0.367,0.584-0.735,1.073-1.114,1.773
			c0.547,0.012,2.466-0.374,2.856-0.424c0.279-0.051,0.601-0.079,0.788,0.029c0.539,0.314,0.807,1.236,0.514,1.74
			c-0.214,0.368-1.118,0.73-1.411,0.805c-0.178,0.018-0.335,0.05-0.458-0.023c-0.125-0.072-0.161-0.153-0.177-0.317
			c-0.02-0.348-0.15-0.792-0.483-0.985c-0.456-0.266-1.256-0.179-1.841-0.03c-0.226,0.054-0.441,0.327-1.066,1.404l-1.665,2.863
			c-0.333,0.573-0.485,0.883-0.489,1.034c-0.005,0.15,0.038,0.266,0.279,0.377l1.146,0.605c0.104,0.061,0.121,0.223,0.047,0.302
			l-0.537,0.639c-0.912-0.532-1.825-1.063-2.739-1.593c-0.539-0.314-1.084-0.569-1.23-0.653c-0.085-0.049-0.084-0.141,0.058-0.243
			L200.59,51.54z"/>
		<path d="M212.741,50.033c0.054-0.124-0.021-0.27-0.84-1.074c-0.065-0.075-0.056-0.132,0.079-0.202
			c0.405-0.303,0.454-0.334,0.569-0.289c0.969,0.235,1.888,0.372,2.986,0.63c0.053,0.005,0.075,0.018,0.115,0.044
			c0.04,0.027,0.01,0.071-0.08,0.203c-1.082,1.443-3.262,4.48-4.029,5.624c-0.753,1.123-1.018,1.519-1.174,1.796
			c-0.168,0.334-0.215,0.492-0.002,0.604c0.647,0.37,0.806,0.478,0.866,0.518c0.06,0.039,0.092,0.252,0.027,0.305l-0.444,0.531
			c-0.107,0.119-0.148,0.093-0.247,0.026c-0.578-0.388-1.106-0.806-1.744-1.233c-0.878-0.588-1.762-0.99-1.823-1.029
			c-0.099-0.068-0.124-0.116-0.085-0.219c0.064-0.18,0.211-0.4,0.299-0.532c0.06-0.089,0.115-0.083,0.174-0.042
			c0.777,0.393,0.981,0.433,1.513-0.103c0.296-0.312,1.449-1.774,2.338-3.187L212.741,50.033z M218.441,44.028
			c0.519,0.348,0.534,1.06,0.179,1.588c-0.502,0.748-1.275,0.868-1.793,0.52c-0.479-0.32-0.598-1.005-0.199-1.6
			c0.515-0.771,1.354-0.815,1.793-0.521L218.441,44.028z"/>
		<path d="M212.455,59.196c0.765,0.235,1.105,0.268,1.607-0.248c0.587-0.547,1.597-1.743,2.403-2.758
			c0.643-0.811,1.199-1.587,1.475-1.976c0.165-0.208,0.156-0.349-0.528-1.266c0.008-0.163-0.063-0.151,0.276-0.423
			c0.049-0.062,0.138-0.058,0.284-0.011c1.154,0.205,2.375,0.364,2.536,0.357c0.089,0.002,0.181,0.041,0.255,0.102
			c0.094,0.074,0.14,0.21,0.073,0.294c-0.26,0.367-0.555,0.776-0.835,1.129c-0.082,0.104-0.128,0.202-0.054,0.261
			c1.238,0.138,1.69,0.224,2.395,0.379c0.434,0.072,0.945,0.276,1.284,0.544c0.544,0.433,0.806,0.877,0.916,1.471
			c0.159,0.804-0.171,1.759-0.804,2.711c-0.308,0.465-0.704,0.964-1.412,1.857c-1.202,1.515-1.892,2.422-2.27,2.9
			c-0.148,0.187-0.146,0.221-0.091,0.267c0.171,0.134,0.765,0.505,1.062,0.707c0.057,0.045,0.029,0.157-0.071,0.282
			c-0.099,0.125-0.385,0.371-0.469,0.438c-0.121,0.074-0.159,0.044-0.233-0.015c-1.673-1.328-2.304-1.692-3.017-2.259
			c-0.113-0.089-0.207-0.163-0.16-0.262l0.236-0.49c0.71,0.225,1.048,0.223,1.586-0.299c0.586-0.547,1.214-1.299,2.385-2.774
			c0.906-1.142,1.347-1.738,1.327-2.599c-0.019-0.592-0.302-1.086-0.846-1.518c-0.452-0.358-1.397-0.634-2.024-0.691
			c-0.283,0.011-0.403,0.119-0.601,0.334c-0.614,0.695-2.97,3.664-3.86,4.785c-0.214,0.271-0.209,0.341,0.635,1.283
			c0.097,0.11,0.083,0.167-0.002,0.233l-0.475,0.368l-1.598-1.268c-0.752-0.597-1.435-0.97-1.81-1.269
			c-0.039-0.031-0.024-0.087,0.042-0.168L212.455,59.196z"/>
		<path d="M232.253,62.63c0.45,0.432,0.766,1.178,0.911,1.648c0.029,0.213,0.187,0.326,0.221,0.359
			c0.294,0.283,1.516,1.018,1.881,1.369c0.137,0.133,0.162,0.486,0.106,0.58c-0.037,0.073-0.425,0.582-0.5,0.658
			c-0.111,0.115-0.308,0.146-0.533-0.034c-0.189-0.181-0.727-0.663-1.468-1.414c-0.182,0.707-0.618,1.576-1.132,2.111
			c-1.286,1.336-3.306,1.671-5.208,0.983c-0.897-0.347-1.515-0.501-2.115-0.639c-0.16-0.042-0.34,0.042-0.395,0.099
			c-0.331,0.344-0.081,0.915,0.386,1.363c0.208,0.2,1.334,1.21,1.489,1.36c0.726,0.699,1.292,1.426,1.421,2.469
			c0.057,0.46-0.177,1.153-0.802,1.803c-0.588,0.611-1.057,0.785-2.13,0.967c-2.039,0.319-3.146-0.122-3.761-0.347
			c-0.544-0.229-1.468-0.861-1.97-1.343c-1.884-1.814-1.673-3.522-0.938-4.286c0.625-0.648,1.381-0.952,2.089-0.857
			c0.763,0.072,1.367,0.137,2.252,0.254c-0.394-1.078-0.572-1.726-0.019-2.298c0.165-0.172,0.239-0.249,0.489-0.301
			c0.339-0.005,1.539,0.304,2.615,0.604c-0.388-0.669-0.618-1.294-0.647-2.13c-0.024-0.943,0.452-1.993,1.168-2.737
			c1.102-1.145,2.5-1.492,3.867-1.353c0.975,0.128,1.981,0.397,2.706,1.095L232.253,62.63z M220.352,74.308
			c1.004,0.963,1.953,1.362,2.86,1.354c0.658,0.008,1.285-0.125,1.725-0.583c0.258-0.268,0.515-0.571,0.446-1.19
			c-0.087-0.671-0.478-1.268-1.083-1.851c-0.605-0.582-1.405-1.203-1.93-1.525c-0.209-0.127-0.546-0.195-1.097-0.173
			c-0.854-0.011-1.506,0.317-1.78,0.604c-0.332,0.345-0.888,1.684,0.842,3.348L220.352,74.308z M229.936,67.46
			c0.589-0.611,1.222-1.546,1.424-2.344c0.18-0.673,0.138-1.668-0.64-2.417c-0.311-0.299-0.716-0.431-1.286-0.429
			c-0.568-0.031-1.239,0.389-1.753,0.924c-0.716,0.745-1.341,1.982-1.298,2.906c0.037,1.102,0.326,1.6,0.636,1.898
			c0.64,0.615,1.668,0.759,2.899-0.519L229.936,67.46z"/>
	</g>
</g>
</svg>
