<?xml version="1.0" encoding="iso-8859-1"?>
<!-- Generator: Adobe Illustrator 26.0.1, SVG Export Plug-In . SVG Version: 6.00 Build 0)  -->
<svg version="1.1" id="Layer_1" xmlns="http://www.w3.org/2000/svg" xmlns:xlink="http://www.w3.org/1999/xlink" x="0px" y="0px"
	 viewBox="0 0 1080 1080" style="enable-background:new 0 0 1080 1080;" xml:space="preserve">
<g>
	<g>
		<path d="M47.876,495.692c15.634,0,30.779,0,46.267,0c-0.24,3.928-0.464,7.612-0.709,11.631c-3.044,0.615-6.045,0.156-9.006,0.219
			c-2.915,0.062-5.832,0.001-8.749-0.002c-3.006-0.003-6.011-0.001-9.364-0.001c-0.553,5.808-0.219,11.339-0.251,17.226
			c8.609,0,16.879,0,25.325,0c0.745,4.154,0.105,7.894-0.48,12.077c-8.161,0-16.222,0-24.126,0
			c-0.856,2.527-0.977,15.151-0.256,18.976c9.408,0.89,18.911-0.168,28.738-0.359c0.074,1.42,0.226,2.522,0.17,3.614
			c-0.128,2.491-0.415,4.975-0.526,7.467c-0.07,1.566-0.745,2.272-2.314,2.221c-1.352-0.044-2.708-0.002-4.062-0.002
			c-12.082,0.001-24.164,0-36.247,0c-1.129,0-2.257,0-3.723,0c-0.119-1.47-0.301-2.661-0.298-3.852
			c0.036-17.999,0.129-35.997,0.126-53.996c-0.001-3.842-0.345-7.683-0.506-11.526C47.837,498.266,47.876,497.143,47.876,495.692z"
			/>
		<path d="M166.095,495.626c15.527,0,30.595,0,46.003,0c0.812,3.89-0.514,7.617-0.319,11.699c-3.204,0.582-6.204,0.163-9.17,0.219
			c-2.915,0.055-5.832-0.001-8.749-0.004c-3.004-0.003-6.009-0.001-8.898-0.001c-0.878,2.541-1.011,13.563-0.232,17.254
			c8.183,0,16.45,0,25.152,0c0.024,4.14,0.331,7.91-0.775,12.054c-8.123,0-16.192,0-24.32,0c-0.233,0.966-0.492,1.545-0.493,2.125
			c-0.014,4.786-0.027,9.572,0.057,14.357c0.043,2.45,0.336,2.78,2.706,2.743c6.553-0.104,13.105-0.338,19.658-0.49
			c2.158-0.05,4.318-0.008,6.882-0.008c0,2.31,0.057,4.349-0.018,6.384c-0.058,1.556-0.347,3.103-0.415,4.659
			c-0.07,1.589-0.84,2.248-2.381,2.142c-0.415-0.029-0.833,0-1.25,0c-13.228,0-26.455,0.003-39.683-0.006
			c-0.92-0.001-1.84-0.089-3.105-0.155c-0.08-1.332-0.226-2.529-0.212-3.723c0.122-10.504,0.38-21.007,0.384-31.511
			c0.003-9.984-0.23-19.968-0.404-29.951C166.468,500.941,166.252,498.472,166.095,495.626z"/>
		<path d="M150.964,524.921c-0.177,3.703-0.346,6.909-0.477,10.116c-0.073,1.782-1.279,1.874-2.617,1.872
			c-5.522-0.009-11.044-0.001-16.566,0c-1.86,0-3.719,0-5.427,0c-1.167,2.924-1.135,15.552-0.024,18.994
			c9.354,0.656,18.781-0.135,28.6-0.52c0,1.355,0.022,2.345-0.004,3.334c-0.062,2.289-0.125,4.578-0.228,6.865
			c-0.131,2.91-0.377,3.166-3.34,3.171c-11.982,0.017-23.964,0.008-35.945,0.008c-2.381,0-4.762,0-7.557,0
			c-0.048-1.896-0.132-3.508-0.122-5.118c0.116-18,0.277-35.999,0.347-53.999c0.014-3.636-0.312-7.273-0.464-10.91
			c-0.038-0.907-0.006-1.817-0.006-2.623c2.634-0.79,42.189-0.921,45.869-0.163c0.06,3.69,0.27,7.458-0.777,11.545
			c-8.883,0-17.687,0-26.89,0c-0.57,5.879-0.382,11.401-0.141,17.203C133.884,525.245,142.275,524.482,150.964,524.921z"/>
		<path d="M12.848,568.745c0-2.549-0.032-4.704,0.006-6.858c0.165-9.453,0.525-18.906,0.483-28.358
			c-0.051-11.428-0.437-22.854-0.678-34.281c-0.013-0.623-0.029-1.247-0.035-1.87c-0.013-1.288,0.636-1.902,1.918-1.891
			c1.561,0.013,3.123,0.055,4.682,0.002c3.116-0.105,6.234-0.215,9.344-0.421c2.34-0.154,2.753,0.085,2.741,2.504
			c-0.031,6.34-0.187,12.679-0.202,19.019c-0.031,13.096-0.04,26.193,0.025,39.289c0.017,3.423,0.332,6.845,0.521,10.267
			c0.073,1.328,0.084,2.596-1.772,2.597C24.381,568.746,18.881,568.745,12.848,568.745z"/>
	</g>
	<g>
		<path d="M495.518,442.641c0.284,3.242,0.605,5.691,0.695,8.148c0.396,10.834,0.088,21.635-1.697,32.358
			c-0.458,2.752-0.443,2.751-3.149,3.415c-35.26,8.65-63.359,27.732-84.059,57.59c-0.525,0.758-1.089,1.489-1.846,2.057
			C422.595,500.905,452.218,466.416,495.518,442.641z"/>
		<path d="M397.74,546.4c-0.476-0.662-0.964-1.316-1.427-1.986c-20.696-29.959-48.812-49.149-84.161-57.807
			c-1.62-0.397-2.847-0.712-3.163-2.736c-2.05-13.114-2.45-26.269-1.244-39.479c0.027-0.299,0.174-0.587,0.263-0.874
			c4.051,0.505,20.285,10.883,31.993,20.595C366.688,486.25,385.947,513.654,397.74,546.4z"/>
		<path d="M378.646,493.39c-0.528-0.614-0.959-1.045-1.304-1.537c-0.412-0.587-0.749-1.225-1.289-2.124
			c2.587-3.587,5.083-7.289,7.822-10.802c10.285-13.192,21.706-25.249,35.592-34.761c16.424-11.251,34.368-18.783,53.993-22.485
			c11.636-2.195,23.312-2.641,35.075-2.303c0.721,0.021,1.446,0.16,2.153,0.318c2.265,0.505,4.043,0.093,5.907-1.618
			c4.689-4.302,11.912-3.559,15.817,1.309c3.83,4.775,3.003,11.734-1.854,15.591c-4.919,3.906-12.567,2.801-15.821-2.708
			c-1.461-2.474-3.326-3.19-5.758-3.312c-2.702-0.136-5.413-0.073-8.12-0.129c-19.88-0.408-38.738,4.194-56.975,11.707
			c-25.802,10.63-46.415,27.824-63.05,50.008C380.159,491.445,379.461,492.332,378.646,493.39z M523.823,431.852
			c3.135,0.344,5.76-2.576,5.841-5.58c0.083-3.078-2.644-5.655-5.809-5.642c-3.309,0.014-5.741,2.39-5.747,5.616
			C518.101,429.511,520.481,431.845,523.823,431.852z"/>
		<path d="M357.857,468.11c-1.359-1.674-2.592-3.191-4.038-4.972c0.112-0.203,0.437-0.955,0.902-1.607
			c20.378-28.529,45.587-51.501,77.366-66.849c17.22-8.317,35.229-14.261,54.151-17.249c6.25-0.987,12.549-1.681,18.84-2.37
			c1.383-0.151,2.282-0.57,3.055-1.717c1.334-1.98,3.173-3.236,5.663-3.418c4.221-0.309,7.763,1.941,8.655,5.565
			c1.051,4.27-0.836,8.188-4.7,9.761c-3.784,1.54-7.712,0.232-9.882-3.546c-0.896-1.56-1.81-2.268-3.682-2.041
			c-10.32,1.253-20.561,2.934-30.602,5.643c-33.103,8.931-62.238,24.897-86.855,48.907c-10.016,9.77-19.192,20.231-27.17,31.73
			C359.101,466.61,358.562,467.219,357.857,468.11z M514.75,382.21c2.334,0.016,4.395-1.991,4.434-4.317
			c0.038-2.317-1.948-4.453-4.227-4.547c-2.378-0.097-4.643,2.11-4.618,4.499C510.364,380.172,512.408,382.194,514.75,382.21z"/>
	</g>
	<g>
		<path d="M859.474,608.014c-1.197-0.227-2.875-0.359-4.425-0.875c-4.411-1.467-6.994-5.194-6.887-9.65
			c0.107-4.461,2.867-8.145,7.225-9.46c2.943-0.888,5.949-0.898,8.901-0.025c4.702,1.389,7.483,5.394,7.273,10.325
			c-0.193,4.517-3.557,8.337-8.226,9.263C862.222,607.813,861.071,607.846,859.474,608.014z"/>
		<path d="M435.518,608.01c-1.233-0.256-2.8-0.414-4.25-0.912c-4.312-1.482-6.711-4.948-6.703-9.424
			c0.009-4.469,2.427-7.941,6.706-9.451c3.229-1.139,6.518-1.168,9.761-0.053c4.593,1.579,7.258,5.614,6.881,10.281
			c-0.372,4.604-3.711,8.293-8.365,9.153C438.33,607.828,437.076,607.859,435.518,608.01z"/>
		<path d="M117.691,595.075c6.671,0,12.962,0,19.229,0c0.641,2.358,0.785,81.19,0.144,84.959c-6.259,0-12.557,0-19.284,0
			c0-3.291,0-6.53,0-9.768c-0.203-0.044-0.406-0.087-0.609-0.131c-0.231,0.288-0.495,0.556-0.689,0.868
			c-5.105,8.224-12.854,10.818-21.995,9.985c-10.951-0.997-18.294-7.14-22.246-17.103c-4.108-10.357-4.095-21.008-0.062-31.391
			c3.547-9.132,10.126-15.225,20.037-16.881c8.062-1.347,15.604-0.103,21.586,6.122c1.257,1.308,2.264,2.855,3.889,4.936
			C117.691,615.722,117.691,605.51,117.691,595.075z M117.995,648.129c-0.056-0.011-0.112-0.022-0.167-0.033
			c-0.06-1.035-0.067-2.077-0.19-3.105c-0.866-7.212-6.167-12.241-13.203-12.556c-7.688-0.344-12.951,3.667-14.605,11.133
			c-0.802,3.62-0.669,7.224,0.38,10.765c0.98,3.306,2.902,5.992,5.927,7.711c7.442,4.228,18.232,1.608,20.959-8.418
			C117.581,651.844,117.705,649.964,117.995,648.129z"/>
		<path d="M345.277,626.426c0-3.676,0-6.923,0-10.326c6.601,0,12.813,0,19.029,0c0.681,2.219,0.846,60.283,0.144,63.93
			c-6.244,0-12.522,0-19.101,0c0-3.389,0-6.57,0-10.48c-0.806,0.89-1.167,1.191-1.409,1.569c-5.04,7.889-12.564,10.606-21.475,9.925
			c-11.07-0.847-18.636-6.874-22.684-16.97c-4.189-10.447-4.185-21.194-0.092-31.682c3.423-8.77,9.672-14.825,19.189-16.597
			c10.32-1.922,19.271,0.261,25.308,9.733C344.327,625.749,344.605,625.882,345.277,626.426z M345.544,647.616
			c-0.484-2.019-0.791-4.745-1.793-7.187c-2.289-5.581-7.606-8.416-14.154-7.965c-5.854,0.403-10.325,4.009-11.993,9.701
			c-0.983,3.353-1.039,6.788-0.416,10.175c1.306,7.11,6.395,11.446,13.355,11.607c7.094,0.164,12.519-4.024,14.198-11.044
			C345.099,651.404,345.214,649.845,345.544,647.616z"/>
		<path d="M692.007,621.385c-7.035,0-13.871,0-20.818,0c-0.32-0.945-0.577-1.831-0.917-2.685c-1.819-4.578-6.036-6.762-10.842-5.638
			c-5.598,1.309-7.682,7.73-3.711,11.921c1.387,1.464,3.245,2.621,5.092,3.481c3.008,1.401,6.193,2.422,9.287,3.642
			c3.384,1.334,6.833,2.541,10.11,4.102c9.292,4.426,14.035,11.774,13.624,22.168c-0.379,9.573-6.229,17.512-15.856,20.71
			c-10.834,3.598-21.602,2.934-31.795-2.379c-7.86-4.097-12.169-10.807-13.102-19.636c-0.031-0.288,0.083-0.592,0.154-1.044
			c6.761,0,13.498,0,20.456,0c0.28,0.916,0.542,1.893,0.875,2.846c1.834,5.239,7.157,8.041,12.509,6.602
			c5.699-1.533,7.761-8.394,3.581-12.559c-1.645-1.639-3.81-2.932-5.965-3.849c-4.491-1.912-9.154-3.418-13.706-5.194
			c-2.321-0.905-4.609-1.93-6.82-3.077c-15.295-7.934-14.766-30.082-1.774-38.242c6.152-3.864,12.87-5.134,19.971-5.052
			c5.677,0.065,11.195,0.9,16.338,3.483C686.652,604.978,691.91,612.888,692.007,621.385z"/>
		<path d="M995.792,615.998c7.529,0,14.496,0,21.802,0c2.519,6.381,5.067,12.823,7.604,19.269c2.543,6.461,5.076,12.927,8.274,19.44
			c4.699-12.8,9.398-25.6,14.16-38.571c7.069,0,14.11,0,21.368,0c-0.165,0.653-0.25,1.344-0.51,1.961
			c-12.77,30.26-25.556,60.513-38.329,90.771c-0.552,1.308-1.109,2.303-2.866,2.272c-6.037-0.105-12.077-0.049-18.115-0.068
			c-0.296-0.001-0.592-0.13-1.221-0.278c0.317-0.885,0.553-1.728,0.912-2.516c4.178-9.177,8.324-18.368,12.604-27.497
			c0.916-1.954,0.954-3.577,0.077-5.568c-8.171-18.549-16.249-37.138-24.347-55.719
			C996.758,618.474,996.368,617.428,995.792,615.998z"/>
		<path d="M30.539,664.616c10.191,0,20.265,0,30.559,0c0,5.172,0,10.112,0,15.071c-2.075,0.689-45.357,0.944-50.001,0.279
			c-0.581-2.251-0.788-76.108-0.226-80.64c2.195-0.713,46.25-0.915,50.244-0.192c0,4.904,0,9.85,0,15.157
			c-10.171,0-20.326,0-30.373,0c-0.737,2.568-0.898,12.397-0.344,16.931c2.89,0.669,5.89,0.224,8.853,0.301
			c3.018,0.079,6.039,0.017,9.059,0.017c3.014,0,6.029,0,9.454,0c0.196,4.975,0.178,9.786,0.01,14.815c-9.25,0-18.187,0-27.058,0
			C29.996,648.781,29.866,660.62,30.539,664.616z"/>
		<path d="M768.314,648.328c0.241,4.422-0.426,8.738-2.038,12.839c-4.481,11.403-13.111,17.607-25.026,19.536
			c-5.521,0.894-11.018,0.601-16.411-0.829c-13.539-3.591-22.398-14.634-23.156-28.779c-0.224-4.169-0.046-8.315,1.037-12.38
			c3.364-12.627,11.681-20.062,24.289-22.763c6.179-1.323,12.417-1.124,18.554,0.548c13.011,3.545,21.821,14.3,22.74,27.775
			C768.394,645.62,768.314,646.977,768.314,648.328z M748.662,648.282c-0.275-1.93-0.408-4.013-0.887-6.013
			c-1.427-5.962-6.328-9.968-12.233-10.173c-5.906-0.205-11.058,3.446-12.946,9.269c-1.415,4.364-1.427,8.792-0.128,13.175
			c1.823,6.15,6.887,9.684,13.363,9.464c5.868-0.2,10.652-4.272,12.022-10.341C748.24,651.955,748.382,650.192,748.662,648.282z"/>
		<path d="M489.859,615.008c4.661,0.034,9.181,0.75,13.481,2.444c12.303,4.847,18.564,14.214,19.825,27.111
			c0.437,4.466,0.115,8.924-1.024,13.309c-3.229,12.426-13.294,21.233-26.029,22.858c-5.969,0.761-11.838,0.541-17.608-1.219
			c-12.734-3.885-21.091-14.457-21.926-27.771c-0.281-4.477-0.169-8.936,1.044-13.308c3.495-12.588,11.867-19.909,24.506-22.523
			C484.659,615.385,487.28,615.297,489.859,615.008z M503.564,648.633c-0.336-2.364-0.465-4.344-0.916-6.247
			c-1.392-5.88-6.043-9.851-11.841-10.272c-5.602-0.407-10.998,2.913-13.026,8.256c-1.949,5.135-1.947,10.387-0.014,15.526
			c1.927,5.123,6.803,8.193,12.465,8.116c5.44-0.074,10.107-3.273,11.858-8.462C502.875,653.224,503.135,650.721,503.564,648.633z"
			/>
		<path d="M195.742,616.104c6.551,0,12.846,0,19.337,0c0,21.346,0,42.517,0,63.918c-6.43,0-12.719,0-19.428,0
			c0-3.324,0-6.578,0-10.168c-0.712,0.378-1.045,0.442-1.176,0.639c-5.472,8.24-13.343,11.164-22.908,10.355
			c-8.665-0.732-14.811-5.129-18.436-12.941c-1.038-2.238-1.744-4.691-2.201-7.121c-0.477-2.538-0.63-5.166-0.645-7.757
			c-0.065-11.135-0.028-22.27-0.028-33.405c0-1.12,0-2.24,0-3.521c6.641,0,12.938,0,19.641,0c0,1.22,0,2.331,0,3.443
			c0,10.407-0.037,20.813,0.033,31.219c0.013,1.952,0.201,3.975,0.745,5.838c1.411,4.833,5.29,7.764,10.324,8.132
			c8.201,0.599,13.389-3.648,14.305-11.758c0.175-1.547,0.264-3.111,0.268-4.667c0.024-9.574,0.007-19.148,0.019-28.722
			C195.594,618.475,195.686,617.362,195.742,616.104z"/>
		<path d="M553.23,680.071c-6.456,0-12.66,0-18.84,0c-0.722-2.374-0.849-60.576-0.127-63.975c6.171,0,12.38,0,18.915,0
			c0,3.395,0,6.775,0,10.929c0.977-1.027,1.477-1.442,1.843-1.953c6.094-8.531,14.602-10.939,24.485-9.346
			c9.865,1.59,15.52,7.918,18.044,17.217c0.782,2.881,1.186,5.948,1.22,8.935c0.137,11.966,0.064,23.935,0.054,35.902
			c-0.001,0.703-0.131,1.407-0.217,2.28c-6.45,0-12.75,0-19.464,0c0-1.253,0-2.363,0-3.472c0-9.782,0.026-19.565-0.022-29.347
			c-0.01-2.069-0.053-4.188-0.49-6.195c-1.359-6.237-5.965-9.726-12.387-9.629c-6.307,0.095-11.054,3.848-12.287,9.912
			c-0.411,2.022-0.568,4.126-0.58,6.194c-0.058,9.99-0.025,19.981-0.031,29.971C553.345,678.216,553.283,678.939,553.23,680.071z"/>
		<path d="M944.356,651.647c-15.287,0-29.938,0-44.537,0c-0.89,5.99,2.023,11.128,7.137,12.994
			c6.586,2.402,11.855,0.181,16.121-6.843c6.697,0,13.431,0,20.705,0c-0.93,2.527-1.547,4.836-2.593,6.932
			c-3.898,7.809-10.307,12.686-18.6,15.063c-7.405,2.122-14.894,2.007-22.14-0.573c-11.996-4.271-18.323-13.219-19.977-25.585
			c-0.65-4.858-0.552-9.774,0.578-14.591c2.7-11.517,9.639-19.174,21.058-22.487c7.054-2.046,14.22-1.945,21.28,0.052
			c12.359,3.496,20.568,14.05,21.173,27.14C944.675,646.211,944.443,648.689,944.356,651.647z M899.733,643.223
			c8.414,0,16.58,0,24.722,0c0.819-6.868-3.841-12.169-10.82-12.52C905.37,630.287,899.613,635.387,899.733,643.223z"/>
		<path d="M839.273,640.645c-6.819,0-13.562,0-20.386,0c-0.299-0.693-0.609-1.334-0.857-1.998
			c-2.84-7.598-14.142-9.187-19.244-2.226c-0.729,0.995-1.396,2.103-1.796,3.26c-1.929,5.589-2.005,11.266-0.038,16.825
			c2.062,5.828,6.997,8.534,13.085,7.532c3.419-0.563,5.946-2.378,7.548-5.441c0.479-0.915,0.851-1.886,1.343-2.991
			c6.702,0,13.425,0,20.573,0c-0.358,1.488-0.602,2.778-0.979,4.027c-3.61,11.963-13.125,19.77-25.534,21.211
			c-5.151,0.598-10.207,0.346-15.17-1.021c-11.968-3.299-20.256-13.089-21.827-25.444c-0.663-5.216-0.568-10.372,0.579-15.505
			c3.012-13.475,13.33-22.384,27.928-23.562c4.576-0.369,9.161-0.195,13.623,1.15c11.665,3.517,18.557,11.378,21.144,23.158
			C839.327,639.902,839.273,640.211,839.273,640.645z"/>
		<path d="M289.384,640.613c-6.779,0-13.512,0-20.302,0c-0.22-0.461-0.479-0.913-0.659-1.395c-1.777-4.754-5.319-7.05-10.277-7.185
			c-5.023-0.137-8.666,2.28-10.602,6.786c-2.664,6.202-2.65,12.599,0.056,18.792c1.92,4.395,5.522,6.727,10.387,6.648
			c4.929-0.081,8.561-2.277,10.388-7.034c0.149-0.387,0.312-0.771,0.502-1.139c0.092-0.179,0.261-0.319,0.432-0.52
			c6.608,0,13.25,0,20,0c0,0.746,0.103,1.369-0.015,1.948c-2.461,12.016-12.327,21.302-24.543,23.145
			c-6.383,0.963-12.693,0.701-18.797-1.479c-10.475-3.74-16.755-11.305-19.236-21.991c-1.601-6.898-1.401-13.858,0.622-20.67
			c3.627-12.212,14.278-20.474,27.249-21.221c4.798-0.276,9.59-0.195,14.228,1.291c11.199,3.59,17.904,11.281,20.557,22.626
			C289.464,639.604,289.384,640.033,289.384,640.613z"/>
		<path d="M373.843,615.858c2.856,0,5.521,0,8.566,0c0-5.338,0-10.382,0-15.482c1.102-0.086,1.82-0.189,2.539-0.191
			c5.512-0.014,11.024-0.008,16.877-0.008c0.412,5.192-0.015,10.253,0.285,15.617c4.235,0,8.346,0,12.682,0
			c0,5.674,0,11.002,0,16.727c-4.242,0-8.345,0-12.658,0c0,8.993-0.133,17.598,0.074,26.194c0.07,2.913,1.968,4.401,4.98,4.606
			c2.469,0.168,4.959,0.034,7.661,0.034c0,5.702,0,11.044,0,16.595c-0.703,0.1-1.396,0.307-2.079,0.278
			c-4.772-0.205-9.631,0.039-14.292-0.801c-9.36-1.686-14.683-7.841-15.718-17.282c-0.249-2.269-0.364-4.562-0.382-6.846
			c-0.051-6.344-0.018-12.688-0.018-19.033c0-1.117,0-2.234,0-3.715c-2.983,0-5.636,0-8.516,0
			C373.843,626.845,373.843,621.503,373.843,615.858z"/>
		<path d="M958.79,632.492c-3.047,0-5.521,0-7.913,0c-0.812-2.366-0.979-12.522-0.271-16.557c2.565,0,5.214,0,8.237,0
			c0-5.418,0-10.461,0-15.624c6.616,0,12.841,0,19.422,0c0.404,5.057-0.026,10.117,0.275,15.479c4.23,0,8.34,0,12.679,0
			c0,5.672,0,10.999,0,16.723c-4.23,0-8.332,0-12.588,0c-0.082,1.289-0.189,2.198-0.191,3.107
			c-0.014,6.759-0.008,13.518-0.005,20.276c0,0.624-0.01,1.25,0.046,1.87c0.34,3.771,1.963,5.408,5.757,5.603
			c2.266,0.117,4.544,0.021,7.039,0.021c0,5.665,0,11.006,0,16.556c-0.696,0.101-1.388,0.313-2.07,0.283
			c-4.77-0.205-9.626,0.03-14.289-0.802c-9.318-1.663-14.659-7.836-15.708-17.286c-0.263-2.372-0.381-4.769-0.402-7.156
			c-0.055-6.238-0.019-12.478-0.019-18.716C958.79,635.152,958.79,634.035,958.79,632.492z"/>
		<path d="M850.429,616.092c6.268,0,12.563,0,19.038,0c0,21.33,0,42.496,0,63.981c-6.368,0.351-12.658,0.161-18.894,0.105
			C849.863,677.637,849.757,619.346,850.429,616.092z"/>
		<path d="M445.775,680.101c-6.513,0-12.716,0-18.885,0c-0.639-2.441-0.758-60.5-0.132-63.997c6.252,0,12.536,0,19.017,0
			C445.775,637.43,445.775,658.583,445.775,680.101z"/>
	</g>
	<g>
		<path d="M237.011,565.773c3.391-7.661,7.327-14.295,13.521-19.401c2.41-1.987,5.185-2.955,8.189-3.571
			c16.921-3.47,34.003-4.601,51.252-3.913c28.93,1.154,56.647,7.526,83.24,18.895c1.626,0.695,3.335,1.265,4.833,2.176
			c2.457,1.494,4.578,1.33,7.226,0.104c21.102-9.768,43.207-16.154,66.273-19.27c15.645-2.114,31.33-2.656,47.063-1.599
			c8.936,0.601,17.802,1.834,26.578,3.679c3.023,0.635,5.727,1.79,8.089,3.801c5.932,5.052,9.793,11.501,13.037,18.889
			c-0.755,0-1.201,0.058-1.628-0.008c-12.231-1.918-24.415-4.224-36.7-5.692c-19.875-2.375-39.847-3.242-59.878-2.439
			c-11.558,0.464-23.11,1.046-34.549,2.763c-9.974,1.497-19.878,3.458-29.821,5.165c-1.191,0.204-2.498,0.369-3.645,0.099
			c-14.011-3.299-28.211-5.32-42.532-6.649c-19.644-1.822-39.31-2.122-58.992-0.976c-20.083,1.17-40.004,3.687-59.725,7.705
			C238.45,565.613,238.045,565.64,237.011,565.773z"/>
		<path d="M370.729,483.508c-2.526-3.073-5.075-6.173-7.725-9.396c0.557-0.86,1.004-1.662,1.554-2.385
			c29.34-38.567,67.328-63.822,114.815-74.506c13.256-2.982,26.67-4.702,40.236-4.605c7.471,0.053,14.944,0.961,22.396,1.686
			c1.801,0.175,3.031-0.027,4.419-1.292c3.947-3.597,8.648-4.4,13.675-2.75c5.783,1.898,9.539,7.557,9.132,13.457
			c-0.43,6.237-4.643,11.079-10.854,12.474c-5.82,1.307-12.158-1.358-14.743-6.8c-1.193-2.511-2.785-3.188-5.212-3.485
			c-32.426-3.961-63.236,2.156-92.801,15.228c-29.661,13.115-53.273,33.74-72.469,59.634c-0.557,0.752-1.101,1.514-1.673,2.255
			C371.366,483.17,371.151,483.241,370.729,483.508z M555.492,396.529c-3.601,0.042-6.596,3.078-6.507,6.596
			c0.087,3.411,3.025,6.261,6.497,6.303c3.608,0.043,6.657-2.91,6.657-6.448C562.14,399.445,559.092,396.487,555.492,396.529z"/>
		<path d="M260.774,492.302c0.999-0.136,1.783-0.33,2.568-0.336c25.351-0.21,50.009,3.455,73.531,13.304
			c22.72,9.514,42.067,23.535,57.26,43.049c0.928,1.192,1.791,2.436,2.792,3.802c-0.539,0-0.777,0.076-0.904-0.011
			c-5.826-4.012-11.767-7.87-17.436-12.093c-22.459-16.726-46.884-29.315-74.299-35.726c-7.622-1.782-15.36-2.777-23.162-3.296
			c-1.101-0.073-2.21-0.01-3.721-0.01c4.492,11.714,9.589,22.684,15.977,33.204c-3.014,1.049-4.858,0.205-6.611-2.06
			c-9.451-12.211-17.589-25.277-25.498-38.5C261.075,493.3,260.995,492.903,260.774,492.302z"/>
		<path d="M542.85,492.127c-0.436,0.936-0.607,1.408-0.86,1.831c-7.338,12.228-14.858,24.337-23.472,35.728
			c-0.565,0.747-1.145,1.483-1.732,2.214c-2.362,2.94-2.364,2.938-6.583,2.487c2.877-5.48,5.829-10.812,8.503-16.28
			c2.679-5.476,5.036-11.106,7.481-17.38c-4.622,0.389-8.654,0.597-12.65,1.087c-24.057,2.95-46.073,11.685-66.901,23.73
			c-8.393,4.854-16.328,10.374-24.062,16.226c-4.965,3.757-10.319,7.001-15.912,10.23c0.586-0.839,1.145-1.697,1.76-2.513
			c12.308-16.326,27.773-28.919,45.799-38.427c16.923-8.926,34.972-14.331,53.884-17.056c10.232-1.474,20.509-2.017,30.828-2.048
			C540.07,491.953,541.206,492.052,542.85,492.127z"/>
		<path d="M563.871,544.756c5.615-8.337,10.318-16.776,14.283-25.61c3.507-7.815,6.167-15.875,6.667-24.525
			c1.012-17.5-4.77-32.214-17.866-44.003c-6.303-5.674-13.301-10.317-20.733-14.35c-1.237-0.671-2.855-1.184-1.837-3.239
			c0.283,0.017,0.608-0.039,0.871,0.064c9.927,3.876,19.388,8.585,27.746,15.313c11.586,9.327,18.071,21.484,20.316,36.062
			c2.369,15.384-0.594,29.989-6.424,44.163c-3.776,9.179-8.789,17.672-14.687,25.648c-0.364,0.492-0.772,0.952-1.455,1.79
			c-1.244-1.99-2.383-3.772-3.482-5.58C566.141,548.633,565.052,546.752,563.871,544.756z"/>
	</g>
</g>
</svg>
