<?xml version="1.0" encoding="iso-8859-1"?>
<!-- Generator: Adobe Illustrator 26.0.1, SVG Export Plug-In . SVG Version: 6.00 Build 0)  -->
<svg version="1.1" id="Layer_1" xmlns="http://www.w3.org/2000/svg" xmlns:xlink="http://www.w3.org/1999/xlink" x="0px" y="0px"
	 viewBox="0 0 1080 330" style="enable-background:new 0 0 1080 330;" xml:space="preserve">
<g>
	<path style="fill:#474747;" d="M301.748,86.567c-0.281,12.861-0.468,25.716-0.468,38.577c0,13.51,0.187,17.799,0.655,26.371
		l-0.561,0.561c-7.735,0-9.596,0-16.583,0.276l-0.468-0.556c0.374-9.69,0.556-15.377,0.556-26.371
		c0-23.762-0.275-28.513-0.837-38.577l0.374-0.561c6.706,0.093,8.853,0.093,16.863-0.276L301.748,86.567"/>
	<path style="fill:#474747;" d="M358.498,140.146l-0.65,11.369l-0.749,0.556h-40.999l-0.468-0.369
		c0.281-9.783,0.468-15.657,0.468-27.395c0-24.973-0.187-28.419-0.743-37.459l0.556-0.561h40.906l0.468,0.374l-0.655,10.807
		l-0.463,0.561c-11.275-0.281-13.417-0.281-23.949-0.281v14.815l22.55-0.374l0.463,0.561l-0.556,10.527l-0.655,0.561h-21.802
		l0.187,16.307c11.925,0,14.534-0.094,25.534-0.655L358.498,140.146"/>
	<path style="fill:#474747;" d="M410.866,140.146l-0.65,11.369l-0.749,0.556h-40.999l-0.468-0.369
		c0.281-9.783,0.468-15.657,0.468-27.395c0-24.973-0.187-28.419-0.743-37.459l0.556-0.561h40.906l0.468,0.374L409,97.468
		l-0.463,0.561c-11.275-0.281-13.417-0.281-23.949-0.281v14.815l22.55-0.374l0.463,0.561l-0.556,10.527l-0.655,0.561h-21.802
		l0.187,16.307c11.925,0,14.534-0.094,25.534-0.655L410.866,140.146"/>
	<path style="fill:#474747;" d="M463.239,140.146l-0.65,11.369l-0.749,0.556h-40.999l-0.463-0.369
		c0.276-9.783,0.463-15.657,0.463-27.395c0-24.973-0.187-28.419-0.743-37.459l0.556-0.561h40.906l0.468,0.374l-0.65,10.807
		l-0.468,0.561c-11.275-0.281-13.417-0.281-23.949-0.281v14.815l22.55-0.374l0.463,0.561l-0.556,10.527l-0.655,0.561h-21.802
		l0.187,16.307c11.925,0,14.534-0.094,25.534-0.655L463.239,140.146"/>
	<path style="fill:#474747;" d="M327.376,223.688l-0.65,11.369l-0.749,0.556h-40.999l-0.468-0.369
		c0.281-9.783,0.468-15.657,0.468-27.395c0-24.973-0.187-28.419-0.743-37.459l0.556-0.561h40.906l0.468,0.374l-0.65,10.807
		l-0.468,0.561c-11.275-0.281-13.422-0.281-23.949-0.281v14.815l22.55-0.374l0.463,0.561l-0.556,10.532l-0.655,0.556h-21.802
		l0.187,16.307c11.925,0,14.534-0.094,25.529-0.65L327.376,223.688"/>
	<path style="fill:#474747;" d="M381.423,235.525c-7.454,0-9.04,0.094-15.189,0.281l-0.561-0.561c0-3.166,0.099-6.43,0.099-9.596
		c0-3.54-0.099-16.307-0.281-19.385c-0.281-3.353-0.749-8.848-5.869-8.848c-2.984,0-5.224,1.58-7.179,2.885
		c0.094,16.681,0.187,20.315,0.743,34.668l-0.556,0.556c-7.454,0-8.853,0-15.564,0.281l-0.556-0.561
		c0.094-5.962,0.187-11.925,0.187-17.887c0-15.189-0.561-21.064-1.305-29.168l0.556-0.655c6.992-0.931,8.577-1.211,15.751-2.698
		l0.931,0.65l-0.187,5.126c4.289-2.516,9.227-5.5,14.909-5.5c3.358,0,8.666,0.749,11.556,5.593c2.329,3.821,2.422,8.109,2.516,17.05
		v7.267c0.187,9.133,0.187,11.743,0.65,19.946L381.423,235.525"/>
	<path style="fill:#474747;" d="M419.532,225.274l-0.931,9.596l-0.655,0.655c-3.259,0.556-6.144,1.118-9.783,1.118
		c-14.535,0-14.722-9.227-14.722-17.799c0-2.422,0.094-4.751,0.187-7.08l0.281-14.815l-5.874,0.187l-0.556-0.561l0.837-9.97
		l0.561-0.468l5.032,0.187l-0.094-11.644l0.374-0.655c6.612-1.679,8.291-2.142,14.628-4.008l0.65,0.561l-0.281,15.652h9.321
		l0.556,0.561l-0.931,9.97l-0.556,0.556l-8.39-0.369l-0.182,13.136c-0.094,3.727-0.094,8.853,0.182,11.275
		c0.187,1.398,0.561,4.382,5.313,4.382c1.585,0,2.703-0.374,4.289-0.842L419.532,225.274"/>
	<path style="fill:#474747;" d="M451.777,201.418c-1.305-0.743-2.235-1.305-3.821-1.305c-6.337,0-6.337,6.15-6.337,10.345
		c0,6.43,0.561,16.957,0.93,24.505l-0.463,0.65c-7.454-0.088-8.946,0-15.839,0.281l-0.561-0.556
		c0.187-7.735,0.281-15.377,0.281-23.018c0-12.949-0.281-17.144-0.837-24.131l0.556-0.561c6.805-1.024,8.572-1.305,15.465-2.797
		l0.749,0.749l-0.281,8.572c2.984-6.898,7.272-9.04,11.088-9.04c0.655,0,1.305,0.094,1.96,0.094l0.556,0.65l-2.61,15.189
		L451.777,201.418"/>
	<path style="fill:#474747;" d="M502.653,222.108l-0.65,10.532l-0.561,0.743c-4.938,1.955-8.291,3.353-16.026,3.353
		c-6.711,0-19.379-1.118-24.786-13.698c-1.492-3.259-2.235-7.824-2.235-12.206c0-16.12,9.69-25.716,24.318-25.716
		c2.142,0,4.289,0.187,6.617,0.837c3.166,0.743,10.345,2.984,13.604,13.978c1.305,4.658,1.398,9.315,1.492,13.885l-0.561,0.65
		l-30.098,0.561c0.374,1.861,0.655,3.727,2.053,5.682c2.235,3.353,6.056,5.126,11.644,5.126c6.805,0,11-2.142,14.54-4.003
		L502.653,222.108 M489.329,204.777c0-2.142-0.094-4.382-1.398-6.43c-1.024-1.674-2.89-3.259-5.962-3.259
		c-1.305,0-2.61,0.281-3.727,1.024c-3.54,2.235-4.195,6.15-4.476,9.04L489.329,204.777z"/>
	<path style="fill:#474747;" d="M528.28,189.494c2.609-1.773,6.248-4.382,12.673-4.382c10.438,0,19.473,8.946,19.473,23.762
		c0,6.337-1.955,14.259-7.917,19.847c-7.548,7.085-16.962,7.179-23.761,7.272l0.655,22.176l-0.561,0.463
		c-7.08-0.094-9.04,0-15.657,0.281l-0.556-0.463c0.281-10.532,0.463-16.868,0.463-27.956c0-26.834-0.369-31.122-1.393-42.21
		l0.556-0.655c6.711-0.837,8.666-1.211,15.47-2.698l0.743,0.837L528.28,189.494 M528.655,225.648
		c3.265-0.094,6.992-0.281,9.97-2.329c3.727-2.615,5.5-7.454,5.5-12.861c0-3.166-0.468-7.922-3.358-11.088
		c-2.329-2.61-5.12-2.797-6.519-2.797c-2.329,0-3.545,0.655-5.593,1.866V225.648z"/>
	<path style="fill:#474747;" d="M595.375,201.418c-1.305-0.743-2.235-1.305-3.821-1.305c-6.337,0-6.337,6.15-6.337,10.345
		c0,6.43,0.561,16.957,0.931,24.505l-0.463,0.65c-7.454-0.088-8.946,0-15.844,0.281l-0.556-0.556
		c0.187-7.735,0.281-15.377,0.281-23.018c0-12.949-0.281-17.144-0.842-24.131l0.561-0.561c6.805-1.024,8.572-1.305,15.465-2.797
		l0.749,0.749l-0.281,8.572c2.984-6.898,7.267-9.04,11.088-9.04c0.655,0,1.305,0.094,1.96,0.094l0.556,0.65l-2.61,15.189
		L595.375,201.418"/>
	<path style="fill:#474747;" d="M646.251,222.108l-0.65,10.532l-0.561,0.743c-4.938,1.955-8.291,3.353-16.026,3.353
		c-6.711,0-19.379-1.118-24.786-13.698c-1.492-3.259-2.235-7.824-2.235-12.206c0-16.12,9.69-25.716,24.318-25.716
		c2.142,0,4.289,0.187,6.617,0.837c3.166,0.743,10.339,2.984,13.604,13.978c1.305,4.658,1.398,9.315,1.492,13.885l-0.561,0.65
		l-30.098,0.561c0.374,1.861,0.655,3.727,2.053,5.682c2.235,3.353,6.056,5.126,11.644,5.126c6.805,0,10.994-2.142,14.54-4.003
		L646.251,222.108 M632.928,204.777c0-2.142-0.094-4.382-1.398-6.43c-1.024-1.674-2.89-3.259-5.963-3.259
		c-1.305,0-2.61,0.281-3.727,1.024c-3.545,2.235-4.195,6.15-4.476,9.04L632.928,204.777z"/>
	<path style="fill:#474747;" d="M701.603,235.525c-7.454,0-9.04,0.094-15.189,0.281l-0.561-0.561c0-3.166,0.099-6.43,0.099-9.596
		c0-3.54-0.099-16.307-0.281-19.385c-0.281-3.353-0.749-8.848-5.874-8.848c-2.979,0-5.219,1.58-7.174,2.885
		c0.094,16.681,0.187,20.315,0.743,34.668l-0.556,0.556c-7.454,0-8.853,0-15.564,0.281l-0.556-0.561
		c0.094-5.962,0.187-11.925,0.187-17.887c0-15.189-0.561-21.064-1.305-29.168l0.556-0.655c6.992-0.931,8.577-1.211,15.751-2.698
		l0.93,0.65l-0.187,5.126c4.289-2.516,9.227-5.5,14.909-5.5c3.353,0,8.666,0.749,11.556,5.593c2.329,3.821,2.422,8.109,2.516,17.05
		v7.267c0.187,9.133,0.187,11.743,0.65,19.946L701.603,235.525"/>
	<path style="fill:#474747;" d="M754.901,222.108l-0.65,10.532l-0.561,0.743c-4.938,1.955-8.291,3.353-16.026,3.353
		c-6.706,0-19.379-1.118-24.786-13.698c-1.492-3.259-2.235-7.824-2.235-12.206c0-16.12,9.69-25.716,24.323-25.716
		c2.142,0,4.283,0.187,6.612,0.837c3.166,0.743,10.345,2.984,13.604,13.978c1.305,4.658,1.398,9.315,1.492,13.885l-0.561,0.65
		l-30.093,0.561c0.369,1.861,0.65,3.727,2.048,5.682c2.235,3.353,6.056,5.126,11.644,5.126c6.805,0,11-2.142,14.54-4.003
		L754.901,222.108 M741.578,204.777c0-2.142-0.094-4.382-1.398-6.43c-1.024-1.674-2.885-3.259-5.962-3.259
		c-1.305,0-2.61,0.281-3.727,1.024c-3.54,2.235-4.195,6.15-4.471,9.04L741.578,204.777z"/>
	<path style="fill:#474747;" d="M810.627,186.51c-0.187,8.759-0.281,17.518-0.281,26.277c0,12.112,0.187,15.652,0.655,22.27
		l-0.561,0.556c-6.056,0-8.104,0-14.909,0.281l-0.65-0.556l0.094-4.195c-3.358,2.61-7.179,5.588-13.791,5.588
		c-4.658,0-9.133-1.487-12.206-4.933c-3.358-3.914-3.826-8.203-3.727-18.361v-6.519c0-9.414-0.099-12.024-0.655-19.852l0.655-0.556
		l15.371-0.743l0.655,0.743l-0.187,18.823c-0.094,2.329-0.094,4.751-0.094,7.08c0,5.5,0,12.58,6.706,12.58
		c2.516,0,4.476-1.398,6.992-3.077c0.094-3.722,0.094-5.214,0.094-7.917c0-1.492,0-16.401-0.655-26.932l0.655-0.556l15.19-0.743
		L810.627,186.51"/>
	<path style="fill:#474747;" d="M847.623,201.418c-1.305-0.743-2.235-1.305-3.821-1.305c-6.337,0-6.337,6.15-6.337,10.345
		c0,6.43,0.561,16.957,0.931,24.505l-0.463,0.65c-7.454-0.088-8.946,0-15.839,0.281l-0.561-0.556
		c0.187-7.735,0.281-15.377,0.281-23.018c0-12.949-0.281-17.144-0.837-24.131l0.556-0.561c6.805-1.024,8.572-1.305,15.465-2.797
		l0.749,0.749l-0.281,8.572c2.984-6.898,7.272-9.04,11.088-9.04c0.655,0,1.305,0.094,1.96,0.094l0.556,0.65l-2.61,15.189
		L847.623,201.418"/>
	<path style="fill:#474747;" d="M880.612,205.146c5.125,1.955,12.299,4.658,12.299,14.909c0,0.65,0,1.305-0.094,2.053
		c-1.674,13.323-15.652,14.623-22.737,14.623c-6.799,0-10.714-1.487-15.278-3.166l-0.468-0.837c0.374-4.658,0.468-5.687,0.65-10.532
		l0.842-0.369c1.398,1.118,2.142,1.767,3.727,2.609c3.446,1.767,7.267,2.604,9.877,2.604c5.219,0,7.361-2.516,7.361-4.845
		c0-3.353-4.101-4.751-6.617-5.588l-3.54-1.305c-4.377-1.679-12.112-4.658-12.112-14.628c0-3.727,1.305-6.524,2.516-8.203
		c4.845-6.987,13.978-7.361,18.542-7.361c6.056,0,9.877,1.118,14.259,2.329l0.463,0.561l-0.93,10.158l-0.837,0.281
		c-2.329-1.492-5.968-3.914-11.649-3.914c-5.781,0-6.524,3.072-6.524,4.19c0,2.61,2.516,3.634,5.687,4.757L880.612,205.146"/>
	<path style="fill:#474747;" d="M946.209,235.525c-7.174,0-8.666,0-15.377,0.374l-0.463-0.655c0-3.077,0.094-6.056,0.094-9.128
		c0-3.452-0.094-16.681-0.281-19.572c-0.374-3.727-0.743-9.035-5.869-9.035c-3.171,0-5.406,1.58-7.179,2.791
		c0.094,16.494,0.187,20.689,0.842,34.668l-0.561,0.556c-7.548,0-8.946,0-15.839,0.374l-0.468-0.655
		c0.187-9.128,0.374-14.628,0.374-23.855c0-7.548-0.094-15.096-0.281-22.639c-0.187-12.024-0.374-15.377-1.211-24.417l0.468-0.561
		l15.933-2.516l0.561,0.655l-0.281,28.7c3.727-2.235,9.04-5.5,15.839-5.5c4.101,0,8.016,1.211,10.714,5.032
		c2.703,3.914,2.797,9.04,2.89,17.893v6.987c0.187,9.695,0.281,12.304,0.655,19.946L946.209,235.525"/>
	<path style="fill:#474747;" d="M973.61,235.618c-7.548-0.093-9.414,0-16.12,0.281l-0.561-0.655
		c0.281-7.642,0.561-13.328,0.561-23.481c0-13.235-0.281-16.494-1.024-23.574l0.556-0.561l16.032-2.797l0.65,0.749
		c-0.094,7.917-0.281,15.933-0.281,23.855c0,12.861,0.374,18.355,0.842,25.529L973.61,235.618 M972.305,176.539
		c-6.617,0.837-8.385,1.024-14.722,2.142l-0.655-0.556c0.094-1.773,0.094-3.634,0.094-5.406c0-2.235-0.094-4.195-0.275-7.548
		l0.556-0.65l15.189-1.866l0.561,0.561l-0.281,12.673L972.305,176.539z"/>
	<path style="fill:#474747;" d="M999.882,189.494c2.61-1.773,6.243-4.382,12.674-4.382c10.438,0,19.478,8.946,19.478,23.762
		c0,6.337-1.96,14.259-7.922,19.847c-7.548,7.085-16.962,7.179-23.761,7.272l0.655,22.176l-0.561,0.463
		c-7.08-0.094-9.04,0-15.657,0.281l-0.556-0.463c0.281-10.532,0.463-16.868,0.463-27.956c0-26.834-0.369-31.122-1.393-42.21
		l0.556-0.655c6.711-0.837,8.666-1.211,15.47-2.698l0.743,0.837L999.882,189.494 M1000.256,225.648
		c3.265-0.094,6.987-0.281,9.97-2.329c3.727-2.615,5.5-7.454,5.5-12.861c0-3.166-0.468-7.922-3.358-11.088
		c-2.329-2.61-5.126-2.797-6.519-2.797c-2.329,0-3.545,0.655-5.593,1.866V225.648z"/>
	<polyline style="fill:#474747;" points="45.809,219.446 174.213,196.797 233.011,149.883 208.392,223.205 233.744,305 
		168.006,233.492 45.809,219.446 	"/>
	<polyline style="fill:#D0D1D2;" points="149.157,226.23 126.373,132.77 138.464,77.922 100.313,118.583 42.633,128.574 
		105.527,149.025 149.157,226.23 	"/>
	<polyline style="fill:#808083;" points="171.51,215.407 212.602,93.813 268.822,42.272 190.343,57.773 110.154,24 174.176,95.659 
		171.51,215.407 	"/>
</g>
</svg>
