<?xml version="1.0" encoding="iso-8859-1"?>
<!-- Generator: Adobe Illustrator 26.0.1, SVG Export Plug-In . SVG Version: 6.00 Build 0)  -->
<svg version="1.1" id="Layer_1" xmlns="http://www.w3.org/2000/svg" xmlns:xlink="http://www.w3.org/1999/xlink" x="0px" y="0px"
	 viewBox="0 0 348.671 198" style="enable-background:new 0 0 348.671 198;" xml:space="preserve">
<g>
	<g>
		<path style="fill:#727272;" d="M25.105,145.07c-1.359,0-2.309,0.033-3.634,0.066l-0.204-0.205
			c-0.102-1.561-0.137-2.68-0.273-4.247l-0.237-2.95c-0.848-0.034-2.512-0.034-3.363-0.034H15.56c-0.916,0-1.798,0-3.259,0.034
			l-1.323,2.545c-0.816,1.561-1.359,2.684-2.139,4.248l-0.137,0.303l-0.272,0.205c-1.288,0-2.206,0-3.53,0.034l-0.137-0.308
			c0.612-1.15,9.78-17.386,12.972-23.567l0.273-0.133c1.765-0.037,3.463-0.1,4.753-0.1l0.205,0.163
			c0.136,2.856,1.392,15.725,2.342,23.739L25.105,145.07z M19.773,123.404l-6.08,11.548c0.85,0.061,1.562,0.061,2.308,0.061h2.311
			c0.883,0,1.494,0,2.342-0.061L19.773,123.404z"/>
	</g>
	<g>
		<path style="fill:#727272;" d="M41.849,145.001c-1.188,0-2.001,0.034-3.192,0.102l-0.135-0.239l0.271-1.288
			c-1.085,0.778-2.512,1.728-4.889,1.728c-4.075,0-6.418-3.053-6.418-6.789c0-1.87,0.645-4.312,1.799-6.18
			c2.853-4.514,7.335-5.098,10.765-5.098c0.85,0,1.46,0.034,2.308,0.105c1.189-5.534,1.427-6.72,1.666-8.42l0.27-0.237
			c1.36-0.203,2.276-0.375,3.634-0.614l0.17,0.205c-1.528,5.741-5.128,21.6-5.976,26.52L41.849,145.001z M41.747,129.957
			c-0.272-0.069-0.848-0.103-1.562-0.103c-4.618,0-6.892,2.008-8.115,4.583c-0.237,0.516-0.849,2.008-0.849,3.634
			c0,2.512,1.392,4.519,4.211,4.519c0.816,0,2.988-0.611,3.871-1.698L41.747,129.957z"/>
		<path style="fill:#727272;" d="M54.277,145.035c-1.46,0.034-2.478,0.067-3.939,0.138l-0.305-0.209
			c-0.237-3.156-1.528-13.58-1.97-17.211l0.205-0.239c1.291,0,2.205-0.069,3.462-0.172l0.239,0.203
			c0.136,1.936,0.204,3.297,0.374,5.231l0.814,9.475c5.737-11.139,6.486-12.564,7.505-14.67l0.305-0.136h1.291
			c0.679,0,1.154,0,1.834-0.033l0.169,0.237c-1.019,1.761-2.306,3.869-3.362,5.773l-2.852,5.124
			c-1.222,2.175-2.309,4.08-3.465,6.317L54.277,145.035z"/>
		<path style="fill:#727272;" d="M77.541,145.07h-0.883c-0.851,0-1.461,0.033-2.31,0.066l-0.17-0.205l0.237-1.355
			c-1.595,1.288-3.292,1.697-4.958,1.697c-4.006,0-6.281-2.991-6.281-6.624c0-2.511,1.085-4.855,1.597-5.741
			c2.82-4.956,7.844-5.533,11.409-5.533c1.596,0,5.059,0.069,5.059,0.069l0.171,0.237c-2.752,11.984-3.192,13.919-3.634,17.181
			L77.541,145.07z M70.986,142.626c1.052,0,2.749-0.481,3.941-1.702c0.848-3.463,1.527-7.028,2.443-10.934
			c-0.407,0-0.916-0.066-1.459-0.066c-3.259,0-6.553,1.016-8.252,5.056c-0.203,0.477-0.746,1.838-0.746,3.431
			C66.912,140.826,68.339,142.626,70.986,142.626z"/>
		<path style="fill:#727272;" d="M97.169,145.07c-1.291,0-2.173,0.033-3.464,0.103l-0.136-0.242
			c0.476-2.273,0.952-3.802,1.427-6.041l0.813-3.877c0.103-0.506,0.374-1.591,0.374-2.511c0-2.512-2.207-2.614-2.886-2.614
			c-2.073,0-3.701,1.224-4.482,1.802c-0.952,4.38-1.937,8.763-2.753,13.173l-0.236,0.206c-1.292,0-2.173,0.033-3.465,0.103
			l-0.168-0.242c1.119-4.478,3.259-13.922,3.565-16.978l0.238-0.236c1.323-0.172,2.274-0.341,3.6-0.611l0.17,0.236l-0.476,1.734
			c2.477-1.9,4.924-2.073,5.705-2.073c1.017,0,4.923,0.173,4.923,4.516c0,1.12-0.441,3.397-1.121,6.553l-0.509,2.412
			c-0.339,1.633-0.646,2.747-0.849,4.38L97.169,145.07z"/>
		<path style="fill:#727272;" d="M114.454,144.527c-1.189,0.678-3.194,0.948-4.381,0.948c-4.38,0-7.402-3.295-7.402-7.606
			c0-2.822,1.224-7.198,4.959-9.475c1.97-1.188,4.041-1.361,4.958-1.361c2.378,0,4.245,0.58,5.262,1.361l0.102,0.239
			c-0.373,0.983-0.577,1.694-0.848,2.683l-0.34,0.1c-0.542-0.916-2.037-1.698-3.837-1.698c-4.246,0-6.555,4.484-6.555,7.878
			c0,3.972,3.09,5.131,4.722,5.131c0.576,0,2.342-0.07,4.141-1.633l0.271,0.134c-0.373,1.124-0.577,1.902-0.848,3.059
			L114.454,144.527z"/>
		<path style="fill:#727272;" d="M120.874,145.035c-1.324,0-2.275,0.034-3.599,0.1l-0.171-0.205
			c1.086-3.936,3.498-15.142,3.666-16.978l0.24-0.236c1.392-0.172,2.343-0.305,3.702-0.541l0.169,0.236
			c-0.169-0.036-2.988,12.901-3.769,17.452L120.874,145.035z M125.728,122.654c-1.324,0.172-2.24,0.273-3.565,0.48l-0.202-0.275
			c0.27-1.155,0.475-1.967,0.711-3.124l0.307-0.236c1.323-0.17,2.241-0.272,3.53-0.478l0.273,0.238
			c-0.305,1.123-0.509,1.973-0.78,3.125L125.728,122.654z"/>
		<path style="fill:#727272;" d="M140.503,145.07c-1.291,0-2.173,0.033-3.462,0.103l-0.137-0.242
			c0.476-2.273,0.952-3.802,1.427-6.041l0.816-3.877c0.1-0.506,0.372-1.591,0.372-2.511c0-2.512-2.208-2.614-2.885-2.614
			c-2.072,0-3.702,1.224-4.483,1.802c-0.951,4.38-1.936,8.763-2.752,13.173l-0.237,0.206c-1.291,0-2.173,0.033-3.466,0.103
			l-0.168-0.242c1.12-4.478,3.259-13.922,3.565-16.978l0.238-0.236c1.324-0.172,2.276-0.341,3.601-0.611l0.169,0.236l-0.476,1.734
			c2.48-1.9,4.923-2.073,5.705-2.073c1.017,0,4.924,0.173,4.924,4.516c0,1.12-0.442,3.397-1.123,6.553l-0.508,2.412
			c-0.338,1.633-0.644,2.747-0.848,4.38L140.503,145.07z"/>
		<path style="fill:#727272;" d="M164.207,127.613c-0.95,3.838-1.801,7.339-2.616,11.17l-0.949,4.484
			c-1.19,5.638-2.173,10.389-9.611,10.389c-2.036,0-5.092-0.473-6.995-2.544v-0.275c0.51-0.78,0.849-1.355,1.359-2.17h0.27
			c0.919,1.189,2.616,2.412,5.128,2.412c5.062,0,5.468-4.688,5.842-5.845l0.338-1.388c-2.24,1.558-4.244,1.595-4.99,1.595
			c-4.009,0-6.112-3.056-6.112-6.589c0-0.847,0.134-3.734,1.935-6.519c3.193-4.923,8.287-4.923,12.191-4.923
			c1.698,0,4.073-0.07,4.073-0.07L164.207,127.613z M160.03,130.056c0,0-1.018-0.03-1.326-0.03c-3.056,0-6.35,0.542-8.218,4.512
			c-0.814,1.77-0.916,3.161-0.916,3.908c0,3.533,2.275,4.345,3.972,4.345c1.869,0,3.227-0.952,3.976-1.663L160.03,130.056z"/>
		<path style="fill:#727272;" d="M182.986,145.07c-1.325,0-2.241,0.033-3.6,0.066l-0.169-0.205
			c0.816-3.33,4.619-19.116,4.925-21.019c-3.737,0.034-5.366,0.103-6.962,0.136l-0.172-0.206c0.306-0.983,0.512-1.658,0.75-2.647
			l0.272-0.17c1.559,0.037,4.041,0.07,6.078,0.07c1.969,0,8.928-0.033,10.969-0.1l0.172,0.2c-0.275,0.884-0.481,1.664-0.753,2.647
			l-0.234,0.173c-1.362-0.103-3.362-0.103-6.35-0.137c-0.678,2.312-0.95,4.006-1.497,6.386l-1.728,7.744
			c-0.509,2.306-0.988,4.481-1.428,6.856L182.986,145.07z"/>
	</g>
	<g>
		<path style="fill:#727272;" d="M203.611,144.118c-1.156,0.676-2.922,1.358-5.534,1.358c-5.809,0-7.881-3.461-7.881-7.372
			c0-5.941,3.634-11.07,9.509-11.07c4.006,0,6.856,1.834,6.856,6.356c0,1.388-0.3,2.576-0.409,3.091l-0.231,0.164
			c-1.769,0-4.997-0.033-7.947-0.033c-1.531,0-2.65,0-4.178,0.069c-0.034,0.203-0.1,0.812-0.1,1.461
			c0,4.448,3.869,4.548,5.094,4.548c2.819,0,4.275-1.089,5.603-2.037l0.269,0.173c-0.372,1.119-0.612,1.901-0.881,3.053
			L203.611,144.118z M203.171,134.237c0.131-0.784,0.169-1.122,0.169-1.492c-0.069-3.091-2.616-3.334-3.497-3.334
			c-3.909,0-5.231,3.603-5.603,4.859C194.24,134.27,200.996,134.237,203.171,134.237z"/>
		<path style="fill:#727272;" d="M220.149,144.527c-1.188,0.678-3.191,0.948-4.378,0.948c-4.381,0-7.403-3.295-7.403-7.606
			c0-2.822,1.222-7.198,4.956-9.475c1.972-1.188,4.037-1.361,4.959-1.361c2.375,0,4.241,0.58,5.259,1.361l0.106,0.239
			c-0.375,0.983-0.578,1.694-0.85,2.683l-0.338,0.1c-0.547-0.916-2.041-1.698-3.837-1.698c-4.247,0-6.556,4.484-6.556,7.878
			c0,3.972,3.091,5.131,4.722,5.131c0.572,0,2.338-0.07,4.138-1.633l0.275,0.134c-0.372,1.124-0.578,1.902-0.847,3.059
			L220.149,144.527z"/>
		<path style="fill:#727272;" d="M237.874,145.07c-1.287,0-2.203,0.033-3.462,0.066l-0.172-0.205
			c0.306-1.224,0.678-2.68,0.953-3.903l0.981-4.28c0.203-0.916,0.781-3.531,0.781-4.447c0-2.376-2.103-2.476-2.716-2.476
			c-2.103,0-4.109,1.392-4.684,1.897l-1.359,6.048c-0.544,2.375-0.95,4.652-1.428,7.061l-0.237,0.205
			c-1.253,0-2.169,0.034-3.428,0.067l-0.2-0.202c0.472-2.173,5.125-20.92,5.638-26.016l0.269-0.202
			c1.356-0.203,2.341-0.341,3.703-0.614l0.166,0.239c-0.953,3.567-1.697,7.131-2.584,10.731c1.056-0.714,3.062-2.006,5.881-2.006
			c0.878,0,4.684,0.203,4.684,4.283c0,1.494-0.338,3.055-0.612,4.28l-0.916,4.106c-0.372,1.697-0.712,3.464-1.019,5.161
			L237.874,145.07z"/>
		<path style="fill:#727272;" d="M257.505,145.07c-1.288,0-2.175,0.033-3.463,0.103l-0.137-0.242
			c0.475-2.273,0.95-3.802,1.425-6.041l0.816-3.877c0.103-0.506,0.375-1.591,0.375-2.511c0-2.512-2.209-2.614-2.887-2.614
			c-2.069,0-3.7,1.224-4.484,1.802c-0.95,4.38-1.934,8.763-2.747,13.173l-0.241,0.206c-1.288,0-2.169,0.033-3.459,0.103
			l-0.169-0.242c1.119-4.478,3.253-13.922,3.559-16.978l0.237-0.236c1.325-0.172,2.278-0.341,3.603-0.611l0.169,0.236l-0.475,1.734
			c2.481-1.9,4.922-2.073,5.703-2.073c1.016,0,4.928,0.173,4.928,4.516c0,1.12-0.441,3.397-1.125,6.553l-0.506,2.412
			c-0.341,1.633-0.647,2.747-0.85,4.38L257.505,145.07z"/>
		<path style="fill:#727272;" d="M272.38,127.034c4.209,0,7.266,2.144,7.266,6.661c0,3.564-1.631,11.781-9.647,11.781
			c-2.138,0-7.063-0.512-7.063-6.791C262.936,133.182,265.93,127.034,272.38,127.034z M270.068,142.963
			c5.131,0,5.981-8.288,5.981-9.441c0-3.294-2.006-4.008-3.534-4.008c-4.684,0-5.975,6.966-5.975,9.408
			C266.54,141.095,267.558,142.963,270.068,142.963z"/>
		<path style="fill:#727272;" d="M284.877,145.07c-1.256,0.033-2.172,0.033-3.459,0.103l-0.137-0.209
			c0.506-2.748,4.14-17.622,5.331-26.078l0.237-0.239c1.391-0.2,2.347-0.372,3.738-0.642l0.166,0.205
			c-1.697,7.336-5.128,23.531-5.6,26.655L284.877,145.07z"/>
		<path style="fill:#727272;" d="M299.614,127.034c4.213,0,7.269,2.144,7.269,6.661c0,3.564-1.631,11.781-9.647,11.781
			c-2.141,0-7.063-0.512-7.063-6.791C290.174,133.182,293.164,127.034,299.614,127.034z M297.305,142.963
			c5.131,0,5.978-8.288,5.978-9.441c0-3.294-2.006-4.008-3.534-4.008c-4.684,0-5.972,6.966-5.972,9.408
			C293.777,141.095,294.793,142.963,297.305,142.963z"/>
		<path style="fill:#727272;" d="M327.358,127.613c-0.95,3.838-1.797,7.339-2.612,11.17l-0.947,4.484
			c-1.191,5.639-2.175,10.389-9.612,10.389c-2.038,0-5.091-0.473-6.997-2.544v-0.275c0.512-0.78,0.85-1.355,1.359-2.17h0.272
			c0.919,1.189,2.613,2.412,5.125,2.412c5.059,0,5.472-4.688,5.844-5.845l0.338-1.388c-2.238,1.558-4.247,1.595-4.988,1.595
			c-4.009,0-6.116-3.056-6.116-6.589c0-0.847,0.137-3.734,1.934-6.519c3.194-4.923,8.288-4.923,12.191-4.923
			c1.697,0,4.075-0.07,4.075-0.07L327.358,127.613z M323.183,130.056c0,0-1.019-0.03-1.322-0.03c-3.056,0-6.353,0.542-8.219,4.512
			c-0.819,1.77-0.919,3.161-0.919,3.908c0,3.533,2.275,4.345,3.978,4.345c1.863,0,3.222-0.952,3.969-1.663L323.183,130.056z"/>
		<path style="fill:#727272;" d="M345.768,127.649c-4.078,6.588-13.616,22.581-14.909,25.467l-0.269,0.202h-1.531
			c-0.678,0-1.322,0-2.003,0.036l-0.1-0.237c0.984-1.494,4.347-6.691,5.163-8.186c-1.297-8.45-2.547-16.839-2.719-17.248
			l0.237-0.237c1.294,0,2.206-0.069,3.531-0.173l0.272,0.173c0.172,1.87,0.275,3.189,0.509,5.027l0.981,8.012l3.303-5.839
			c1.284-2.273,2.575-4.589,3.797-7.031l0.272-0.201c0.372,0.033,0.747,0.033,1.122,0.033c0.812,0,1.394-0.033,2.175-0.069
			L345.768,127.649z"/>
	</g>
	<g>
		<path style="fill:#727272;" d="M131.16,186.829c-1.292,0.036-2.173,0.069-3.429,0.137l-0.17-0.206
			c1.188-5.534,0.509-2.275,3.294-14.976c-0.645,0-1.631,0.034-2.583,0.034l-0.202-0.203c0.237-0.848,0.409-1.425,0.612-2.275
			l0.271-0.239c0.882,0.069,1.527,0.103,2.408,0.103l0.51-2.445c0.749-3.634,1.393-6.691,6.145-6.691
			c1.191,0,1.973,0.208,2.481,0.306l0.169,0.272c-0.237,0.852-0.407,1.462-0.612,2.306l-0.27,0.208
			c-0.238-0.036-0.713-0.237-1.324-0.237c-2.14,0-2.479,1.392-3.091,4.108l-0.474,2.173h0.577c0.987,0,1.664,0,2.649-0.034
			l0.17,0.273c-0.239,0.677-0.408,1.359-0.644,2.172l-0.272,0.238c-1.088-0.034-1.868-0.069-2.989-0.069
			c-1.086,5.402-2.208,9.545-2.989,14.842L131.16,186.829z"/>
		<path style="fill:#727272;" d="M146.982,168.798c4.211,0,7.269,2.137,7.269,6.655c0,3.566-1.63,11.784-9.644,11.784
			c-2.138,0-7.064-0.511-7.064-6.791C137.542,174.94,140.532,168.798,146.982,168.798z M144.675,184.723
			c5.126,0,5.976-8.288,5.976-9.442c0-3.289-2.002-4.006-3.53-4.006c-4.687,0-5.978,6.963-5.978,9.408
			C141.142,182.857,142.162,184.723,144.675,184.723z"/>
		<path style="fill:#727272;" d="M159.314,186.829c-1.327,0-2.244,0.036-3.533,0.069l-0.169-0.208
			c1.427-5.33,3.36-14.088,3.701-16.977l0.235-0.236c1.362-0.172,2.345-0.308,3.671-0.577l0.169,0.238
			c-0.272,0.981-0.476,1.866-0.749,2.984c0.51-0.848,2.005-3.359,4.417-3.359c0.746,0,1.22,0.172,1.563,0.375l0.1,0.305
			c-0.509,1.22-0.848,2.072-1.325,3.325l-0.337,0.106c-0.239-0.17-0.78-0.481-1.427-0.481c-0.916,0-3.023,0.481-4.076,4.892
			c-0.306,1.292-1.663,7.131-1.969,9.306L159.314,186.829z"/>
		<path style="fill:#727272;" d="M196.196,186.795c-0.988,0-2.312,0.07-3.669,0.07l-0.138-0.175
			c1.016-4.209,1.731-7.159,2.647-11.409c-1.288-0.033-2.203-0.033-3.463-0.033h-3.566c-1.491,0-2.547,0-4.072,0.103
			c-0.916,3.736-1.634,7.539-2.412,11.275l-0.237,0.203c-1.359,0-2.313,0-3.634,0.069l-0.172-0.238
			c0.378-1.531,4.553-19.392,5.3-23.636l0.24-0.203c1.356,0,2.306-0.034,3.628-0.069l0.169,0.2
			c-0.981,4.078-0.881,3.434-2.206,9.476c0.137,0,1.394,0.036,2.309,0.036c3.025,0,6.453-0.036,8.763-0.102
			c1.191-5.434,1.597-7.434,1.969-9.339l0.234-0.203c1.362,0,2.312-0.034,3.672-0.069l0.134,0.2
			c-2.138,9.17-4.484,19.428-5.266,23.639L196.196,186.795z"/>
		<path style="fill:#727272;" d="M215.952,186.795c-1.216,0.034-2.103,0.07-3.322,0.136l-0.175-0.241l0.409-1.627
			c-1.766,1.456-3.734,2.103-5.534,2.103c-4.144,0-5.059-2.816-5.059-4.652c0-1.22,0.269-2.509,0.881-5.195l0.716-3.158
			c0.338-1.495,0.613-2.547,0.984-4.683l0.237-0.239c1.256,0,2.138-0.07,3.394-0.139l0.169,0.205
			c-1.25,5.161-2.644,10.558-2.644,12.091c0,0.984,0.269,2.919,2.919,2.919c1.528,0,3.056-0.645,4.516-1.972
			c1.766-7.944,2.547-11.784,2.716-12.864l0.269-0.206c1.259-0.033,2.144-0.103,3.434-0.172l0.134,0.239
			c-1.053,3.973-3.462,14.944-3.803,17.252L215.952,186.795z"/>
		<path style="fill:#727272;" d="M245.64,186.829c-1.222,0-2.106,0.036-3.331,0.069l-0.2-0.238c0.506-1.972,0.981-4.04,1.456-6.048
			l0.612-2.614c0.475-2.038,0.678-3.327,0.678-3.972c0-2.273-1.969-2.344-2.547-2.344c-2.103,0-3.803,1.224-4.547,1.869
			c-0.034,0.676-0.237,2.341-0.716,4.447l-0.775,3.569c-0.375,1.73-0.719,3.324-1.022,5.06l-0.241,0.203
			c-1.253,0-2.141,0.036-3.394,0.069l-0.172-0.272c0.544-2.075,2.616-10.428,2.616-12.53c0-2.244-1.903-2.414-2.547-2.414
			c-1.831,0-3.5,1.258-4.109,1.803l-1.122,5.059c-0.644,2.984-1.119,5.058-1.631,8.081l-0.234,0.169
			c-1.291,0.034-2.175,0.034-3.428,0.103l-0.203-0.238c1.319-4.991,3.291-14.161,3.631-16.98l0.2-0.201
			c1.363-0.173,2.313-0.341,3.606-0.578l0.2,0.238l-0.44,1.73c0.95-0.816,3.159-2.07,5.809-2.07c0.778,0,2.85,0.236,3.697,2.476
			c2.822-2.241,5.503-2.476,6.419-2.476c2.481,0,4.619,1.358,4.619,4.142c0,1.156-0.272,2.411-0.575,3.772l-0.581,2.575
			c-0.609,2.684-0.916,4.617-1.491,7.339L245.64,186.829z"/>
		<path style="fill:#727272;" d="M265.302,186.829h-0.881c-0.847,0-1.459,0.036-2.306,0.069l-0.172-0.208l0.234-1.356
			c-1.594,1.292-3.291,1.697-4.959,1.697c-4.006,0-6.281-2.986-6.281-6.622c0-2.511,1.088-4.855,1.6-5.737
			c2.819-4.958,7.844-5.533,11.409-5.533c1.594,0,5.059,0.066,5.059,0.066l0.169,0.239c-2.75,11.986-3.194,13.92-3.634,17.183
			L265.302,186.829z M258.749,184.384c1.053,0,2.753-0.48,3.938-1.7c0.85-3.466,1.528-7.027,2.45-10.931
			c-0.412,0-0.922-0.07-1.463-0.07c-3.262,0-6.556,1.022-8.253,5.059c-0.203,0.48-0.747,1.836-0.747,3.431
			C254.674,182.584,256.102,184.384,258.749,184.384z"/>
		<path style="fill:#727272;" d="M284.93,186.829c-1.284,0-2.172,0.036-3.459,0.102l-0.137-0.241c0.472-2.273,0.95-3.8,1.425-6.042
			l0.819-3.873c0.097-0.505,0.372-1.592,0.372-2.512c0-2.509-2.206-2.614-2.888-2.614c-2.072,0-3.7,1.227-4.484,1.802
			c-0.95,4.378-1.934,8.761-2.75,13.177l-0.238,0.203c-1.288,0-2.172,0.036-3.466,0.102l-0.166-0.241
			c1.119-4.48,3.256-13.922,3.562-16.977l0.238-0.234c1.325-0.173,2.275-0.341,3.603-0.613l0.166,0.234l-0.475,1.733
			c2.484-1.898,4.925-2.07,5.706-2.07c1.019,0,4.925,0.172,4.925,4.514c0,1.122-0.444,3.398-1.122,6.558l-0.509,2.408
			c-0.344,1.633-0.644,2.752-0.844,4.383L284.93,186.829z"/>
		<path style="fill:#727272;" d="M293.255,186.795c-1.325,0-2.278,0.034-3.6,0.103l-0.172-0.208
			c1.084-3.936,3.5-15.144,3.669-16.977l0.237-0.234c1.397-0.173,2.347-0.309,3.7-0.544l0.172,0.234
			c-0.172-0.031-2.987,12.902-3.772,17.456L293.255,186.795z M298.108,164.413c-1.325,0.172-2.241,0.272-3.562,0.48l-0.203-0.273
			c0.272-1.156,0.475-1.969,0.709-3.122l0.306-0.239c1.328-0.17,2.241-0.273,3.534-0.473l0.269,0.236
			c-0.303,1.12-0.509,1.967-0.778,3.122L298.108,164.413z"/>
		<path style="fill:#727272;" d="M305.311,186.76c-1.125,0.27-2.006,0.306-2.447,0.306c-3.228,0-4.041-1.661-4.041-3.362
			c0-1.292,0.712-4.28,1.697-8.391l0.847-3.53h-0.675c-0.647,0-1.125,0-1.769,0.034l-0.169-0.239
			c0.238-0.777,0.406-1.389,0.612-2.239l0.234-0.17c0.888,0.034,1.463,0.034,2.344,0.034c0.409-1.564,0.616-2.686,0.919-4.247
			l0.241-0.236c1.322-0.275,2.237-0.508,3.528-0.848l0.169,0.201c-0.272,0.919-0.441,1.599-0.675,2.516l-0.647,2.614
			c1.391,0,2.34,0,3.7-0.066l0.169,0.233c-0.303,0.819-0.475,1.431-0.712,2.244l-0.237,0.203c-1.291-0.034-2.206-0.034-3.497-0.034
			l-1.834,7.675c-0.169,0.68-0.647,2.784-0.647,3.464c0,1.088,0.784,1.461,1.666,1.461c0.881,0,1.697-0.339,2.003-0.442l0.172,0.172
			c-0.272,0.881-0.478,1.492-0.715,2.375L305.311,186.76z"/>
	</g>
	<g>
		<path style="fill:#727272;" d="M326.036,169.409c-4.075,6.589-13.616,22.58-14.906,25.466l-0.272,0.208h-1.528
			c-0.675,0-1.322,0-2.003,0.03l-0.1-0.238c0.987-1.492,4.347-6.688,5.159-8.184c-1.288-8.453-2.547-16.837-2.716-17.247
			l0.237-0.239c1.294,0,2.209-0.066,3.531-0.17l0.275,0.17c0.166,1.87,0.269,3.189,0.506,5.023l0.988,8.016l3.297-5.841
			c1.284-2.273,2.575-4.584,3.797-7.031l0.272-0.202c0.375,0.034,0.747,0.034,1.122,0.034c0.816,0,1.394-0.034,2.172-0.066
			L326.036,169.409z"/>
	</g>
	<polygon style="fill:#727272;" points="116.78,91.502 116.78,15.636 137.795,15.636 137.795,91.502 116.78,91.502 	"/>
	<polygon style="fill:#727272;" points="148.823,91.502 148.823,15.636 206.611,15.636 206.611,30.345 169.836,30.345 
		169.836,45.999 203.668,45.999 203.668,60.712 169.836,60.712 169.836,76.785 206.611,76.785 206.611,91.502 148.823,91.502 	"/>
	<polygon style="fill:#727272;" points="218.386,91.502 218.386,15.636 276.161,15.636 276.161,30.345 239.396,30.345 
		239.396,45.999 273.214,45.999 273.214,60.712 239.396,60.712 239.396,76.785 276.161,76.785 276.161,91.502 218.386,91.502 	"/>
	<polygon style="fill:#727272;" points="287.927,91.502 287.927,15.636 345.718,15.636 345.718,30.345 308.955,30.345 
		308.955,45.999 342.777,45.999 342.777,60.712 308.955,60.712 308.955,76.785 345.718,76.785 345.718,91.502 287.927,91.502 	"/>
	<path style="fill:#727272;" d="M49.382,16.489c3.35-2.607,7.565-0.442,10.384,1.956c2.952,2.257,6.027,4.813,8.725,7.427
		l0.491,0.281c7.473,6.934,14.413,14.639,20.116,22.787c0.924,1.417,1.741,3.024,1.225,4.906c-1.902,4.753-5.765,8.544-9.143,12.691
		c-7.309,7.869-15.017,15.48-23.648,21.552c-1.746,1.234-4.101,2.374-6.192,1.395c-6.352-3.326-11.709-8.773-17.27-13.737
		c-6.448-5.98-12.921-12.941-17.809-20.223c-0.726-1.024-0.93-2.284-0.909-3.631c0.629-2.515,2.35-4.584,3.98-6.702
		c5.776-7.359,12.849-14.341,19.993-20.717c0.165-0.164,0.47-0.511,0.728-0.677C43.12,21.145,46.168,18.796,49.382,16.489
		L49.382,16.489z M59.202,8.831L55.41,3.456c-0.466-0.284-1.046-0.752-1.559-0.891c-1.12-0.484-2.326,0.101-3.238,0.794l-6.864,8.94
		C32.739,25.936,19.704,38.67,5.483,48.431c-1.124,0.878-2.796,1.735-3.143,3.184c-0.374,1.302,0.305,2.377,1.112,3.185
		c11.388,7.846,22.276,17.156,31.966,27.775c1.721,1.809,3.116,3.605,4.798,5.302c2.834,3.773,6.165,7.572,8.77,11.619
		c0.816,0.856,0.957,2.258,2.235,2.675c1,0.345,2.235,0.581,3.188,0l0.949-0.953C67.14,84.525,82.083,69.536,98.779,57.434
		c1.672-1.494,4.862-2.05,4.908-4.82c-0.119-1.277-0.862-2.536-1.959-3.235l-0.274-0.044c-8.592-5.844-16.596-12.455-24.138-19.953
		l-8.334-8.706C65.604,16.932,62.324,12.787,59.202,8.831L59.202,8.831z M50.613,18.542c3.426-2.334,6.498,0.928,9.152,2.793
		c10.262,8.259,19.946,17.713,27.323,28.39c0.931,1.378,1.351,3.517,0.517,5.076c-1.914,3.193-4.494,6.104-6.941,9.062v0.16
		c-6.101,6.494-12.544,13.172-19.507,18.671c-3.397,2.068-6.516,6.584-10.893,3.787C40.3,79.196,30.764,70.144,22.679,60.433
		c-1.37-2.138-3.511-3.887-4.464-6.307c-1.33-3.279,1.603-5.632,3.282-8.101C29.74,35.859,39.976,25.89,50.613,18.542L50.613,18.542
		z M52.776,25.242l-0.928,2.98l-4.656,13.336c1.166,0.119,2.609,0,3.755,0.119v0.11L50.265,56.87l0.118,0.162
		c1.489,0.144,3.349,0.22,4.866-0.04v-0.238l-0.607-14.632l0.091-0.495l4.097-0.069c-2.044-5.398-4.026-10.851-5.934-16.316H52.776
		L52.776,25.242z M36.93,46.138c-2.611,1.309-6.452,3.287-6.03,6.869c0.56,1.956,2.677,3.218,4.352,4.025
		c9.262,4.08,21.557,4.22,31.335,1.173c2.414-0.933,5.654-2.282,6.098-5.239c-0.027-2.444-2.612-3.982-4.471-4.917v-0.116
		c0.648-0.257,1.393-0.486,2.065-0.558V47.31c-3.276-0.586-6.438-1.442-9.61-2.282c0.611,1.392,1.052,2.86,1.561,4.307
		c0.953-0.305,1.931-0.537,2.959-0.676c1.673,0.651,4.068,1.583,4.305,3.675c0.186,1.955-1.954,2.908-3.306,3.702
		c-7.171,2.61-15.241,2.864-22.721,0.882c-2.067-0.653-5.048-1.489-5.305-4.119c1.467-3.463,5.259-4.184,8.427-5.026
		c-1.628-1.048-3.284-1.977-4.862-3.145C40.024,44.723,38.467,45.468,36.93,46.138L36.93,46.138z M50.172,61.181
		c-0.278,5.356-0.347,10.314-0.742,15.687c2.12,0.191,4.512,0.377,6.773,0.048l-0.674-14.97L55.41,61.23
		C53.687,61.298,52.058,61.368,50.172,61.181L50.172,61.181z"/>
	<g>
		<path style="fill-rule:evenodd;clip-rule:evenodd;fill:#727272;" d="M69.943,91.82c-1.873,0-3.54,1.297-3.54,3.52
			c0,2.231,1.666,3.532,3.54,3.532c1.862,0,3.53-1.301,3.53-3.532C73.474,93.117,71.805,91.82,69.943,91.82z M69.943,98.058v-0.011
			c-1.398,0.011-2.524-1.077-2.524-2.706c0-1.62,1.127-2.698,2.524-2.698c1.365,0,2.527,1.078,2.527,2.698
			C72.471,96.97,71.308,98.058,69.943,98.058z M71.521,94.59c0-0.87-0.574-1.143-1.557-1.143h-1.418v3.793h0.812v-1.594h0.386
			l0.873,1.594h0.967l-0.98-1.663C71.118,95.534,71.521,95.286,71.521,94.59z M70.081,94.999h-0.723v-0.916h0.572
			c0.309,0,0.73,0.032,0.73,0.424C70.659,94.926,70.445,94.999,70.081,94.999z"/>
	</g>
</g>
</svg>
