<?xml version="1.0" encoding="iso-8859-1"?>
<!-- Generator: Adobe Illustrator 26.0.1, SVG Export Plug-In . SVG Version: 6.00 Build 0)  -->
<svg version="1.1" id="Layer_1" xmlns="http://www.w3.org/2000/svg" xmlns:xlink="http://www.w3.org/1999/xlink" x="0px" y="0px"
	 viewBox="0 0 1080 614" style="enable-background:new 0 0 1080 614;" xml:space="preserve">
<g>
	<defs>
		<rect id="SVGID_1_" x="10.868" y="119" width="1058.497" height="389.329"/>
	</defs>
	<clipPath id="SVGID_00000111186458145951033270000007316133464638912687_">
		<use xlink:href="#SVGID_1_"  style="overflow:visible;"/>
	</clipPath>
	<path style="clip-path:url(#SVGID_00000111186458145951033270000007316133464638912687_);fill:#61116A;" d="M452.776,173.658
		c7.29,19.408,6.609,46.16,1.153,67.787c-5.26,20.669-13.946,38.674-23.171,54.751c-38.196,66.485-98.16,111.344-157.881,154.408
		c-3.965-4.97-6.42-10.621-9.852-17.088c-1.349-2.515-3.19-5.456-4.923-8.693c-1.355-2.461-4.248-6.568-4.35-8.982
		c-0.142-3.136,4.397-9.798,6.379-13.325c34.521-62.48,69.473-128.432,103.993-189.752c8.119-0.479,18.208-0.479,26.367,0
		c1.639,5.894,2.171,12.361,2.9,18.835c1.396,12.84,2.603,26.266,4.053,39.396c0.674,6.42,0.196,13.083,2.893,18.538
		c6.757-1.49,11.06-8.012,15.065-13.325c12.165-16.218,21.876-36.935,24.628-61.994c4.053-37.319-16.609-60.881-46.929-66.917
		c-18.107-3.621-36.409-1.16-51.858,2.61c-31.628,7.674-55.911,19.644-80.829,34.467c-9.023,5.361-17.81,10.628-26.651,16.805
		c-2.751,1.929-6.177,5.361-8.692,5.503c-2.461,0.148-5.934-1.976-8.976-3.183c-8.551-3.331-18.592-5.604-30.42-5.793
		c-16.225-0.243-28.869,4.194-40.846,6.946c1.74-4.147,6.184-6.13,9.562-8.686c23.751-17.918,50.982-34.136,79.952-47.219
		c33.603-15.166,70.107-27.426,115.882-29.55C401.639,116.782,438.918,137.013,452.776,173.658"/>
	<path style="clip-path:url(#SVGID_00000111186458145951033270000007316133464638912687_);fill:#61116A;" d="M414.824,449.737
		c0.964,10.864,2.947,21.822,2.03,31.574c-2.509,1.355-7.101,0.877-12.172,0.877c-4.242,0-9.893,0.627-12.159-0.877
		c-1.645-1.059-3.864-6.514-5.22-9.266c-9.798-19.509-18.444-37.225-28.681-56.491c-1.686-3.089-4.633-7.674-4.343-9.852
		c0.384-2.94,4.781-3.911,6.083-6.083c15.065-13.231,28.775-27.811,42.296-42.586c3.379-2.94,3.48,2.994,3.763,5.503
		C409.321,391.796,412.167,420.719,414.824,449.737"/>
	<path style="clip-path:url(#SVGID_00000111186458145951033270000007316133464638912687_);fill:#98002E;" d="M270.557,471.755
		c1.403,2.414,3.331,5.118,3.183,8.113c-2.124,3.041-7.964,2.03-12.455,2.03c-4.828,0-10.331,0.722-14.195-0.297
		c-2.461-0.627-6.177-4.053-8.982-6.373c-30.562-25.005-61.124-49.97-91.828-74.449c-11.349-9.03-22.888-17.479-33.313-27.231
		c-0.533-5.26-0.486-12.408,0-17.668c24.621-6.568,43.982-17.823,60.544-33.32c7.823-7.337,14.775-15.74,20.858-26.071
		c5.644-9.657,11.781-21.242,10.716-36.213c-1.591-21.674-18.633-32.443-41.716-32.443c-17.911,0-30.805,6.278-44.036,11.585
		c-4.1,1.645-8.881,5.118-13.899,2.9c1.106-2.9,4.147-4.828,6.663-6.663c16.798-12.266,39.686-24.769,66.627-26.361
		c44.083-2.61,69.237,25.053,73.296,63.154c4.727,44.852-17.385,74.787-44.906,90.088
		C227.972,399.328,249.167,435.299,270.557,471.755"/>
	<path style="clip-path:url(#SVGID_00000111186458145951033270000007316133464638912687_);fill:#61116A;" d="M210.299,470.595
		c2.704,2.225,5.267,4.006,6.953,6.663c-18.295,7.917-38,13.325-59.674,17.095c-22.112,3.81-47.225,5.017-70.107,0.863
		c-41.669-7.533-72.426-31.722-76.189-77.342c-1.983-23.616,3.426-46.45,10.716-64.894c7.384-18.828,16.994-34.622,27.811-48.958
		c21.728-28.876,47.994-55.041,93.284-60.261c13.13-1.49,24.864,1.45,32.734,7.533c1.74,1.355,6.373,4.687,6.083,6.959
		c-0.29,2.07-7.243,5.166-9.556,6.663c-22.503,14.627-44.569,32.106-62.871,49.532c-16.266,16.03-31.479,32.45-43.739,52.728
		c-11.248,18.538-23.758,49.39-11.585,74.159c15.348,31.338,62.284,38.627,108.053,31.87c9.852-1.45,20.426-3.284,30.42-5.793
		c3.331-0.823,7.047-2.563,9.556-2.32C204.891,465.382,208.128,468.808,210.299,470.595"/>
	<path style="clip-path:url(#SVGID_00000111186458145951033270000007316133464638912687_);fill:#61116A;" d="M440.461,453.739
		c2.569,0,5.078,0.654,7.526,1.976c2.448,1.315,4.35,3.203,5.719,5.658c1.362,2.455,2.05,5.011,2.05,7.681
		c0,2.63-0.681,5.172-2.023,7.6c-1.342,2.435-3.23,4.33-5.658,5.671c-2.428,1.342-4.97,2.023-7.614,2.023
		c-2.657,0-5.193-0.681-7.62-2.023c-2.428-1.342-4.316-3.237-5.671-5.671c-1.349-2.428-2.023-4.97-2.023-7.6
		c0-2.67,0.681-5.226,2.057-7.681c1.369-2.455,3.284-4.343,5.732-5.658C435.383,454.393,437.892,453.739,440.461,453.739
		 M440.461,456.267c-2.151,0-4.248,0.553-6.285,1.659c-2.03,1.099-3.628,2.677-4.774,4.72c-1.146,2.05-1.726,4.188-1.726,6.406
		c0,2.198,0.566,4.316,1.699,6.339c1.126,2.016,2.704,3.594,4.734,4.72c2.03,1.133,4.147,1.693,6.352,1.693
		c2.198,0,4.316-0.56,6.346-1.693c2.03-1.126,3.601-2.704,4.727-4.72c1.119-2.023,1.679-4.141,1.679-6.339
		c0-2.219-0.566-4.356-1.713-6.406c-1.14-2.043-2.731-3.621-4.774-4.72C444.683,456.82,442.592,456.267,440.461,456.267
		 M433.745,477.51v-16.475h5.658c1.935,0,3.331,0.155,4.201,0.459c0.863,0.304,1.551,0.836,2.07,1.591
		c0.512,0.755,0.769,1.564,0.769,2.414c0,1.207-0.432,2.252-1.288,3.143c-0.863,0.897-1.996,1.396-3.419,1.504
		c0.58,0.243,1.052,0.533,1.396,0.87c0.668,0.654,1.477,1.74,2.434,3.264l2.01,3.23h-3.244l-1.463-2.596
		c-1.146-2.043-2.077-3.324-2.778-3.837c-0.486-0.378-1.194-0.566-2.124-0.566h-1.565v7H433.745z M436.402,468.237h3.223
		c1.544,0,2.59-0.229,3.156-0.688c0.56-0.459,0.843-1.072,0.843-1.828c0-0.486-0.135-0.924-0.405-1.308
		c-0.276-0.384-0.647-0.674-1.133-0.863c-0.472-0.189-1.362-0.283-2.664-0.283h-3.021V468.237z"/>
	<path style="clip-path:url(#SVGID_00000111186458145951033270000007316133464638912687_);fill:#98002E;" d="M564.751,293.624
		c-6.022,0.101-12.051,0.31-18.073,0.722l-0.728-0.62c-3.945-11.943-6.231-19.111-9.549-28.451c-1.767,0.101-3.527,0.101-5.3,0.101
		c-2.279,9.138-4.147,18.795-5.813,28.04l-0.722,0.519c-4.579,0-17.452,0.31-17.452,0.31l-0.519-0.62
		c3.014-12.462,13.602-54.111,16.097-72.386l0.62-0.519c5.091,0,18.592-0.209,26.792-0.209c11.943,0,22.328,3.844,22.328,18.174
		c0,11.424-6.852,20.561-19.624,23.576c8.929,22.119,10.695,26.172,12.462,30.528L564.751,293.624z M538.059,253.432
		c8.618,0,16.198-3.844,16.198-12.981c0-6.75-5.395-7.58-10.797-7.58c-0.627,0-1.558,0.101-4.673,0.101
		c-0.519,2.077-1.146,4.154-4.882,20.46H538.059z"/>
	<path style="clip-path:url(#SVGID_00000111186458145951033270000007316133464638912687_);fill:#98002E;" d="M606.816,237.751
		c6.541,0,23.778,2.697,23.778,22.328c0,20.663-11.525,35.202-31.783,35.202c-20.871,0-24.817-12.981-24.817-22.638
		C573.995,265.791,576.8,237.751,606.816,237.751 M599.128,284.275c11.006,0,14.229-19.003,14.229-26.482
		c0-3.534-1.039-9.036-7.789-9.036c-12.462,0-14.229,23.056-14.229,26.273C591.339,282.097,595.183,284.275,599.128,284.275"/>
	<path style="clip-path:url(#SVGID_00000111186458145951033270000007316133464638912687_);fill:#98002E;" d="M630.798,293.412
		c1.558-6.541,3.014-11.835,4.363-17.864l4.984-21.6c3.014-12.982,6.123-25.754,8.106-38.938l0.829-0.728
		c5.921-0.937,11.835-1.976,17.756-3.014l0.519,0.728c-0.829,3.736-1.767,7.27-2.698,10.904l-4.882,19.422
		c1.868-1.248,6.953-4.572,13.71-4.572c13.71,0,17.439,12.152,17.439,20.352c0,10.284-4.774,21.809-12.873,28.35
		c-9.138,7.378-19.941,7.587-30.946,7.587h-7.27c-2.805,0-5.611,0-8.409,0.101L630.798,293.412z M652.917,282.717
		c3.014,0,8.315-0.31,12.88-4.775c4.363-4.262,7.378-11.734,7.378-17.864c0-7.89-4.37-10.075-8.106-10.075
		c-3.837,0-6.541,2.077-7.688,2.805l-6.852,29.908H652.917z"/>
	<path style="clip-path:url(#SVGID_00000111186458145951033270000007316133464638912687_);fill:#98002E;" d="M728.112,237.751
		c6.541,0,23.778,2.697,23.778,22.328c0,20.663-11.525,35.202-31.783,35.202c-20.871,0-24.817-12.981-24.817-22.638
		C695.291,265.791,698.097,237.751,728.112,237.751 M720.425,284.275c11.006,0,14.229-19.003,14.229-26.482
		c0-3.534-1.039-9.036-7.789-9.036c-12.462,0-14.229,23.056-14.229,26.273C712.636,282.097,716.48,284.275,720.425,284.275"/>
	<path style="clip-path:url(#SVGID_00000111186458145951033270000007316133464638912687_);fill:#98002E;" d="M784.187,293.933
		c-4.363,1.038-8.099,1.14-9.556,1.14c-11.835,0-15.578-5.085-15.578-12.152c0-3.945,1.146-8.821,3.432-17.965l3.527-14.33h-1.14
		c-2.286,0-3.952,0.108-6.13,0.209l-0.62-0.728c1.14-3.837,1.868-6.643,2.906-10.486l0.728-0.627h6.953
		c1.146-4.876,1.976-8.301,2.913-13.292l0.722-0.722c6.339-1.457,10.803-2.596,17.034-4.471l0.62,0.728
		c-0.829,2.906-1.349,5.503-4.565,18.073c3.945-0.108,6.75-0.108,10.695-0.317l0.411,0.836c-1.349,3.736-2.279,6.44-3.217,10.385
		l-0.931,0.62c-3.534-0.101-6.029-0.101-9.556-0.101l-4.363,18.174c-1.039,4.363-1.976,8.308-1.976,9.866
		c0,1.868,1.146,4.255,5.193,4.255c2.704,0,4.572-0.829,5.712-1.248l0.627,0.519c-1.248,4.053-1.976,6.851-3.116,10.803
		L784.187,293.933z"/>
	<path style="clip-path:url(#SVGID_00000111186458145951033270000007316133464638912687_);fill:#98002E;" d="M816.696,267.554
		l-1.666,7.688c-1.248,6.022-2.286,12.044-3.325,18.167l-0.721,0.526c-6.029,0-12.051,0.101-17.972,0.411l-0.512-0.728
		c2.387-9.138,4.667-18.484,6.744-27.831l1.146-5.085c1.45-6.44,2.805-12.981,3.527-19.422l0.728-0.728
		c6.13-0.829,12.253-1.767,18.282-2.906l0.62,0.83C821.16,247.822,818.773,257.79,816.696,267.554 M828.74,213.97
		c-0.937,4.673-2.185,9.245-3.325,13.811l-0.829,0.829c-5.611,0.728-11.215,1.558-16.927,2.387l-0.627-0.829
		c1.045-4.565,2.077-9.239,3.014-13.912l0.937-0.728c5.604-0.728,12.044-1.666,17.135-2.286L828.74,213.97z"/>
	<path style="clip-path:url(#SVGID_00000111186458145951033270000007316133464638912687_);fill:#98002E;" d="M863.427,292.686
		c-2.697,1.14-6.858,2.596-13.083,2.596c-15.477,0-24.722-9.657-24.722-24.196c0-14.539,7.789-24.405,15.375-28.977
		c7.27-4.356,15.369-4.356,17.338-4.356c4.673,0,11.114,1.038,15.679,4.255l0.216,0.83c-1.457,4.262-2.394,7.377-3.534,11.842
		l-1.039,0.209c-3.534-4.99-9.245-4.99-9.967-4.99c-11.532,0-16.205,11.842-16.205,19.84c0,6.96,3.534,13.184,11.842,13.184
		c5.503,0,8.618-2.279,11.114-4.147l0.931,0.519c-1.349,4.673-2.178,7.991-3.325,12.664L863.427,292.686z"/>
	<path style="clip-path:url(#SVGID_00000111186458145951033270000007316133464638912687_);fill:#98002E;" d="M875.367,277.836
		c4.464,5.085,9.873,6.75,14.539,6.75c5.503,0,8.827-2.495,8.827-6.022c0-2.906-1.767-4.154-7.061-6.858l-2.286-1.14
		c-3.736-1.868-10.797-5.294-10.797-14.121c0-9.036,6.433-18.693,23.778-18.693c8.618,0,13.811,2.178,17.655,4.154l0.519,0.931
		c-1.349,4.053-2.178,6.959-3.217,11.114l-0.937,0.209c-4.984-5.921-10.695-6.022-12.361-6.022c-4.984,0-8.2,2.178-8.2,5.294
		c0,2.387,1.969,3.945,6.332,6.022l2.387,1.147c4.053,1.969,11.943,5.712,11.943,15.47c0,9.866-7.58,19.32-25.127,19.32
		c-9.556,0-15.686-2.596-19.833-5.193l-0.31-0.937c1.342-4.053,2.07-6.96,3.21-11.114L875.367,277.836z"/>
	<path style="clip-path:url(#SVGID_00000111186458145951033270000007316133464638912687_);fill:#98002E;" d="M1013.281,266.207
		c-3.635,4.673-8.099,8.929-12.982,13.602c2.805,4.464,5.611,8.935,8.517,13.4l-0.31,0.931h-6.022c-6.231,0-8.207,0-12.361,0.209
		l-0.829-0.62c-0.728-1.666-1.659-3.116-2.596-4.572c-6.332,4.154-12.253,6.231-19.32,6.231c-12.145,0-20.453-7.371-20.453-18.174
		c0-5.085,2.178-10.277,5.82-13.912c2.9-2.913,6.015-4.781,14.532-8.827c-3.014-5.51-4.053-9.245-4.053-14.02
		c0-10.702,8.315-17.965,20.777-17.965c11.525,0,18.997,5.813,18.997,14.849c0,8.308-5.503,13.19-16.299,19.415
		c2.387,4.363,4.774,8.625,7.371,12.671c7.998-8.517,8.517-9.246,11.633-14.95h1.039c1.976,3.736,4.356,7.269,6.642,10.904
		L1013.281,266.207z M973.298,265.58c-6.852,3.635-9.037,6.13-9.037,10.183c0,3.945,2.913,6.851,7.169,6.851
		c2.906,0,5.503-1.038,9.455-3.743C978.49,274.407,975.793,270.051,973.298,265.58 M984.512,232.455
		c-3.217,0-5.921,2.697-5.921,6.022c0,2.387,0.627,4.154,2.913,8.726c6.44-4.053,8.409-6.13,8.409-9.556
		C989.914,234.633,987.635,232.455,984.512,232.455"/>
	<path style="clip-path:url(#SVGID_00000111186458145951033270000007316133464638912687_);fill:#98002E;" d="M541.999,198.375
		h-2.697c-3.116,0-5.402,0.101-8.517,0.209l-0.519-0.728c3.217-13.089,14.013-59.924,16.097-72.177l0.62-0.62h3.014
		c3.109,0,5.395,0,8.517-0.209l0.411,0.62c-3.426,13.71-11.633,48.082-16.097,72.386L541.999,198.375z"/>
	<path style="clip-path:url(#SVGID_00000111186458145951033270000007316133464638912687_);fill:#98002E;" d="M602.753,198.478h-21.6
		c-6.959,0-11.734,0-18.693,0.209l-1.457,0.101l-0.519-0.728c7.061-27.622,12.981-57.219,16.205-72.379l0.722-0.728h0.937
		c3.008,0,7.89,0.108,12.462,0.108h12.044c5.712,0,11.424-0.209,15.268-0.209l0.62,0.62c-0.931,2.805-1.45,4.781-2.178,7.688
		l-0.829,0.62c-6.332,0-15.065-0.31-23.886-0.31c-1.767,0-5.091,0.101-5.091,0.101l-5.085,22.638
		c20.764-0.101,23.886-0.31,28.35-0.31l0.418,0.728c-0.836,2.697-1.355,4.572-2.084,7.27l-0.931,0.728
		c-3.635-0.108-19.523-0.108-27.527-0.108c-1.652,7.27-3.318,14.647-5.604,25.134c4.363,0,28.357-0.418,31.155-0.418l0.519,0.519
		c-0.937,3.015-1.666,5.091-2.488,8.106L602.753,198.478z"/>
	<path style="clip-path:url(#SVGID_00000111186458145951033270000007316133464638912687_);fill:#98002E;" d="M659.041,198.478h-21.6
		c-6.959,0-11.734,0-18.693,0.209l-1.457,0.101l-0.519-0.728c7.061-27.622,12.981-57.219,16.205-72.379l0.722-0.728h0.937
		c3.008,0,7.89,0.108,12.462,0.108h12.044c5.712,0,11.424-0.209,15.268-0.209l0.62,0.62c-0.931,2.805-1.45,4.781-2.178,7.688
		l-0.836,0.62c-6.326,0-15.058-0.31-23.886-0.31c-1.76,0-5.085,0.101-5.085,0.101l-5.085,22.638
		c20.764-0.101,23.879-0.31,28.343-0.31l0.425,0.728c-0.836,2.697-1.355,4.572-2.084,7.27l-0.937,0.728
		c-3.628-0.108-19.516-0.108-27.521-0.108c-1.652,7.27-3.318,14.647-5.604,25.134c4.363,0,28.357-0.418,31.155-0.418l0.519,0.519
		c-0.937,3.015-1.666,5.091-2.488,8.106L659.041,198.478z"/>
	<path style="clip-path:url(#SVGID_00000111186458145951033270000007316133464638912687_);fill:#98002E;" d="M715.329,198.478
		h-21.606c-6.953,0-11.727,0-18.687,0.209l-1.457,0.101l-0.519-0.728c7.061-27.622,12.981-57.219,16.198-72.379l0.728-0.728h0.937
		c3.008,0,7.89,0.108,12.455,0.108h12.051c5.712,0,11.424-0.209,15.268-0.209l0.62,0.62c-0.931,2.805-1.45,4.781-2.178,7.688
		l-0.836,0.62c-6.332,0-15.058-0.31-23.886-0.31c-1.76,0-5.085,0.101-5.085,0.101l-5.085,22.638
		c20.764-0.101,23.879-0.31,28.343-0.31l0.418,0.728c-0.829,2.697-1.349,4.572-2.077,7.27l-0.931,0.728
		c-3.641-0.108-19.523-0.108-27.527-0.108c-1.659,7.27-3.318,14.647-5.604,25.134c4.363,0,28.35-0.418,31.155-0.418l0.519,0.519
		c-0.937,3.015-1.666,5.091-2.488,8.106L715.329,198.478z"/>
	<path style="clip-path:url(#SVGID_00000111186458145951033270000007316133464638912687_);fill:#98002E;" d="M485.109,468.044
		c1.14,2.178,7.371,7.991,17.345,7.991c12.152,0,17.345-6.953,17.345-13.292c0-6.541-4.053-9.448-11.741-13.393l-3.426-1.767
		c-6.75-3.426-13.393-7.371-13.393-17.864c0-10.068,7.162-21.809,26.583-21.809c9.657,0,15.888,2.906,20.042,5.712l0.31,0.836
		c-1.039,3.109-1.868,5.395-2.799,8.612l-0.937,0.209c-3.945-5.091-11.424-6.851-15.888-6.851c-10.803,0-15.578,6.022-15.578,12.152
		c0,5.604,3.325,7.89,11.734,12.253l3.014,1.558c6.75,3.527,14.013,8.517,14.013,19.003c0,10.385-7.991,23.367-28.033,23.367
		c-10.075,0-18.282-3.116-21.708-6.44l-0.31-0.931c1.039-3.324,1.558-5.712,2.387-9.144L485.109,468.044z"/>
	<path style="clip-path:url(#SVGID_00000111186458145951033270000007316133464638912687_);fill:#98002E;" d="M570.058,427.847
		c12.874,0,22.227,6.548,22.227,20.359c0,10.904-4.99,36.038-29.497,36.038c-6.548,0-21.6-1.558-21.6-20.77
		C541.189,446.648,550.327,427.847,570.058,427.847 M562.998,476.556c15.679,0,18.275-25.342,18.275-28.869
		c0-10.075-6.13-12.253-10.797-12.253c-14.33,0-18.282,21.289-18.282,28.768C552.195,470.845,555.31,476.556,562.998,476.556"/>
	<path style="clip-path:url(#SVGID_00000111186458145951033270000007316133464638912687_);fill:#98002E;" d="M634.757,481.333
		c-3.635,2.077-9.765,2.906-13.4,2.906c-13.393,0-22.632-10.075-22.632-23.259c0-8.618,3.736-22.018,15.16-28.977
		c6.022-3.635,12.354-4.154,15.166-4.154c7.263,0,12.975,1.767,16.09,4.154l0.31,0.728c-1.14,3.014-1.767,5.193-2.596,8.207
		l-1.039,0.31c-1.659-2.805-6.231-5.193-11.727-5.193c-12.988,0-20.049,13.71-20.049,24.095c0,12.145,9.448,15.679,14.431,15.679
		c1.767,0,7.168-0.209,12.678-4.983l0.823,0.411c-1.14,3.432-1.76,5.82-2.596,9.347L634.757,481.333z"/>
	<path style="clip-path:url(#SVGID_00000111186458145951033270000007316133464638912687_);fill:#98002E;" d="M654.906,482.89
		c-4.046,0-6.959,0.108-11.006,0.31l-0.519-0.62c3.325-12.044,10.695-46.315,11.215-51.926l0.728-0.722
		c4.255-0.526,7.162-0.937,11.323-1.666l0.513,0.728c-0.513-0.101-9.138,39.464-11.525,53.376L654.906,482.89z M669.755,414.456
		c-4.046,0.519-6.852,0.829-10.904,1.457l-0.62-0.836c0.829-3.534,1.45-6.022,2.178-9.549l0.937-0.728
		c4.053-0.519,6.851-0.836,10.803-1.457l0.823,0.728c-0.931,3.426-1.551,6.022-2.381,9.556L669.755,414.456z"/>
	<path style="clip-path:url(#SVGID_00000111186458145951033270000007316133464638912687_);fill:#98002E;" d="M713.479,480.086
		c-3.527,2.077-8.935,4.154-16.926,4.154c-17.756,0-24.095-10.594-24.095-22.53c0-18.174,11.113-33.86,29.078-33.86
		c12.253,0,20.979,5.611,20.979,19.422c0,4.255-0.937,7.89-1.248,9.448l-0.728,0.519c-5.395,0-15.268-0.101-24.297-0.101
		c-4.68,0-8.099,0-12.779,0.202c-0.101,0.627-0.31,2.495-0.31,4.471c0,13.609,11.842,13.912,15.578,13.912
		c8.625,0,13.083-3.318,17.135-6.224l0.829,0.512c-1.14,3.433-1.868,5.82-2.698,9.347L713.479,480.086z M712.131,449.868
		c0.418-2.387,0.513-3.426,0.513-4.572c-0.202-9.448-7.991-10.176-10.695-10.176c-11.936,0-15.989,11.012-17.129,14.85
		C684.819,449.97,705.482,449.868,712.131,449.868"/>
	<path style="clip-path:url(#SVGID_00000111186458145951033270000007316133464638912687_);fill:#98002E;" d="M748.579,482.787
		c-3.426,0.829-6.13,0.937-7.472,0.937c-9.873,0-12.361-5.091-12.361-10.284c0-3.945,2.178-13.089,5.193-25.653l2.596-10.796h-2.077
		c-1.976,0-3.426,0-5.402,0.101l-0.519-0.728c0.728-2.387,1.248-4.255,1.868-6.851l0.728-0.519c2.698,0.101,4.464,0.101,7.162,0.101
		c1.254-4.775,1.875-8.2,2.812-12.981l0.722-0.722c4.053-0.836,6.852-1.558,10.803-2.596l0.519,0.62
		c-0.836,2.805-1.349,4.882-2.077,7.688l-1.976,7.991c4.255,0,7.168,0,11.323-0.202l0.519,0.728
		c-0.937,2.488-1.457,4.356-2.185,6.851l-0.728,0.62c-3.945-0.101-6.75-0.101-10.689-0.101l-5.611,23.468
		c-0.519,2.077-1.976,8.517-1.976,10.594c0,3.324,2.394,4.464,5.091,4.464s5.193-1.038,6.123-1.349l0.526,0.519
		c-0.829,2.697-1.457,4.565-2.185,7.27L748.579,482.787z"/>
	<path style="clip-path:url(#SVGID_00000111186458145951033270000007316133464638912687_);fill:#98002E;" d="M811.826,429.72
		c-12.462,20.15-41.642,69.061-45.587,77.882l-0.836,0.627h-4.673c-2.077,0-4.053,0-6.13,0.101l-0.31-0.728
		c3.014-4.565,13.298-20.454,15.787-25.019c-3.945-25.862-7.789-51.508-8.301-52.755l0.722-0.728c3.945,0,6.75-0.209,10.803-0.519
		l0.829,0.519c0.519,5.712,0.829,9.758,1.558,15.369l3.008,24.506l10.075-17.864c3.945-6.953,7.897-14.02,11.633-21.492l0.829-0.627
		c1.146,0.108,2.286,0.108,3.426,0.108c2.495,0,4.262-0.108,6.642-0.209L811.826,429.72z"/>
	<path style="clip-path:url(#SVGID_00000111186458145951033270000007316133464638912687_);fill:#98002E;" d="M556.132,388.728
		c-6.548,0-11.221,0.101-17.763,0.411l-0.62-0.722c0-4.154,0-7.168-0.519-19.111h-2.286c-2.077,0-6.75-0.101-10.695-0.101h-8.827
		c-5.503,11.525-7.061,14.539-9.036,18.902l-0.728,0.62h-4.154c-4.673,0-7.89,0.101-12.462,0.31l-0.411-1.14
		c10.486-18.484,28.869-53.274,38.526-71.867l0.829-0.519c8.308-0.101,14.229-0.209,22.537-0.411l0.519,0.62
		c1.767,25.963,3.325,46.214,5.712,72.487L556.132,388.728z M521.443,356.743c1.976,0.108,3.426,0.108,5.402,0.108h2.488
		c2.805,0,5.712,0,7.587-0.108c-0.519-20.46-0.836-29.598-0.836-29.598L521.443,356.743z"/>
	<path style="clip-path:url(#SVGID_00000111186458145951033270000007316133464638912687_);fill:#98002E;" d="M612.21,388.726
		c-6.022,0-10.277,0.209-16.198,0.418l-0.519-0.728l1.248-5.193c-2.704,2.906-9.454,6.75-16.205,6.75
		c-3.945,0-14.539-1.457-14.539-13.912c0-3.952,1.457-10.284,2.495-14.748l2.387-10.284c1.349-5.921,2.387-10.068,3.325-16.097
		l0.728-0.62c6.123-0.209,10.385-0.418,16.407-0.829l0.62,0.829c-3.844,16.508-7.998,31.776-7.998,36.557
		c0,2.178,0.728,6.015,6.13,6.015c4.053,0,7.479-2.596,8.827-3.628l4.363-20.15c1.248-5.921,2.488-12.044,3.635-18.174l0.829-0.62
		c6.123-0.209,10.493-0.418,16.717-0.829l0.519,0.829c-2.488,9.967-4.255,17.344-6.541,27.622l-2.286,10.385
		c-1.241,5.813-2.178,9.866-3.217,15.787L612.21,388.726z"/>
	<path style="clip-path:url(#SVGID_00000111186458145951033270000007316133464638912687_);fill:#98002E;" d="M654.271,388.726
		c-4.363,1.038-8.099,1.14-9.556,1.14c-11.835,0-15.578-5.085-15.578-12.145c0-3.945,1.146-8.828,3.426-17.965l3.534-14.33h-1.14
		c-2.286,0-3.952,0.101-6.13,0.202l-0.62-0.722c1.14-3.844,1.868-6.649,2.906-10.493l0.728-0.62h6.953
		c1.146-4.882,1.969-8.308,2.913-13.292l0.722-0.728c6.339-1.457,10.803-2.596,17.034-4.464l0.62,0.722
		c-0.829,2.913-1.349,5.503-4.572,18.073c3.952-0.101,6.75-0.101,10.702-0.31l0.411,0.829c-1.349,3.736-2.279,6.44-3.217,10.385
		l-0.931,0.62c-3.534-0.101-6.029-0.101-9.562-0.101l-4.363,18.174c-1.032,4.363-1.969,8.308-1.969,9.866
		c0,1.868,1.146,4.255,5.193,4.255c2.697,0,4.565-0.829,5.712-1.248l0.62,0.526c-1.241,4.046-1.969,6.851-3.109,10.797
		L654.271,388.726z"/>
	<path style="clip-path:url(#SVGID_00000111186458145951033270000007316133464638912687_);fill:#98002E;" d="M697.684,332.544
		c6.541,0,23.778,2.704,23.778,22.328c0,20.669-11.525,35.208-31.783,35.208c-20.871,0-24.817-12.981-24.817-22.645
		C664.863,360.584,667.668,332.544,697.684,332.544 M689.996,379.068c11.006,0,14.229-19.003,14.229-26.482
		c0-3.527-1.039-9.03-7.789-9.03c-12.462,0-14.229,23.05-14.229,26.266C682.207,376.89,686.051,379.068,689.996,379.068"/>
	<path style="clip-path:url(#SVGID_00000111186458145951033270000007316133464638912687_);fill:#98002E;" d="M804.331,388.726
		c-5.705,0-11.316,0.209-16.926,0.418l-0.519-0.728c1.349-6.123,8.099-32.194,8.099-37.07c0-1.457-0.519-5.509-5.294-5.509
		c-1.868,0-4.983,0.519-8.409,3.426c-0.418,6.75-6.13,29.287-7.688,38.843l-0.728,0.62c-5.604,0.108-11.215,0.209-16.717,0.418
		l-0.519-0.836c0.829-4.464,7.789-31.256,7.789-37.069c0-3.116-1.558-5.402-5.193-5.402c-1.767,0-4.673,0.627-7.688,3.324
		l-3.527,15.578c-1.666,7.479-3.534,15.989-4.882,23.367l-0.627,0.62c-5.705,0-11.424,0.209-17.028,0.418l-0.519-0.728
		c3.844-14.438,10.695-45.486,11.215-52.445l0.728-0.62c5.604-0.829,11.741-1.767,17.446-2.906l0.627,0.728l-1.356,6.123
		c4.68-3.945,10.803-6.75,16.927-6.75c3.743,0,8.517,1.248,11.113,7.479c7.377-5.921,13.919-7.377,18.066-7.377
		c3.54,0,14.647,0.836,14.647,13.292c0,1.666-0.411,4.572-1.666,10.284l-2.178,9.967c-1.558,7.276-3.014,14.647-4.464,21.917
		L804.331,388.726z"/>
	<path style="clip-path:url(#SVGID_00000111186458145951033270000007316133464638912687_);fill:#98002E;" d="M867.272,388.724
		c-5.82,0.108-9.866,0.108-15.686,0.418l-0.519-0.728l0.728-4.572c-2.596,2.704-7.89,6.029-14.957,6.029
		c-12.354,0-17.237-9.974-17.237-19.941c0-9.556,3.534-16.819,5.813-20.454c9.664-15.166,24.614-15.787,35.829-15.787h17.655
		l0.627,0.83c-7.789,32.504-9.765,41.021-11.532,53.585L867.272,388.724z M860.104,345.214c-0.937-0.108-1.558-0.108-3.217-0.108
		c-14.33,0-19.213,14.546-19.213,22.537c0,7.789,3.837,10.385,8.2,10.385c0.728,0,4.572-0.31,7.479-3.217
		C856.051,364.737,857.716,355.391,860.104,345.214"/>
	<path style="clip-path:url(#SVGID_00000111186458145951033270000007316133464638912687_);fill:#98002E;" d="M908.911,388.726
		c-4.356,1.038-8.099,1.14-9.549,1.14c-11.842,0-15.578-5.085-15.578-12.145c0-3.945,1.14-8.828,3.426-17.965l3.527-14.33h-1.14
		c-2.286,0-3.945,0.101-6.13,0.202l-0.62-0.722c1.14-3.844,1.868-6.649,2.906-10.493l0.728-0.62h6.959
		c1.14-4.882,1.969-8.308,2.906-13.292l0.728-0.728c6.332-1.457,10.797-2.596,17.028-4.464l0.62,0.722
		c-0.829,2.913-1.349,5.503-4.565,18.073c3.945-0.101,6.75-0.101,10.695-0.31l0.418,0.829c-1.355,3.736-2.286,6.44-3.223,10.385
		l-0.931,0.62c-3.534-0.101-6.029-0.101-9.556-0.101l-4.363,18.174c-1.039,4.363-1.969,8.308-1.969,9.866
		c0,1.868,1.14,4.255,5.193,4.255c2.698,0,4.565-0.829,5.705-1.248l0.627,0.526c-1.248,4.046-1.976,6.851-3.116,10.797
		L908.911,388.726z"/>
	<path style="clip-path:url(#SVGID_00000111186458145951033270000007316133464638912687_);fill:#98002E;" d="M941.417,362.349
		l-1.659,7.688c-1.248,6.022-2.286,12.044-3.325,18.174l-0.721,0.512c-6.029,0-12.051,0.108-17.972,0.418l-0.519-0.728
		c2.387-9.138,4.673-18.484,6.75-27.824l1.14-5.091c1.457-6.44,2.812-12.981,3.534-19.422l0.728-0.728
		c6.123-0.829,12.253-1.767,18.275-2.906l0.627,0.83C945.881,342.617,943.501,352.584,941.417,362.349 M953.468,308.764
		c-0.937,4.673-2.185,9.246-3.325,13.811l-0.836,0.829c-5.604,0.728-11.215,1.558-16.92,2.387l-0.627-0.829
		c1.038-4.565,2.077-9.239,3.008-13.912l0.944-0.728c5.604-0.728,12.037-1.666,17.129-2.286L953.468,308.764z"/>
	<path style="clip-path:url(#SVGID_00000111186458145951033270000007316133464638912687_);fill:#98002E;" d="M983.688,332.544
		c6.541,0,23.778,2.704,23.778,22.328c0,20.669-11.525,35.208-31.776,35.208c-20.878,0-24.816-12.981-24.816-22.645
		C950.873,360.584,953.672,332.544,983.688,332.544 M976,379.068c11.006,0,14.229-19.003,14.229-26.482
		c0-3.527-1.039-9.03-7.789-9.03c-12.462,0-14.229,23.05-14.229,26.266C968.211,376.89,972.055,379.068,976,379.068"/>
	<path style="clip-path:url(#SVGID_00000111186458145951033270000007316133464638912687_);fill:#98002E;" d="M1040.389,333.064
		l-1.349,5.712c1.868-1.456,8.308-6.231,16.407-6.231c4.046,0,13.919,1.558,13.919,13.71c0,6.332-7.377,37.07-7.897,41.952
		l-0.728,0.519c-5.712,0.108-11.316,0.209-16.927,0.418l-0.411-0.728c2.387-11.114,7.58-31.054,7.58-36.658
		c0-3.426-2.077-5.921-5.712-5.921c-3.014,0-5.82,1.558-8.099,3.223c-2.913,12.981-6.858,31.466-8.207,39.045l-0.728,0.62
		c-5.705,0-11.424,0.209-17.135,0.418l-0.411-0.728c1.868-8.099,10.176-41.75,10.797-52.337l0.829-0.836
		c6.231-0.829,11.741-1.76,17.452-2.906L1040.389,333.064z"/>
</g>
</svg>
