<?xml version="1.0" encoding="iso-8859-1"?>
<!-- Generator: Adobe Illustrator 26.0.1, SVG Export Plug-In . SVG Version: 6.00 Build 0)  -->
<svg version="1.1" id="Layer_1" xmlns="http://www.w3.org/2000/svg" xmlns:xlink="http://www.w3.org/1999/xlink" x="0px" y="0px"
	 viewBox="0 0 1080 614" style="enable-background:new 0 0 1080 614;" xml:space="preserve">
<g>
	<path style="fill:#707073;" d="M162.239,190.941c0.974-0.864,1.899-1.79,2.935-2.585c20.968-16.072,43.095-30.355,66.353-42.889
		c29.244-15.757,59.688-28.6,91.785-37.315c20.851-5.671,42.005-9.455,63.672-10.429c21.441-0.967,42.299,1.392,62.637,8.509
		c33.482,11.711,56.822,42.231,59.551,77.509c2.304,29.786-5.136,57.487-17.108,84.263c-14.447,32.309-34.757,60.751-58.2,87.081
		c-25.781,28.949-55.053,53.963-86.238,76.871c-13.055,9.586-25.823,19.569-38.727,29.354c-1.618,1.227-3.305,2.366-5.259,3.758
		c-3.922-7.179-7.68-14.057-11.437-20.941c-2.516-4.608-4.861-9.318-7.604-13.789c-1.714-2.804-1.652-5.184-0.117-7.974
		c9.312-16.888,18.541-33.825,27.777-50.754c19.583-35.868,39.152-71.742,58.728-107.61c10.882-19.939,21.805-39.858,32.645-59.818
		c1.111-2.036,2.434-2.955,4.855-2.907c7.426,0.151,14.866,0.206,22.291-0.027c3.127-0.096,4.265,1.104,4.56,4.004
		c1.179,11.574,2.496,23.128,3.703,34.695c1.502,14.399,2.907,28.805,4.45,43.198c0.411,3.861,2.894,5.04,5.972,2.633
		c3.12-2.434,6.089-5.197,8.605-8.249c18.733-22.751,29.697-48.8,32.35-78.188c1.268-14.022-1.186-27.482-7.913-39.975
		c-9.373-17.402-24.499-26.974-43.369-31.006c-21.866-4.676-43.383-1.721-64.632,3.95c-36.115,9.634-68.952,26.426-100.225,46.523
		c-6.72,4.32-13.33,8.811-19.878,13.377c-2.427,1.687-4.594,1.989-7.309,0.713c-13.679-6.432-28.174-9.147-43.218-8.79
		c-12.959,0.302-25.596,2.715-37.925,6.706c-1.049,0.343-2.112,0.631-3.168,0.94C162.596,191.497,162.417,191.222,162.239,190.941"
		/>
	<path style="fill:#A2A3A4;" d="M117.238,233.152c6.274-4.478,11.759-8.729,17.567-12.479
		c16.278-10.498,33.708-18.301,52.955-21.517c19.549-3.264,38.48-1.824,56.164,7.981c16.902,9.36,27.708,23.814,32.721,42.156
		c8.496,31.123,5.177,60.888-12.836,88.24c-7.522,11.423-17.697,20.228-29.306,27.386c-1.337,0.823-2.681,1.639-4.306,2.64
		c4.855,8.352,9.531,16.429,14.228,24.499c16.826,28.915,33.66,57.83,50.493,86.745c2.873,4.937,5.773,9.86,8.598,14.818
		c2.009,3.524,0.871,5.863-3.216,5.965c-7.769,0.185-15.551,0.199-23.313-0.055c-1.748-0.055-3.703-1.172-5.136-2.331
		c-38.419-30.897-76.775-61.882-115.166-92.827c-9.236-7.446-18.616-14.722-27.763-22.278c-1.392-1.145-2.51-3.339-2.654-5.136
		c-0.363-4.656-0.254-9.373-0.021-14.049c0.055-1.097,1.172-2.914,2.064-3.093c11.492-2.249,21.791-7.412,32.001-12.795
		c24.081-12.699,43.575-30.334,57.46-53.901c6.157-10.45,10.662-21.517,11.087-33.811c0.741-21.05-11.471-36.204-32.666-40.578
		c-13.165-2.715-26.22-1.289-38.83,2.804c-10.731,3.483-21.146,7.947-31.685,12.027C123.169,234.53,120.735,235.175,117.238,233.152
		"/>
	<path style="fill:#707073;" d="M242.505,494.875c-9.723,3.278-18.376,6.466-27.187,9.119c-20.577,6.199-41.525,10.717-62.98,12.507
		c-25.343,2.105-50.418,0.987-74.698-7.46c-23.244-8.084-42.128-21.695-53.887-43.904c-6.63-12.52-9.75-26.028-10.443-40.105
		c-1.591-32.22,7.734-61.773,22.394-89.927c10.985-21.098,24.993-40.119,41.648-57.035c20.632-20.948,44.754-36.046,74.238-41.107
		c12.486-2.146,25.089-2.701,36.828,3.12c4.587,2.276,8.502,5.972,12.582,9.195c1.858,1.467,1.495,2.729-0.603,4.196
		c-16.655,11.615-33.708,22.751-49.677,35.258C122.93,310.51,98.04,335.27,78.32,364.809
		c-10.669,15.976-19.343,32.926-22.531,52.112c-3.374,20.296,0.459,38.713,15.812,53.483c10.326,9.922,23.087,15.332,36.807,18.678
		c17.354,4.231,34.942,4.752,52.708,3.661c21.064-1.289,41.593-5.417,61.972-10.614c1.2-0.308,2.955-0.343,3.833,0.322
		C231.918,486.208,236.725,490.219,242.505,494.875"/>
	<path style="fill:#707073;" d="M450.035,499.563c-3.202,0-6.404-0.062-9.599,0.021c-2.331,0.055-3.806-0.871-4.875-2.99
		c-7.584-14.961-15.236-29.889-22.888-44.816c-5.616-10.978-11.259-21.942-16.909-32.899c-1.152-2.222-1.508-3.991,0.857-5.958
		c18.04-14.982,34.229-31.87,49.856-49.307c0.309-0.336,0.562-0.768,0.939-0.981c0.939-0.528,1.934-0.96,2.907-1.426
		c0.398,0.898,1.049,1.762,1.152,2.688c0.946,8.838,1.824,17.684,2.681,26.536c1.803,18.486,3.593,36.972,5.355,55.458
		c1.522,15.99,3.051,31.98,4.464,47.984c0.459,5.156-0.199,5.691-5.369,5.691C455.753,499.563,452.894,499.563,450.035,499.563"/>
	<path style="fill:#A2A3A4;" d="M592.944,253.424c6.809-0.35,13.069-0.404,19.261-1.069c5.355-0.576,9.181-4.752,9.641-9.593
		c0.343-3.559-1.694-6.514-5.197-6.747c-6.02-0.391-12.061-0.48-18.088-0.501c-0.775-0.007-2.071,1.035-2.249,1.797
		C595.104,242.384,594.144,247.513,592.944,253.424 M616.497,261.83c4.505,8.907,8.996,17.78,13.878,27.42
		c-5.218,0-9.188,0.11-13.138-0.096c-0.768-0.034-1.776-1.166-2.146-2.016c-2.071-4.82-3.867-9.764-5.979-14.564
		c-4.141-9.442-7.659-11.252-18.205-9.538c-1.639,7.721-3.408,15.489-4.889,23.313c-0.439,2.283-1.282,3.086-3.559,2.962
		c-3.065-0.171-6.15-0.048-10.031-0.048c4.519-21.62,8.948-42.841,13.288-63.631c12.438,0,24.54-0.329,36.615,0.13
		c6.63,0.247,11.341,5.657,12.28,12.356c1.728,12.349-4.423,20.927-16.689,23.299C617.169,261.563,616.435,261.851,616.497,261.83"
		/>
	<path style="fill:#A2A3A4;" d="M844.343,379.228h-12.239c1.282-6.116,2.523-12.061,3.785-18.006
		c0.994-4.69,2.084-9.366,3.003-14.07c1.015-5.156-1.824-7.734-6.898-6.157c-4.107,1.275-6.891,4.306-8.05,8.283
		c-2.064,7.111-3.668,14.344-5.403,21.544c-0.644,2.654-1.125,5.348-1.728,8.269h-12.267c1.351-6.521,2.688-12.959,4.004-19.391
		c0.891-4.361,1.899-8.701,2.606-13.09c0.706-4.409-1.982-6.829-6.336-5.726c-5.671,1.433-8.269,5.863-9.668,11.012
		c-1.371,5.053-2.297,10.23-3.422,15.359c-0.85,3.895-1.701,7.783-2.592,11.869h-12.061c0.075-0.699,0.089-1.371,0.226-2.023
		c3.065-14.619,6.144-29.237,9.264-44.062h11.355c-0.165,1.495-0.336,2.996-0.562,5.053c4.43-3.278,8.653-6.171,14.173-6.192
		c5.712-0.027,10.093,1.707,12.089,7.789c1.145-1.035,2.119-1.954,3.134-2.825c4.601-3.943,9.97-5.485,15.928-4.813
		c5.986,0.679,9.846,5.287,8.88,11.615c-1.337,8.784-3.401,17.464-5.177,26.179C845.755,372.954,845.042,376.04,844.343,379.228"/>
	<path style="fill:#A2A3A4;" d="M1012.46,245.195c0.487,0.158,0.967,0.308,1.447,0.466c2.078-1.536,4.272-2.942,6.199-4.642
		c2.009-1.776,3.127-4.299,1.666-6.692c-0.761-1.241-2.921-2.235-4.471-2.263c-2.667-0.048-5.054,1.598-5.355,4.34
		C1011.63,239.277,1012.247,242.26,1012.46,245.195 M1018.871,276.901c-4.018-5.917-7.817-11.513-11.67-17.19
		c-4.731,2.462-8.262,5.595-8.509,11.177c-0.171,3.888,1.454,7.035,4.971,8.626C1009.141,281.981,1014.051,279.924,1018.871,276.901
		 M1002.915,250.68c-2.174-5.273-3.744-10.361-1.92-15.826c3.531-10.601,19.933-14.728,28.058-7.069
		c4.162,3.929,5.012,8.825,2.503,14.008c-2.222,4.608-5.883,7.782-10.127,10.395c-1.049,0.651-2.132,1.248-3.545,2.071
		c3.291,4.903,6.445,9.606,9.929,14.804c2.132-2.702,3.915-4.964,5.773-7.323c2.969,1.79,5.773,3.49,8.893,5.369
		c-2.393,3.387-4.615,6.535-7.049,9.983c1.885,1.797,3.922,3.744,6.075,5.801c-2.695,2.647-5.28,5.19-8.029,7.899
		c-2.462-1.934-4.875-3.833-7.536-5.924c-6.61,4.601-14.132,6.178-22.223,5.328c-11.039-1.159-18.102-9.236-17.115-19.926
		c0.617-6.678,4.292-11.67,9.682-15.441C998.328,253.396,1000.515,252.168,1002.915,250.68"/>
	<path style="fill:#A2A3A4;" d="M609.107,329.334c-0.233-0.062-0.466-0.123-0.699-0.185c-4.546,8.283-9.085,16.573-13.83,25.233
		h18.17C611.507,345.852,610.307,337.589,609.107,329.334 M628.581,379.354c-3.572,0-6.775,0.171-9.935-0.11
		c-0.905-0.082-2.256-1.365-2.448-2.297c-0.775-3.771-1.179-7.625-1.796-11.938c-5.28,0-10.56,0.514-15.688-0.123
		c-7.419-0.912-12.466,1.166-14.687,8.66c-1.433,4.854-4.69,6.699-9.716,5.862c-2.064-0.343-4.238-0.055-6.925-0.055
		c4.649-8.228,9.003-15.942,13.364-23.656c6.953-12.308,14.015-24.561,20.797-36.965c1.598-2.921,3.401-4.142,6.685-3.771
		c2.592,0.295,5.266-0.137,7.865,0.158c0.974,0.117,2.482,1.248,2.626,2.105c3.339,19.891,6.521,39.803,9.723,59.716
		C628.546,377.605,628.526,378.291,628.581,379.354"/>
	<path style="fill:#A2A3A4;" d="M708.529,269.28c0,0.404-0.034,1.207,0.007,2.002c0.219,4.669,2.674,8.29,6.459,9.565
		c3.572,1.2,7.652-0.151,10.525-3.895c3.826-4.992,5.245-10.875,4.882-17.032c-0.254-4.368-2.366-7.824-6.96-9.126
		c-3.668-1.035-7.59,0.699-10.559,4.669C709.914,259.44,708.672,263.993,708.529,269.28 M704.517,282.301
		c-0.562,2.283-1.063,4.354-1.639,6.692h-11.039c1.31-6.418,2.558-12.644,3.86-18.863c2.935-14.05,5.972-28.079,8.797-42.156
		c0.487-2.42,1.413-3.216,3.812-3.044c2.928,0.199,5.89,0.048,9.12,0.048c-1.474,7.158-2.866,13.947-4.333,21.098
		c2.708-1.241,5.019-2.578,7.508-3.394c10.148-3.332,19.185,1.851,21.16,12.246c1.714,8.982,0.075,17.444-4.731,25.274
		C730.964,290.09,714.562,296.22,704.517,282.301"/>
	<path style="fill:#A2A3A4;" d="M1000.268,351.888c0.151-4.347-1.227-8.029-5.321-9.901c-4.231-1.94-8.338-1.083-11.746,2.057
		c-4.958,4.58-6.493,10.594-6.349,17.066c0.103,4.882,2.736,8.249,6.925,9.517c4.052,1.227,8.338-0.274,11.245-3.86
		C998.541,362.42,1000.07,357.394,1000.268,351.888 M964.401,358.991c0.37-14.584,8.173-24.438,21.187-26.741
		c10.649-1.886,19.912,1.556,24.252,9.346c7.289,13.09-0.199,36.231-19.22,38.439c-3.785,0.439-7.83,0.439-11.506-0.425
		C969.166,377.258,964.126,369.839,964.401,358.991"/>
	<path style="fill:#A2A3A4;" d="M759.91,351.705c0.014-4.957-2.043-8.509-5.787-9.97c-4.141-1.625-9.298-0.37-12.418,3.346
		c-3.991,4.759-5.616,10.416-5.156,16.559c0.357,4.848,2.921,7.981,7.062,9.065c4.457,1.159,8.077-0.432,10.95-3.833
		C758.251,362.512,759.828,357.362,759.91,351.705 M750.318,331.944c11.183-0.041,18.87,4.95,21.05,14.331
		c4.237,18.191-8.825,38.467-32.261,33.55c-8.475-1.783-13.789-7.618-14.872-16.689C722.239,346.412,732.463,331.56,750.318,331.944
		"/>
	<path style="fill:#A2A3A4;" d="M674.88,262.731c0.082-5.986-2.009-9.545-5.945-11.053c-4.128-1.577-9.312-0.254-12.383,3.449
		c-3.881,4.69-5.362,10.278-5.04,16.257c0.233,4.299,2.222,7.728,6.541,9.126c4.368,1.412,8.057,0.007,11.101-3.325
		C673.138,272.838,674.523,267.531,674.88,262.731 M665.287,241.859c16.539-0.158,25.466,12.445,20.749,29.292
		c-4.142,14.811-18.973,22.826-33.667,18.136c-6.438-2.057-10.854-6.226-12.486-12.904
		C636.063,260.784,644.298,241.701,665.287,241.859"/>
	<path style="fill:#A2A3A4;" d="M785.336,262.091c-0.494-2.071-0.624-4.333-1.557-6.192c-2.983-5.904-11.204-6.644-16.34-1.481
		c-4.34,4.375-5.814,9.963-5.842,15.949c-0.021,5.067,2.51,8.825,6.583,10.176c4.19,1.392,8.784-0.164,11.814-4.08
		C783.245,272.266,784.89,267.494,785.336,262.091 M775.702,241.856c16.415,0.24,24.993,12.246,20.611,28.867
		c-4.025,15.256-19.384,23.464-34.332,18.356c-8.763-2.996-13.021-9.997-12.815-21.078
		C749.448,252.464,760.432,241.637,775.702,241.856"/>
	<path style="fill:#A2A3A4;" d="M717.632,198.854c4.471-21.338,8.859-42.32,13.309-63.569h46.455
		c-0.247,1.399-0.597,2.688-0.665,3.998c-0.123,2.221-1.221,2.784-3.339,2.763c-10.745-0.096-21.496,0.027-32.247-0.096
		c-2.482-0.027-3.634,0.583-4.066,3.202c-0.926,5.602-2.222,11.142-3.456,17.156h37.397c-0.514,2.537-0.939,4.649-1.433,7.083
		h-37.479c-1.598,7.604-3.134,14.927-4.759,22.641h40.695c-0.466,2.468-0.857,4.553-1.282,6.822H717.632z"/>
	<path style="fill:#A2A3A4;" d="M708.064,191.988c-0.576,2.613-1.022,4.608-1.508,6.829h-49.012
		c4.464-21.304,8.893-42.443,13.33-63.631H717.3c-0.425,2.317-0.802,4.416-1.241,6.816c-7.159,0-14.221,0-21.29,0
		c-4.916,0-9.833-0.068-14.742,0.069c-0.898,0.027-2.4,0.775-2.551,1.44c-1.433,6.089-2.626,12.232-3.984,18.808h37.205
		c-0.165,1.262-0.384,2.105-0.363,2.941c0.089,3.703-1.934,4.313-5.204,4.251c-9.709-0.199-19.425-0.075-29.141-0.075
		c-1.241,0-2.482,0-4.011,0c-1.577,7.549-3.106,14.865-4.711,22.552H708.064z"/>
	<path style="fill:#A2A3A4;" d="M657.354,135.236c-0.535,2.386-0.994,4.471-1.502,6.747H617.66
		c-1.426,6.774-2.825,13.384-4.313,20.433h37.342c-0.459,2.489-0.836,4.567-1.282,7.021c-3.751,0-7.378,0-11.005,0
		c-7.995,0-15.997-0.048-23.992,0.075c-0.981,0.014-2.64,0.802-2.804,1.515c-1.598,6.85-2.948,13.761-4.45,21.037h40.647
		c-0.35,2.036-0.459,3.758-1.001,5.328c-0.254,0.713-1.378,1.591-2.112,1.591c-15.531,0.027-31.061-0.055-46.592-0.123
		c-0.096,0-0.199-0.11-0.603-0.35c4.388-20.94,8.797-41.998,13.254-63.274H657.354z"/>
	<path style="fill:#A2A3A4;" d="M887.5,357.192c-5.533,1.365-10.169,2.29-14.66,3.689c-2.462,0.775-4.094,3.127-3.326,5.623
		c0.535,1.755,2.324,3.833,4.011,4.402c4.347,1.467,9.647-1.371,11.492-5.712C885.937,363.034,886.437,360.696,887.5,357.192
		 M897.223,379.182h-11.458c-0.363-1.433-0.734-2.907-0.96-3.799c-3.901,1.652-7.666,3.826-11.718,4.834
		c-6.48,1.611-13-2.523-14.763-8.626c-2.153-7.474,0.83-15.332,7.385-17.478c4.813-1.584,10.011-1.982,15.044-2.873
		c1.57-0.281,3.154-0.59,4.738-0.645c2.873-0.103,4.004-1.666,4.128-4.34c0.123-2.832-1.296-4.526-3.888-5.307
		c-3.929-1.179-7.673,0.185-10.306,3.408c-0.569,0.706-1.817,1.248-2.736,1.221c-3.072-0.082-6.137-0.453-9.51-0.741
		c0.583-3.922,3.024-6.521,5.856-8.756c6.082-4.786,19.754-5.677,26.488-1.851c4.793,2.722,6.884,7.645,5.712,13.837
		c-1.269,6.713-2.9,13.377-3.915,20.125C896.784,371.722,897.223,375.397,897.223,379.182"/>
	<path style="fill:#A2A3A4;" d="M1039.044,332.815c-0.295,2.064-0.521,3.62-0.85,5.917c1.351-0.96,2.29-1.611,3.223-2.283
		c4.299-3.113,9.024-4.745,14.399-4.512c7.049,0.308,11.677,4.786,11.142,11.924c-0.398,5.424-1.762,10.786-2.832,16.155
		c-1.166,5.808-2.489,11.581-3.751,17.375c-0.117,0.555-0.315,1.09-0.521,1.796h-12.102c2.119-9.99,4.23-19.878,6.329-29.772
		c0.597-2.818,1.412-5.821-1.557-7.796c-2.818-1.872-5.691-0.974-8.406,0.542c-4.1,2.276-6.905,5.698-8.016,10.21
		c-1.961,7.968-3.799,15.969-5.383,24.019c-0.494,2.537-1.515,3.147-3.854,3.003c-2.832-0.178-5.677-0.041-9.051-0.041
		c1.056-5.101,2.023-9.853,3.01-14.598c2.05-9.826,4.169-19.631,6.116-29.47c0.357-1.776,0.898-2.592,2.818-2.503
		C1032.715,332.918,1035.677,332.815,1039.044,332.815"/>
	<path style="fill:#A2A3A4;" d="M620.915,423.815c-2.804-11.67-15.867-16.724-25.925-10.409c-5.341,3.353-5.917,10.114-0.727,13.659
		c3.819,2.613,8.242,4.347,12.424,6.411c2.66,1.317,5.437,2.393,8.05,3.785c12.088,6.452,12.808,20.934,1.46,28.661
		c-8.914,6.068-25.761,6.013-34.544-0.24c-5.725-4.08-6.754-10.134-6.836-16.799c2.722-0.288,5.156-0.549,7.721-0.823
		c0.219,1.769,0.343,3.346,0.624,4.889c0.747,4.107,2.969,7.159,6.87,8.736c5.931,2.393,12.006,2.674,18.054,0.487
		c5.266-1.913,8.742-6.898,7.33-11.238c-0.775-2.379-2.606-4.964-4.697-6.246c-4.45-2.729-9.421-4.58-14.091-6.96
		c-2.736-1.385-5.533-2.804-7.92-4.69c-8.605-6.795-7.981-19.837,1.584-25.109c10.059-5.547,20.632-5.465,30.684,0.363
		c5.355,3.106,7.529,8.317,7.584,14.824C625.976,423.356,623.521,423.575,620.915,423.815"/>
	<path style="fill:#A2A3A4;" d="M675.277,332.921h12.15c-3.511,15.483-6.994,30.849-10.505,46.304h-11.238
		c0.219-1.7,0.439-3.332,0.555-4.217c-4.279,1.749-8.578,4.169-13.186,5.252c-7.11,1.666-12.836-2.935-13.014-10.251
		c-0.096-4.045,0.686-8.166,1.522-12.164c1.721-8.249,3.737-16.443,5.677-24.842h12.28c-1.584,7.062-3.12,13.933-4.663,20.803
		c-0.775,3.456-1.666,6.884-2.276,10.368c-0.459,2.612-0.679,5.341,2.235,6.939c2.729,1.502,5.081,0.398,7.289-1.193
		c3.593-2.585,5.767-6.178,6.809-10.388c1.913-7.741,3.648-15.531,5.479-23.299C674.646,335.143,674.969,334.066,675.277,332.921"/>
	<path style="fill:#A2A3A4;" d="M953.081,253.627c-1.474,0.322-2.578,0.61-3.696,0.802c-2.461,0.418-4.93,0.788-7.446,1.193
		c-2.983-5.499-8.009-5.869-13.124-4.957c-1.598,0.281-3.559,2.256-4.018,3.84c-0.267,0.946,1.803,3.23,3.278,3.874
		c3.524,1.557,7.399,2.311,10.985,3.758c2.606,1.049,5.266,2.345,7.398,4.128c4.251,3.545,4.505,10.079,1.557,15.373
		c-6.87,12.356-34.599,11.567-40.386-0.836c-0.569-1.227-1.097-2.475-1.838-4.155c3.634-0.576,6.925-1.255,10.258-1.529
		c0.898-0.076,2.208,0.85,2.804,1.687c3.511,4.889,10.683,6.637,15.771,3.38c1.234-0.788,2.441-2.626,2.455-3.997
		c0.014-1.097-1.591-2.695-2.839-3.243c-4.381-1.913-8.934-3.421-13.391-5.177c-4.457-1.749-7.481-4.697-7.892-9.778
		c-0.446-5.458,1.701-9.798,6.281-12.445c8.557-4.958,17.649-5.047,26.659-1.31C949.749,245.831,952.08,249.129,953.081,253.627"/>
	<path style="fill:#A2A3A4;" d="M903.992,257.25c-3.703,0.418-7.412,0.837-11.067,1.255c-2.811-6.692-4.971-8.694-9.764-7.241
		c-2.9,0.878-5.883,3.161-7.68,5.636c-3.511,4.848-4.361,10.751-4.025,16.676c0.178,3.14,1.639,5.814,4.841,6.857
		c3.374,1.097,6.281-0.13,8.811-2.42c0.165-0.151,0.411-0.288,0.48-0.48c2.283-6.754,7.296-5.081,12.143-3.95
		c0.775,0.178,1.57,0.247,2.359,0.377c0.103,0.014,0.192,0.11,0.288,0.164c-1.351,7.748-9.668,15.085-18.335,16.045
		c-8.091,0.898-15.407-0.487-20.104-7.981c-4.971-7.933-3.374-22.401,3.175-30.746c6.336-8.057,18.191-11.732,27.79-8.599
		C899.46,244.983,903.307,249.879,903.992,257.25"/>
	<path style="fill:#A2A3A4;" d="M757.942,441.965h26.001c0.878-9.668-4.512-15.243-13.131-13.892
		C764.792,429.02,759.382,434.759,757.942,441.965 M790.827,448.02h-34.078c-1.584,5.725,0.377,11.677,4.621,14.495
		c3.956,2.64,9.517,2.105,14.008-1.454c1.241-0.987,2.379-2.153,3.38-3.38c3.394-4.176,3.908-4.361,9.284-2.681
		c-2.098,9.195-13.103,16.347-23.491,15.27c-9.929-1.028-15.921-8.016-16.1-18.767c-0.213-12.754,6.157-23.759,16.161-27.935
		c11.643-4.854,23.772,0.405,26.083,11.725C791.499,439.209,790.827,443.432,790.827,448.02"/>
	<path style="fill:#A2A3A4;" d="M716.766,371.207c-0.658,3.086-1.241,5.849-1.892,8.893c-3.771,0-7.419,0.35-10.971-0.075
		c-5.835-0.7-8.9-4.793-7.899-10.607c1.371-7.961,3.154-15.853,4.745-23.773c0.219-1.09,0.37-2.194,0.597-3.524
		c-2.05-0.199-3.806-0.377-5.945-0.59c0.61-2.969,1.179-5.712,1.728-8.4c0.549-0.137,0.871-0.281,1.2-0.288
		c5.047-0.171,4.951-0.192,6.219-5.177c0.322-1.262,1.2-2.708,2.256-3.408c3.792-2.516,7.776-4.752,12.095-7.337
		c-1.063,5.396-2.05,10.415-3.106,15.819h7.467c-0.549,2.804-0.789,5.3-1.618,7.577c-0.288,0.782-2.139,1.543-3.154,1.406
		c-3.778-0.535-5.163,1.069-5.719,4.663c-0.905,5.849-2.297,11.622-3.49,17.423c-1.337,6.507-0.83,7.145,5.725,7.22
		C715.449,371.036,715.888,371.118,716.766,371.207"/>
	<path style="fill:#A2A3A4;" d="M934.233,316.976c-1.172,5.897-2.098,10.573-3.113,15.654h7.522
		c-0.549,2.853-0.816,5.328-1.591,7.625c-0.254,0.754-1.824,1.44-2.832,1.508c-4.985,0.309-4.985,0.233-6.075,5.252
		c-1.214,5.568-2.462,11.128-3.641,16.703c-1.358,6.411-0.644,7.289,5.746,7.302c0.439,0,0.878,0.076,1.783,0.158
		c-0.61,2.983-1.186,5.808-1.838,8.969c-3.661,0-7.206,0.363-10.642-0.076c-6.493-0.823-9.442-5.094-8.201-11.691
		c1.474-7.844,3.236-15.633,4.855-23.443c0.178-0.864,0.261-1.755,0.425-2.9c-2.016-0.137-3.792-0.261-5.931-0.411
		c0.624-3.079,1.2-5.904,1.79-8.811c0.919,0,1.502-0.089,2.043,0.014c3.277,0.596,4.93-0.693,4.985-4.066
		c0.048-2.681,1.598-4.237,3.908-5.451C926.828,321.529,930.064,319.438,934.233,316.976"/>
	<path style="fill:#A2A3A4;" d="M829.101,226.776c-1.166,5.842-2.133,10.724-3.168,15.921h7.405c-0.192,1.365-0.295,2.434-0.5,3.49
		c-1.077,5.341-1.083,5.458-6.493,5.554c-1.961,0.041-2.592,0.94-2.914,2.544c-1.44,7.042-2.599,14.152-4.443,21.092
		c-1.097,4.114,1.159,6.075,5.06,5.643c0.768-0.082,1.557-0.014,2.846-0.014c-0.548,2.688-0.98,5.218-1.639,7.693
		c-0.151,0.576-1.063,1.351-1.618,1.351c-3.744-0.027-7.577,0.22-11.204-0.507c-4.409-0.878-6.747-3.991-6.267-8.509
		c0.631-5.986,1.989-11.896,3.113-17.828c0.699-3.668,1.55-7.302,2.414-11.321h-5.78c0.233-8.043,0.521-8.406,7.405-9.421
		c0.741-2.448,0.734-5.814,2.386-7.206C819.488,232.07,824.089,229.848,829.101,226.776"/>
	<path style="fill:#A2A3A4;" d="M640.759,448.594c-0.007,9.298,2.235,13.302,7.282,15.215c4.848,1.838,10.477,0.151,14.694-4.621
		c4.58-5.191,6.528-11.485,6.569-18.246c0.034-5.41-1.742-10.292-7.391-12.322c-5.499-1.975-10.319-0.267-14.331,3.792
		C642.555,437.506,640.917,443.904,640.759,448.594 M633.045,451.281c0.117-7.508,1.865-13.885,5.917-19.555
		c5.431-7.597,12.98-10.587,22.017-9.716c8.64,0.837,14.392,6.795,15.647,15.558c2.119,14.811-5.698,28.469-18.527,31.966
		C646.244,472.778,632.304,467.045,633.045,451.281"/>
	<path style="fill:#A2A3A4;" d="M819.241,487.524v-6.987c7.906,0.782,14.022-3.291,15.215-10.772
		c0.473-2.996-0.699-6.274-1.214-9.408c-1.886-11.471-3.819-22.943-5.698-34.421c-0.144-0.864-0.021-1.776-0.021-2.64
		c6.754-1.145,6.973-1.063,7.926,5.28c1.55,10.258,2.976,20.529,4.567,31.541c0.809-1.2,1.365-1.906,1.797-2.688
		c5.444-9.757,10.882-19.528,16.299-29.306c3.195-5.767,3.175-5.773,10.429-4.875c-0.377,0.843-0.658,1.646-1.07,2.379
		c-9.38,16.71-18.753,33.427-28.174,50.123c-1.344,2.379-2.777,4.731-4.429,6.905C830.883,487.921,825.857,489.457,819.241,487.524"
		/>
	<path style="fill:#A2A3A4;" d="M714.258,452.625c2.132,0.267,4.464,0.562,6.822,0.864c-2.66,11.691-13.672,18.842-24.89,16.449
		c-6.233-1.323-11.129-6.349-12.082-12.966c-1.241-8.64,0.199-16.936,4.772-24.403c4.868-7.94,12.349-11.286,21.537-10.614
		c8.214,0.603,12.904,5.677,13.954,15.016c-2.318,0.274-4.642,0.555-6.665,0.795c-0.466-0.418-0.734-0.535-0.761-0.7
		c-0.768-4.567-2.9-8.036-7.796-8.797c-5.41-0.837-9.771,1.412-12.63,5.856c-4.286,6.658-5.691,14.159-4.752,21.976
		c0.459,3.874,2.599,6.953,6.528,8.036c4.423,1.227,8.173-0.61,11.033-3.853C711.179,458.186,712.42,455.539,714.258,452.625"/>
	<path style="fill:#A2A3A4;" d="M805.657,428.852c-2.078-0.103-3.758-0.192-5.856-0.295c0.315-1.858,0.61-3.572,0.885-5.163
		c0.425-0.199,0.624-0.363,0.83-0.377c5.568-0.391,6.089-0.343,6.541-5.835c0.514-6.226,4.909-8.077,9.949-10.751
		c-1.125,5.718-2.139,10.854-3.216,16.298c2.688,0.123,4.923,0.226,7.542,0.35c-0.411,1.982-0.768,3.717-1.104,5.335
		c-0.336,0.11-0.446,0.171-0.555,0.178c-7.33,0.501-7.357,0.494-8.88,7.782c-1.46,7.028-2.935,14.057-4.265,21.112
		c-1.042,5.54-0.055,6.548,5.506,6.137c0.542-0.041,1.083-0.137,1.632-0.213c-0.082,6.219-0.617,6.775-6.404,6.678
		c-6.294-0.103-9.819-2.681-9.071-7.563c1.378-9.003,3.408-17.896,5.163-26.837C804.786,433.494,805.191,431.299,805.657,428.852"/>
	<path style="fill:#A2A3A4;" d="M832.299,289.267c3.298-15.764,6.48-30.986,9.689-46.311h12.301
		c-2.208,10.553-4.375,20.906-6.534,31.253c-0.836,4.018-1.755,8.016-2.468,12.054c-0.37,2.105-1.09,3.223-3.497,3.051
		C838.847,289.109,835.885,289.267,832.299,289.267"/>
	<path style="fill:#A2A3A4;" d="M959.477,332.819c-1.557,7.474-2.983,14.358-4.429,21.249c-1.591,7.577-3.271,15.133-4.731,22.73
		c-0.377,1.975-1.118,2.688-3.113,2.592c-3.058-0.144-6.137-0.034-9.723-0.034c1.056-5.026,2.05-9.75,3.038-14.482
		c2.057-9.798,4.169-19.597,6.103-29.422c0.377-1.913,0.974-2.777,3.037-2.674C952.716,332.936,955.788,332.819,959.477,332.819"/>
	<path style="fill:#A2A3A4;" d="M595.412,135.015c-2.839,13.576-5.595,26.824-8.379,40.071c-1.426,6.802-3.079,13.57-4.258,20.419
		c-0.494,2.887-1.557,3.991-4.416,3.593c-1.33-0.185-2.708-0.034-4.615-0.034c1.323-6.308,2.571-12.267,3.826-18.232
		c2.928-13.947,6.007-27.866,8.688-41.861c0.645-3.387,1.968-4.436,5.136-3.984C592.607,135.159,593.869,135.015,595.412,135.015"/>
	<path style="fill:#707073;" d="M505.767,498.751c9.997,0.014,17.656-7.556,17.656-17.437c-0.007-9.545-7.844-17.437-17.389-17.519
		c-9.716-0.082-17.67,7.858-17.622,17.601C488.454,491.202,495.997,498.744,505.767,498.751 M484.409,481.293
		c0.007-11.869,9.394-21.27,21.338-21.366c11.972-0.089,21.715,9.483,21.77,21.386c0.048,11.821-9.709,21.551-21.626,21.565
		C493.919,502.892,484.402,493.334,484.409,481.293"/>
	<path style="fill:#A2A3A4;" d="M736.252,423.136h7.652c-1.248,6.061-2.42,11.835-3.627,17.601
		c-1.721,8.256-3.648,16.477-5.102,24.78c-0.562,3.236-1.906,4.258-4.937,3.799c-1.104-0.164-2.256-0.027-3.648-0.027
		C729.855,453.704,733.05,438.448,736.252,423.136"/>
	<path style="fill:#A2A3A4;" d="M963.037,315.134c-2.976,13.926,0.747,10.779-14.365,10.854c0.775-3.675,1.529-7.241,2.29-10.854
		H963.037z"/>
	<path style="fill:#A2A3A4;" d="M857.966,224.989c-0.665,3.387-1.125,6.425-1.94,9.359c-0.206,0.727-1.529,1.57-2.386,1.618
		c-3.168,0.192-6.349,0.075-10.093,0.075c0.665-3.421,1.207-6.589,1.947-9.709c0.13-0.549,1.07-1.262,1.659-1.282
		C850.65,224.927,854.154,224.989,857.966,224.989"/>
	<path style="fill:#A2A3A4;" d="M738.508,413.444c1.159-8.921,1.755-9.455,8.756-7.81
		C746.078,415.137,746.962,414.122,738.508,413.444"/>
	<path style="fill:#707073;" d="M500.794,479.908c2.331,0,4.354,0.398,6.089-0.137c1.173-0.363,2.53-1.968,2.695-3.168
		c0.11-0.843-1.495-2.475-2.612-2.797c-1.865-0.542-3.95-0.322-6.171-0.432V479.908z M515.578,492.155
		c-3.696,1.2-5.746,0.418-7.117-2.921c-1.282-3.134-2.928-6.425-7.851-5.54v8.804h-4.354V470.35c4.073,0,8.139-0.062,12.205,0.021
		c3.291,0.069,5.424,1.824,5.965,5.053c0.542,3.237-1.035,5.472-3.956,6.816c-0.384,0.178-0.782,0.302-1.049,0.405
		C511.484,485.833,513.479,488.918,515.578,492.155"/>
</g>
</svg>
